<?xml version="1.0" standalone="no"?>
<!DOCTYPE svg PUBLIC "-//W3C//DTD SVG 1.1//EN" "http://www.w3.org/Graphics/SVG/1.1/DTD/svg11.dtd" >
<svg>
<metadata>
Created by FontForge 20090622 at Sun May 24 06:25:52 2015
 By deploy user
Copyright (c) 2012 by Frantisek Storm. www.stormtype.com. All rights reserved.
</metadata>
<defs>
<font id="TriviaSlabRegular" horiz-adv-x="603" >
  <font-face 
    font-family="Trivia Slab Regular"
    font-weight="400"
    font-stretch="normal"
    units-per-em="1000"
    panose-1="2 0 5 6 9 0 0 2 0 3"
    ascent="800"
    descent="-200"
    x-height="500"
    cap-height="700"
    bbox="-92 -227 1359 875"
    underline-thickness="50"
    underline-position="-100"
    unicode-range="U+0020-U+F6C3"
  />
<missing-glyph horiz-adv-x="225" 
 />
    <glyph glyph-name="f_f" unicode="ff" horiz-adv-x="627" 
d="M257 710q34 0 72 -7v-72q-32 8 -62 8q-82 0 -82 -89v-50h204v49q0 79 42 120t116 41q36 0 72 -7v-72q-32 8 -61 8q-82 0 -82 -89v-50h143v-73h-143v-354h67v-73h-221v73h67v354h-204v-354h63v-73h-217v73h68v354h-77v73h77v49q0 80 41.5 120.5t116.5 40.5z" />
    <glyph glyph-name="f_i" unicode="fi" horiz-adv-x="567" 
d="M473 584h-89v80h89v-80zM261 710q32 0 56 -5v-71q-20 5 -48 5q-84 0 -84 -89v-50h286v-427h68v-73h-217v73h63v354h-200v-354h64v-73h-217v73h67v354h-77v73h77v49q0 80 42 120.5t120 40.5z" />
    <glyph glyph-name="f_j" unicode="fj" horiz-adv-x="558" 
d="M259 710q34 0 58 -5v-71q-20 5 -48 5q-84 0 -84 -89v-50h286v-555q0 -78 -48.5 -119t-117.5 -42v69q40 0 60 21.5t20 74.5v478h-200v-354h68v-73h-221v73h67v354h-77v73h77v49q0 79 42.5 120t117.5 41zM384 664h89v-80h-89v80z" />
    <glyph glyph-name="f_l" unicode="fl" horiz-adv-x="566" 
d="M300 710q78 0 171 -17v-620h68v-73h-217v73h63v558q-38 8 -86 8q-114 0 -114 -89v-50h135v-73h-135v-354h63v-73h-217v73h68v354h-77v73h77v49q0 79 54.5 120t146.5 41z" />
    <glyph glyph-name="f_f_i" unicode="ffi" horiz-adv-x="857" 
d="M257 710q34 0 72 -7v-72q-32 8 -62 8q-82 0 -82 -89v-50h204v49q0 79 42 120t116 41q32 0 56 -5v-71q-19 5 -47 5q-80 0 -80 -89v-50h286v-427h67v-73h-217v73h63v354h-199v-354h63v-73h-217v73h67v354h-204v-354h63v-73h-217v73h68v354h-77v73h77v49q0 80 41.5 120.5
t116.5 40.5zM763 584h-89v80h89v-80z" />
    <glyph glyph-name="f_f_j" unicode="ffj" horiz-adv-x="847" 
d="M674 664h89v-80h-89v80zM257 710q34 0 72 -7v-72q-32 8 -62 8q-82 0 -82 -89v-50h204v49q0 79 42 120t116 41q32 0 56 -5v-71q-19 5 -47 5q-80 0 -80 -89v-50h286v-555q0 -78 -48.5 -119t-117.5 -42v69q40 0 59.5 21.5t19.5 74.5v478h-199v-354h63v-73h-217v73h67v354
h-204v-354h63v-73h-217v73h68v354h-77v73h77v49q0 80 41.5 120.5t116.5 40.5z" />
    <glyph glyph-name="f_f_k" unicode="ffk" horiz-adv-x="1105" 
d="M257 710q34 0 72 -7v-72q-32 8 -62 8q-82 0 -82 -89v-50h204v49q0 79 54.5 120t146.5 41q82 0 176 -17v-620h64v-73h-218v73h68v558q-38 8 -92 8q-112 0 -112 -89v-50h135v-73h-135v-354h63v-73h-217v73h67v354h-204v-354h63v-73h-217v73h68v354h-77v73h77v49
q0 80 41.5 120.5t116.5 40.5zM878 500h218v-73h-59l-166 -163l171 -191h57v-73h-110l-216 256l169 171h-64v73z" />
    <glyph glyph-name="f_f_l" unicode="ffl" horiz-adv-x="855" 
d="M257 710q34 0 72 -7v-72q-32 8 -62 8q-82 0 -82 -89v-50h204v49q0 79 54.5 120t146.5 41q78 0 172 -17v-620h68v-73h-218v73h63v558q-37 8 -85 8q-114 0 -114 -89v-50h135v-73h-135v-354h63v-73h-217v73h67v354h-204v-354h63v-73h-217v73h68v354h-77v73h77v49
q0 80 41.5 120.5t116.5 40.5z" />
    <glyph glyph-name="T_h" unicode="Th" horiz-adv-x="1076" 
d="M16 700h644v-298q43 108 164 108q78 0 117.5 -48t39.5 -136v-253h67v-73h-217v73h63v236q0 62 -23 94.5t-76 32.5q-56 0 -95 -39.5t-40 -116.5v-207h63v-73h-217v73h67v554h-220v-554h87v-73h-269v73h88v554h-158v-95h-85v168z" />
    <glyph glyph-name=".notdef" horiz-adv-x="225" 
 />
    <glyph glyph-name=".null" horiz-adv-x="0" 
 />
    <glyph glyph-name="nonmarkingreturn" horiz-adv-x="333" 
 />
    <glyph glyph-name="space" unicode=" " horiz-adv-x="225" 
 />
    <glyph glyph-name="exclam" unicode="!" horiz-adv-x="300" 
d="M96 700h108l-13 -523h-82zM105 90h90v-90h-90v90z" />
    <glyph glyph-name="quotedbl" unicode="&#x22;" horiz-adv-x="369" 
d="M132 510h-52l-18 190h98zM280 510h-53l-18 190h98z" />
    <glyph glyph-name="numbersign" unicode="#" horiz-adv-x="677" 
d="M252 0h-82v191h-105v65h105v187h-105v65h105v192h82v-192h174v192h82v-192h104v-65h-104v-187h104v-65h-104v-191h-82v191h-174v-191zM252 443v-187h174v187h-174z" />
    <glyph glyph-name="dollar" unicode="$" horiz-adv-x="615" 
d="M332 -98h-55v88q-104 3 -223 33v161h84v-97q67 -18 139 -22v256q-116 16 -174 57.5t-58 132.5q0 80 60 136t172 62v81h55v-81q92 -3 210 -30v-158h-85v94q-58 15 -125 19v-235q113 -17 175.5 -61t62.5 -133q0 -87 -62.5 -146.5t-175.5 -67.5v-89zM476 192q0 55 -36.5 81
t-107.5 39v-246q70 6 107 41.5t37 84.5zM138 519q0 -53 34.5 -77t104.5 -35v227q-71 -5 -105 -37t-34 -78z" />
    <glyph glyph-name="percent" unicode="%" horiz-adv-x="838" 
d="M219 647q-47 0 -72.5 -34.5t-25.5 -94.5q0 -59 26.5 -94t71.5 -35q49 0 74 34t25 95q0 59 -26.5 94t-72.5 35zM219 710q78 0 123.5 -53t45.5 -139q0 -85 -45.5 -139t-122.5 -54q-78 0 -123 53t-45 139q0 85 45 139t122 54zM638 700h97l-534 -700h-97zM618 312
q-47 0 -72.5 -34.5t-25.5 -94.5q0 -59 26.5 -93.5t71.5 -34.5q48 0 73.5 34t25.5 94q0 59 -26.5 94t-72.5 35zM618 375q78 0 123.5 -53t45.5 -139q0 -85 -45.5 -139t-122.5 -54q-78 0 -123 53t-45 139q0 85 45 139t122 54z" />
    <glyph glyph-name="ampersand" unicode="&#x26;" horiz-adv-x="765" 
d="M389 710q103 0 191 -22v-151h-86v87q-44 12 -108 12q-65 0 -98.5 -34.5t-33.5 -81.5q0 -76 70 -170t172 -170q64 85 82 206h-84v74h246v-74h-69q-35 -141 -118 -245q111 -70 187 -70v-80q-100 0 -241 91q-101 -91 -226 -91q-109 0 -169 61.5t-60 149.5q0 68 39.5 124
t113.5 78q-27 62 -27 113q0 82 55 137.5t164 55.5zM285 66q88 0 157 56q-146 109 -222 236q-44 -16 -67.5 -54t-23.5 -83q0 -65 40.5 -110t115.5 -45z" />
    <glyph glyph-name="quotesingle" unicode="'" horiz-adv-x="221" 
d="M132 510h-52l-18 190h98z" />
    <glyph glyph-name="parenleft" unicode="(" horiz-adv-x="358" 
d="M344 710v-58q-81 -10 -125 -116t-44 -287t44 -286.5t125 -115.5v-58q-118 11 -191 133.5t-73 326.5t73 326.5t191 134.5z" />
    <glyph glyph-name="parenright" unicode=")" horiz-adv-x="358" 
d="M14 710q118 -12 191 -134.5t73 -325.5q0 -204 -73 -327t-191 -134v58q81 10 125 115.5t44 287.5q0 181 -44 286.5t-125 115.5v58z" />
    <glyph glyph-name="asterisk" unicode="*" horiz-adv-x="463" 
d="M194 700h73l-8 -130l126 46l22 -69l-130 -30l85 -110l-58 -42l-72 116l-73 -116l-57 42l86 110l-132 30l22 69l125 -46z" />
    <glyph glyph-name="plus" unicode="+" 
d="M337 554v-217h217v-72h-217v-217h-72v217h-216v72h216v217h72z" />
    <glyph glyph-name="comma" unicode="," horiz-adv-x="237" 
d="M67 97h100v-97q0 -52 -32.5 -94.5t-79.5 -63.5l-18 35q35 17 54.5 50t19.5 73h-44v97z" />
    <glyph glyph-name="hyphen" unicode="-" horiz-adv-x="347" 
d="M292 264h-236v73h236v-73z" />
    <glyph glyph-name="hyphen" unicode="&#xad;" horiz-adv-x="347" 
d="M292 264h-236v73h236v-73z" />
    <glyph glyph-name="period" unicode="." horiz-adv-x="239" 
d="M69 98h100v-98h-100v98z" />
    <glyph glyph-name="slash" unicode="/" horiz-adv-x="482" 
d="M371 700h90l-348 -700h-91z" />
    <glyph glyph-name="zero" unicode="0" 
d="M301 627q-80 0 -119 -74t-39 -203t39 -203t119 -74t119.5 74t39.5 203t-39.5 203t-119.5 74zM301 710q116 0 185 -94.5t69 -265.5t-69 -265.5t-185 -94.5q-115 0 -184.5 94.5t-69.5 265.5t69.5 265.5t184.5 94.5z" />
    <glyph glyph-name="one" unicode="1" 
d="M532 0h-348v74h136v540l-167 -113l-37 65l205 134h96v-626h115v-74z" />
    <glyph glyph-name="two" unicode="2" 
d="M310 710q116 0 171.5 -58t55.5 -150q0 -103 -77 -194.5t-287 -234.5h369v-73h-480v77q119 82 193.5 143t114.5 109.5t53.5 85.5t13.5 81q0 61 -31.5 100t-100.5 39q-67 0 -131 -18v-96h-92v155q114 34 228 34z" />
    <glyph glyph-name="three" unicode="3" 
d="M304 710q112 0 172.5 -49t60.5 -129q0 -77 -47.5 -120.5t-133.5 -51.5q90 -6 139.5 -50t49.5 -123q0 -85 -67.5 -141t-177.5 -56q-108 0 -230 36v148h91v-95q66 -19 137 -19t108 37t37 94q0 66 -43 99.5t-139 33.5v70q94 0 133.5 31.5t39.5 96.5q0 118 -137 118
q-64 0 -131 -19v-95h-90v148q122 36 228 36z" />
    <glyph glyph-name="four" unicode="4" 
d="M362 609l-224 -323h224v323zM342 700h112v-414h97v-74h-97v-139h74v-73h-242v73h76v139h-309v74z" />
    <glyph glyph-name="five" unicode="5" 
d="M102 700h406v-160h-86v87h-239l-10 -198q69 13 134 13q112 0 177 -58t65 -156q0 -107 -67.5 -172.5t-180.5 -65.5q-103 0 -225 36v149h90v-95q66 -19 131 -19q74 0 114 42t40 118q0 149 -169 149q-111 0 -200 -17z" />
    <glyph glyph-name="six" unicode="6" 
d="M310 389q-95 0 -163 -85q4 -111 45 -174.5t118 -63.5q74 0 111.5 44.5t37.5 118.5q0 71 -35 115.5t-114 44.5zM338 710q92 0 182 -21v-143h-88v84q-48 11 -96 11q-185 0 -190 -274q74 90 187 90q112 0 165 -63.5t53 -158.5q0 -104 -63.5 -174.5t-181.5 -70.5
q-123 0 -189 92t-66 258q0 179 73.5 274.5t213.5 95.5z" />
    <glyph glyph-name="seven" unicode="7" 
d="M66 700h474v-74l-265 -626h-100l273 626h-297v-104h-85v178z" />
    <glyph glyph-name="eight" unicode="8" 
d="M301 638q-67 0 -103 -33t-36 -85q0 -60 38 -91.5t101 -31.5t101 31.5t38 91.5q0 52 -36 85t-103 33zM301 329q-69 0 -113 -31.5t-44 -100.5q0 -60 40.5 -96t116.5 -36t117 36t41 96q0 69 -44.5 100.5t-113.5 31.5zM301 710q109 0 169 -51t60 -131q0 -63 -39.5 -107
t-113.5 -56q76 -6 123 -55t47 -126q0 -90 -64 -142t-182 -52t-182 52t-64 142q0 76 47 124.5t124 54.5q-73 13 -113 57.5t-40 108.5q0 80 59.5 130.5t168.5 50.5z" />
    <glyph glyph-name="nine" unicode="9" 
d="M294 710q124 0 190.5 -90t66.5 -255q0 -171 -69.5 -273t-198.5 -102q-107 0 -209 38v146h90v-95q62 -20 120 -20q85 0 127.5 73.5t44.5 201.5q-71 -89 -185 -89q-110 0 -165 64.5t-55 158.5q0 103 64 172.5t179 69.5zM290 634q-74 0 -111.5 -43.5t-37.5 -116.5
q0 -70 35 -114t114 -44q100 0 165 86q-3 110 -44 171t-121 61z" />
    <glyph glyph-name="colon" unicode=":" horiz-adv-x="239" 
d="M69 98h100v-98h-100v98zM69 500h100v-98h-100v98z" />
    <glyph glyph-name="semicolon" unicode=";" horiz-adv-x="239" 
d="M69 500h100v-98h-100v98zM67 97h100v-97q0 -52 -32.5 -94.5t-79.5 -63.5l-18 35q35 17 54.5 50t19.5 73h-44v97z" />
    <glyph glyph-name="less" unicode="&#x3c;" 
d="M537 511l-380 -209l380 -208l-35 -64l-437 244v57l437 244z" />
    <glyph glyph-name="equal" unicode="=" 
d="M554 152h-505v73h505v-73zM554 377h-505v73h505v-73z" />
    <glyph glyph-name="greater" unicode="&#x3e;" horiz-adv-x="594" 
d="M65 94l379 209l-379 208l35 64l437 -244v-57l-437 -244z" />
    <glyph glyph-name="question" unicode="?" horiz-adv-x="556" 
d="M198 90h91v-90h-91v90zM288 710q105 0 159 -49.5t54 -126.5q0 -52 -22.5 -95t-54.5 -73l-63.5 -58.5t-54 -65t-22.5 -78.5h-82q0 45 15.5 83.5t39 64t51 52.5l51 49t39 52.5t15.5 64.5q0 44 -32.5 75t-95.5 31q-56 0 -107 -16v-92h-88v151q105 31 198 31z" />
    <glyph glyph-name="at" unicode="@" horiz-adv-x="855" 
d="M441 410q-72 0 -114 -66.5t-42 -147.5q0 -47 23.5 -73.5t67.5 -26.5q75 0 118.5 65t43.5 145q0 104 -97 104zM484 608q151 0 230.5 -79t79.5 -207q0 -119 -60 -203.5t-151 -84.5q-70 0 -70 67q0 24 4 43q-23 -49 -66 -77t-100 -28q-64 0 -102 39.5t-38 106.5
q0 107 60.5 195.5t161.5 88.5q57 0 88 -30.5t36 -77.5l20 93h63l-57 -273q-5 -25 -5 -48q0 -37 28 -37q48 0 84.5 67t36.5 156q0 108 -61.5 171t-184.5 63q-157 0 -254 -106.5t-97 -257.5q0 -114 64.5 -178t178.5 -64q68 0 130 29l3 -58q-65 -30 -144 -30
q-137 0 -218.5 82.5t-81.5 220.5q0 173 118 295t304 122z" />
    <glyph glyph-name="A" unicode="A" horiz-adv-x="734" 
d="M195 700h346v-73h-83l198 -554h70v-73h-257v73h84l-50 144h-276l-51 -144h89v-73h-257v73h70l200 554h-83v73zM365 638q-13 -52 -26 -91l-90 -259h231l-90 260q-14 46 -25 90z" />
    <glyph glyph-name="B" unicode="B" horiz-adv-x="701" 
d="M213 395h183q67 0 97.5 34.5t30.5 85.5q0 50 -30.5 81t-98.5 31h-182v-232zM32 0v73h87v554h-87v73h388q99 0 150 -48t51 -119q0 -141 -141 -165q80 -10 123 -59t43 -119q0 -81 -56 -135.5t-157 -54.5h-401zM213 73h194q74 0 109 35.5t35 91.5t-36.5 93t-108.5 37h-193
v-257z" />
    <glyph glyph-name="C" unicode="C" horiz-adv-x="679" 
d="M383 710q113 0 243 -32v-166h-95v97q-79 19 -151 19q-113 0 -172 -76t-59 -202t60 -201.5t172 -75.5q77 0 150 19v96h95v-166q-130 -32 -245 -32q-153 0 -243.5 102.5t-90.5 257.5q0 156 89.5 258t246.5 102z" />
    <glyph glyph-name="D" unicode="D" horiz-adv-x="748" 
d="M213 627v-554h169q107 0 162.5 73.5t55.5 206.5q0 132 -57 203t-163 71h-167zM32 700h363q139 0 222.5 -94t83.5 -253t-81.5 -256t-220.5 -97h-367v73h87v554h-87v73z" />
    <glyph glyph-name="E" unicode="E" horiz-adv-x="649" 
d="M32 700h560v-164h-94v91h-285v-228h278v-72h-278v-254h289v95h94v-168h-564v73h87v554h-87v73z" />
    <glyph glyph-name="F" unicode="F" horiz-adv-x="614" 
d="M32 700h554v-164h-94v91h-279v-245h277v-73h-277v-236h101v-73h-282v73h87v554h-87v73z" />
    <glyph glyph-name="G" unicode="G" horiz-adv-x="749" 
d="M382 710q122 0 255 -40v-163h-95v95q-74 25 -164 25q-111 0 -170 -75.5t-59 -201.5q0 -128 57.5 -203.5t165.5 -75.5q86 0 140.5 58.5t54.5 169.5h-205v71h299v-370h-89v158q-22 -73 -74.5 -120.5t-145.5 -47.5q-130 0 -217 99t-88 261q0 156 89.5 258t245.5 102z" />
    <glyph glyph-name="H" unicode="H" horiz-adv-x="753" 
d="M32 700h269v-73h-88v-227h327v227h-88v73h270v-73h-88v-554h88v-73h-270v73h88v253h-327v-253h88v-73h-269v73h87v554h-87v73z" />
    <glyph glyph-name="I" unicode="I" horiz-adv-x="332" 
d="M32 700h269v-73h-88v-554h88v-73h-269v73h87v554h-87v73z" />
    <glyph glyph-name="J" unicode="J" horiz-adv-x="544" 
d="M271 700h269v-73h-88v-435q0 -93 -60.5 -147.5t-166.5 -54.5q-90 0 -150 51.5t-65 127.5h98q4 -43 35 -71t86 -28q129 0 129 120v437h-87v73z" />
    <glyph glyph-name="K" unicode="K" horiz-adv-x="681" 
d="M32 700h269v-73h-88v-554h88v-73h-269v73h87v554h-87v73zM391 700h270v-73h-75l-254 -259l269 -295h73v-73h-273v73h88l-267 289l254 265h-85v73z" />
    <glyph glyph-name="L" unicode="L" horiz-adv-x="596" 
d="M32 700h274v-73h-93v-554h273v115h94v-188h-548v73h87v554h-87v73z" />
    <glyph glyph-name="M" unicode="M" horiz-adv-x="918" 
d="M32 700h235l181 -513q5 -17 16 -74q10 56 17 75l180 512h225v-73h-87v-554h87v-73h-265v73h87v469q0 34 2 78q-9 -43 -20 -78l-192 -542h-79l-192 542q-10 30 -20 78q2 -46 2 -77v-470h87v-73h-264v73h87v554h-87v73z" />
    <glyph glyph-name="N" unicode="N" horiz-adv-x="751" 
d="M32 700h213l274 -504q7 -13 28 -66q-3 33 -3 73v424h-80v73h259v-73h-87v-627h-115l-288 537q-5 11 -14.5 34t-12.5 29q3 -30 3 -66v-461h87v-73h-264v73h87v554h-87v73z" />
    <glyph glyph-name="O" unicode="O" horiz-adv-x="740" 
d="M370 628q-108 0 -164.5 -76t-56.5 -202t56.5 -202t164.5 -76t164.5 76t56.5 202t-56.5 202t-164.5 76zM370 710q149 0 235.5 -102.5t86.5 -257.5t-86.5 -257.5t-235.5 -102.5q-148 0 -235.5 102.5t-87.5 257.5t87.5 257.5t235.5 102.5z" />
    <glyph glyph-name="P" unicode="P" horiz-adv-x="657" 
d="M32 700h393q100 0 153 -58.5t53 -149.5q0 -95 -52.5 -155.5t-157.5 -60.5h-208v-203h96v-73h-277v73h87v554h-87v73zM404 626h-191v-281h191q67 0 98.5 39t31.5 105q0 137 -130 137z" />
    <glyph glyph-name="Q" unicode="Q" horiz-adv-x="740" 
d="M370 709q149 0 235.5 -102.5t86.5 -257.5q0 -95 -34 -173t-97 -126l136 -170h-102l-103 131q-57 -22 -122 -22q-148 0 -235.5 102.5t-87.5 257.5t87.5 257.5t235.5 102.5zM370 627q-108 0 -164.5 -76t-56.5 -202t56.5 -202t164.5 -76q38 0 68 9l-101 131h96l74 -93
q84 72 84 231q0 126 -56.5 202t-164.5 76z" />
    <glyph glyph-name="R" unicode="R" horiz-adv-x="716" 
d="M213 376h189q129 0 129 130q0 120 -129 120h-189v-250zM32 700h394q102 0 152.5 -51t50.5 -131q0 -76 -42 -124t-119 -56q148 -18 148 -265h84v-73h-272v73h93q0 231 -127 231h-181v-231h96v-73h-277v73h87v554h-87v73z" />
    <glyph glyph-name="S" unicode="S" horiz-adv-x="632" 
d="M316 710q101 0 235 -31v-158h-94v95q-84 20 -142 20q-81 0 -117 -33t-36 -84q0 -58 38.5 -81.5t119.5 -34.5q125 -14 193 -59.5t68 -143.5q0 -91 -69.5 -150.5t-197.5 -59.5q-110 0 -245 33v161h95v-98q84 -22 152 -22q83 0 124 36.5t41 91.5q0 63 -43.5 88.5
t-135.5 38.5q-121 16 -179.5 57t-58.5 136q0 85 64 141.5t188 56.5z" />
    <glyph glyph-name="T" unicode="T" horiz-adv-x="612" 
d="M16 700h580v-170h-86v97h-157v-554h87v-73h-269v73h88v554h-158v-97h-85v170z" />
    <glyph glyph-name="U" unicode="U" horiz-adv-x="739" 
d="M20 700h269v-73h-87v-415q0 -143 167 -143q168 0 168 143v415h-88v73h269v-73h-87v-433q0 -97 -75 -150.5t-189 -53.5q-113 0 -186.5 53.5t-73.5 150.5v433h-87v73z" />
    <glyph glyph-name="V" unicode="V" horiz-adv-x="711" 
d="M10 700h259v-73h-83l151 -479q7 -20 19 -68q7 32 19 68l150 479h-83v73h259v-73h-79l-204 -627h-129l-203 627h-76v73z" />
    <glyph glyph-name="W" unicode="W" horiz-adv-x="1025" 
d="M10 700h255v-73h-83l119 -464q8 -31 14 -75q6 39 16 75l136 537h88l137 -537q10 -43 15 -75q5 32 15 75l123 464h-85v73h255v-73h-79l-170 -627h-116l-126 482q-6 26 -15 82q-5 -44 -15 -82l-124 -482h-116l-167 627h-77v73z" />
    <glyph glyph-name="X" unicode="X" horiz-adv-x="700" 
d="M18 700h260v-73h-75l117 -174q20 -31 29 -51q6 11 32 52l115 173h-74v73h260v-73h-73l-193 -271l204 -283h70v-73h-262v73h76l-124 181q-23 34 -30 54q-14 -28 -34 -54l-120 -181h76v-73h-262v73h73l199 281l-194 273h-70v73z" />
    <glyph glyph-name="Y" unicode="Y" horiz-adv-x="671" 
d="M8 700h251v-73h-81l128 -194q21 -32 31 -55q7 15 33 55l129 194h-80v73h245v-73h-64l-219 -325v-229h87v-73h-269v73h87v229l-218 325h-60v73z" />
    <glyph glyph-name="Z" unicode="Z" horiz-adv-x="624" 
d="M48 700h529v-75l-424 -552h339v91h94v-164h-545v74l425 553h-324v-91h-94v164z" />
    <glyph glyph-name="bracketleft" unicode="[" horiz-adv-x="350" 
d="M311 -211h-214v911h214v-52h-131v-807h131v-52z" />
    <glyph glyph-name="backslash" unicode="\" horiz-adv-x="428" 
d="M22 700h90l349 -700h-91z" />
    <glyph glyph-name="bracketright" unicode="]" horiz-adv-x="350" 
d="M39 700h214v-911h-214v52h131v807h-131v52z" />
    <glyph glyph-name="asciicircum" unicode="^" 
d="M301 710l236 -236l-51 -52l-185 185l-184 -184l-52 51z" />
    <glyph glyph-name="underscore" unicode="_" 
d="M571 -146h-540v74h540v-74z" />
    <glyph glyph-name="grave" unicode="`" horiz-adv-x="297" 
d="M50 695l90 11l107 -166h-60z" />
    <glyph glyph-name="a" unicode="a" horiz-adv-x="543" 
d="M79 499q101 11 185 11q190 0 190 -154v-218q0 -74 68 -65v-73q-69 -8 -103 16t-41 84q-44 -109 -183 -109q-69 0 -109 37t-40 100q0 86 64 129t203 43q23 0 55 -2v58q0 87 -109 87q-56 0 -101 -7v-77h-79v140zM315 245q-180 0 -180 -105q0 -37 22.5 -58t63.5 -21
q61 0 104 36.5t43 100.5v45q-32 2 -53 2z" />
    <glyph glyph-name="b" unicode="b" horiz-adv-x="600" 
d="M27 700h154v-314q18 55 59.5 89.5t104.5 34.5q95 0 150.5 -71.5t55.5 -188.5t-56 -188.5t-150 -71.5q-59 0 -103 35.5t-61 87.5v-113h-154v73h68v554h-68v73zM322 438q-66 0 -103.5 -49t-37.5 -144q0 -79 35.5 -131t105.5 -52q67 0 102 50t35 138t-35 138t-102 50z" />
    <glyph glyph-name="c" unicode="c" horiz-adv-x="516" 
d="M281 510q97 0 192 -12v-152h-83v84q-57 9 -110 9q-68 0 -106.5 -50.5t-38.5 -137.5q0 -86 37.5 -137.5t105.5 -51.5q52 0 84 27t40 77h87q-11 -80 -68.5 -128t-139.5 -48q-108 0 -170.5 71t-62.5 189q0 124 63 192t170 68z" />
    <glyph glyph-name="d" unicode="d" horiz-adv-x="599" 
d="M277 438q-67 0 -103 -50t-36 -138t36 -138t103 -50q70 0 105.5 52t35.5 131q0 95 -37.5 144t-103.5 49zM351 700h154v-627h67v-73h-154v113q-17 -52 -59.5 -87.5t-101.5 -35.5q-95 0 -152 72t-57 188q0 117 57 188.5t152 71.5q62 0 102.5 -34.5t58.5 -89.5v241h-67v73z
" />
    <glyph glyph-name="e" unicode="e" horiz-adv-x="545" 
d="M281 510q107 0 166 -78.5t54 -194.5h-364q2 -85 38.5 -130.5t103.5 -45.5q48 0 80.5 24.5t42.5 69.5h90q-18 -79 -75 -122t-137 -43q-107 0 -169.5 71t-62.5 189q0 117 63 188.5t170 71.5zM278 444q-60 0 -95.5 -38.5t-43.5 -109.5h270q-2 65 -37 106.5t-94 41.5z" />
    <glyph glyph-name="f" unicode="f" horiz-adv-x="337" 
d="M257 710q34 0 72 -7v-72q-32 8 -62 8q-82 0 -82 -89v-50h144v-73h-144v-354h68v-73h-222v73h68v354h-77v73h77v49q0 80 41.5 120.5t116.5 40.5z" />
    <glyph glyph-name="g" unicode="g" horiz-adv-x="557" 
d="M520 622v-74q-49 0 -74.5 -17t-27.5 -60q69 -50 69 -139q0 -77 -55 -124t-155 -47q-55 0 -100 18q-28 -20 -28 -49q0 -48 65 -48h156q155 0 155 -126q0 -80 -62.5 -128t-190.5 -48q-221 0 -221 134q0 39 21.5 69.5t58.5 47.5q-62 20 -62 78q0 29 18.5 55.5t44.5 40.5
q-62 48 -62 130q0 80 55 127.5t154 47.5q41 0 84 -12q3 60 44.5 92t112.5 32zM190 23q-51 -28 -51 -85q0 -93 135 -93q84 0 122 31t38 79q0 66 -91 66h-125q-12 0 -28 2zM279 446q-58 0 -88.5 -30t-30.5 -83q0 -49 31 -79.5t88 -30.5q58 0 89.5 30t31.5 80q0 52 -31 82.5
t-90 30.5z" />
    <glyph glyph-name="h" unicode="h" horiz-adv-x="589" 
d="M27 700h154v-298q43 108 164 108q78 0 117.5 -48t39.5 -136v-253h68v-73h-218v73h63v236q0 127 -100 127q-56 0 -95 -39.5t-39 -116.5v-207h63v-73h-217v73h68v554h-68v73z" />
    <glyph glyph-name="i" unicode="i" horiz-adv-x="276" 
d="M94 664h88v-80h-88v80zM27 500h154v-427h68v-73h-222v73h68v354h-68v73z" />
    <glyph glyph-name="j" unicode="j" horiz-adv-x="264" 
d="M28 500h154v-555q0 -78 -48.5 -119t-117.5 -42v73q40 0 60 19.5t20 72.5v478h-68v73zM94 664h89v-80h-89v80z" />
    <glyph glyph-name="k" unicode="k" horiz-adv-x="518" 
d="M27 700h154v-627h68v-73h-222v73h68v554h-68v73zM287 500h218v-73h-59l-167 -163l172 -191h57v-73h-110l-216 256l169 171h-64v73z" />
    <glyph glyph-name="l" unicode="l" horiz-adv-x="276" 
d="M27 700h154v-627h68v-73h-222v73h68v554h-68v73z" />
    <glyph glyph-name="m" unicode="m" horiz-adv-x="887" 
d="M27 500h154v-100q46 110 156 110q57 0 94.5 -34t48.5 -91q23 61 67 93t101 32q74 0 113 -48.5t39 -135.5v-253h68v-73h-217v73h63v234q0 129 -97 129q-52 0 -89.5 -40t-37.5 -120v-203h66v-73h-217v73h65v234q0 129 -97 129q-53 0 -89.5 -41.5t-36.5 -125.5v-196h63v-73
h-217v73h68v354h-68v73z" />
    <glyph glyph-name="n" unicode="n" horiz-adv-x="589" 
d="M27 500h154v-98q43 108 165 108q77 0 116.5 -48t39.5 -136v-253h68v-73h-218v73h63v236q0 127 -100 127q-56 0 -94.5 -39.5t-39.5 -116.5v-207h63v-73h-217v73h68v354h-68v73z" />
    <glyph glyph-name="o" unicode="o" horiz-adv-x="554" 
d="M277 437q-67 0 -104.5 -50t-37.5 -137t37.5 -137t104.5 -50t104 49.5t37 137.5q0 87 -37 137t-104 50zM277 510q103 0 166 -70.5t63 -189.5q0 -120 -62.5 -190t-166.5 -70t-166.5 70t-62.5 190q0 119 63 189.5t166 70.5z" />
    <glyph glyph-name="p" unicode="p" horiz-adv-x="600" 
d="M322 438q-66 0 -103.5 -49t-37.5 -144q0 -79 35.5 -131t105.5 -52q67 0 103 50t36 138t-36 138t-103 50zM27 500h154v-114q18 55 59.5 89.5t104.5 34.5q95 0 150.5 -71.5t55.5 -188.5t-56 -188.5t-150 -71.5q-59 0 -103 35.5t-61 87.5v-251h68v-73h-222v73h68v565h-68v73
z" />
    <glyph glyph-name="q" unicode="q" horiz-adv-x="599" 
d="M277 438q-67 0 -102.5 -50t-35.5 -138t35.5 -138t102.5 -50q70 0 105.5 52t35.5 131q0 95 -37.5 144t-103.5 49zM418 500h154v-73h-67v-565h67v-73h-221v73h67v251q-16 -52 -60 -87.5t-103 -35.5q-95 0 -151 71.5t-56 188.5t56 188.5t151 71.5q62 0 103.5 -34.5
t59.5 -89.5v114z" />
    <glyph glyph-name="r" unicode="r" horiz-adv-x="429" 
d="M27 500h154v-110q18 53 59.5 86.5t104.5 33.5q31 0 56 -5v-163h-79v80q-14 2 -26 2q-46 0 -80.5 -44t-34.5 -113v-194h68v-73h-222v73h68v354h-68v73z" />
    <glyph glyph-name="s" unicode="s" horiz-adv-x="504" 
d="M257 510q87 0 177 -14v-135h-79v75q-47 10 -95 10q-57 0 -85 -22t-28 -54q0 -37 29.5 -52t89.5 -25q44 -6 72.5 -13t59.5 -22.5t46.5 -44t15.5 -69.5q0 -67 -52.5 -110.5t-155.5 -43.5q-91 0 -146 42t-58 110h82q3 -40 37 -63.5t87 -23.5q62 0 91.5 23t29.5 56
q0 42 -30.5 58.5t-92.5 25.5q-35 5 -56 9.5t-50 15t-44.5 25t-27.5 39t-12 57.5q0 61 53 103.5t142 42.5z" />
    <glyph glyph-name="t" unicode="t" horiz-adv-x="337" 
d="M92 614h86v-114h143v-73h-143v-265q0 -96 84 -96q26 0 59 9v-75q-36 -7 -72 -7q-157 0 -157 157v277h-78v73h78v114z" />
    <glyph glyph-name="u" unicode="u" horiz-adv-x="589" 
d="M19 500h155v-309q0 -62 23 -94.5t76 -32.5q56 0 94 38.5t41 116.5v208h-68v73h154v-427h68v-73h-154v98q-43 -108 -164 -108q-78 0 -117.5 48t-39.5 136v253h-68v73z" />
    <glyph glyph-name="v" unicode="v" horiz-adv-x="532" 
d="M7 500h202v-73h-59l100 -291q10 -36 17 -71q5 32 17 71l103 291h-59v73h197v-73h-54l-151 -427h-113l-147 427h-53v73z" />
    <glyph glyph-name="w" unicode="w" horiz-adv-x="793" 
d="M7 500h198v-73h-59l81 -284q10 -39 14 -70q7 37 15 70l100 357h83l98 -357q8 -33 15 -70q4 31 14 70l82 284h-60v73h198v-73h-54l-123 -427h-104l-93 327q-13 54 -16 76q-3 -27 -18 -76l-95 -327h-101l-122 427h-53v73z" />
    <glyph glyph-name="x" unicode="x" horiz-adv-x="544" 
d="M14 500h206v-73h-47l102 -138q38 55 101 138h-47v73h201v-73h-63l-128 -167l143 -187h54v-73h-203v73h49l-110 150l-112 -150h51v-73h-203v73h59l140 182l-132 172h-61v73z" />
    <glyph glyph-name="y" unicode="y" horiz-adv-x="532" 
d="M7 500h202v-73h-59l100 -297q7 -22 17 -76q8 49 17 76l103 297h-59v73h197v-73h-54l-171 -479q-33 -98 -84.5 -130.5t-139.5 -32.5v77q47 1 76 16.5t43 53.5l18 49l-153 446h-53v73z" />
    <glyph glyph-name="z" unicode="z" horiz-adv-x="474" 
d="M44 500h386v-67l-287 -360h297v-73h-403v67l293 366h-206v-76h-80v143z" />
    <glyph glyph-name="braceleft" unicode="{" horiz-adv-x="382" 
d="M342 709l4 -58q-67 0 -91 -31.5t-24 -93.5q0 -24 6.5 -74t6.5 -76q0 -109 -87 -125q88 -17 88 -129q0 -26 -6 -75t-6 -73q0 -63 23.5 -95t89.5 -32l-4 -58q-104 0 -148.5 48t-44.5 125q0 23 4 71.5t4 70.5q0 111 -75 111h-22v69h22q75 0 75 111q0 22 -4.5 70.5t-4.5 71.5
q0 77 45 124.5t149 47.5z" />
    <glyph glyph-name="bar" unicode="|" horiz-adv-x="325" 
d="M208 -211h-91v911h91v-911z" />
    <glyph glyph-name="braceright" unicode="}" horiz-adv-x="382" 
d="M36 652l4 57q104 0 148.5 -47.5t44.5 -124.5q0 -23 -4 -72t-4 -70q0 -111 74 -111h23v-70h-23q-74 0 -74 -111q0 -21 4 -70t4 -72q0 -172 -193 -172l-4 58q67 0 91 32t24 94q0 24 -6.5 73.5t-6.5 75.5q0 109 86 125q-87 17 -87 130q0 26 6 74.5t6 72.5q0 63 -23.5 95.5
t-89.5 32.5z" />
    <glyph glyph-name="asciitilde" unicode="~" 
d="M193 632q43 0 83.5 -22t74.5 -44t60 -22q29 0 46 15.5t24 53.5l54 -28q-20 -118 -126 -118q-49 0 -114.5 44t-103.5 44q-29 0 -46 -16t-24 -54l-54 28q20 119 126 119z" />
    <glyph glyph-name="nbspace" unicode="&#xa0;" horiz-adv-x="225" 
 />
    <glyph glyph-name="exclamdown" unicode="&#xa1;" horiz-adv-x="300" 
d="M204 -200h-108l13 523h82zM195 410h-90v90h90v-90z" />
    <glyph glyph-name="cent" unicode="&#xa2;" horiz-adv-x="565" 
d="M273 697h46v-79q81 -1 177 -13v-150h-75v85q-50 8 -102 9v-378q44 4 73.5 32t38.5 71h81q-13 -77 -65 -124t-128 -52v-93h-46v94q-95 10 -149 80t-54 179q0 112 54.5 180t148.5 78v81zM150 358q0 -77 32 -126.5t91 -59.5v374q-59 -10 -91 -59t-32 -129z" />
    <glyph glyph-name="sterling" unicode="&#xa3;" horiz-adv-x="615" 
d="M315 710q90 0 224 -31v-158h-82v94q-84 20 -144 20q-78 0 -110 -40.5t-32 -95.5q0 -53 19 -139h218v-49h-209q9 -50 9 -83q0 -82 -53 -155h379v-73h-467v73q51 63 51 144q0 35 -13 94h-70v49h58q-19 80 -19 133q0 89 61 153t180 64z" />
    <glyph glyph-name="currency" unicode="&#xa4;" horiz-adv-x="713" 
d="M357 607q87 0 141 -56l128 129l51 -51l-134 -134q31 -56 31 -136q0 -79 -30 -137l133 -133l-51 -51l-128 127q-54 -54 -141 -54q-90 0 -142 55l-128 -128l-51 52l133 133q-30 57 -30 136q0 77 30 136l-133 133l51 51l128 -128q54 56 142 56zM357 533q-65 0 -98.5 -48.5
t-33.5 -125.5q0 -78 33.5 -126t98.5 -48t98.5 48t33.5 126q0 77 -33.5 125.5t-98.5 48.5z" />
    <glyph glyph-name="yen" unicode="&#xa5;" horiz-adv-x="592" 
d="M-4 700h243v-73h-70l130 -243l135 243h-69v73h235v-73h-67l-158 -267h129v-50h-159l-2 -4v-74h123v-49h-123v-110h88v-73h-269v73h87v110h-120v49h120v74l-3 4h-155v50h126l-156 267h-65v73z" />
    <glyph glyph-name="brokenbar" unicode="&#xa6;" horiz-adv-x="325" 
d="M208 377h-91v323h91v-323zM208 -211h-91v323h91v-323z" />
    <glyph glyph-name="section" unicode="&#xa7;" horiz-adv-x="614" 
d="M324 -179q-102 0 -245 33v161h93v-97q88 -23 153 -23q68 0 100 28.5t32 70.5q0 41 -42 64.5t-101.5 37t-119.5 31.5t-102 61t-42 112q0 85 69 142q-33 36 -33 95q0 76 57 124.5t163 48.5q101 0 235 -31v-158h-93v94q-80 21 -142 21q-70 0 -101.5 -28.5t-31.5 -70.5
q0 -34 30 -57t74.5 -33t97 -25.5t97 -33.5t74.5 -58t30 -98q0 -87 -68 -141q37 -39 37 -97q0 -75 -58 -124t-163 -49zM495 219q0 46 -35.5 76.5t-81.5 42.5l-110 30t-100 37q-37 -39 -37 -93q0 -46 35.5 -76t81 -42l110.5 -30t101 -37q36 39 36 92z" />
    <glyph glyph-name="dieresis" unicode="&#xa8;" horiz-adv-x="356" 
d="M131 584h-67v70h67v-70zM292 584h-67v70h67v-70z" />
    <glyph glyph-name="copyright" unicode="&#xa9;" horiz-adv-x="829" 
d="M413 654q-129 0 -209 -85.5t-80 -218.5t80 -218.5t209 -85.5q131 0 210.5 85.5t79.5 218.5t-79.5 218.5t-210.5 85.5zM413 710q154 0 259.5 -102t105.5 -258q0 -157 -105.5 -258.5t-259.5 -101.5q-152 0 -257 101t-105 259q0 157 105.5 258.5t256.5 101.5zM411 580
q70 0 166 -16v-124h-61v74q-55 11 -106 11q-63 0 -100 -47.5t-37 -125.5t37 -125.5t100 -47.5q48 0 106 10v74h61v-123q-86 -16 -166 -16q-94 0 -149 63t-55 165q0 108 55.5 168t148.5 60z" />
    <glyph glyph-name="ordfeminine" unicode="&#xaa;" horiz-adv-x="543" 
d="M79 719q101 11 185 11q190 0 190 -154v-218q0 -74 68 -65v-73q-69 -8 -103 16t-41 84q-44 -109 -183 -109q-69 0 -109 37t-40 100q0 86 64 129t203 43q23 0 55 -2v58q0 87 -109 87q-56 0 -101 -7v-77h-79v140zM315 465q-180 0 -180 -105q0 -37 22.5 -58t63.5 -21
q61 0 104 36.5t43 100.5v45q-32 2 -53 2z" />
    <glyph glyph-name="guillemotleft" unicode="&#xab;" horiz-adv-x="572" 
d="M267 497l36 -38l-170 -183l170 -183l-36 -38l-211 191v60zM480 497l36 -38l-170 -183l170 -183l-36 -38l-211 191v60z" />
    <glyph glyph-name="logicalnot" unicode="&#xac;" 
d="M554 0h-90v265h-415v72h505v-337z" />
    <glyph glyph-name="registered" unicode="&#xae;" horiz-adv-x="512" 
d="M254 676q-68 0 -114 -45t-46 -124q0 -75 44 -121.5t116 -46.5q73 0 117.5 47t44.5 121q0 75 -44 122t-118 47zM254 710q90 0 148.5 -56.5t58.5 -146.5q0 -91 -58.5 -146.5t-148.5 -55.5q-88 0 -145.5 56t-57.5 147q0 89 58 145.5t145 56.5zM170 627h107q39 0 59 -18
t20 -47q0 -52 -53 -63q46 -8 46 -60v-49h-38v52q0 43 -45 43h-59v-95h-37v237zM207 598v-85h62q48 0 48 45q0 40 -48 40h-62z" />
    <glyph glyph-name="macron" unicode="&#xaf;" horiz-adv-x="360" 
d="M304 576h-248v57h248v-57z" />
    <glyph glyph-name="macron" unicode="&#x2c9;" horiz-adv-x="360" 
d="M304 576h-248v57h248v-57z" />
    <glyph glyph-name="degree" unicode="&#xb0;" horiz-adv-x="439" 
d="M219 647q-47 0 -72.5 -34.5t-25.5 -94.5q0 -59 26.5 -94t71.5 -35q49 0 74 34t25 95q0 59 -26.5 94t-72.5 35zM219 710q78 0 123.5 -53t45.5 -139q0 -85 -45.5 -139t-122.5 -54q-78 0 -123 53t-45 139q0 85 45 139t122 54z" />
    <glyph glyph-name="plusminus" unicode="&#xb1;" 
d="M337 681v-217h217v-72h-217v-217h-72v217h-216v72h216v217h72zM554 41h-505v72h505v-72z" />
    <glyph glyph-name="acute" unicode="&#xb4;" horiz-adv-x="297" 
d="M157 706l90 -11l-137 -155h-61z" />
    <glyph glyph-name="mu" unicode="&#xb5;" horiz-adv-x="602" 
d="M27 500h155v-309q0 -127 102 -127q57 0 94 41t37 123v199h-67v73h154v-362q0 -68 53 -68q8 0 22 2v-72q-21 -4 -47 -4q-111 0 -115 109q-17 -50 -57.5 -82.5t-98.5 -32.5q-73 0 -98 58l21 -259h-87v638h-68v73z" />
    <glyph glyph-name="mu" unicode="&#x3bc;" horiz-adv-x="602" 
d="M27 500h155v-309q0 -127 102 -127q57 0 94 41t37 123v199h-67v73h154v-362q0 -68 53 -68q8 0 22 2v-72q-21 -4 -47 -4q-111 0 -115 109q-17 -50 -57.5 -82.5t-98.5 -32.5q-73 0 -98 58l21 -259h-87v638h-68v73z" />
    <glyph glyph-name="paragraph" unicode="&#xb6;" horiz-adv-x="579" 
d="M262 500h235v-555q0 -78 -50 -119t-119 -42v71q40 1 63 19t23 67v59h-147q-100 0 -159.5 72.5t-59.5 179.5q0 106 58 177t156 71z" />
    <glyph glyph-name="periodcentered" unicode="&#xb7;" horiz-adv-x="594" 
d="M247 345h99v-96h-99v96z" />
    <glyph glyph-name="periodcentered" unicode="&#x2219;" horiz-adv-x="594" 
d="M247 345h99v-96h-99v96z" />
    <glyph glyph-name="cedilla" unicode="&#xb8;" horiz-adv-x="350" 
d="M136 0h57l-38 -60q17 4 37 4q46 0 73.5 -21.5t27.5 -56.5q0 -42 -36 -67.5t-93 -25.5q-70 0 -109 36l26 30q21 -26 79 -26q33 0 50 12.5t17 33.5q0 24 -20 38.5t-62 14.5q-14 0 -58 -6z" />
    <glyph glyph-name="ordmasculine" unicode="&#xba;" horiz-adv-x="525" 
d="M277 657q-67 0 -104.5 -50t-37.5 -137t37.5 -137t104.5 -50t104 49.5t37 137.5q0 87 -37 137t-104 50zM277 730q103 0 166 -70.5t63 -189.5q0 -120 -62.5 -190t-166.5 -70t-166.5 70t-62.5 190q0 119 63 189.5t166 70.5z" />
    <glyph glyph-name="guillemotright" unicode="&#xbb;" horiz-adv-x="572" 
d="M306 497l210 -191v-60l-210 -191l-37 38l171 183l-171 183zM93 497l210 -191v-60l-210 -191l-37 38l171 183l-171 183z" />
    <glyph glyph-name="onequarter" unicode="&#xbc;" horiz-adv-x="783" 
d="M188 0h-86l535 700h87zM316 345h-227v54h86v242l-100 -65l-27 46l129 83h68v-306h71v-54zM591 356h77v-212h55v-54h-55v-90h-66v90h-171v52zM602 294l-111 -150h111v150z" />
    <glyph glyph-name="onehalf" unicode="&#xbd;" horiz-adv-x="783" 
d="M184 0h-86l535 700h87zM312 345h-227v54h86v242l-100 -65l-27 46l129 83h68v-306h71v-54zM592 363q72 0 107 -29.5t35 -80.5t-36.5 -93t-141.5 -106h183v-54h-288v48q124 74 165.5 115t41.5 82q0 29 -18 46t-52 17q-32 0 -66 -12v-60h-64v104q69 23 134 23z" />
    <glyph glyph-name="threequarters" unicode="&#xbe;" horiz-adv-x="783" 
d="M181 0h-86l535 700h87zM560 356h77v-212h55v-54h-55v-90h-66v90h-171v52zM571 294l-111 -150h111v150zM207 708q65 0 99.5 -25t34.5 -68q0 -72 -84 -88q42 -6 65.5 -29t23.5 -59q0 -45 -38 -73t-105 -28q-62 0 -136 23v93h64v-55q32 -11 72 -11q36 0 54 16t18 41
q0 59 -93 59v44q88 0 88 57q0 53 -67 53q-38 0 -69 -12v-54h-63v92q72 24 136 24z" />
    <glyph glyph-name="questiondown" unicode="&#xbf;" horiz-adv-x="556" 
d="M365 410h-90v90h90v-90zM275 -210q-104 0 -158 49.5t-54 126.5q0 52 22.5 95t54.5 73l63.5 58.5t54 65t22.5 78.5h81q0 -45 -15.5 -83.5t-39 -64l-50.5 -52.5l-50.5 -49t-39 -52.5t-15.5 -64.5q0 -44 32.5 -75t95.5 -31q55 0 106 16v92h89v-151q-105 -31 -199 -31z" />
    <glyph glyph-name="Agrave" unicode="&#xc0;" horiz-adv-x="700" 
d="M178 700h346v-73h-83l198 -554h70v-73h-257v73h84l-50 144h-276l-51 -144h89v-73h-257v73h70l200 554h-83v73zM348 638q-13 -52 -26 -91l-90 -259h231l-90 260q-14 46 -25 90zM221 864l82 11l116 -150h-56z" />
    <glyph glyph-name="Aacute" unicode="&#xc1;" horiz-adv-x="700" 
d="M178 700h346v-73h-83l198 -554h70v-73h-257v73h84l-50 144h-276l-51 -144h89v-73h-257v73h70l200 554h-83v73zM348 638q-13 -52 -26 -91l-90 -259h231l-90 260q-14 46 -25 90zM416 875l82 -11l-141 -139h-57z" />
    <glyph glyph-name="Acircumflex" unicode="&#xc2;" horiz-adv-x="700" 
d="M178 700h346v-73h-83l198 -554h70v-73h-257v73h84l-50 144h-276l-51 -144h89v-73h-257v73h70l200 554h-83v73zM348 638q-13 -52 -26 -91l-90 -259h231l-90 260q-14 46 -25 90zM504 735l-55 -10l-99 96l-99 -96l-55 10l119 140h70z" />
    <glyph glyph-name="Atilde" unicode="&#xc3;" horiz-adv-x="700" 
d="M178 700h346v-73h-83l198 -554h70v-73h-257v73h84l-50 144h-276l-51 -144h89v-73h-257v73h70l200 554h-83v73zM348 638q-13 -52 -26 -91l-90 -259h231l-90 260q-14 46 -25 90zM285 843q35 0 75.5 -28.5t56.5 -28.5q38 0 45 42l38 -6q-5 -42 -26.5 -64.5t-55.5 -22.5
q-30 0 -71 29.5t-64 29.5q-39 0 -45 -45l-37 8q4 41 25.5 63.5t58.5 22.5z" />
    <glyph glyph-name="Adieresis" unicode="&#xc4;" horiz-adv-x="700" 
d="M178 700h346v-73h-83l198 -554h70v-73h-257v73h84l-50 144h-276l-51 -144h89v-73h-257v73h70l200 554h-83v73zM348 638q-13 -52 -26 -91l-90 -259h231l-90 260q-14 46 -25 90zM299 756h-67v67h67v-67zM468 756h-67v67h67v-67z" />
    <glyph glyph-name="Aring" unicode="&#xc5;" horiz-adv-x="700" 
d="M178 700h346v-73h-83l198 -554h70v-73h-257v73h84l-50 144h-276l-51 -144h89v-73h-257v73h70l200 554h-83v73zM348 638q-13 -52 -26 -91l-90 -259h231l-90 260q-14 46 -25 90zM349 870q49 0 80.5 -21t31.5 -59t-31.5 -58t-80.5 -20t-80 20t-31 58t31.5 59t79.5 21z
M349 834q-30 0 -46.5 -12t-16.5 -32q0 -22 17.5 -33t45.5 -11q63 0 63 44q0 22 -18 33t-45 11z" />
    <glyph glyph-name="AE" unicode="&#xc6;" horiz-adv-x="988" 
d="M291 700h643v-164h-94v91h-284v-228h278v-72h-278v-254h288v95h95v-168h-565v73h87v144h-277l-102 -144h89v-73h-259v73h70l392 554h-83v73zM461 618l-231 -330h231v330z" />
    <glyph glyph-name="Ccedilla" unicode="&#xc7;" horiz-adv-x="679" 
d="M383 710q113 0 243 -32v-166h-95v97q-79 19 -151 19q-113 0 -172 -76t-59 -202t60 -201.5t172 -75.5q77 0 150 19v96h95v-166q-124 -31 -234 -32l-31 -50q17 4 37 4q46 0 73.5 -21.5t27.5 -56.5q0 -42 -36 -67.5t-93 -25.5q-70 0 -109 36l26 30q21 -26 79 -26
q33 0 50 12.5t17 33.5q0 24 -20 38.5t-62 14.5q-14 0 -58 -6l45 87q-134 15 -212.5 114.5t-78.5 242.5q0 156 89.5 258t246.5 102z" />
    <glyph glyph-name="Egrave" unicode="&#xc8;" horiz-adv-x="649" 
d="M32 700h560v-164h-94v91h-285v-228h278v-72h-278v-254h289v95h94v-168h-564v73h87v554h-87v73zM186 864l82 11l116 -150h-56z" />
    <glyph glyph-name="Eacute" unicode="&#xc9;" horiz-adv-x="649" 
d="M32 700h560v-164h-94v91h-285v-228h278v-72h-278v-254h289v95h94v-168h-564v73h87v554h-87v73zM401 875l82 -11l-141 -139h-57z" />
    <glyph glyph-name="Ecircumflex" unicode="&#xca;" horiz-adv-x="649" 
d="M32 700h560v-164h-94v91h-285v-228h278v-72h-278v-254h289v95h94v-168h-564v73h87v554h-87v73zM490 735l-55 -10l-99 96l-99 -96l-55 10l119 140h70z" />
    <glyph glyph-name="Edieresis" unicode="&#xcb;" horiz-adv-x="649" 
d="M32 700h560v-164h-94v91h-285v-228h278v-72h-278v-254h289v95h94v-168h-564v73h87v554h-87v73zM285 756h-67v67h67v-67zM454 756h-67v67h67v-67z" />
    <glyph glyph-name="Igrave" unicode="&#xcc;" horiz-adv-x="332" 
d="M32 700h269v-73h-88v-554h88v-73h-269v73h87v554h-87v73zM21 864l82 11l116 -150h-56z" />
    <glyph glyph-name="Iacute" unicode="&#xcd;" horiz-adv-x="332" 
d="M32 700h269v-73h-88v-554h88v-73h-269v73h87v554h-87v73zM223 875l82 -11l-141 -139h-57z" />
    <glyph glyph-name="Icircumflex" unicode="&#xce;" horiz-adv-x="332" 
d="M32 700h269v-73h-88v-554h88v-73h-269v73h87v554h-87v73zM321 735l-55 -10l-99 96l-99 -96l-55 10l119 140h70z" />
    <glyph glyph-name="Idieresis" unicode="&#xcf;" horiz-adv-x="332" 
d="M32 700h269v-73h-88v-554h88v-73h-269v73h87v554h-87v73zM116 756h-67v67h67v-67zM285 756h-67v67h67v-67z" />
    <glyph glyph-name="Eth" unicode="&#xd0;" horiz-adv-x="748" 
d="M32 700h363q139 0 222.5 -94t83.5 -253t-81.5 -256t-220.5 -97h-367v73h87v253h-68v70h68v231h-87v73zM213 627v-231h100v-70h-100v-253h169q107 0 162.5 73.5t55.5 206.5q0 132 -57 203t-163 71h-167z" />
    <glyph glyph-name="Ntilde" unicode="&#xd1;" horiz-adv-x="751" 
d="M32 700h213l274 -504q7 -13 28 -66q-3 33 -3 73v424h-80v73h259v-73h-87v-627h-115l-288 537q-5 11 -14.5 34t-12.5 29q3 -30 3 -66v-461h87v-73h-264v73h87v554h-87v73zM312 843q35 0 75.5 -28.5t56.5 -28.5q38 0 45 42l38 -6q-5 -42 -26.5 -64.5t-55.5 -22.5
q-30 0 -71 29.5t-64 29.5q-39 0 -45 -45l-37 8q4 41 25.5 63.5t58.5 22.5z" />
    <glyph glyph-name="Ograve" unicode="&#xd2;" horiz-adv-x="740" 
d="M370 628q-108 0 -164.5 -76t-56.5 -202t56.5 -202t164.5 -76t164.5 76t56.5 202t-56.5 202t-164.5 76zM370 710q149 0 235.5 -102.5t86.5 -257.5t-86.5 -257.5t-235.5 -102.5q-148 0 -235.5 102.5t-87.5 257.5t87.5 257.5t235.5 102.5zM244 864l82 11l116 -150h-56z" />
    <glyph glyph-name="Oacute" unicode="&#xd3;" horiz-adv-x="740" 
d="M370 628q-108 0 -164.5 -76t-56.5 -202t56.5 -202t164.5 -76t164.5 76t56.5 202t-56.5 202t-164.5 76zM370 710q149 0 235.5 -102.5t86.5 -257.5t-86.5 -257.5t-235.5 -102.5q-148 0 -235.5 102.5t-87.5 257.5t87.5 257.5t235.5 102.5zM408 875l82 -11l-141 -139h-57z
" />
    <glyph glyph-name="Ocircumflex" unicode="&#xd4;" horiz-adv-x="740" 
d="M370 628q-108 0 -164.5 -76t-56.5 -202t56.5 -202t164.5 -76t164.5 76t56.5 202t-56.5 202t-164.5 76zM370 710q149 0 235.5 -102.5t86.5 -257.5t-86.5 -257.5t-235.5 -102.5q-148 0 -235.5 102.5t-87.5 257.5t87.5 257.5t235.5 102.5zM525 735l-55 -10l-99 96l-99 -96
l-55 10l119 140h70z" />
    <glyph glyph-name="Otilde" unicode="&#xd5;" horiz-adv-x="740" 
d="M370 628q-108 0 -164.5 -76t-56.5 -202t56.5 -202t164.5 -76t164.5 76t56.5 202t-56.5 202t-164.5 76zM370 710q149 0 235.5 -102.5t86.5 -257.5t-86.5 -257.5t-235.5 -102.5q-148 0 -235.5 102.5t-87.5 257.5t87.5 257.5t235.5 102.5zM308 843q35 0 75.5 -28.5
t56.5 -28.5q38 0 45 42l38 -6q-5 -42 -26.5 -64.5t-55.5 -22.5q-30 0 -71 29.5t-64 29.5q-39 0 -45 -45l-37 8q4 41 25.5 63.5t58.5 22.5z" />
    <glyph glyph-name="Odieresis" unicode="&#xd6;" horiz-adv-x="740" 
d="M370 628q-108 0 -164.5 -76t-56.5 -202t56.5 -202t164.5 -76t164.5 76t56.5 202t-56.5 202t-164.5 76zM370 710q149 0 235.5 -102.5t86.5 -257.5t-86.5 -257.5t-235.5 -102.5q-148 0 -235.5 102.5t-87.5 257.5t87.5 257.5t235.5 102.5zM319 756h-67v67h67v-67zM488 756
h-67v67h67v-67z" />
    <glyph glyph-name="multiply" unicode="&#xd7;" 
d="M117 537l184 -185l185 185l51 -51l-185 -185l185 -185l-51 -51l-185 184l-184 -184l-52 52l184 184l-184 184z" />
    <glyph glyph-name="Oslash" unicode="&#xd8;" horiz-adv-x="759" 
d="M581 700h86l-59 -85q94 -102 94 -265q0 -155 -87 -257.5t-236 -102.5q-98 0 -174 49l-27 -39h-87l59 85q-93 102 -93 265q0 155 87 257.5t235 102.5q98 0 174 -49zM379 628q-108 0 -164.5 -76t-56.5 -202q0 -117 46 -188l300 428q-52 38 -125 38zM600 350q0 114 -47 187
l-299 -428q51 -37 125 -37q108 0 164.5 76t56.5 202z" />
    <glyph glyph-name="Ugrave" unicode="&#xd9;" horiz-adv-x="739" 
d="M20 700h269v-73h-87v-415q0 -143 167 -143q168 0 168 143v415h-88v73h269v-73h-87v-433q0 -97 -75 -150.5t-189 -53.5q-113 0 -186.5 53.5t-73.5 150.5v433h-87v73zM242 864l82 11l116 -150h-56z" />
    <glyph glyph-name="Uacute" unicode="&#xda;" horiz-adv-x="739" 
d="M20 700h269v-73h-87v-415q0 -143 167 -143q168 0 168 143v415h-88v73h269v-73h-87v-433q0 -97 -75 -150.5t-189 -53.5q-113 0 -186.5 53.5t-73.5 150.5v433h-87v73zM431 875l82 -11l-141 -139h-57z" />
    <glyph glyph-name="Ucircumflex" unicode="&#xdb;" horiz-adv-x="739" 
d="M20 700h269v-73h-87v-415q0 -143 167 -143q168 0 168 143v415h-88v73h269v-73h-87v-433q0 -97 -75 -150.5t-189 -53.5q-113 0 -186.5 53.5t-73.5 150.5v433h-87v73zM528 735l-55 -10l-99 96l-99 -96l-55 10l119 140h70z" />
    <glyph glyph-name="Udieresis" unicode="&#xdc;" horiz-adv-x="739" 
d="M20 700h269v-73h-87v-415q0 -143 167 -143q168 0 168 143v415h-88v73h269v-73h-87v-433q0 -97 -75 -150.5t-189 -53.5q-113 0 -186.5 53.5t-73.5 150.5v433h-87v73zM322 756h-67v67h67v-67zM491 756h-67v67h67v-67z" />
    <glyph glyph-name="Yacute" unicode="&#xdd;" horiz-adv-x="671" 
d="M8 700h251v-73h-81l128 -194q21 -32 31 -55q7 15 33 55l129 194h-80v73h245v-73h-64l-219 -325v-229h87v-73h-269v73h87v229l-218 325h-60v73zM394 875l82 -11l-141 -139h-57z" />
    <glyph glyph-name="Thorn" unicode="&#xde;" horiz-adv-x="657" 
d="M32 700h269v-73h-88v-77h212q101 0 153.5 -49.5t52.5 -132.5q0 -87 -52 -138t-158 -51h-208v-106h96v-73h-277v73h87v554h-87v73zM404 484h-191v-244h191q130 0 130 126q0 118 -130 118z" />
    <glyph glyph-name="germandbls" unicode="&#xdf;" horiz-adv-x="579" 
d="M301 710q94 0 150.5 -46.5t56.5 -123.5q0 -148 -165 -165q91 -11 139.5 -56.5t48.5 -126.5q0 -83 -63.5 -140.5t-175.5 -57.5q-26 0 -56 6v72q30 -5 52 -5q77 0 112.5 38t35.5 96q0 68 -42 100t-137 32v70q89 0 124.5 30t35.5 92q0 110 -119 110t-119 -112v-523h-154v73
h67v455q0 85 57.5 133.5t151.5 48.5z" />
    <glyph glyph-name="agrave" unicode="&#xe0;" horiz-adv-x="543" 
d="M79 499q101 11 185 11q190 0 190 -154v-218q0 -74 68 -65v-73q-69 -8 -103 16t-41 84q-44 -109 -183 -109q-69 0 -109 37t-40 100q0 86 64 129t203 43q23 0 55 -2v58q0 87 -109 87q-56 0 -101 -7v-77h-79v140zM315 245q-180 0 -180 -105q0 -37 22.5 -58t63.5 -21
q61 0 104 36.5t43 100.5v45q-32 2 -53 2zM144 695l90 11l107 -166h-60z" />
    <glyph glyph-name="aacute" unicode="&#xe1;" horiz-adv-x="543" 
d="M79 499q101 11 185 11q190 0 190 -154v-218q0 -74 68 -65v-73q-69 -8 -103 16t-41 84q-44 -109 -183 -109q-69 0 -109 37t-40 100q0 86 64 129t203 43q23 0 55 -2v58q0 87 -109 87q-56 0 -101 -7v-77h-79v140zM315 245q-180 0 -180 -105q0 -37 22.5 -58t63.5 -21
q61 0 104 36.5t43 100.5v45q-32 2 -53 2zM301 706l90 -11l-137 -155h-61z" />
    <glyph glyph-name="acircumflex" unicode="&#xe2;" horiz-adv-x="543" 
d="M79 499q101 11 185 11q190 0 190 -154v-218q0 -74 68 -65v-73q-69 -8 -103 16t-41 84q-44 -109 -183 -109q-69 0 -109 37t-40 100q0 86 64 129t203 43q23 0 55 -2v58q0 87 -109 87q-56 0 -101 -7v-77h-79v140zM315 245q-180 0 -180 -105q0 -37 22.5 -58t63.5 -21
q61 0 104 36.5t43 100.5v45q-32 2 -53 2zM223 699h79l115 -151l-59 -11l-95 107l-95 -107l-59 11z" />
    <glyph glyph-name="atilde" unicode="&#xe3;" horiz-adv-x="543" 
d="M79 499q101 11 185 11q190 0 190 -154v-218q0 -74 68 -65v-73q-69 -8 -103 16t-41 84q-44 -109 -183 -109q-69 0 -109 37t-40 100q0 86 64 129t203 43q23 0 55 -2v58q0 87 -109 87q-56 0 -101 -7v-77h-79v140zM315 245q-180 0 -180 -105q0 -37 22.5 -58t63.5 -21
q61 0 104 36.5t43 100.5v45q-32 2 -53 2zM195 676q35 0 75.5 -29.5t56.5 -29.5q39 0 45 44l38 -7q-5 -44 -26.5 -68t-55.5 -24q-30 0 -71 30.5t-64 30.5q-39 0 -45 -47l-37 9q4 43 26 67t58 24z" />
    <glyph glyph-name="adieresis" unicode="&#xe4;" horiz-adv-x="543" 
d="M79 499q101 11 185 11q190 0 190 -154v-218q0 -74 68 -65v-73q-69 -8 -103 16t-41 84q-44 -109 -183 -109q-69 0 -109 37t-40 100q0 86 64 129t203 43q23 0 55 -2v58q0 87 -109 87q-56 0 -101 -7v-77h-79v140zM315 245q-180 0 -180 -105q0 -37 22.5 -58t63.5 -21
q61 0 104 36.5t43 100.5v45q-32 2 -53 2zM216 584h-67v70h67v-70zM377 584h-67v70h67v-70z" />
    <glyph glyph-name="aring" unicode="&#xe5;" horiz-adv-x="543" 
d="M79 499q101 11 185 11q190 0 190 -154v-218q0 -74 68 -65v-73q-69 -8 -103 16t-41 84q-44 -109 -183 -109q-69 0 -109 37t-40 100q0 86 64 129t203 43q23 0 55 -2v58q0 87 -109 87q-56 0 -101 -7v-77h-79v140zM315 245q-180 0 -180 -105q0 -37 22.5 -58t63.5 -21
q61 0 104 36.5t43 100.5v45q-32 2 -53 2zM262 711q49 0 81 -25.5t32 -67.5q0 -43 -32 -68t-81 -25q-48 0 -80.5 25t-32.5 68q0 42 32.5 67.5t80.5 25.5zM262 668q-28 0 -43.5 -14.5t-15.5 -35.5q0 -24 16.5 -37.5t42.5 -13.5q59 0 59 50q0 24 -17 37.5t-42 13.5z" />
    <glyph glyph-name="ae" unicode="&#xe6;" horiz-adv-x="868" 
d="M83 498q96 12 185 12q127 0 163 -72q63 72 172 72q108 0 164.5 -73.5t52.5 -191.5h-366q1 -85 38 -133.5t106 -48.5q46 0 79 25t44 67h88q-15 -80 -72 -122.5t-137 -42.5q-149 0 -204 123q-49 -122 -202 -122q-69 0 -108.5 36.5t-39.5 99.5q0 173 268 173h56v43
q0 50 -25 75t-83 25q-57 0 -100 -7v-79h-79v141zM223 58q60 0 103.5 38t43.5 103v46h-54q-181 0 -181 -106q0 -39 23 -60t65 -21zM598 440q-56 0 -92.5 -37.5t-47.5 -102.5h275q-3 62 -39.5 101t-95.5 39z" />
    <glyph glyph-name="ccedilla" unicode="&#xe7;" horiz-adv-x="516" 
d="M281 510q97 0 192 -12v-152h-83v84q-57 9 -110 9q-68 0 -106.5 -50.5t-38.5 -137.5q0 -86 37.5 -137.5t105.5 -51.5q52 0 84 27t40 77h87q-10 -75 -61.5 -122t-125.5 -53l-32 -51q17 4 37 4q46 0 73.5 -21.5t27.5 -56.5q0 -42 -36 -67.5t-93 -25.5q-70 0 -109 36l26 30
q21 -26 79 -26q33 0 50 12.5t17 33.5q0 24 -20 38.5t-62 14.5q-14 0 -58 -6l44 86q-93 11 -145.5 80.5t-52.5 177.5q0 124 63 192t170 68z" />
    <glyph glyph-name="egrave" unicode="&#xe8;" horiz-adv-x="545" 
d="M281 510q107 0 166 -78.5t54 -194.5h-364q2 -85 38.5 -130.5t103.5 -45.5q48 0 80.5 24.5t42.5 69.5h90q-18 -79 -75 -122t-137 -43q-107 0 -169.5 71t-62.5 189q0 117 63 188.5t170 71.5zM278 444q-60 0 -95.5 -38.5t-43.5 -109.5h270q-2 65 -37 106.5t-94 41.5z
M146 695l90 11l107 -166h-60z" />
    <glyph glyph-name="eacute" unicode="&#xe9;" horiz-adv-x="545" 
d="M281 510q107 0 166 -78.5t54 -194.5h-364q2 -85 38.5 -130.5t103.5 -45.5q48 0 80.5 24.5t42.5 69.5h90q-18 -79 -75 -122t-137 -43q-107 0 -169.5 71t-62.5 189q0 117 63 188.5t170 71.5zM278 444q-60 0 -95.5 -38.5t-43.5 -109.5h270q-2 65 -37 106.5t-94 41.5z
M316 706l90 -11l-137 -155h-61z" />
    <glyph glyph-name="ecircumflex" unicode="&#xea;" horiz-adv-x="545" 
d="M281 510q107 0 166 -78.5t54 -194.5h-364q2 -85 38.5 -130.5t103.5 -45.5q48 0 80.5 24.5t42.5 69.5h90q-18 -79 -75 -122t-137 -43q-107 0 -169.5 71t-62.5 189q0 117 63 188.5t170 71.5zM278 444q-60 0 -95.5 -38.5t-43.5 -109.5h270q-2 65 -37 106.5t-94 41.5z
M241 699h79l115 -151l-59 -11l-95 107l-95 -107l-59 11z" />
    <glyph glyph-name="edieresis" unicode="&#xeb;" horiz-adv-x="545" 
d="M281 510q107 0 166 -78.5t54 -194.5h-364q2 -85 38.5 -130.5t103.5 -45.5q48 0 80.5 24.5t42.5 69.5h90q-18 -79 -75 -122t-137 -43q-107 0 -169.5 71t-62.5 189q0 117 63 188.5t170 71.5zM278 444q-60 0 -95.5 -38.5t-43.5 -109.5h270q-2 65 -37 106.5t-94 41.5z
M234 584h-67v70h67v-70zM395 584h-67v70h67v-70z" />
    <glyph glyph-name="igrave" unicode="&#xec;" horiz-adv-x="272" 
d="M-8 695l90 11l107 -166h-60zM27 500h150v-427h67v-73h-217v73h68v354h-68v73z" />
    <glyph glyph-name="iacute" unicode="&#xed;" horiz-adv-x="272" 
d="M172 706l90 -11l-137 -155h-61zM27 500h150v-427h67v-73h-217v73h68v354h-68v73z" />
    <glyph glyph-name="icircumflex" unicode="&#xee;" horiz-adv-x="272" 
d="M27 500h150v-427h67v-73h-217v73h68v354h-68v73zM89 699h79l115 -151l-59 -11l-95 107l-95 -107l-59 11z" />
    <glyph glyph-name="idieresis" unicode="&#xef;" horiz-adv-x="272" 
d="M82 584h-67v70h67v-70zM243 584h-67v70h67v-70zM27 500h150v-427h67v-73h-217v73h68v354h-68v73z" />
    <glyph glyph-name="eth" unicode="&#xf0;" horiz-adv-x="595" 
d="M237 710q98 0 173 -53l56 55l35 -34l-54 -53q101 -103 101 -285q0 -165 -67 -257.5t-191 -92.5q-116 0 -179.5 68.5t-63.5 170.5q0 94 55 160.5t165 66.5q112 0 185 -85q-3 127 -63 197l-65 -64l-34 34l64 63q-55 41 -134 41zM287 389q-146 0 -146 -160q0 -74 36 -118.5
t109 -44.5q79 0 119.5 64t44.5 176q-65 83 -163 83z" />
    <glyph glyph-name="ntilde" unicode="&#xf1;" horiz-adv-x="589" 
d="M27 500h154v-98q43 108 165 108q77 0 116.5 -48t39.5 -136v-253h68v-73h-218v73h63v236q0 127 -100 127q-56 0 -94.5 -39.5t-39.5 -116.5v-207h63v-73h-217v73h68v354h-68v73zM227 676q35 0 75.5 -29.5t56.5 -29.5q39 0 45 44l38 -7q-5 -44 -26.5 -68t-55.5 -24
q-30 0 -71 30.5t-64 30.5q-39 0 -45 -47l-37 9q4 43 26 67t58 24z" />
    <glyph glyph-name="ograve" unicode="&#xf2;" horiz-adv-x="554" 
d="M277 437q-67 0 -104.5 -50t-37.5 -137t37.5 -137t104.5 -50t104 49.5t37 137.5q0 87 -37 137t-104 50zM277 510q103 0 166 -70.5t63 -189.5q0 -120 -62.5 -190t-166.5 -70t-166.5 70t-62.5 190q0 119 63 189.5t166 70.5zM163 695l90 11l107 -166h-60z" />
    <glyph glyph-name="oacute" unicode="&#xf3;" horiz-adv-x="554" 
d="M277 437q-67 0 -104.5 -50t-37.5 -137t37.5 -137t104.5 -50t104 49.5t37 137.5q0 87 -37 137t-104 50zM277 510q103 0 166 -70.5t63 -189.5q0 -120 -62.5 -190t-166.5 -70t-166.5 70t-62.5 190q0 119 63 189.5t166 70.5zM307 706l90 -11l-137 -155h-61z" />
    <glyph glyph-name="ocircumflex" unicode="&#xf4;" horiz-adv-x="554" 
d="M277 437q-67 0 -104.5 -50t-37.5 -137t37.5 -137t104.5 -50t104 49.5t37 137.5q0 87 -37 137t-104 50zM277 510q103 0 166 -70.5t63 -189.5q0 -120 -62.5 -190t-166.5 -70t-166.5 70t-62.5 190q0 119 63 189.5t166 70.5zM237 699h79l115 -151l-59 -11l-95 107l-95 -107
l-59 11z" />
    <glyph glyph-name="otilde" unicode="&#xf5;" horiz-adv-x="554" 
d="M277 437q-67 0 -104.5 -50t-37.5 -137t37.5 -137t104.5 -50t104 49.5t37 137.5q0 87 -37 137t-104 50zM277 510q103 0 166 -70.5t63 -189.5q0 -120 -62.5 -190t-166.5 -70t-166.5 70t-62.5 190q0 119 63 189.5t166 70.5zM211 676q35 0 75.5 -29.5t56.5 -29.5q39 0 45 44
l38 -7q-5 -44 -26.5 -68t-55.5 -24q-30 0 -71 30.5t-64 30.5q-39 0 -45 -47l-37 9q4 43 26 67t58 24z" />
    <glyph glyph-name="odieresis" unicode="&#xf6;" horiz-adv-x="554" 
d="M277 437q-67 0 -104.5 -50t-37.5 -137t37.5 -137t104.5 -50t104 49.5t37 137.5q0 87 -37 137t-104 50zM277 510q103 0 166 -70.5t63 -189.5q0 -120 -62.5 -190t-166.5 -70t-166.5 70t-62.5 190q0 119 63 189.5t166 70.5zM229 584h-67v70h67v-70zM390 584h-67v70h67v-70z
" />
    <glyph glyph-name="divide" unicode="&#xf7;" 
d="M554 265h-505v72h505v-72zM251 554h100v-98h-100v98zM251 157h100v-98h-100v98z" />
    <glyph glyph-name="oslash" unicode="&#xf8;" horiz-adv-x="551" 
d="M423 500h68l-45 -63q60 -69 60 -187q0 -121 -61.5 -190.5t-167.5 -69.5q-74 0 -127 35l-18 -25h-69l44 62q-59 70 -59 188q0 120 61.5 190t167.5 70q72 0 127 -36zM277 436q-67 0 -105 -50.5t-38 -135.5q0 -72 25 -116l199 276q-34 26 -81 26zM420 250q0 68 -25 116
l-199 -277q34 -25 81 -25q67 0 105 50t38 136z" />
    <glyph glyph-name="ugrave" unicode="&#xf9;" horiz-adv-x="589" 
d="M19 500h155v-309q0 -62 23 -94.5t76 -32.5q56 0 94 38.5t41 116.5v208h-68v73h154v-427h68v-73h-154v98q-43 -108 -164 -108q-78 0 -117.5 48t-39.5 136v253h-68v73zM152 695l90 11l107 -166h-60z" />
    <glyph glyph-name="uacute" unicode="&#xfa;" horiz-adv-x="589" 
d="M19 500h155v-309q0 -62 23 -94.5t76 -32.5q56 0 94 38.5t41 116.5v208h-68v73h154v-427h68v-73h-154v98q-43 -108 -164 -108q-78 0 -117.5 48t-39.5 136v253h-68v73zM326 706l90 -11l-137 -155h-61z" />
    <glyph glyph-name="ucircumflex" unicode="&#xfb;" horiz-adv-x="589" 
d="M19 500h155v-309q0 -62 23 -94.5t76 -32.5q56 0 94 38.5t41 116.5v208h-68v73h154v-427h68v-73h-154v98q-43 -108 -164 -108q-78 0 -117.5 48t-39.5 136v253h-68v73zM242 699h79l115 -151l-59 -11l-95 107l-95 -107l-59 11z" />
    <glyph glyph-name="udieresis" unicode="&#xfc;" horiz-adv-x="589" 
d="M19 500h155v-309q0 -62 23 -94.5t76 -32.5q56 0 94 38.5t41 116.5v208h-68v73h154v-427h68v-73h-154v98q-43 -108 -164 -108q-78 0 -117.5 48t-39.5 136v253h-68v73zM233 584h-67v70h67v-70zM394 584h-67v70h67v-70z" />
    <glyph glyph-name="yacute" unicode="&#xfd;" horiz-adv-x="532" 
d="M7 500h202v-73h-59l100 -297q7 -22 17 -76q8 49 17 76l103 297h-59v73h197v-73h-54l-171 -479q-33 -98 -84.5 -130.5t-139.5 -32.5v77q47 1 76 16.5t43 53.5l18 49l-153 446h-53v73zM319 706l90 -11l-137 -155h-61z" />
    <glyph glyph-name="thorn" unicode="&#xfe;" horiz-adv-x="600" 
d="M324 438q-66 0 -104.5 -49t-38.5 -144q0 -79 36.5 -131t106.5 -52q67 0 102 50t35 138t-35 138t-102 50zM27 700h154v-314q18 54 60 89t104 35q95 0 150.5 -71.5t55.5 -188.5t-55.5 -188.5t-150.5 -71.5q-59 0 -103 35.5t-61 87.5v-251h68v-73h-222v73h68v765h-68v73z
" />
    <glyph glyph-name="ydieresis" unicode="&#xff;" horiz-adv-x="532" 
d="M7 500h202v-73h-59l100 -297q7 -22 17 -76q8 49 17 76l103 297h-59v73h197v-73h-54l-171 -479q-33 -98 -84.5 -130.5t-139.5 -32.5v77q47 1 76 16.5t43 53.5l18 49l-153 446h-53v73zM220 584h-67v70h67v-70zM381 584h-67v70h67v-70z" />
    <glyph glyph-name="Amacron" unicode="&#x100;" horiz-adv-x="700" 
d="M178 700h346v-73h-83l198 -554h70v-73h-257v73h84l-50 144h-276l-51 -144h89v-73h-257v73h70l200 554h-83v73zM348 638q-13 -52 -26 -91l-90 -259h231l-90 260q-14 46 -25 90zM474 748h-248v52h248v-52z" />
    <glyph glyph-name="amacron" unicode="&#x101;" horiz-adv-x="543" 
d="M79 499q101 11 185 11q190 0 190 -154v-218q0 -74 68 -65v-73q-69 -8 -103 16t-41 84q-44 -109 -183 -109q-69 0 -109 37t-40 100q0 86 64 129t203 43q23 0 55 -2v58q0 87 -109 87q-56 0 -101 -7v-77h-79v140zM315 245q-180 0 -180 -105q0 -37 22.5 -58t63.5 -21
q61 0 104 36.5t43 100.5v45q-32 2 -53 2zM389 576h-248v57h248v-57z" />
    <glyph glyph-name="Abreve" unicode="&#x102;" horiz-adv-x="700" 
d="M178 700h346v-73h-83l198 -554h70v-73h-257v73h84l-50 144h-276l-51 -144h89v-73h-257v73h70l200 554h-83v73zM348 638q-13 -52 -26 -91l-90 -259h231l-90 260q-14 46 -25 90zM232 838l47 5q2 -65 73 -65q37 0 55.5 18t18.5 47l47 -5q-1 -50 -34 -80t-87 -30
q-53 0 -86 30t-34 80z" />
    <glyph glyph-name="abreve" unicode="&#x103;" horiz-adv-x="543" 
d="M79 499q101 11 185 11q190 0 190 -154v-218q0 -74 68 -65v-73q-69 -8 -103 16t-41 84q-44 -109 -183 -109q-69 0 -109 37t-40 100q0 86 64 129t203 43q23 0 55 -2v58q0 87 -109 87q-56 0 -101 -7v-77h-79v140zM315 245q-180 0 -180 -105q0 -37 22.5 -58t63.5 -21
q61 0 104 36.5t43 100.5v45q-32 2 -53 2zM141 675l53 6q0 -35 18.5 -55t52.5 -20q36 0 53.5 21.5t18.5 53.5l53 -6q-1 -55 -35.5 -88.5t-89.5 -33.5q-54 0 -88.5 33.5t-35.5 88.5z" />
    <glyph glyph-name="Aogonek" unicode="&#x104;" horiz-adv-x="700" 
d="M178 700h346v-73h-83l198 -554h70v-73h-71q-56 -44 -56 -106q0 -25 15.5 -39.5t41.5 -14.5q1 0 25 3v-54q-20 -5 -39 -5q-49 0 -79.5 24.5t-30.5 66.5q0 75 77 125h-140v73h84l-50 144h-276l-51 -144h89v-73h-257v73h70l200 554h-83v73zM348 638q-13 -52 -26 -91
l-90 -259h231l-90 260q-14 46 -25 90z" />
    <glyph glyph-name="aogonek" unicode="&#x105;" horiz-adv-x="543" 
d="M79 499q101 11 185 11q190 0 190 -154v-218q0 -74 68 -65v-73q-11 0 -16 -1q-55 -44 -55 -105q0 -25 15.5 -39.5t41.5 -14.5q1 0 25 3v-54q-20 -5 -39 -5q-49 0 -79.5 24.5t-30.5 66.5q0 75 77 125q-74 12 -83 100q-44 -109 -183 -109q-69 0 -109 37t-40 100q0 86 64 129
t203 43q23 0 55 -2v58q0 87 -109 87q-56 0 -101 -7v-77h-79v140zM315 245q-180 0 -180 -105q0 -37 22.5 -58t63.5 -21q61 0 104 36.5t43 100.5v45q-32 2 -53 2z" />
    <glyph glyph-name="Cacute" unicode="&#x106;" horiz-adv-x="679" 
d="M383 710q113 0 243 -32v-166h-95v97q-79 19 -151 19q-113 0 -172 -76t-59 -202t60 -201.5t172 -75.5q77 0 150 19v96h95v-166q-130 -32 -245 -32q-153 0 -243.5 102.5t-90.5 257.5q0 156 89.5 258t246.5 102zM425 875l82 -11l-141 -139h-57z" />
    <glyph glyph-name="cacute" unicode="&#x107;" horiz-adv-x="516" 
d="M281 510q97 0 192 -12v-152h-83v84q-57 9 -110 9q-68 0 -106.5 -50.5t-38.5 -137.5q0 -86 37.5 -137.5t105.5 -51.5q52 0 84 27t40 77h87q-11 -80 -68.5 -128t-139.5 -48q-108 0 -170.5 71t-62.5 189q0 124 63 192t170 68zM319 706l90 -11l-137 -155h-61z" />
    <glyph glyph-name="Ccircumflex" unicode="&#x108;" horiz-adv-x="679" 
d="M383 710q113 0 243 -32v-166h-95v97q-79 19 -151 19q-113 0 -172 -76t-59 -202t60 -201.5t172 -75.5q77 0 150 19v96h95v-166q-130 -32 -245 -32q-153 0 -243.5 102.5t-90.5 257.5q0 156 89.5 258t246.5 102zM543 735l-55 -10l-99 96l-99 -96l-55 10l119 140h70z" />
    <glyph glyph-name="ccircumflex" unicode="&#x109;" horiz-adv-x="516" 
d="M281 510q97 0 192 -12v-152h-83v84q-57 9 -110 9q-68 0 -106.5 -50.5t-38.5 -137.5q0 -86 37.5 -137.5t105.5 -51.5q52 0 84 27t40 77h87q-11 -80 -68.5 -128t-139.5 -48q-108 0 -170.5 71t-62.5 189q0 124 63 192t170 68zM249 699h79l115 -151l-59 -11l-95 107l-95 -107
l-59 11z" />
    <glyph glyph-name="Cdotaccent" unicode="&#x10a;" horiz-adv-x="679" 
d="M383 710q113 0 243 -32v-166h-95v97q-79 19 -151 19q-113 0 -172 -76t-59 -202t60 -201.5t172 -75.5q77 0 150 19v96h95v-166q-130 -32 -245 -32q-153 0 -243.5 102.5t-90.5 257.5q0 156 89.5 258t246.5 102zM431 756h-84v71h84v-71z" />
    <glyph glyph-name="cdotaccent" unicode="&#x10b;" horiz-adv-x="516" 
d="M281 510q97 0 192 -12v-152h-83v84q-57 9 -110 9q-68 0 -106.5 -50.5t-38.5 -137.5q0 -86 37.5 -137.5t105.5 -51.5q52 0 84 27t40 77h87q-11 -80 -68.5 -128t-139.5 -48q-108 0 -170.5 71t-62.5 189q0 124 63 192t170 68zM329 584h-87v80h87v-80z" />
    <glyph glyph-name="Ccaron" unicode="&#x10c;" horiz-adv-x="679" 
d="M383 710q113 0 243 -32v-166h-95v97q-79 19 -151 19q-113 0 -172 -76t-59 -202t60 -201.5t172 -75.5q77 0 150 19v96h95v-166q-130 -32 -245 -32q-153 0 -243.5 102.5t-90.5 257.5q0 156 89.5 258t246.5 102zM231 864l55 11l99 -97l99 97l55 -11l-119 -139h-70z" />
    <glyph glyph-name="ccaron" unicode="&#x10d;" horiz-adv-x="516" 
d="M281 510q97 0 192 -12v-152h-83v84q-57 9 -110 9q-68 0 -106.5 -50.5t-38.5 -137.5q0 -86 37.5 -137.5t105.5 -51.5q52 0 84 27t40 77h87q-11 -80 -68.5 -128t-139.5 -48q-108 0 -170.5 71t-62.5 189q0 124 63 192t170 68zM134 690l59 12l94 -107l96 107l59 -12
l-115 -150h-79z" />
    <glyph glyph-name="Dcaron" unicode="&#x10e;" horiz-adv-x="748" 
d="M213 627v-554h169q107 0 162.5 73.5t55.5 206.5q0 132 -57 203t-163 71h-167zM32 700h363q139 0 222.5 -94t83.5 -253t-81.5 -256t-220.5 -97h-367v73h87v554h-87v73zM183 864l55 11l99 -97l99 97l55 -11l-119 -139h-70z" />
    <glyph glyph-name="dcaron" unicode="&#x10f;" horiz-adv-x="599" 
d="M277 438q-67 0 -103 -50t-36 -138t36 -138t103 -50q70 0 105.5 52t35.5 131q0 95 -37.5 144t-103.5 49zM351 700h154v-627h67v-73h-154v113q-17 -52 -59.5 -87.5t-101.5 -35.5q-95 0 -152 72t-57 188q0 117 57 188.5t152 71.5q62 0 102.5 -34.5t58.5 -89.5v241h-67v73z
M549 700h80l-37 -151h-43v151z" />
    <glyph glyph-name="Dcroat" unicode="&#x110;" horiz-adv-x="748" 
d="M32 700h363q139 0 222.5 -94t83.5 -253t-81.5 -256t-220.5 -97h-367v73h87v257h-69v57h69v240h-87v73zM298 330h-85v-257h169q107 0 162.5 73.5t55.5 206.5q0 132 -57 203t-163 71h-167v-240h85v-57z" />
    <glyph glyph-name="dcroat" unicode="&#x111;" horiz-adv-x="599" 
d="M351 700h154v-86h60v-51h-60v-490h67v-73h-154v113q-17 -52 -59.5 -87.5t-101.5 -35.5q-95 0 -152 72t-57 188q0 117 57 188.5t152 71.5q62 0 102.5 -34.5t58.5 -89.5v177h-100v51h100v13h-67v73zM277 438q-67 0 -103 -50t-36 -138t36 -138t103 -50q70 0 105.5 52
t35.5 131q0 95 -37.5 144t-103.5 49z" />
    <glyph glyph-name="Emacron" unicode="&#x112;" horiz-adv-x="649" 
d="M32 700h560v-164h-94v91h-285v-228h278v-72h-278v-254h289v95h94v-168h-564v73h87v554h-87v73zM461 748h-248v52h248v-52z" />
    <glyph glyph-name="emacron" unicode="&#x113;" horiz-adv-x="545" 
d="M281 510q107 0 166 -78.5t54 -194.5h-364q2 -85 38.5 -130.5t103.5 -45.5q48 0 80.5 24.5t42.5 69.5h90q-18 -79 -75 -122t-137 -43q-107 0 -169.5 71t-62.5 189q0 117 63 188.5t170 71.5zM278 444q-60 0 -95.5 -38.5t-43.5 -109.5h270q-2 65 -37 106.5t-94 41.5z
M404 576h-248v57h248v-57z" />
    <glyph glyph-name="Ebreve" unicode="&#x114;" horiz-adv-x="649" 
d="M32 700h560v-164h-94v91h-285v-228h278v-72h-278v-254h289v95h94v-168h-564v73h87v554h-87v73zM217 838l47 5q2 -65 73 -65q37 0 55.5 18t18.5 47l47 -5q-1 -50 -34 -80t-87 -30q-53 0 -86 30t-34 80z" />
    <glyph glyph-name="ebreve" unicode="&#x115;" horiz-adv-x="545" 
d="M281 510q107 0 166 -78.5t54 -194.5h-364q2 -85 38.5 -130.5t103.5 -45.5q48 0 80.5 24.5t42.5 69.5h90q-18 -79 -75 -122t-137 -43q-107 0 -169.5 71t-62.5 189q0 117 63 188.5t170 71.5zM278 444q-60 0 -95.5 -38.5t-43.5 -109.5h270q-2 65 -37 106.5t-94 41.5z
M156 675l53 6q0 -35 18.5 -55t52.5 -20q36 0 53.5 21.5t18.5 53.5l53 -6q-1 -55 -35.5 -88.5t-89.5 -33.5q-54 0 -88.5 33.5t-35.5 88.5z" />
    <glyph glyph-name="Edotaccent" unicode="&#x116;" horiz-adv-x="649" 
d="M32 700h560v-164h-94v91h-285v-228h278v-72h-278v-254h289v95h94v-168h-564v73h87v554h-87v73zM379 756h-84v71h84v-71z" />
    <glyph glyph-name="edotaccent" unicode="&#x117;" horiz-adv-x="545" 
d="M281 510q107 0 166 -78.5t54 -194.5h-364q2 -85 38.5 -130.5t103.5 -45.5q48 0 80.5 24.5t42.5 69.5h90q-18 -79 -75 -122t-137 -43q-107 0 -169.5 71t-62.5 189q0 117 63 188.5t170 71.5zM278 444q-60 0 -95.5 -38.5t-43.5 -109.5h270q-2 65 -37 106.5t-94 41.5z
M322 584h-87v80h87v-80z" />
    <glyph glyph-name="Eogonek" unicode="&#x118;" horiz-adv-x="649" 
d="M32 700h560v-164h-94v91h-285v-228h278v-72h-278v-254h289v95h94v-168h-70q-56 -44 -56 -106q0 -25 15.5 -39.5t41.5 -14.5q1 0 25 3v-54q-20 -5 -39 -5q-49 0 -79.5 24.5t-30.5 66.5q0 75 77 125h-448v73h87v554h-87v73z" />
    <glyph glyph-name="eogonek" unicode="&#x119;" horiz-adv-x="545" 
d="M281 510q107 0 166 -78.5t54 -194.5h-364q2 -85 38.5 -130.5t103.5 -45.5q48 0 80.5 24.5t42.5 69.5h90q-14 -62 -52.5 -101.5t-94.5 -54.5q-54 -44 -54 -105q0 -25 15.5 -39.5t41.5 -14.5q1 0 25 3v-54q-20 -5 -39 -5q-49 0 -79.5 24.5t-30.5 66.5q0 66 63 115h-7
q-107 0 -169.5 71t-62.5 189q0 117 63 188.5t170 71.5zM278 444q-60 0 -95.5 -38.5t-43.5 -109.5h270q-2 65 -37 106.5t-94 41.5z" />
    <glyph glyph-name="Ecaron" unicode="&#x11a;" horiz-adv-x="649" 
d="M32 700h560v-164h-94v91h-285v-228h278v-72h-278v-254h289v95h94v-168h-564v73h87v554h-87v73zM190 864l55 11l99 -97l99 97l55 -11l-119 -139h-70z" />
    <glyph glyph-name="ecaron" unicode="&#x11b;" horiz-adv-x="545" 
d="M281 510q107 0 166 -78.5t54 -194.5h-364q2 -85 38.5 -130.5t103.5 -45.5q48 0 80.5 24.5t42.5 69.5h90q-18 -79 -75 -122t-137 -43q-107 0 -169.5 71t-62.5 189q0 117 63 188.5t170 71.5zM278 444q-60 0 -95.5 -38.5t-43.5 -109.5h270q-2 65 -37 106.5t-94 41.5z
M125 690l59 12l94 -107l96 107l59 -12l-115 -150h-79z" />
    <glyph glyph-name="Gcircumflex" unicode="&#x11c;" horiz-adv-x="749" 
d="M382 710q122 0 255 -40v-163h-95v95q-74 25 -164 25q-111 0 -170 -75.5t-59 -201.5q0 -128 57.5 -203.5t165.5 -75.5q86 0 140.5 58.5t54.5 169.5h-205v71h299v-370h-89v158q-22 -73 -74.5 -120.5t-145.5 -47.5q-130 0 -217 99t-88 261q0 156 89.5 258t245.5 102z
M539 735l-55 -10l-99 96l-99 -96l-55 10l119 140h70z" />
    <glyph glyph-name="gcircumflex" unicode="&#x11d;" horiz-adv-x="557" 
d="M520 622v-74q-49 0 -74.5 -17t-27.5 -60q69 -50 69 -139q0 -77 -55 -124t-155 -47q-55 0 -100 18q-28 -20 -28 -49q0 -48 65 -48h156q155 0 155 -126q0 -80 -62.5 -128t-190.5 -48q-221 0 -221 134q0 39 21.5 69.5t58.5 47.5q-62 20 -62 78q0 29 18.5 55.5t44.5 40.5
q-62 48 -62 130q0 80 55 127.5t154 47.5q41 0 84 -12q1 33 15 57l-50 -10l-89 108l-90 -108l-55 11l107 152h74l106 -148q36 62 139 62zM190 23q-51 -28 -51 -85q0 -93 135 -93q84 0 122 31t38 79q0 66 -91 66h-125q-12 0 -28 2zM279 446q-58 0 -88.5 -30t-30.5 -83
q0 -49 31 -79.5t88 -30.5q58 0 89.5 30t31.5 80q0 52 -31 82.5t-90 30.5z" />
    <glyph glyph-name="Gbreve" unicode="&#x11e;" horiz-adv-x="749" 
d="M382 710q122 0 255 -40v-163h-95v95q-74 25 -164 25q-111 0 -170 -75.5t-59 -201.5q0 -128 57.5 -203.5t165.5 -75.5q86 0 140.5 58.5t54.5 169.5h-205v71h299v-370h-89v158q-22 -73 -74.5 -120.5t-145.5 -47.5q-130 0 -217 99t-88 261q0 156 89.5 258t245.5 102z
M258 838l47 5q2 -65 73 -65q37 0 55.5 18t18.5 47l47 -5q-1 -50 -34 -80t-87 -30q-53 0 -86 30t-34 80z" />
    <glyph glyph-name="gbreve" unicode="&#x11f;" horiz-adv-x="557" 
d="M520 622v-74q-49 0 -74.5 -17t-27.5 -60q69 -50 69 -139q0 -77 -55 -124t-155 -47q-55 0 -100 18q-28 -20 -28 -49q0 -48 65 -48h156q155 0 155 -126q0 -80 -62.5 -128t-190.5 -48q-221 0 -221 134q0 39 21.5 69.5t58.5 47.5q-62 20 -62 78q0 29 18.5 55.5t44.5 40.5
q-62 48 -62 130q0 80 55 127.5t154 47.5q41 0 84 -12q3 60 44.5 92t112.5 32zM190 23q-51 -28 -51 -85q0 -93 135 -93q84 0 122 31t38 79q0 66 -91 66h-125q-12 0 -28 2zM279 446q-58 0 -88.5 -30t-30.5 -83q0 -49 31 -79.5t88 -30.5q58 0 89.5 30t31.5 80q0 52 -31 82.5
t-90 30.5zM132 675l53 6q0 -35 18.5 -55t52.5 -20q36 0 53.5 21.5t18.5 53.5l53 -6q-1 -55 -35.5 -88.5t-89.5 -33.5q-54 0 -88.5 33.5t-35.5 88.5z" />
    <glyph glyph-name="Gdotaccent" unicode="&#x120;" horiz-adv-x="749" 
d="M382 710q122 0 255 -40v-163h-95v95q-74 25 -164 25q-111 0 -170 -75.5t-59 -201.5q0 -128 57.5 -203.5t165.5 -75.5q86 0 140.5 58.5t54.5 169.5h-205v71h299v-370h-89v158q-22 -73 -74.5 -120.5t-145.5 -47.5q-130 0 -217 99t-88 261q0 156 89.5 258t245.5 102z
M423 756h-84v71h84v-71z" />
    <glyph glyph-name="gdotaccent" unicode="&#x121;" horiz-adv-x="557" 
d="M520 622v-74q-49 0 -74.5 -17t-27.5 -60q69 -50 69 -139q0 -77 -55 -124t-155 -47q-55 0 -100 18q-28 -20 -28 -49q0 -48 65 -48h156q155 0 155 -126q0 -80 -62.5 -128t-190.5 -48q-221 0 -221 134q0 39 21.5 69.5t58.5 47.5q-62 20 -62 78q0 29 18.5 55.5t44.5 40.5
q-62 48 -62 130q0 80 55 127.5t154 47.5q41 0 84 -12q3 60 44.5 92t112.5 32zM190 23q-51 -28 -51 -85q0 -93 135 -93q84 0 122 31t38 79q0 66 -91 66h-125q-12 0 -28 2zM279 446q-58 0 -88.5 -30t-30.5 -83q0 -49 31 -79.5t88 -30.5q58 0 89.5 30t31.5 80q0 52 -31 82.5
t-90 30.5zM309 584h-87v80h87v-80z" />
    <glyph glyph-name="Gcommaaccent" unicode="&#x122;" horiz-adv-x="749" 
d="M382 710q122 0 255 -40v-163h-95v95q-74 25 -164 25q-111 0 -170 -75.5t-59 -201.5q0 -128 57.5 -203.5t165.5 -75.5q86 0 140.5 58.5t54.5 169.5h-205v71h299v-370h-89v158q-22 -73 -74.5 -120.5t-145.5 -47.5q-130 0 -217 99t-88 261q0 156 89.5 258t245.5 102z
M334 -48h80v-51q0 -77 -79 -123l-14 29q49 27 49 82h-36v63z" />
    <glyph glyph-name="gcommaaccent" unicode="&#x123;" horiz-adv-x="557" 
d="M520 622v-74q-49 0 -74.5 -17t-27.5 -60q69 -50 69 -139q0 -77 -55 -124t-155 -47q-55 0 -100 18q-28 -20 -28 -49q0 -48 65 -48h156q155 0 155 -126q0 -80 -62.5 -128t-190.5 -48q-221 0 -221 134q0 39 21.5 69.5t58.5 47.5q-62 20 -62 78q0 29 18.5 55.5t44.5 40.5
q-62 48 -62 130q0 80 55 127.5t154 47.5q41 0 84 -12q3 60 44.5 92t112.5 32zM190 23q-51 -28 -51 -85q0 -93 135 -93q84 0 122 31t38 79q0 66 -91 66h-125q-12 0 -28 2zM279 446q-58 0 -88.5 -30t-30.5 -83q0 -49 31 -79.5t88 -30.5q58 0 89.5 30t31.5 80q0 52 -31 82.5
t-90 30.5zM313 738l18 -26q-34 -13 -53.5 -37.5t-19.5 -54.5h38v-67h-89v67q0 39 30.5 71t75.5 47z" />
    <glyph glyph-name="Hcircumflex" unicode="&#x124;" horiz-adv-x="753" 
d="M32 700h269v-73h-88v-227h327v227h-88v73h270v-73h-88v-554h88v-73h-270v73h88v253h-327v-253h88v-73h-269v73h87v554h-87v73zM531 735l-55 -10l-99 96l-99 -96l-55 10l119 140h70z" />
    <glyph glyph-name="hcircumflex" unicode="&#x125;" horiz-adv-x="589" 
d="M27 700h154v-298q43 108 164 108q78 0 117.5 -48t39.5 -136v-253h68v-73h-218v73h63v236q0 127 -100 127q-56 0 -95 -39.5t-39 -116.5v-207h63v-73h-217v73h68v554h-68v73zM366 735l-55 -10l-99 96l-99 -96l-55 10l119 140h70z" />
    <glyph glyph-name="Hbar" unicode="&#x126;" horiz-adv-x="753" 
d="M32 700h269v-73h-88v-80h327v80h-88v73h270v-73h-88v-80h65v-34h-65v-440h88v-73h-270v73h88v253h-327v-253h88v-73h-269v73h87v440h-63v34h63v80h-87v73zM213 400h327v113h-327v-113z" />
    <glyph glyph-name="hbar" unicode="&#x127;" horiz-adv-x="597" 
d="M27 700h154v-111h93v-31h-93v-156q43 108 164 108q78 0 117.5 -48t39.5 -136v-253h68v-73h-218v73h63v236q0 127 -100 127q-56 0 -95 -39.5t-39 -116.5v-207h63v-73h-217v73h68v485h-68v31h68v49h-68v62z" />
    <glyph glyph-name="Itilde" unicode="&#x128;" horiz-adv-x="332" 
d="M32 700h269v-73h-88v-554h88v-73h-269v73h87v554h-87v73zM101 843q35 0 75.5 -28.5t56.5 -28.5q38 0 45 42l38 -6q-5 -42 -26.5 -64.5t-55.5 -22.5q-30 0 -71 29.5t-64 29.5q-39 0 -45 -45l-37 8q4 41 25.5 63.5t58.5 22.5z" />
    <glyph glyph-name="itilde" unicode="&#x129;" horiz-adv-x="272" 
d="M62 676q35 0 75.5 -29.5t56.5 -29.5q39 0 45 44l38 -7q-5 -44 -26.5 -68t-55.5 -24q-30 0 -71 30.5t-64 30.5q-39 0 -45 -47l-37 9q4 43 26 67t58 24zM27 500h150v-427h67v-73h-217v73h68v354h-68v73z" />
    <glyph glyph-name="Imacron" unicode="&#x12a;" horiz-adv-x="332" 
d="M32 700h269v-73h-88v-554h88v-73h-269v73h87v554h-87v73zM291 748h-248v52h248v-52z" />
    <glyph glyph-name="imacron" unicode="&#x12b;" horiz-adv-x="272" 
d="M252 576h-248v57h248v-57zM27 500h150v-427h67v-73h-217v73h68v354h-68v73z" />
    <glyph glyph-name="Ibreve" unicode="&#x12c;" horiz-adv-x="332" 
d="M32 700h269v-73h-88v-554h88v-73h-269v73h87v554h-87v73zM46 838l47 5q2 -65 73 -65q37 0 55.5 18t18.5 47l47 -5q-1 -50 -34 -80t-87 -30q-53 0 -86 30t-34 80z" />
    <glyph glyph-name="ibreve" unicode="&#x12d;" horiz-adv-x="272" 
d="M6 675l53 6q0 -35 18.5 -55t52.5 -20q36 0 53.5 21.5t18.5 53.5l53 -6q-1 -55 -35.5 -88.5t-89.5 -33.5q-54 0 -88.5 33.5t-35.5 88.5zM27 500h150v-427h67v-73h-217v73h68v354h-68v73z" />
    <glyph glyph-name="Iogonek" unicode="&#x12e;" horiz-adv-x="332" 
d="M32 700h269v-73h-88v-554h88v-73h-100q-56 -44 -56 -106q0 -25 15.5 -39.5t41.5 -14.5q1 0 25 3v-54q-20 -5 -39 -5q-49 0 -79.5 24.5t-30.5 66.5q0 75 77 125h-123v73h87v554h-87v73z" />
    <glyph glyph-name="iogonek" unicode="&#x12f;" horiz-adv-x="276" 
d="M27 500h154v-427h68v-73h-73q-56 -44 -56 -106q0 -25 15.5 -39.5t41.5 -14.5q1 0 25 3v-54q-20 -5 -39 -5q-49 0 -79.5 24.5t-30.5 66.5q0 75 77 125h-103v73h68v354h-68v73zM94 664h88v-80h-88v80z" />
    <glyph glyph-name="Idotaccent" unicode="&#x130;" horiz-adv-x="332" 
d="M32 700h269v-73h-88v-554h88v-73h-269v73h87v554h-87v73zM208 756h-84v71h84v-71z" />
    <glyph glyph-name="dotlessi" unicode="&#x131;" horiz-adv-x="272" 
d="M27 500h150v-427h67v-73h-217v73h68v354h-68v73z" />
    <glyph glyph-name="IJ" unicode="&#x132;" horiz-adv-x="865" 
d="M32 700h269v-73h-88v-554h88v-73h-269v73h87v554h-87v73zM591 700h269v-73h-88v-435q0 -93 -60.5 -147.5t-166.5 -54.5q-90 0 -150 51.5t-65 127.5h98q4 -43 35 -71t86 -28q129 0 129 120v437h-87v73z" />
    <glyph glyph-name="ij" unicode="&#x133;" horiz-adv-x="516" 
d="M94 664h88v-80h-88v80zM27 500h154v-427h68v-73h-222v73h68v354h-68v73zM279 500h154v-555q0 -78 -48.5 -119t-117.5 -42v73q41 0 60.5 19.5t19.5 72.5v478h-68v73zM345 664h89v-80h-89v80z" />
    <glyph glyph-name="Jcircumflex" unicode="&#x134;" horiz-adv-x="544" 
d="M271 700h269v-73h-88v-435q0 -93 -60.5 -147.5t-166.5 -54.5q-90 0 -150 51.5t-65 127.5h98q4 -43 35 -71t86 -28q129 0 129 120v437h-87v73zM554 735l-55 -10l-99 96l-99 -96l-55 10l119 140h70z" />
    <glyph glyph-name="jcircumflex" unicode="&#x135;" horiz-adv-x="272" 
d="M28 500h150v-555q0 -78 -47 -119t-115 -42v69q40 0 60 21.5t20 74.5v478h-68v73zM85 699h79l115 -151l-59 -11l-95 107l-95 -107l-59 11z" />
    <glyph glyph-name="Kcommaaccent" unicode="&#x136;" horiz-adv-x="681" 
d="M32 700h269v-73h-88v-554h88v-73h-269v73h87v554h-87v73zM391 700h270v-73h-75l-254 -259l269 -295h73v-73h-273v73h88l-267 289l254 265h-85v73zM302 -48h80v-51q0 -77 -79 -123l-14 29q49 27 49 82h-36v63z" />
    <glyph glyph-name="kcommaaccent" unicode="&#x137;" horiz-adv-x="518" 
d="M27 700h154v-627h68v-73h-222v73h68v554h-68v73zM287 500h218v-73h-59l-167 -163l172 -191h57v-73h-110l-216 256l169 171h-64v73zM235 -48h80v-51q0 -77 -79 -123l-14 29q49 27 49 82h-36v63z" />
    <glyph glyph-name="Lacute" unicode="&#x139;" horiz-adv-x="596" 
d="M32 700h274v-73h-93v-554h273v115h94v-188h-548v73h87v554h-87v73zM252 875l82 -11l-141 -139h-57z" />
    <glyph glyph-name="lacute" unicode="&#x13a;" horiz-adv-x="276" 
d="M27 700h154v-627h68v-73h-222v73h68v554h-68v73zM186 875l82 -11l-141 -139h-57z" />
    <glyph glyph-name="Lcommaaccent" unicode="&#x13b;" horiz-adv-x="596" 
d="M32 700h274v-73h-93v-554h273v115h94v-188h-548v73h87v554h-87v73zM277 -48h80v-51q0 -77 -79 -123l-14 29q49 27 49 82h-36v63z" />
    <glyph glyph-name="lcommaaccent" unicode="&#x13c;" horiz-adv-x="276" 
d="M27 700h154v-627h68v-73h-222v73h68v554h-68v73zM95 -48h80v-51q0 -77 -79 -123l-14 29q49 27 49 82h-36v63z" />
    <glyph glyph-name="Lcaron" unicode="&#x13d;" horiz-adv-x="596" 
d="M32 700h274v-73h-93v-554h273v115h94v-188h-548v73h87v554h-87v73zM336 700h80l-37 -151h-43v151z" />
    <glyph glyph-name="lcaron" unicode="&#x13e;" horiz-adv-x="276" 
d="M27 700h154v-627h68v-73h-222v73h68v554h-68v73zM218 700h80l-37 -151h-43v151z" />
    <glyph glyph-name="Lslash" unicode="&#x141;" horiz-adv-x="596" 
d="M32 700h274v-73h-93v-225l119 101l35 -46l-154 -130v-254h273v115h94v-188h-548v73h87v175l-66 -55l-34 46l100 84v304h-87v73z" />
    <glyph glyph-name="lslash" unicode="&#x142;" horiz-adv-x="276" 
d="M27 700h154v-159l47 47l36 -35l-83 -83v-397h68v-73h-222v73h68v311l-52 -52l-36 35l88 88v172h-68v73z" />
    <glyph glyph-name="Nacute" unicode="&#x143;" horiz-adv-x="751" 
d="M32 700h213l274 -504q7 -13 28 -66q-3 33 -3 73v424h-80v73h259v-73h-87v-627h-115l-288 537q-5 11 -14.5 34t-12.5 29q3 -30 3 -66v-461h87v-73h-264v73h87v554h-87v73zM431 875l82 -11l-141 -139h-57z" />
    <glyph glyph-name="nacute" unicode="&#x144;" horiz-adv-x="589" 
d="M27 500h154v-98q43 108 165 108q77 0 116.5 -48t39.5 -136v-253h68v-73h-218v73h63v236q0 127 -100 127q-56 0 -94.5 -39.5t-39.5 -116.5v-207h63v-73h-217v73h68v354h-68v73zM336 706l90 -11l-137 -155h-61z" />
    <glyph glyph-name="Ncommaaccent" unicode="&#x145;" horiz-adv-x="751" 
d="M32 700h213l274 -504q7 -13 28 -66q-3 33 -3 73v424h-80v73h259v-73h-87v-627h-115l-288 537q-5 11 -14.5 34t-12.5 29q3 -30 3 -66v-461h87v-73h-264v73h87v554h-87v73zM341 -48h80v-51q0 -77 -79 -123l-14 29q49 27 49 82h-36v63z" />
    <glyph glyph-name="ncommaaccent" unicode="&#x146;" horiz-adv-x="589" 
d="M27 500h154v-98q43 108 165 108q77 0 116.5 -48t39.5 -136v-253h68v-73h-218v73h63v236q0 127 -100 127q-56 0 -94.5 -39.5t-39.5 -116.5v-207h63v-73h-217v73h68v354h-68v73zM255 -48h80v-51q0 -77 -79 -123l-14 29q49 27 49 82h-36v63z" />
    <glyph glyph-name="Ncaron" unicode="&#x147;" horiz-adv-x="751" 
d="M32 700h213l274 -504q7 -13 28 -66q-3 33 -3 73v424h-80v73h259v-73h-87v-627h-115l-288 537q-5 11 -14.5 34t-12.5 29q3 -30 3 -66v-461h87v-73h-264v73h87v554h-87v73zM224 864l55 11l99 -97l99 97l55 -11l-119 -139h-70z" />
    <glyph glyph-name="ncaron" unicode="&#x148;" horiz-adv-x="589" 
d="M27 500h154v-98q43 108 165 108q77 0 116.5 -48t39.5 -136v-253h68v-73h-218v73h63v236q0 127 -100 127q-56 0 -94.5 -39.5t-39.5 -116.5v-207h63v-73h-217v73h68v354h-68v73zM142 690l59 12l94 -107l96 107l59 -12l-115 -150h-79z" />
    <glyph glyph-name="napostrophe" unicode="&#x149;" horiz-adv-x="589" 
d="M27 500h154v-98q43 108 165 108q77 0 116.5 -48t39.5 -136v-253h68v-73h-218v73h63v236q0 127 -100 127q-56 0 -94.5 -39.5t-39.5 -116.5v-207h63v-73h-217v73h68v354h-68v73zM87 714h80v-51q0 -77 -79 -123l-14 29q49 27 49 82h-36v63z" />
    <glyph glyph-name="Eng" unicode="&#x14a;" horiz-adv-x="757" 
d="M32 700h214l299 -542v469h-79v73h259v-73h-87v-682q0 -78 -47 -119t-115 -42v71q78 2 78 85v60h-33l-312 581v-508h87v-73h-264v73h87v554h-87v73z" />
    <glyph glyph-name="eng" unicode="&#x14b;" horiz-adv-x="589" 
d="M27 500h154v-98q43 108 164 108q78 0 117.5 -48t39.5 -136v-357q0 -78 -48.5 -119t-117.5 -42v71q38 1 58.5 20.5t20.5 69.5v340q0 62 -23 94.5t-76 32.5q-56 0 -95.5 -39.5t-39.5 -116.5v-207h68v-73h-222v73h68v354h-68v73z" />
    <glyph glyph-name="Omacron" unicode="&#x14c;" horiz-adv-x="740" 
d="M370 628q-108 0 -164.5 -76t-56.5 -202t56.5 -202t164.5 -76t164.5 76t56.5 202t-56.5 202t-164.5 76zM370 710q149 0 235.5 -102.5t86.5 -257.5t-86.5 -257.5t-235.5 -102.5q-148 0 -235.5 102.5t-87.5 257.5t87.5 257.5t235.5 102.5zM494 748h-248v52h248v-52z" />
    <glyph glyph-name="omacron" unicode="&#x14d;" horiz-adv-x="554" 
d="M277 437q-67 0 -104.5 -50t-37.5 -137t37.5 -137t104.5 -50t104 49.5t37 137.5q0 87 -37 137t-104 50zM277 510q103 0 166 -70.5t63 -189.5q0 -120 -62.5 -190t-166.5 -70t-166.5 70t-62.5 190q0 119 63 189.5t166 70.5zM401 576h-248v57h248v-57z" />
    <glyph glyph-name="Obreve" unicode="&#x14e;" horiz-adv-x="740" 
d="M370 628q-108 0 -164.5 -76t-56.5 -202t56.5 -202t164.5 -76t164.5 76t56.5 202t-56.5 202t-164.5 76zM370 710q149 0 235.5 -102.5t86.5 -257.5t-86.5 -257.5t-235.5 -102.5q-148 0 -235.5 102.5t-87.5 257.5t87.5 257.5t235.5 102.5zM249 838l47 5q2 -65 73 -65
q37 0 55.5 18t18.5 47l47 -5q-1 -50 -34 -80t-87 -30q-53 0 -86 30t-34 80z" />
    <glyph glyph-name="obreve" unicode="&#x14f;" horiz-adv-x="554" 
d="M277 437q-67 0 -104.5 -50t-37.5 -137t37.5 -137t104.5 -50t104 49.5t37 137.5q0 87 -37 137t-104 50zM277 510q103 0 166 -70.5t63 -189.5q0 -120 -62.5 -190t-166.5 -70t-166.5 70t-62.5 190q0 119 63 189.5t166 70.5zM152 675l53 6q0 -35 18.5 -55t52.5 -20
q36 0 53.5 21.5t18.5 53.5l53 -6q-1 -55 -35.5 -88.5t-89.5 -33.5q-54 0 -88.5 33.5t-35.5 88.5z" />
    <glyph glyph-name="Ohungarumlaut" unicode="&#x150;" horiz-adv-x="740" 
d="M370 628q-108 0 -164.5 -76t-56.5 -202t56.5 -202t164.5 -76t164.5 76t56.5 202t-56.5 202t-164.5 76zM370 710q149 0 235.5 -102.5t86.5 -257.5t-86.5 -257.5t-235.5 -102.5q-148 0 -235.5 102.5t-87.5 257.5t87.5 257.5t235.5 102.5zM336 874l70 -10l-116 -135h-48z
M493 874l69 -10l-116 -135h-48z" />
    <glyph glyph-name="ohungarumlaut" unicode="&#x151;" horiz-adv-x="554" 
d="M277 437q-67 0 -104.5 -50t-37.5 -137t37.5 -137t104.5 -50t104 49.5t37 137.5q0 87 -37 137t-104 50zM277 510q103 0 166 -70.5t63 -189.5q0 -120 -62.5 -190t-166.5 -70t-166.5 70t-62.5 190q0 119 63 189.5t166 70.5zM255 706l70 -11l-116 -151h-48zM397 706l70 -11
l-116 -151h-48z" />
    <glyph glyph-name="OE" unicode="&#x152;" horiz-adv-x="1074" 
d="M370 628q-108 0 -164.5 -76t-56.5 -202t56.5 -202t164.5 -76t164.5 76t56.5 202t-56.5 202t-164.5 76zM370 710q40 0 83 -10h567v-164h-94v91h-362q54 -32 86.5 -93t37.5 -135h231v-72h-229q-2 -84 -34.5 -151.5t-90.5 -102.5h365v95h95v-168h-572q-43 -10 -83 -10
q-148 0 -235.5 102.5t-87.5 257.5t87.5 257.5t235.5 102.5z" />
    <glyph glyph-name="oe" unicode="&#x153;" horiz-adv-x="919" 
d="M653 510q105 0 164 -78t55 -194h-368q2 -85 39.5 -131t105.5 -46q48 0 80.5 24t42.5 69h88q-19 -79 -75 -121.5t-135 -42.5q-126 0 -188 97q-59 -97 -185 -97q-106 0 -167.5 69.5t-61.5 190.5q0 120 61.5 190t167.5 70q125 0 185 -98q64 98 191 98zM277 436
q-67 0 -104.5 -50t-37.5 -136t37.5 -136t104.5 -50t104 50t37 136t-37 136t-104 50zM649 445q-62 0 -98.5 -39t-44.5 -111h277q-2 64 -38.5 107t-95.5 43z" />
    <glyph glyph-name="Racute" unicode="&#x154;" horiz-adv-x="716" 
d="M213 376h189q129 0 129 130q0 120 -129 120h-189v-250zM32 700h394q102 0 152.5 -51t50.5 -131q0 -76 -42 -124t-119 -56q148 -18 148 -265h84v-73h-272v73h93q0 231 -127 231h-181v-231h96v-73h-277v73h87v554h-87v73zM390 875l82 -11l-141 -139h-57z" />
    <glyph glyph-name="racute" unicode="&#x155;" horiz-adv-x="428" 
d="M27 500h154v-110q18 53 59.5 86.5t104.5 33.5q31 0 56 -5v-163h-79v80q-14 2 -26 2q-46 0 -80.5 -44t-34.5 -113v-194h68v-73h-222v73h68v354h-68v73zM276 706l90 -11l-137 -155h-61z" />
    <glyph glyph-name="Rcommaaccent" unicode="&#x156;" horiz-adv-x="716" 
d="M213 376h189q129 0 129 130q0 120 -129 120h-189v-250zM32 700h394q102 0 152.5 -51t50.5 -131q0 -76 -42 -124t-119 -56q148 -18 148 -265h84v-73h-272v73h93q0 231 -127 231h-181v-231h96v-73h-277v73h87v554h-87v73zM307 -48h80v-51q0 -77 -79 -123l-14 29
q49 27 49 82h-36v63z" />
    <glyph glyph-name="rcommaaccent" unicode="&#x157;" horiz-adv-x="428" 
d="M27 500h154v-110q18 53 59.5 86.5t104.5 33.5q31 0 56 -5v-163h-79v80q-14 2 -26 2q-46 0 -80.5 -44t-34.5 -113v-194h68v-73h-222v73h68v354h-68v73zM98 -48h80v-51q0 -77 -79 -123l-14 29q49 27 49 82h-36v63z" />
    <glyph glyph-name="Rcaron" unicode="&#x158;" horiz-adv-x="716" 
d="M213 376h189q129 0 129 130q0 120 -129 120h-189v-250zM32 700h394q102 0 152.5 -51t50.5 -131q0 -76 -42 -124t-119 -56q148 -18 148 -265h84v-73h-272v73h93q0 231 -127 231h-181v-231h96v-73h-277v73h87v554h-87v73zM185 864l55 11l99 -97l99 97l55 -11l-119 -139h-70
z" />
    <glyph glyph-name="rcaron" unicode="&#x159;" horiz-adv-x="428" 
d="M27 500h154v-110q18 53 59.5 86.5t104.5 33.5q31 0 56 -5v-163h-79v80q-14 2 -26 2q-46 0 -80.5 -44t-34.5 -113v-194h68v-73h-222v73h68v354h-68v73zM77 690l59 12l94 -107l96 107l59 -12l-115 -150h-79z" />
    <glyph glyph-name="Sacute" unicode="&#x15a;" horiz-adv-x="632" 
d="M316 710q101 0 235 -31v-158h-94v95q-84 20 -142 20q-81 0 -117 -33t-36 -84q0 -58 38.5 -81.5t119.5 -34.5q125 -14 193 -59.5t68 -143.5q0 -91 -69.5 -150.5t-197.5 -59.5q-110 0 -245 33v161h95v-98q84 -22 152 -22q83 0 124 36.5t41 91.5q0 63 -43.5 88.5
t-135.5 38.5q-121 16 -179.5 57t-58.5 136q0 85 64 141.5t188 56.5zM372 875l82 -11l-141 -139h-57z" />
    <glyph glyph-name="sacute" unicode="&#x15b;" horiz-adv-x="504" 
d="M257 510q87 0 177 -14v-135h-79v75q-47 10 -95 10q-57 0 -85 -22t-28 -54q0 -37 29.5 -52t89.5 -25q44 -6 72.5 -13t59.5 -22.5t46.5 -44t15.5 -69.5q0 -67 -52.5 -110.5t-155.5 -43.5q-91 0 -146 42t-58 110h82q3 -40 37 -63.5t87 -23.5q62 0 91.5 23t29.5 56
q0 42 -30.5 58.5t-92.5 25.5q-35 5 -56 9.5t-50 15t-44.5 25t-27.5 39t-12 57.5q0 61 53 103.5t142 42.5zM291 706l90 -11l-137 -155h-61z" />
    <glyph glyph-name="Scircumflex" unicode="&#x15c;" horiz-adv-x="632" 
d="M316 710q101 0 235 -31v-158h-94v95q-84 20 -142 20q-81 0 -117 -33t-36 -84q0 -58 38.5 -81.5t119.5 -34.5q125 -14 193 -59.5t68 -143.5q0 -91 -69.5 -150.5t-197.5 -59.5q-110 0 -245 33v161h95v-98q84 -22 152 -22q83 0 124 36.5t41 91.5q0 63 -43.5 88.5
t-135.5 38.5q-121 16 -179.5 57t-58.5 136q0 85 64 141.5t188 56.5zM487 735l-55 -10l-99 96l-99 -96l-55 10l119 140h70z" />
    <glyph glyph-name="scircumflex" unicode="&#x15d;" horiz-adv-x="504" 
d="M257 510q87 0 177 -14v-135h-79v75q-47 10 -95 10q-57 0 -85 -22t-28 -54q0 -37 29.5 -52t89.5 -25q44 -6 72.5 -13t59.5 -22.5t46.5 -44t15.5 -69.5q0 -67 -52.5 -110.5t-155.5 -43.5q-91 0 -146 42t-58 110h82q3 -40 37 -63.5t87 -23.5q62 0 91.5 23t29.5 56
q0 42 -30.5 58.5t-92.5 25.5q-35 5 -56 9.5t-50 15t-44.5 25t-27.5 39t-12 57.5q0 61 53 103.5t142 42.5zM225 699h79l115 -151l-59 -11l-95 107l-95 -107l-59 11z" />
    <glyph glyph-name="Scedilla" unicode="&#x15e;" horiz-adv-x="632" 
d="M316 710q101 0 235 -31v-158h-94v95q-84 20 -142 20q-81 0 -117 -33t-36 -84q0 -58 38.5 -81.5t119.5 -34.5q125 -14 193 -59.5t68 -143.5q0 -87 -64 -145.5t-181 -63.5l-32 -51q17 4 37 4q46 0 73.5 -21.5t27.5 -56.5q0 -42 -36 -67.5t-93 -25.5q-70 0 -109 36l26 30
q21 -26 79 -26q33 0 50 12.5t17 33.5q0 24 -20 38.5t-62 14.5q-14 0 -58 -6l44 85q-102 4 -211 32v161h95v-98q84 -22 152 -22q83 0 124 36.5t41 91.5q0 63 -43.5 88.5t-135.5 38.5q-121 16 -179.5 57t-58.5 136q0 85 64 141.5t188 56.5z" />
    <glyph glyph-name="Scedilla" unicode="&#xf6c1;" horiz-adv-x="632" 
d="M316 710q101 0 235 -31v-158h-94v95q-84 20 -142 20q-81 0 -117 -33t-36 -84q0 -58 38.5 -81.5t119.5 -34.5q125 -14 193 -59.5t68 -143.5q0 -87 -64 -145.5t-181 -63.5l-32 -51q17 4 37 4q46 0 73.5 -21.5t27.5 -56.5q0 -42 -36 -67.5t-93 -25.5q-70 0 -109 36l26 30
q21 -26 79 -26q33 0 50 12.5t17 33.5q0 24 -20 38.5t-62 14.5q-14 0 -58 -6l44 85q-102 4 -211 32v161h95v-98q84 -22 152 -22q83 0 124 36.5t41 91.5q0 63 -43.5 88.5t-135.5 38.5q-121 16 -179.5 57t-58.5 136q0 85 64 141.5t188 56.5z" />
    <glyph glyph-name="scedilla" unicode="&#x15f;" horiz-adv-x="504" 
d="M257 510q87 0 177 -14v-135h-79v75q-47 10 -95 10q-57 0 -85 -22t-28 -54q0 -37 29.5 -52t89.5 -25q44 -6 72.5 -13t59.5 -22.5t46.5 -44t15.5 -69.5q0 -64 -47.5 -106.5t-142.5 -46.5l-32 -51q17 4 37 4q46 0 73.5 -21.5t27.5 -56.5q0 -42 -36 -67.5t-93 -25.5
q-70 0 -109 36l26 30q21 -26 79 -26q33 0 50 12.5t17 33.5q0 24 -20 38.5t-62 14.5q-14 0 -58 -6l45 86q-76 8 -120.5 48.5t-46.5 101.5h82q3 -40 37 -63.5t87 -23.5q62 0 91.5 23t29.5 56q0 42 -30.5 58.5t-92.5 25.5q-35 5 -56 9.5t-50 15t-44.5 25t-27.5 39t-12 57.5
q0 61 53 103.5t142 42.5z" />
    <glyph glyph-name="scedilla" unicode="&#xf6c2;" horiz-adv-x="504" 
d="M257 510q87 0 177 -14v-135h-79v75q-47 10 -95 10q-57 0 -85 -22t-28 -54q0 -37 29.5 -52t89.5 -25q44 -6 72.5 -13t59.5 -22.5t46.5 -44t15.5 -69.5q0 -64 -47.5 -106.5t-142.5 -46.5l-32 -51q17 4 37 4q46 0 73.5 -21.5t27.5 -56.5q0 -42 -36 -67.5t-93 -25.5
q-70 0 -109 36l26 30q21 -26 79 -26q33 0 50 12.5t17 33.5q0 24 -20 38.5t-62 14.5q-14 0 -58 -6l45 86q-76 8 -120.5 48.5t-46.5 101.5h82q3 -40 37 -63.5t87 -23.5q62 0 91.5 23t29.5 56q0 42 -30.5 58.5t-92.5 25.5q-35 5 -56 9.5t-50 15t-44.5 25t-27.5 39t-12 57.5
q0 61 53 103.5t142 42.5z" />
    <glyph glyph-name="Scaron" unicode="&#x160;" horiz-adv-x="632" 
d="M316 710q101 0 235 -31v-158h-94v95q-84 20 -142 20q-81 0 -117 -33t-36 -84q0 -58 38.5 -81.5t119.5 -34.5q125 -14 193 -59.5t68 -143.5q0 -91 -69.5 -150.5t-197.5 -59.5q-110 0 -245 33v161h95v-98q84 -22 152 -22q83 0 124 36.5t41 91.5q0 63 -43.5 88.5
t-135.5 38.5q-121 16 -179.5 57t-58.5 136q0 85 64 141.5t188 56.5zM172 864l55 11l99 -97l99 97l55 -11l-119 -139h-70z" />
    <glyph glyph-name="scaron" unicode="&#x161;" horiz-adv-x="504" 
d="M257 510q87 0 177 -14v-135h-79v75q-47 10 -95 10q-57 0 -85 -22t-28 -54q0 -37 29.5 -52t89.5 -25q44 -6 72.5 -13t59.5 -22.5t46.5 -44t15.5 -69.5q0 -67 -52.5 -110.5t-155.5 -43.5q-91 0 -146 42t-58 110h82q3 -40 37 -63.5t87 -23.5q62 0 91.5 23t29.5 56
q0 42 -30.5 58.5t-92.5 25.5q-35 5 -56 9.5t-50 15t-44.5 25t-27.5 39t-12 57.5q0 61 53 103.5t142 42.5zM109 690l59 12l94 -107l96 107l59 -12l-115 -150h-79z" />
    <glyph glyph-name="Tcommaaccent" unicode="&#x162;" horiz-adv-x="612" 
d="M16 700h580v-170h-86v97h-157v-554h87v-73h-269v73h88v554h-158v-97h-85v170zM267 -48h80v-51q0 -77 -79 -123l-14 29q49 27 49 82h-36v63z" />
    <glyph glyph-name="Tcommaaccent" unicode="&#x21a;" horiz-adv-x="612" 
d="M16 700h580v-170h-86v97h-157v-554h87v-73h-269v73h88v554h-158v-97h-85v170zM267 -48h80v-51q0 -77 -79 -123l-14 29q49 27 49 82h-36v63z" />
    <glyph glyph-name="tcommaaccent" unicode="&#x163;" horiz-adv-x="337" 
d="M92 614h86v-114h143v-73h-143v-265q0 -96 84 -96q26 0 59 9v-75q-36 -7 -72 -7q-157 0 -157 157v277h-78v73h78v114zM147 -48h80v-51q0 -77 -79 -123l-14 29q49 27 49 82h-36v63z" />
    <glyph glyph-name="tcommaaccent" unicode="&#x21b;" horiz-adv-x="337" 
d="M92 614h86v-114h143v-73h-143v-265q0 -96 84 -96q26 0 59 9v-75q-36 -7 -72 -7q-157 0 -157 157v277h-78v73h78v114zM147 -48h80v-51q0 -77 -79 -123l-14 29q49 27 49 82h-36v63z" />
    <glyph glyph-name="Tcaron" unicode="&#x164;" horiz-adv-x="612" 
d="M16 700h580v-170h-86v97h-157v-554h87v-73h-269v73h88v554h-158v-97h-85v170zM152 864l55 11l99 -97l99 97l55 -11l-119 -139h-70z" />
    <glyph glyph-name="tcaron" unicode="&#x165;" horiz-adv-x="337" 
d="M92 614h86v-114h143v-73h-143v-265q0 -96 84 -96q26 0 59 9v-75q-36 -7 -72 -7q-157 0 -157 157v277h-78v73h78v114zM241 700h80l-37 -151h-43v151z" />
    <glyph glyph-name="Tbar" unicode="&#x166;" horiz-adv-x="612" 
d="M16 700h580v-170h-86v97h-157v-249h96v-57h-96v-248h87v-73h-269v73h88v248h-99v57h99v249h-158v-97h-85v170z" />
    <glyph glyph-name="tbar" unicode="&#x167;" horiz-adv-x="337" 
d="M92 614h86v-114h143v-73h-143v-124h108v-52h-108v-89q0 -96 84 -96q26 0 59 9v-75q-36 -7 -72 -7q-157 0 -157 157v101h-53v52h53v124h-78v73h78v114z" />
    <glyph glyph-name="Utilde" unicode="&#x168;" horiz-adv-x="739" 
d="M20 700h269v-73h-87v-415q0 -143 167 -143q168 0 168 143v415h-88v73h269v-73h-87v-433q0 -97 -75 -150.5t-189 -53.5q-113 0 -186.5 53.5t-73.5 150.5v433h-87v73zM308 843q35 0 75.5 -28.5t56.5 -28.5q38 0 45 42l38 -6q-5 -42 -26.5 -64.5t-55.5 -22.5q-30 0 -71 29.5
t-64 29.5q-39 0 -45 -45l-37 8q4 41 25.5 63.5t58.5 22.5z" />
    <glyph glyph-name="utilde" unicode="&#x169;" horiz-adv-x="589" 
d="M19 500h155v-309q0 -62 23 -94.5t76 -32.5q56 0 94 38.5t41 116.5v208h-68v73h154v-427h68v-73h-154v98q-43 -108 -164 -108q-78 0 -117.5 48t-39.5 136v253h-68v73zM214 676q35 0 75.5 -29.5t56.5 -29.5q39 0 45 44l38 -7q-5 -44 -26.5 -68t-55.5 -24q-30 0 -71 30.5
t-64 30.5q-39 0 -45 -47l-37 9q4 43 26 67t58 24z" />
    <glyph glyph-name="Umacron" unicode="&#x16a;" horiz-adv-x="739" 
d="M20 700h269v-73h-87v-415q0 -143 167 -143q168 0 168 143v415h-88v73h269v-73h-87v-433q0 -97 -75 -150.5t-189 -53.5q-113 0 -186.5 53.5t-73.5 150.5v433h-87v73zM497 748h-248v52h248v-52z" />
    <glyph glyph-name="umacron" unicode="&#x16b;" horiz-adv-x="589" 
d="M19 500h155v-309q0 -62 23 -94.5t76 -32.5q56 0 94 38.5t41 116.5v208h-68v73h154v-427h68v-73h-154v98q-43 -108 -164 -108q-78 0 -117.5 48t-39.5 136v253h-68v73zM407 576h-248v57h248v-57z" />
    <glyph glyph-name="Ubreve" unicode="&#x16c;" horiz-adv-x="739" 
d="M20 700h269v-73h-87v-415q0 -143 167 -143q168 0 168 143v415h-88v73h269v-73h-87v-433q0 -97 -75 -150.5t-189 -53.5q-113 0 -186.5 53.5t-73.5 150.5v433h-87v73zM252 838l47 5q2 -65 73 -65q37 0 55.5 18t18.5 47l47 -5q-1 -50 -34 -80t-87 -30q-53 0 -86 30t-34 80z
" />
    <glyph glyph-name="ubreve" unicode="&#x16d;" horiz-adv-x="589" 
d="M19 500h155v-309q0 -62 23 -94.5t76 -32.5q56 0 94 38.5t41 116.5v208h-68v73h154v-427h68v-73h-154v98q-43 -108 -164 -108q-78 0 -117.5 48t-39.5 136v253h-68v73zM158 675l53 6q0 -35 18.5 -55t52.5 -20q36 0 53.5 21.5t18.5 53.5l53 -6q-1 -55 -35.5 -88.5
t-89.5 -33.5q-54 0 -88.5 33.5t-35.5 88.5z" />
    <glyph glyph-name="Uring" unicode="&#x16e;" horiz-adv-x="739" 
d="M20 700h269v-73h-87v-415q0 -143 167 -143q168 0 168 143v415h-88v73h269v-73h-87v-433q0 -97 -75 -150.5t-189 -53.5q-113 0 -186.5 53.5t-73.5 150.5v433h-87v73zM373 870q49 0 80.5 -21t31.5 -59t-31.5 -58t-80.5 -20t-80 20t-31 58t31.5 59t79.5 21zM373 834
q-30 0 -46.5 -12t-16.5 -32q0 -22 17.5 -33t45.5 -11q63 0 63 44q0 22 -18 33t-45 11z" />
    <glyph glyph-name="uring" unicode="&#x16f;" horiz-adv-x="589" 
d="M19 500h155v-309q0 -62 23 -94.5t76 -32.5q56 0 94 38.5t41 116.5v208h-68v73h154v-427h68v-73h-154v98q-43 -108 -164 -108q-78 0 -117.5 48t-39.5 136v253h-68v73zM279 711q49 0 81 -25.5t32 -67.5q0 -43 -32 -68t-81 -25q-48 0 -80.5 25t-32.5 68q0 42 32.5 67.5
t80.5 25.5zM279 668q-28 0 -43.5 -14.5t-15.5 -35.5q0 -24 16.5 -37.5t42.5 -13.5q59 0 59 50q0 24 -17 37.5t-42 13.5z" />
    <glyph glyph-name="Uhungarumlaut" unicode="&#x170;" horiz-adv-x="739" 
d="M20 700h269v-73h-87v-415q0 -143 167 -143q168 0 168 143v415h-88v73h269v-73h-87v-433q0 -97 -75 -150.5t-189 -53.5q-113 0 -186.5 53.5t-73.5 150.5v433h-87v73zM347 874l70 -10l-116 -135h-48zM504 874l69 -10l-116 -135h-48z" />
    <glyph glyph-name="uhungarumlaut" unicode="&#x171;" horiz-adv-x="589" 
d="M19 500h155v-309q0 -62 23 -94.5t76 -32.5q56 0 94 38.5t41 116.5v208h-68v73h154v-427h68v-73h-154v98q-43 -108 -164 -108q-78 0 -117.5 48t-39.5 136v253h-68v73zM261 706l70 -11l-116 -151h-48zM403 706l70 -11l-116 -151h-48z" />
    <glyph glyph-name="Uogonek" unicode="&#x172;" horiz-adv-x="739" 
d="M20 700h269v-73h-87v-415q0 -143 167 -143q168 0 168 143v415h-88v73h269v-73h-87v-433q0 -82 -54 -133t-143 -65q-51 -44 -51 -102q0 -25 15.5 -39.5t41.5 -14.5q1 0 25 3v-54q-20 -5 -39 -5q-49 0 -79.5 24.5t-30.5 66.5q0 66 63 115h-12q-113 0 -186.5 53.5
t-73.5 150.5v433h-87v73z" />
    <glyph glyph-name="uogonek" unicode="&#x173;" horiz-adv-x="589" 
d="M19 500h155v-309q0 -62 23 -94.5t76 -32.5q56 0 94 38.5t41 116.5v208h-68v73h154v-427h68v-73h-83q-56 -44 -56 -106q0 -25 15.5 -39.5t41.5 -14.5q1 0 25 3v-54q-20 -5 -39 -5q-49 0 -79.5 24.5t-30.5 66.5q0 75 77 125h-25v98q-43 -108 -164 -108q-78 0 -117.5 48
t-39.5 136v253h-68v73z" />
    <glyph glyph-name="Wcircumflex" unicode="&#x174;" horiz-adv-x="1025" 
d="M10 700h255v-73h-83l119 -464q8 -31 14 -75q6 39 16 75l136 537h88l137 -537q10 -43 15 -75q5 32 15 75l123 464h-85v73h255v-73h-79l-170 -627h-116l-126 482q-6 26 -15 82q-5 -44 -15 -82l-124 -482h-116l-167 627h-77v73zM664 735l-55 -10l-99 96l-99 -96l-55 10
l119 140h70z" />
    <glyph glyph-name="wcircumflex" unicode="&#x175;" horiz-adv-x="793" 
d="M7 500h198v-73h-59l81 -284q10 -39 14 -70q7 37 15 70l100 357h83l98 -357q8 -33 15 -70q4 31 14 70l82 284h-60v73h198v-73h-54l-123 -427h-104l-93 327q-13 54 -16 76q-3 -27 -18 -76l-95 -327h-101l-122 427h-53v73zM356 699h79l115 -151l-59 -11l-95 107l-95 -107
l-59 11z" />
    <glyph glyph-name="Ycircumflex" unicode="&#x176;" horiz-adv-x="671" 
d="M8 700h251v-73h-81l128 -194q21 -32 31 -55q7 15 33 55l129 194h-80v73h245v-73h-64l-219 -325v-229h87v-73h-269v73h87v229l-218 325h-60v73zM492 735l-55 -10l-99 96l-99 -96l-55 10l119 140h70z" />
    <glyph glyph-name="ycircumflex" unicode="&#x177;" horiz-adv-x="532" 
d="M7 500h202v-73h-59l100 -297q7 -22 17 -76q8 49 17 76l103 297h-59v73h197v-73h-54l-171 -479q-33 -98 -84.5 -130.5t-139.5 -32.5v77q47 1 76 16.5t43 53.5l18 49l-153 446h-53v73zM229 699h79l115 -151l-59 -11l-95 107l-95 -107l-59 11z" />
    <glyph glyph-name="Ydieresis" unicode="&#x178;" horiz-adv-x="671" 
d="M8 700h251v-73h-81l128 -194q21 -32 31 -55q7 15 33 55l129 194h-80v73h245v-73h-64l-219 -325v-229h87v-73h-269v73h87v229l-218 325h-60v73zM287 756h-67v67h67v-67zM456 756h-67v67h67v-67z" />
    <glyph glyph-name="Zacute" unicode="&#x179;" horiz-adv-x="624" 
d="M48 700h529v-75l-424 -552h339v91h94v-164h-545v74l425 553h-324v-91h-94v164zM374 875l82 -11l-141 -139h-57z" />
    <glyph glyph-name="zacute" unicode="&#x17a;" horiz-adv-x="474" 
d="M44 500h386v-67l-287 -360h297v-73h-403v67l293 366h-206v-76h-80v143zM277 706l90 -11l-137 -155h-61z" />
    <glyph glyph-name="Zdotaccent" unicode="&#x17b;" horiz-adv-x="624" 
d="M48 700h529v-75l-424 -552h339v91h94v-164h-545v74l425 553h-324v-91h-94v164zM354 756h-84v71h84v-71z" />
    <glyph glyph-name="zdotaccent" unicode="&#x17c;" horiz-adv-x="474" 
d="M44 500h386v-67l-287 -360h297v-73h-403v67l293 366h-206v-76h-80v143zM282 584h-87v80h87v-80z" />
    <glyph glyph-name="Zcaron" unicode="&#x17d;" horiz-adv-x="624" 
d="M48 700h529v-75l-424 -552h339v91h94v-164h-545v74l425 553h-324v-91h-94v164zM163 864l55 11l99 -97l99 97l55 -11l-119 -139h-70z" />
    <glyph glyph-name="zcaron" unicode="&#x17e;" horiz-adv-x="474" 
d="M44 500h386v-67l-287 -360h297v-73h-403v67l293 366h-206v-76h-80v143zM83 690l59 12l94 -107l96 107l59 -12l-115 -150h-79z" />
    <glyph glyph-name="longs" unicode="&#x17f;" horiz-adv-x="277" 
d="M252 710q36 0 72 -7v-72q-31 8 -63 8q-84 0 -84 -89v-477h67v-73h-221v73h67v476q0 79 43.5 120t118.5 41z" />
    <glyph glyph-name="florin" unicode="&#x192;" horiz-adv-x="421" 
d="M316 709q30 0 72 -8v-72q-36 9 -62 9q-85 0 -85 -89v-49h147v-67h-147v-482q0 -79 -43.5 -120t-118.5 -41q-30 0 -72 8v72q34 -9 61 -9q86 0 86 90v482h-77v67h77v47q0 80 43.5 121t118.5 41z" />
    <glyph glyph-name="AEacute" unicode="&#x1fc;" horiz-adv-x="988" 
d="M291 700h643v-164h-94v91h-284v-228h278v-72h-278v-254h288v95h95v-168h-565v73h87v144h-277l-102 -144h89v-73h-259v73h70l392 554h-83v73zM461 618l-231 -330h231v330zM650 875l82 -11l-141 -139h-57z" />
    <glyph glyph-name="aeacute" unicode="&#x1fd;" horiz-adv-x="868" 
d="M83 498q96 12 185 12q127 0 163 -72q63 72 172 72q108 0 164.5 -73.5t52.5 -191.5h-366q1 -85 38 -133.5t106 -48.5q46 0 79 25t44 67h88q-15 -80 -72 -122.5t-137 -42.5q-149 0 -204 123q-49 -122 -202 -122q-69 0 -108.5 36.5t-39.5 99.5q0 173 268 173h56v43
q0 50 -25 75t-83 25q-57 0 -100 -7v-79h-79v141zM223 58q60 0 103.5 38t43.5 103v46h-54q-181 0 -181 -106q0 -39 23 -60t65 -21zM598 440q-56 0 -92.5 -37.5t-47.5 -102.5h275q-3 62 -39.5 101t-95.5 39zM477 706l90 -11l-137 -155h-61z" />
    <glyph glyph-name="Oslashacute" unicode="&#x1fe;" horiz-adv-x="728" 
d="M581 700h86l-59 -85q94 -102 94 -265q0 -155 -87 -257.5t-236 -102.5q-98 0 -174 49l-27 -39h-87l59 85q-93 102 -93 265q0 155 87 257.5t235 102.5q98 0 174 -49zM379 628q-108 0 -164.5 -76t-56.5 -202q0 -117 46 -188l300 428q-52 38 -125 38zM600 350q0 114 -47 187
l-299 -428q51 -37 125 -37q108 0 164.5 76t56.5 202zM417 875l82 -11l-141 -139h-57z" />
    <glyph glyph-name="oslashacute" unicode="&#x1ff;" horiz-adv-x="551" 
d="M423 500h68l-45 -63q60 -69 60 -187q0 -121 -61.5 -190.5t-167.5 -69.5q-74 0 -127 35l-18 -25h-69l44 62q-59 70 -59 188q0 120 61.5 190t167.5 70q72 0 127 -36zM277 436q-67 0 -105 -50.5t-38 -135.5q0 -72 25 -116l199 276q-34 26 -81 26zM420 250q0 68 -25 116
l-199 -277q34 -25 81 -25q67 0 105 50t38 136zM316 706l90 -11l-137 -155h-61z" />
    <glyph glyph-name="Scommaaccent" unicode="&#x218;" horiz-adv-x="632" 
d="M316 710q101 0 235 -31v-158h-94v95q-84 20 -142 20q-81 0 -117 -33t-36 -84q0 -58 38.5 -81.5t119.5 -34.5q125 -14 193 -59.5t68 -143.5q0 -91 -69.5 -150.5t-197.5 -59.5q-110 0 -245 33v161h95v-98q84 -22 152 -22q83 0 124 36.5t41 91.5q0 63 -43.5 88.5
t-135.5 38.5q-121 16 -179.5 57t-58.5 136q0 85 64 141.5t188 56.5zM287 -48h80v-51q0 -77 -79 -123l-14 29q49 27 49 82h-36v63z" />
    <glyph glyph-name="scommaaccent" unicode="&#x219;" horiz-adv-x="504" 
d="M257 510q87 0 177 -14v-135h-79v75q-47 10 -95 10q-57 0 -85 -22t-28 -54q0 -37 29.5 -52t89.5 -25q44 -6 72.5 -13t59.5 -22.5t46.5 -44t15.5 -69.5q0 -67 -52.5 -110.5t-155.5 -43.5q-91 0 -146 42t-58 110h82q3 -40 37 -63.5t87 -23.5q62 0 91.5 23t29.5 56
q0 42 -30.5 58.5t-92.5 25.5q-35 5 -56 9.5t-50 15t-44.5 25t-27.5 39t-12 57.5q0 61 53 103.5t142 42.5zM214 -48h80v-51q0 -77 -79 -123l-14 29q49 27 49 82h-36v63z" />
    <glyph glyph-name="circumflex" unicode="&#x2c6;" horiz-adv-x="412" 
d="M166 699h79l115 -151l-59 -11l-95 107l-95 -107l-59 11z" />
    <glyph glyph-name="caron" unicode="&#x2c7;" horiz-adv-x="412" 
d="M52 690l59 12l94 -107l96 107l59 -12l-115 -150h-79z" />
    <glyph glyph-name="breve" unicode="&#x2d8;" horiz-adv-x="341" 
d="M46 675l53 6q0 -35 18.5 -55t52.5 -20q36 0 53.5 21.5t18.5 53.5l53 -6q-1 -55 -35.5 -88.5t-89.5 -33.5q-54 0 -88.5 33.5t-35.5 88.5z" />
    <glyph glyph-name="dotaccent" unicode="&#x2d9;" horiz-adv-x="194" 
d="M140 584h-87v80h87v-80z" />
    <glyph glyph-name="ring" unicode="&#x2da;" horiz-adv-x="335" 
d="M166 711q49 0 81 -25.5t32 -67.5q0 -43 -32 -68t-81 -25q-48 0 -80.5 25t-32.5 68q0 42 32.5 67.5t80.5 25.5zM166 668q-28 0 -43.5 -14.5t-15.5 -35.5q0 -24 16.5 -37.5t42.5 -13.5q59 0 59 50q0 24 -17 37.5t-42 13.5z" />
    <glyph glyph-name="ogonek" unicode="&#x2db;" horiz-adv-x="261" 
d="M135 1h46q-58 -45 -58 -107q0 -25 15.5 -39.5t41.5 -14.5q1 0 25 3v-54q-20 -5 -39 -5q-49 0 -79.5 24.5t-30.5 66.5q0 75 79 126z" />
    <glyph glyph-name="tilde" unicode="&#x2dc;" horiz-adv-x="425" 
d="M147 676q35 0 75.5 -29.5t56.5 -29.5q39 0 45 44l38 -7q-5 -44 -26.5 -68t-55.5 -24q-30 0 -71 30.5t-64 30.5q-39 0 -45 -47l-37 9q4 43 26 67t58 24z" />
    <glyph glyph-name="hungarumlaut" unicode="&#x2dd;" horiz-adv-x="424" 
d="M153 706l70 -11l-116 -151h-48zM295 706l70 -11l-116 -151h-48z" />
    <glyph glyph-name="tonos" unicode="&#x384;" horiz-adv-x="211" 
d="M84 709h95l-57 -173h-48z" />
    <glyph glyph-name="dieresistonos" unicode="&#x385;" horiz-adv-x="374" 
d="M117 590h-61v69h61v-69zM151 716h75l-18 -174h-40zM318 590h-60v69h60v-69z" />
    <glyph glyph-name="Alphatonos" unicode="&#x386;" horiz-adv-x="734" 
d="M195 700h346v-73h-83l198 -554h70v-73h-257v73h84l-50 144h-276l-51 -144h89v-73h-257v73h70l200 554h-83v73zM365 630q-12 -47 -26 -87l-90 -255h231l-90 256q-21 70 -25 86zM87 709h95l-57 -173h-48z" />
    <glyph glyph-name="anoteleia" unicode="&#x387;" horiz-adv-x="594" 
d="M247 345h99v-96h-99v96z" />
    <glyph glyph-name="Epsilontonos" unicode="&#x388;" horiz-adv-x="649" 
d="M-55 709h95l-3 -9h555v-164h-94v91h-285v-228h278v-72h-278v-254h289v95h94v-168h-564v73h87v554h-87v57l-49 -148h-48z" />
    <glyph glyph-name="Etatonos" unicode="&#x389;" horiz-adv-x="753" 
d="M-56 709h95l-3 -9h265v-73h-88v-227h327v227h-88v73h270v-73h-88v-554h88v-73h-270v73h88v253h-327v-253h88v-73h-269v73h87v554h-87v61l-50 -152h-48z" />
    <glyph glyph-name="Iotatonos" unicode="&#x38a;" horiz-adv-x="332" 
d="M-55 709h95l-3 -9h264v-73h-88v-554h88v-73h-269v73h87v554h-87v57l-49 -148h-48z" />
    <glyph glyph-name="Omicrontonos" unicode="&#x38c;" horiz-adv-x="740" 
d="M-3 709h95l-57 -173h-48zM370 628q-108 0 -164.5 -76t-56.5 -202t56.5 -202t164.5 -76t164.5 76t56.5 202t-56.5 202t-164.5 76zM370 710q149 0 235.5 -102.5t86.5 -257.5t-86.5 -257.5t-235.5 -102.5q-148 0 -235.5 102.5t-87.5 257.5t87.5 257.5t235.5 102.5z" />
    <glyph glyph-name="Upsilontonos" unicode="&#x38e;" horiz-adv-x="676" 
d="M-66 709h95l-3 -9h235v-73h-77l124 -188q18 -24 31 -54q6 13 33 55l125 187h-75v73h244v-73h-68l-215 -321v-233h87v-73h-269v73h87v233l-214 321h-64v24l-38 -115h-48z" />
    <glyph glyph-name="Omegatonos" unicode="&#x38f;" horiz-adv-x="835" 
d="M417 710q149 0 235.5 -94t86.5 -240q0 -105 -50 -187t-126 -116h167v91h77v-164h-329v83q78 22 118.5 92.5t40.5 180.5q0 124 -56.5 198t-162.5 74q-107 0 -164 -74t-57 -198q0 -110 41 -180.5t119 -92.5v-83h-330v164h78v-91h166q-76 34 -126 116t-50 187
q0 146 86.5 240t235.5 94zM30 709h95l-57 -173h-48z" />
    <glyph glyph-name="iotadieresistonos" unicode="&#x390;" horiz-adv-x="274" 
d="M22 500h154v-362q0 -68 53 -68q16 0 23 1v-71q-20 -5 -49 -5q-113 0 -113 109v323h-68v73zM63 590h-61v69h61v-69zM97 716h75l-18 -174h-40zM264 590h-60v69h60v-69z" />
    <glyph glyph-name="Alpha" unicode="&#x391;" horiz-adv-x="734" 
d="M195 700h346v-73h-83l198 -554h70v-73h-257v73h84l-50 144h-276l-51 -144h89v-73h-257v73h70l200 554h-83v73zM365 630q-12 -47 -26 -87l-90 -255h231l-90 256q-21 70 -25 86z" />
    <glyph glyph-name="Beta" unicode="&#x392;" horiz-adv-x="701" 
d="M213 395h183q67 0 97.5 34.5t30.5 85.5q0 50 -30.5 81t-98.5 31h-182v-232zM32 0v73h87v554h-87v73h388q99 0 150 -48t51 -119q0 -141 -141 -165q80 -10 123 -59t43 -119q0 -81 -56 -135.5t-157 -54.5h-401zM213 73h194q74 0 109 35.5t35 91.5t-36.5 93t-108.5 37h-193
v-257z" />
    <glyph glyph-name="Gamma" unicode="&#x393;" horiz-adv-x="596" 
d="M32 700h548v-188h-94v115h-273v-554h93v-73h-274v73h87v554h-87v73z" />
    <glyph glyph-name="Delta" unicode="&#x394;" horiz-adv-x="711" 
d="M293 700h129l203 -627h76v-73h-691v73h79zM355 620q-7 -32 -19 -68l-150 -479h339l-151 479q-12 40 -19 68z" />
    <glyph glyph-name="Delta" unicode="&#x2206;" horiz-adv-x="711" 
d="M293 700h129l203 -627h76v-73h-691v73h79zM355 620q-7 -32 -19 -68l-150 -479h339l-151 479q-12 40 -19 68z" />
    <glyph glyph-name="Epsilon" unicode="&#x395;" horiz-adv-x="649" 
d="M32 700h560v-164h-94v91h-285v-228h278v-72h-278v-254h289v95h94v-168h-564v73h87v554h-87v73z" />
    <glyph glyph-name="Zeta" unicode="&#x396;" horiz-adv-x="624" 
d="M48 700h529v-75l-424 -552h339v91h94v-164h-545v74l425 553h-324v-91h-94v164z" />
    <glyph glyph-name="Eta" unicode="&#x397;" horiz-adv-x="753" 
d="M32 700h269v-73h-88v-227h327v227h-88v73h270v-73h-88v-554h88v-73h-270v73h88v253h-327v-253h88v-73h-269v73h87v554h-87v73z" />
    <glyph glyph-name="Theta" unicode="&#x398;" horiz-adv-x="740" 
d="M370 628q-108 0 -164.5 -76t-56.5 -202t56.5 -202t164.5 -76t164.5 76t56.5 202t-56.5 202t-164.5 76zM370 710q149 0 235.5 -102.5t86.5 -257.5t-86.5 -257.5t-235.5 -102.5q-148 0 -235.5 102.5t-87.5 257.5t87.5 257.5t235.5 102.5zM238 395h264v-69h-264v69z" />
    <glyph glyph-name="Iota" unicode="&#x399;" horiz-adv-x="332" 
d="M32 700h269v-73h-88v-554h88v-73h-269v73h87v554h-87v73z" />
    <glyph glyph-name="Kappa" unicode="&#x39a;" horiz-adv-x="681" 
d="M32 700h269v-73h-88v-554h88v-73h-269v73h87v554h-87v73zM391 700h270v-73h-75l-254 -259l269 -295h73v-73h-273v73h88l-267 289l254 265h-85v73z" />
    <glyph glyph-name="Lambda" unicode="&#x39b;" horiz-adv-x="711" 
d="M293 700h129l203 -627h76v-73h-259v73h83l-151 479q-12 40 -19 68q-7 -32 -19 -68l-150 -479h83v-73h-259v73h79z" />
    <glyph glyph-name="Mu" unicode="&#x39c;" horiz-adv-x="918" 
d="M32 700h235l181 -513q5 -17 16 -74q10 56 17 75l180 512h225v-73h-87v-554h87v-73h-265v73h87v469q0 34 2 78q-9 -43 -20 -78l-192 -542h-79l-192 542q-10 30 -20 78q2 -46 2 -77v-470h87v-73h-264v73h87v554h-87v73z" />
    <glyph glyph-name="Nu" unicode="&#x39d;" horiz-adv-x="751" 
d="M32 700h213l274 -504q7 -13 28 -66q-3 33 -3 73v424h-80v73h259v-73h-87v-627h-115l-288 537q-5 11 -14.5 34t-12.5 29q3 -30 3 -66v-461h87v-73h-264v73h87v554h-87v73z" />
    <glyph glyph-name="Xi" unicode="&#x39e;" horiz-adv-x="675" 
d="M158 399h359v-72h-359v72zM57 700h561v-164h-94v91h-372v-91h-95v164zM53 168h95v-95h380v95h94v-168h-569v168z" />
    <glyph glyph-name="Omicron" unicode="&#x39f;" horiz-adv-x="740" 
d="M370 628q-108 0 -164.5 -76t-56.5 -202t56.5 -202t164.5 -76t164.5 76t56.5 202t-56.5 202t-164.5 76zM370 710q149 0 235.5 -102.5t86.5 -257.5t-86.5 -257.5t-235.5 -102.5q-148 0 -235.5 102.5t-87.5 257.5t87.5 257.5t235.5 102.5z" />
    <glyph glyph-name="Pi" unicode="&#x3a0;" horiz-adv-x="753" 
d="M32 700h690v-73h-88v-554h88v-73h-270v73h88v554h-327v-554h88v-73h-269v73h87v554h-87v73z" />
    <glyph glyph-name="Rho" unicode="&#x3a1;" horiz-adv-x="657" 
d="M32 700h393q100 0 153 -58.5t53 -149.5q0 -95 -52.5 -155.5t-157.5 -60.5h-208v-203h96v-73h-277v73h87v554h-87v73zM404 626h-191v-281h191q67 0 98.5 39t31.5 105q0 137 -130 137z" />
    <glyph glyph-name="Sigma" unicode="&#x3a3;" horiz-adv-x="631" 
d="M48 700h530v-164h-95v91h-324l211 -262l-216 -292h329v91h95v-164h-536v74l216 291l-210 260v75z" />
    <glyph glyph-name="Tau" unicode="&#x3a4;" horiz-adv-x="612" 
d="M16 700h580v-170h-86v97h-157v-554h87v-73h-269v73h88v554h-158v-97h-85v170z" />
    <glyph glyph-name="Upsilon" unicode="&#x3a5;" horiz-adv-x="676" 
d="M10 700h251v-73h-77l124 -188q18 -24 31 -54q6 13 33 55l125 187h-75v73h244v-73h-68l-215 -321v-233h87v-73h-269v73h87v233l-214 321h-64v73z" />
    <glyph glyph-name="Phi" unicode="&#x3a6;" horiz-adv-x="801" 
d="M266 700h269v-73h-88v-53q146 -6 226 -65t80 -155t-80 -155t-226 -65v-61h88v-73h-269v73h87v61q-146 6 -225.5 65t-79.5 155t79.5 155t225.5 65v53h-87v73zM643 354q0 71 -50 112t-146 44v-312q96 2 146 43t50 113zM158 354q0 -72 49.5 -113t145.5 -43v312
q-96 -3 -145.5 -44t-49.5 -112z" />
    <glyph glyph-name="Chi" unicode="&#x3a7;" horiz-adv-x="700" 
d="M18 700h260v-73h-75l117 -174q20 -31 29 -51q6 11 32 52l115 173h-74v73h260v-73h-73l-193 -271l204 -283h70v-73h-262v73h76l-124 181q-23 34 -30 54q-14 -28 -34 -54l-120 -181h76v-73h-262v73h73l199 281l-194 273h-70v73z" />
    <glyph glyph-name="Psi" unicode="&#x3a8;" horiz-adv-x="823" 
d="M8 700h179v-245q0 -72 47 -108.5t130 -38.5v319h-87v73h269v-73h-87v-319q82 2 129.5 39t47.5 108v245h179v-73h-85v-183q0 -197 -271 -215v-156h87v-73h-269v73h87v156q-271 18 -271 215v183h-85v73z" />
    <glyph glyph-name="Omega" unicode="&#x3a9;" horiz-adv-x="835" 
d="M417 710q149 0 235.5 -94t86.5 -240q0 -105 -50 -187t-126 -116h167v91h77v-164h-329v83q78 22 118.5 92.5t40.5 180.5q0 124 -56.5 198t-162.5 74q-107 0 -164 -74t-57 -198q0 -110 41 -180.5t119 -92.5v-83h-330v164h78v-91h166q-76 34 -126 116t-50 187
q0 146 86.5 240t235.5 94z" />
    <glyph glyph-name="Omega" unicode="&#x2126;" horiz-adv-x="835" 
d="M417 710q149 0 235.5 -94t86.5 -240q0 -105 -50 -187t-126 -116h167v91h77v-164h-329v83q78 22 118.5 92.5t40.5 180.5q0 124 -56.5 198t-162.5 74q-107 0 -164 -74t-57 -198q0 -110 41 -180.5t119 -92.5v-83h-330v164h78v-91h166q-76 34 -126 116t-50 187
q0 146 86.5 240t235.5 94z" />
    <glyph glyph-name="Iotadieresis" unicode="&#x3aa;" horiz-adv-x="332" 
d="M32 700h269v-73h-88v-554h88v-73h-269v73h87v554h-87v73zM116 756h-67v67h67v-67zM285 756h-67v67h67v-67z" />
    <glyph glyph-name="Upsilondieresis" unicode="&#x3ab;" horiz-adv-x="676" 
d="M10 700h251v-73h-77l124 -188q18 -24 31 -54q6 13 33 55l125 187h-75v73h244v-73h-68l-215 -321v-233h87v-73h-269v73h87v233l-214 321h-64v73zM290 756h-67v67h67v-67zM459 756h-67v67h67v-67z" />
    <glyph glyph-name="alphatonos" unicode="&#x3ac;" horiz-adv-x="608" 
d="M247 510q43 0 75.5 -13t52.5 -39t32 -52t23 -64l31 158h118v-73h-51l-41 -197q14 -160 69 -160q7 0 23 2v-72q-21 -4 -48 -4q-49 0 -74.5 36.5t-36.5 103.5q-26 -76 -66.5 -110.5t-107.5 -34.5q-98 0 -148 69.5t-50 189.5q0 119 52.5 189.5t146.5 70.5zM264 438
q-124 0 -124 -188t124 -188q61 0 91 48t50 137q-29 191 -141 191zM281 709h95l-57 -173h-48z" />
    <glyph glyph-name="epsilontonos" unicode="&#x3ad;" horiz-adv-x="499" 
d="M235 709h95l-57 -173h-48zM248 510q94 0 192 -20v-136h-83v79q-48 15 -101 15q-52 0 -80 -22t-28 -58q0 -43 32 -63.5t100 -20.5v-58q-140 0 -140 -92q0 -36 28.5 -59t80.5 -23q105 0 126 101h89q-13 -76 -72 -119.5t-141 -43.5q-93 0 -148 38.5t-55 99.5q0 54 39 88.5
t102 40.5q-60 7 -97 37.5t-37 81.5q0 59 51 96.5t142 37.5z" />
    <glyph glyph-name="etatonos" unicode="&#x3ae;" horiz-adv-x="572" 
d="M27 500h154v-98q43 108 164 108q78 0 117.5 -48t39.5 -136v-537h-87v520q0 127 -100 127q-56 0 -95 -39.5t-39 -116.5v-207h68v-73h-222v73h68v354h-68v73zM269 709h95l-57 -173h-48z" />
    <glyph glyph-name="iotatonos" unicode="&#x3af;" horiz-adv-x="274" 
d="M22 500h154v-362q0 -68 53 -68q16 0 23 1v-71q-20 -5 -49 -5q-113 0 -113 109v323h-68v73zM108 709h95l-57 -173h-48z" />
    <glyph glyph-name="upsilondieresistonos" unicode="&#x3b0;" horiz-adv-x="594" 
d="M71 510q113 0 113 -109v-210q0 -60 30 -93.5t86 -33.5q57 0 86.5 33.5t29.5 93.5v236h-67v73h221v-73h-67v-244q0 -88 -53.5 -140.5t-149.5 -52.5t-149.5 52.5t-53.5 140.5v185q0 68 -53 68q-8 0 -22 -2v72q21 4 49 4zM227 590h-61v69h61v-69zM261 716h75l-18 -174h-40z
M428 590h-60v69h60v-69z" />
    <glyph glyph-name="alpha" unicode="&#x3b1;" horiz-adv-x="608" 
d="M247 510q43 0 75.5 -13t52.5 -39t32 -52t23 -64l31 158h118v-73h-51l-41 -197q14 -160 69 -160q7 0 23 2v-72q-21 -4 -48 -4q-49 0 -74.5 36.5t-36.5 103.5q-26 -76 -66.5 -110.5t-107.5 -34.5q-98 0 -148 69.5t-50 189.5q0 119 52.5 189.5t146.5 70.5zM264 438
q-124 0 -124 -188t124 -188q61 0 91 48t50 137q-29 191 -141 191z" />
    <glyph glyph-name="beta" unicode="&#x3b2;" horiz-adv-x="571" 
d="M293 710q94 0 150.5 -46.5t56.5 -123.5q0 -148 -165 -165q188 -22 188 -181q0 -83 -62.5 -141.5t-173.5 -58.5q-61 0 -116 12v-217h-87v738q0 85 57.5 134t151.5 49zM171 523v-445q53 -12 111 -12q77 0 111.5 38t34.5 97q0 68 -44 100t-139 32v70q92 0 128 29.5t36 92.5
q0 110 -119 110t-119 -112z" />
    <glyph glyph-name="gamma" unicode="&#x3b3;" horiz-adv-x="533" 
d="M8 500h117q27 -66 73 -209.5t66 -214.5q65 148 128 351h-65v73h198v-73h-51q-78 -244 -168 -444l7 -194h-109l9 199q-87 277 -155 439h-50v73z" />
    <glyph glyph-name="delta" unicode="&#x3b4;" horiz-adv-x="550" 
d="M275 417q-67 0 -103 -47.5t-36 -131.5q0 -83 36.5 -129.5t102.5 -46.5t102.5 46.5t36.5 129.5q0 85 -35.5 132t-103.5 47zM275 707q94 0 197 -20v-139h-79v80q-66 10 -112 10q-114 0 -114 -62q0 -59 142 -81q89 -14 141 -78t52 -175q0 -115 -61 -183.5t-165 -68.5
q-105 0 -166.5 65.5t-61.5 180.5q0 94 51 156.5t128 68.5q-67 9 -109 39t-42 80q0 64 52.5 95.5t146.5 31.5z" />
    <glyph glyph-name="epsilon" unicode="&#x3b5;" horiz-adv-x="499" 
d="M248 510q94 0 192 -20v-136h-83v79q-48 15 -101 15q-52 0 -80 -22t-28 -58q0 -43 32 -63.5t100 -20.5v-58q-140 0 -140 -92q0 -36 28.5 -59t80.5 -23q105 0 126 101h89q-13 -76 -72 -119.5t-141 -43.5q-93 0 -148 38.5t-55 99.5q0 54 39 88.5t102 40.5q-60 7 -97 37.5
t-37 81.5q0 59 51 96.5t142 37.5z" />
    <glyph glyph-name="zeta" unicode="&#x3b6;" horiz-adv-x="452" 
d="M17 700h425v-73l-216 -290q-59 -85 -59 -137q0 -30 22.5 -53.5t54.5 -39.5t63.5 -33.5t54 -45.5t22.5 -65q0 -45 -41 -94t-102 -80l-42 61q40 23 63.5 52.5t23.5 54.5t-22 44.5t-54 34t-64 32t-54 48t-22 72.5q0 39 20 81.5t66 102.5l182 255h-236v-95h-85v168z" />
    <glyph glyph-name="eta" unicode="&#x3b7;" horiz-adv-x="580" 
d="M27 500h154v-98q43 108 164 108q78 0 117.5 -48t39.5 -136v-537h-87v520q0 127 -100 127q-56 0 -95 -39.5t-39 -116.5v-207h68v-73h-222v73h68v354h-68v73z" />
    <glyph glyph-name="theta" unicode="&#x3b8;" horiz-adv-x="585" 
d="M292 710q115 0 180 -93.5t65 -266.5t-65 -266.5t-180 -93.5q-114 0 -179 93.5t-65 266.5t65 266.5t179 93.5zM292 62q78 0 117 72t39 197h-312q1 -125 39.5 -197t116.5 -72zM292 638q-74 0 -113 -67t-42 -180h311q-3 113 -42.5 180t-113.5 67z" />
    <glyph glyph-name="iota" unicode="&#x3b9;" horiz-adv-x="274" 
d="M22 500h154v-362q0 -68 53 -68q16 0 23 1v-71q-20 -5 -49 -5q-113 0 -113 109v323h-68v73z" />
    <glyph glyph-name="kappa" unicode="&#x3ba;" horiz-adv-x="517" 
d="M278 500h222v-73h-60l-158 -163l226 -264h-108l-213 257l157 170h-66v73zM27 500h154v-427h66v-73h-220v73h68v354h-68v73z" />
    <glyph glyph-name="lambda" unicode="&#x3bb;" horiz-adv-x="535" 
d="M73 715q91 0 143 -32.5t85 -130.5l172 -479h54v-73h-121l-121 361q-9 27 -17 67q-10 -43 -17 -67l-100 -288h63v-73h-206v73h53l153 441l-23 53q-17 39 -44.5 55t-73.5 17v76z" />
    <glyph glyph-name="nu" unicode="&#x3bd;" horiz-adv-x="541" 
d="M8 500h124q54 -134 142 -423q74 186 130 350h-67v73h197v-73h-49q-79 -226 -163 -427h-104q-70 221 -154 427h-56v73z" />
    <glyph glyph-name="xi" unicode="&#x3be;" horiz-adv-x="461" 
d="M19 700h434v-67q-264 -141 -264 -230q0 -38 53.5 -57.5t139.5 -19.5v-64q-81 0 -141.5 -36.5t-60.5 -79.5q0 -29 33.5 -52t73.5 -37.5t73.5 -43.5t33.5 -69t-40.5 -86t-104.5 -74l-32 59q37 20 57 45t20 46q0 23 -22 39t-54 28.5t-64 27.5t-54 43t-22 67q0 48 54 95.5
t115 60.5q-36 4 -70 14.5t-63 33t-29 52.5q0 56 71.5 116.5t181.5 117.5h-233v-84h-86v155z" />
    <glyph glyph-name="omicron" unicode="&#x3bf;" horiz-adv-x="554" 
d="M277 439q-67 0 -104 -50.5t-37 -138.5t37 -138.5t104 -50.5t104 50.5t37 138.5t-37 138.5t-104 50.5zM277 510q103 0 166 -70.5t63 -189.5t-63 -189.5t-166 -70.5t-166 70.5t-63 189.5t63 189.5t166 70.5z" />
    <glyph glyph-name="pi" unicode="&#x3c0;" horiz-adv-x="624" 
d="M14 500h512v81h84v-154h-146v-289q0 -68 53 -68q16 0 23 1v-71q-20 -5 -49 -5q-114 0 -114 109v323h-155v-427h-154v73h67v354h-121v73z" />
    <glyph glyph-name="rho" unicode="&#x3c1;" horiz-adv-x="580" 
d="M303 510q108 0 168 -70.5t60 -189.5q0 -117 -56.5 -188.5t-151.5 -71.5q-60 0 -100.5 32.5t-57.5 85.5v-246h81v-73h-168v457q0 128 58.5 196t166.5 68zM301 439q-65 0 -100.5 -49t-35.5 -145q0 -80 34.5 -131.5t103.5 -51.5q67 0 101 50t34 138t-35 138.5t-102 50.5z
" />
    <glyph glyph-name="sigma1" unicode="&#x3c2;" horiz-adv-x="476" 
d="M265 510q80 0 183 -18v-151h-79v83q-60 15 -100 15q-131 0 -131 -162q0 -54 20 -92t50 -56.5t64.5 -36t64.5 -31t50 -41t20 -66.5q0 -44 -41 -90.5t-104 -78.5l-38 59q40 23 64 52t24 55q0 20 -14.5 34t-37.5 24.5l-50.5 22t-55.5 29.5t-51 43.5t-37.5 68t-14.5 98.5
q0 110 55.5 174.5t158.5 64.5z" />
    <glyph glyph-name="sigma" unicode="&#x3c3;" horiz-adv-x="568" 
d="M277 510q43 0 127 -5t138 -5v-67q-79 0 -137 6q45 -21 73 -74t28 -123q0 -115 -63 -183.5t-166 -68.5q-104 0 -166.5 70t-62.5 190q0 119 63 189.5t166 70.5zM277 439q-67 0 -104 -51t-37 -138q0 -88 37 -138.5t104 -50.5t104 50.5t37 138.5q0 87 -37 138t-104 51z" />
    <glyph glyph-name="tau" unicode="&#x3c4;" horiz-adv-x="480" 
d="M14 500h368v81h84v-154h-186v-289q0 -68 53 -68q16 0 23 1v-71q-20 -5 -50 -5q-112 0 -112 109v323h-180v73z" />
    <glyph glyph-name="upsilon" unicode="&#x3c5;" horiz-adv-x="598" 
d="M71 510q113 0 113 -109v-210q0 -60 30 -93.5t86 -33.5q57 0 86.5 33.5t29.5 93.5v236h-67v73h221v-73h-67v-244q0 -88 -53.5 -140.5t-149.5 -52.5t-149.5 52.5t-53.5 140.5v185q0 68 -53 68q-8 0 -22 -2v72q21 4 49 4z" />
    <glyph glyph-name="phi" unicode="&#x3c6;" horiz-adv-x="757" 
d="M267 700h154v-193q138 -8 215 -76.5t77 -180.5q0 -113 -76.5 -181t-215.5 -76v-131h68v-74h-222v74h68v131q-138 8 -214.5 76t-76.5 181q0 112 76.5 180.5t214.5 76.5v120h-68v73zM623 250q0 83 -53.5 135t-148.5 54v-378q96 2 149 53.5t53 135.5zM134 250
q0 -84 52.5 -135t148.5 -53v376q-95 -2 -148 -54t-53 -134z" />
    <glyph glyph-name="chi" unicode="&#x3c7;" horiz-adv-x="535" 
d="M19 500h121l110 -237q18 -41 22 -55q5 18 21 56l83 163h-55v73h195v-73h-55l-141 -277l147 -288h55v-73h-121l-117 248q-1 4 -10 26t-12 33q-7 -25 -22 -59l-89 -175h57v-73h-195v73h53l148 290l-139 275h-56v73z" />
    <glyph glyph-name="psi" unicode="&#x3c8;" horiz-adv-x="779" 
d="M14 500h164v-294q0 -132 168 -141v435h88v-435q167 9 167 141v294h164v-73h-77v-216q0 -201 -254 -217v-132h84v-73h-257v73h85v132q-255 16 -255 217v216h-77v73z" />
    <glyph glyph-name="omega" unicode="&#x3c9;" horiz-adv-x="780" 
d="M275 510v-68q-70 -1 -105 -51.5t-35 -140.5q0 -93 31 -140t79 -47q45 0 76 29t31 96l-8 176h92l-8 -176q0 -67 30.5 -96t76.5 -29q48 0 79 47t31 140q0 90 -35 140.5t-105 51.5v68q116 -4 171.5 -75.5t55.5 -184.5q0 -127 -48 -193.5t-140 -66.5q-55 0 -97 29t-57 81
q-15 -52 -57 -81t-97 -29q-92 0 -140 66.5t-48 193.5q0 113 55.5 184.5t171.5 75.5z" />
    <glyph glyph-name="iotadieresis" unicode="&#x3ca;" horiz-adv-x="274" 
d="M22 500h154v-362q0 -68 53 -68q16 0 23 1v-71q-20 -5 -49 -5q-113 0 -113 109v323h-68v73zM85 584h-67v70h67v-70zM246 584h-67v70h67v-70z" />
    <glyph glyph-name="upsilondieresis" unicode="&#x3cb;" horiz-adv-x="594" 
d="M71 510q113 0 113 -109v-210q0 -60 30 -93.5t86 -33.5q57 0 86.5 33.5t29.5 93.5v236h-67v73h221v-73h-67v-244q0 -88 -53.5 -140.5t-149.5 -52.5t-149.5 52.5t-53.5 140.5v185q0 68 -53 68q-8 0 -22 -2v72q21 4 49 4zM251 584h-67v70h67v-70zM412 584h-67v70h67v-70z
" />
    <glyph glyph-name="omicrontonos" unicode="&#x3cc;" horiz-adv-x="554" 
d="M255 709h95l-57 -173h-48zM277 439q-67 0 -104 -50.5t-37 -138.5t37 -138.5t104 -50.5t104 50.5t37 138.5t-37 138.5t-104 50.5zM277 510q103 0 166 -70.5t63 -189.5t-63 -189.5t-166 -70.5t-166 70.5t-63 189.5t63 189.5t166 70.5z" />
    <glyph glyph-name="upsilontonos" unicode="&#x3cd;" horiz-adv-x="594" 
d="M272 709h95l-57 -173h-48zM71 510q113 0 113 -109v-210q0 -60 30 -93.5t86 -33.5q57 0 86.5 33.5t29.5 93.5v236h-67v73h221v-73h-67v-244q0 -88 -53.5 -140.5t-149.5 -52.5t-149.5 52.5t-53.5 140.5v185q0 68 -53 68q-8 0 -22 -2v72q21 4 49 4z" />
    <glyph glyph-name="omegatonos" unicode="&#x3ce;" horiz-adv-x="780" 
d="M275 510v-68q-70 -1 -105 -51.5t-35 -140.5q0 -93 31 -140t79 -47q45 0 76 29t31 96l-8 176h92l-8 -176q0 -67 30.5 -96t76.5 -29q48 0 79 47t31 140q0 90 -35 140.5t-105 51.5v68q116 -4 171.5 -75.5t55.5 -184.5q0 -127 -48 -193.5t-140 -66.5q-55 0 -97 29t-57 81
q-15 -52 -57 -81t-97 -29q-92 0 -140 66.5t-48 193.5q0 113 55.5 184.5t171.5 75.5zM368 709h95l-57 -173h-48z" />
    <glyph glyph-name="afii10023" unicode="&#x401;" horiz-adv-x="649" 
d="M32 700h560v-164h-94v91h-285v-228h278v-72h-278v-254h289v95h94v-168h-564v73h87v554h-87v73zM285 756h-67v67h67v-67zM454 756h-67v67h67v-67z" />
    <glyph glyph-name="afii10051" unicode="&#x402;" horiz-adv-x="787" 
d="M16 700h580v-168h-86v95h-157v-286q19 49 66.5 78.5t115.5 29.5q76 0 121 -50t45 -136v-159q0 -77 -58 -119.5t-129 -43.5v78q37 1 63 28.5t26 77.5v122q0 60 -27 94t-80 34q-57 0 -100 -40.5t-43 -116.5v-145h75v-73h-257v73h88v554h-158v-95h-85v168z" />
    <glyph glyph-name="afii10052" unicode="&#x403;" horiz-adv-x="596" 
d="M32 700h548v-188h-94v115h-273v-554h93v-73h-274v73h87v554h-87v73zM378 875l82 -11l-141 -139h-57z" />
    <glyph glyph-name="afii10053" unicode="&#x404;" horiz-adv-x="688" 
d="M383 710q116 0 251 -32v-166h-94v97q-87 19 -160 19q-101 0 -159.5 -61.5t-69.5 -167.5h295v-72h-297q5 -117 64 -186t166 -69q74 0 161 19v97h94v-166q-135 -32 -255 -32q-153 0 -242.5 102.5t-89.5 257.5q0 156 89.5 258t246.5 102z" />
    <glyph glyph-name="afii10054" unicode="&#x405;" horiz-adv-x="632" 
d="M316 710q101 0 235 -31v-158h-94v95q-84 20 -142 20q-81 0 -117 -33t-36 -84q0 -58 38.5 -81.5t119.5 -34.5q125 -14 193 -59.5t68 -143.5q0 -91 -69.5 -150.5t-197.5 -59.5q-110 0 -245 33v161h95v-98q84 -22 152 -22q83 0 124 36.5t41 91.5q0 63 -43.5 88.5
t-135.5 38.5q-121 16 -179.5 57t-58.5 136q0 85 64 141.5t188 56.5z" />
    <glyph glyph-name="afii10055" unicode="&#x406;" horiz-adv-x="332" 
d="M32 700h269v-73h-88v-554h88v-73h-269v73h87v554h-87v73z" />
    <glyph glyph-name="afii10056" unicode="&#x407;" horiz-adv-x="332" 
d="M32 700h269v-73h-88v-554h88v-73h-269v73h87v554h-87v73zM116 756h-67v67h67v-67zM285 756h-67v67h67v-67z" />
    <glyph glyph-name="afii10057" unicode="&#x408;" horiz-adv-x="544" 
d="M271 700h269v-73h-88v-435q0 -93 -60.5 -147.5t-166.5 -54.5q-90 0 -150 51.5t-65 127.5h98q4 -43 35 -71t86 -28q129 0 129 120v437h-87v73z" />
    <glyph glyph-name="afii10058" unicode="&#x409;" horiz-adv-x="1074" 
d="M111 700h571v-73h-87v-207h211q104 0 161 -60.5t57 -146.5q0 -89 -56 -151t-157 -62h-398v73h88v554h-216q-13 -369 -90 -520q-61 -117 -182 -117v89q70 0 106 79q56 123 71 469h-79v73zM595 354v-281h195q69 0 103.5 39.5t34.5 101.5q0 61 -36 100.5t-105 39.5h-192z
" />
    <glyph glyph-name="afii10059" unicode="&#x40a;" horiz-adv-x="1066" 
d="M32 700h269v-73h-88v-207h303v207h-87v73h269v-73h-88v-207h189q104 0 160.5 -60.5t56.5 -146.5q0 -89 -56 -151t-157 -62h-374v73h87v279h-303v-279h88v-73h-269v73h87v554h-87v73zM610 352v-279h172q69 0 103.5 39.5t34.5 101.5q0 61 -35.5 99.5t-104.5 38.5h-170z" />
    <glyph glyph-name="afii10060" unicode="&#x40b;" horiz-adv-x="795" 
d="M16 700h580v-168h-86v95h-157v-289q19 49 63.5 78.5t106.5 29.5q79 0 122.5 -48.5t43.5 -135.5v-189h79v-73h-173v245q0 127 -104 127q-56 0 -97 -40.5t-41 -116.5v-142h83v-73h-265v73h88v554h-158v-95h-85v168z" />
    <glyph glyph-name="afii10061" unicode="&#x40c;" horiz-adv-x="681" 
d="M32 700h269v-73h-88v-554h88v-73h-269v73h87v554h-87v73zM391 700h270v-73h-75l-254 -259l269 -295h73v-73h-273v73h88l-267 289l254 265h-85v73zM411 875l82 -11l-141 -139h-57z" />
    <glyph glyph-name="afii10062" unicode="&#x40e;" horiz-adv-x="698" 
d="M220 846h58q1 -34 18.5 -54t51.5 -20q70 0 72 74h58q-1 -50 -38 -81t-92 -31q-54 0 -90.5 31t-37.5 81zM10 700h258v-73h-78l141 -274q16 -33 23 -59q7 26 23 59l140 274h-76v73h251v-73h-74l-259 -496q-69 -140 -207 -140q-18 0 -48 2v85q22 -4 36 -4q78 0 112 60l47 85
l-213 408h-76v73z" />
    <glyph glyph-name="afii10145" unicode="&#x40f;" horiz-adv-x="753" 
d="M32 700h269v-73h-88v-554h327v554h-88v73h270v-73h-88v-554h88v-73h-300l-16 -155h-59l-18 155h-297v73h87v554h-87v73z" />
    <glyph glyph-name="afii10017" unicode="&#x410;" horiz-adv-x="734" 
d="M195 700h346v-73h-83l198 -554h70v-73h-257v73h84l-50 144h-276l-51 -144h89v-73h-257v73h70l200 554h-83v73zM365 638q-13 -52 -26 -91l-90 -259h231l-90 260q-14 46 -25 90z" />
    <glyph glyph-name="afii10018" unicode="&#x411;" horiz-adv-x="699" 
d="M32 700h551v-160h-85v87h-285v-220h212q104 0 160.5 -58.5t56.5 -144.5q0 -87 -56 -145.5t-157 -58.5h-397v73h87v554h-87v73zM213 342v-269h195q70 0 104 36.5t34 96.5t-35.5 98t-104.5 38h-193z" />
    <glyph glyph-name="afii10019" unicode="&#x412;" horiz-adv-x="701" 
d="M213 395h183q67 0 97.5 34.5t30.5 85.5q0 50 -30.5 81t-98.5 31h-182v-232zM32 0v73h87v554h-87v73h388q99 0 150 -48t51 -119q0 -141 -141 -165q80 -10 123 -59t43 -119q0 -81 -56 -135.5t-157 -54.5h-401zM213 73h194q74 0 109 35.5t35 91.5t-36.5 93t-108.5 37h-193
v-257z" />
    <glyph glyph-name="afii10020" unicode="&#x413;" horiz-adv-x="596" 
d="M32 700h548v-188h-94v115h-273v-554h93v-73h-274v73h87v554h-87v73z" />
    <glyph glyph-name="afii10021" unicode="&#x414;" horiz-adv-x="773" 
d="M135 700h576v-73h-91v-554h127l-15 -244h-83v171h-539v-171h-83l-15 244h97q111 198 117 554h-91v73zM315 627q-4 -344 -117 -554h328v554h-211z" />
    <glyph glyph-name="afii10022" unicode="&#x415;" horiz-adv-x="649" 
d="M32 700h560v-164h-94v91h-285v-228h278v-72h-278v-254h289v95h94v-168h-564v73h87v554h-87v73z" />
    <glyph glyph-name="afii10024" unicode="&#x416;" horiz-adv-x="995" 
d="M363 700h269v-73h-88v-554h88v-73h-269v73h87v554h-87v73zM22 700h271v-73h-86l242 -265l-301 -362h-135v73h75l254 290l-244 264h-76v73zM702 700h270v-73h-75l-244 -264l253 -290h76v-73h-135l-302 362l242 265h-85v73z" />
    <glyph glyph-name="afii10025" unicode="&#x417;" horiz-adv-x="621" 
d="M308 710q114 0 180 -49.5t66 -128.5q0 -77 -51.5 -120t-139.5 -52q92 -6 145.5 -51t53.5 -124q0 -85 -71.5 -140t-186.5 -55q-121 0 -243 36v148h90v-95q67 -19 151 -19q75 0 120 36.5t45 92.5q0 65 -53 100t-154 35v70q197 0 197 128q0 54 -39.5 86t-115.5 32
q-79 0 -145 -19v-95h-91v148q122 36 242 36z" />
    <glyph glyph-name="afii10026" unicode="&#x418;" horiz-adv-x="757" 
d="M32 700h269v-73h-88v-427q0 -40 -3 -73q12 30 32 66l259 434h-59v73h283v-73h-87v-554h87v-73h-268v73h87v439q0 25 2 65q-7 -18 -31 -62l-263 -442h63v-73h-283v73h87v554h-87v73z" />
    <glyph glyph-name="afii10027" unicode="&#x419;" horiz-adv-x="757" 
d="M250 846h58q1 -34 18.5 -54t51.5 -20q70 0 72 74h57q0 -49 -37 -80.5t-92 -31.5q-54 0 -90.5 31t-37.5 81zM32 700h269v-73h-88v-427q0 -40 -3 -73q12 30 32 66l259 434h-59v73h283v-73h-87v-554h87v-73h-268v73h87v439q0 25 2 65q-7 -18 -31 -62l-263 -442h63v-73h-283
v73h87v554h-87v73z" />
    <glyph glyph-name="afii10028" unicode="&#x41a;" horiz-adv-x="681" 
d="M32 700h269v-73h-88v-554h88v-73h-269v73h87v554h-87v73zM391 700h270v-73h-75l-254 -259l269 -295h73v-73h-273v73h88l-267 289l254 265h-85v73z" />
    <glyph glyph-name="afii10029" unicode="&#x41b;" horiz-adv-x="714" 
d="M111 700h571v-73h-87v-554h87v-73h-269v73h88v554h-216q-13 -369 -90 -520q-61 -117 -182 -117v89q70 0 106 79q56 123 71 469h-79v73z" />
    <glyph glyph-name="afii10030" unicode="&#x41c;" horiz-adv-x="918" 
d="M32 700h235l181 -513q5 -17 16 -74q10 56 17 75l180 512h225v-73h-87v-554h87v-73h-265v73h87v469q0 34 2 78q-9 -43 -20 -78l-192 -542h-79l-192 542q-10 30 -20 78q2 -46 2 -77v-470h87v-73h-264v73h87v554h-87v73z" />
    <glyph glyph-name="afii10031" unicode="&#x41d;" horiz-adv-x="753" 
d="M32 700h269v-73h-88v-227h327v227h-88v73h270v-73h-88v-554h88v-73h-270v73h88v253h-327v-253h88v-73h-269v73h87v554h-87v73z" />
    <glyph glyph-name="afii10032" unicode="&#x41e;" horiz-adv-x="740" 
d="M370 628q-108 0 -164.5 -76t-56.5 -202t56.5 -202t164.5 -76t164.5 76t56.5 202t-56.5 202t-164.5 76zM370 710q149 0 235.5 -102.5t86.5 -257.5t-86.5 -257.5t-235.5 -102.5q-148 0 -235.5 102.5t-87.5 257.5t87.5 257.5t235.5 102.5z" />
    <glyph glyph-name="afii10033" unicode="&#x41f;" horiz-adv-x="753" 
d="M32 700h690v-73h-88v-554h88v-73h-270v73h88v554h-327v-554h88v-73h-269v73h87v554h-87v73z" />
    <glyph glyph-name="afii10034" unicode="&#x420;" horiz-adv-x="657" 
d="M32 700h393q100 0 153 -58.5t53 -149.5q0 -95 -52.5 -155.5t-157.5 -60.5h-208v-203h96v-73h-277v73h87v554h-87v73zM404 626h-191v-281h191q67 0 98.5 39t31.5 105q0 137 -130 137z" />
    <glyph glyph-name="afii10035" unicode="&#x421;" horiz-adv-x="679" 
d="M383 710q113 0 243 -32v-166h-95v97q-79 19 -151 19q-113 0 -172 -76t-59 -202t60 -201.5t172 -75.5q77 0 150 19v96h95v-166q-130 -32 -245 -32q-153 0 -243.5 102.5t-90.5 257.5q0 156 89.5 258t246.5 102z" />
    <glyph glyph-name="afii10036" unicode="&#x422;" horiz-adv-x="612" 
d="M16 700h580v-170h-86v97h-157v-554h87v-73h-269v73h88v554h-158v-97h-85v170z" />
    <glyph glyph-name="afii10037" unicode="&#x423;" horiz-adv-x="698" 
d="M10 700h258v-73h-78l141 -274q16 -33 23 -59q7 26 23 59l140 274h-76v73h251v-73h-74l-259 -496q-69 -140 -207 -140q-18 0 -48 2v85q22 -4 36 -4q78 0 112 60l47 85l-213 408h-76v73z" />
    <glyph glyph-name="afii10038" unicode="&#x424;" horiz-adv-x="801" 
d="M266 700h269v-73h-88v-53q146 -6 226 -65t80 -155t-80 -155t-226 -65v-61h88v-73h-269v73h87v61q-146 6 -225.5 65t-79.5 155t79.5 155t225.5 65v53h-87v73zM643 354q0 71 -50 112t-146 44v-312q96 2 146 43t50 113zM158 354q0 -72 49.5 -113t145.5 -43v312
q-96 -3 -145.5 -44t-49.5 -112z" />
    <glyph glyph-name="afii10039" unicode="&#x425;" horiz-adv-x="700" 
d="M18 700h260v-73h-75l117 -174q20 -31 29 -51q6 11 32 52l115 173h-74v73h260v-73h-73l-193 -271l204 -283h70v-73h-262v73h76l-124 181q-23 34 -30 54q-14 -28 -34 -54l-120 -181h76v-73h-262v73h73l199 281l-194 273h-70v73z" />
    <glyph glyph-name="afii10040" unicode="&#x426;" horiz-adv-x="786" 
d="M32 700h269v-73h-88v-554h326v554h-87v73h269v-73h-87v-554h127l-16 -244h-82v171h-631v73h87v554h-87v73z" />
    <glyph glyph-name="afii10041" unicode="&#x427;" horiz-adv-x="731" 
d="M22 700h269v-73h-88v-242q0 -52 35 -78.5t90 -26.5q73 0 131.5 46.5t58.5 127.5v173h-87v73h269v-73h-88v-554h88v-73h-269v73h87v260q-24 -67 -85.5 -103t-137.5 -36q-80 0 -133 42t-53 122v269h-87v73z" />
    <glyph glyph-name="afii10042" unicode="&#x428;" horiz-adv-x="1031" 
d="M32 700h268v-73h-87v-554h255v554h-87v73h269v-73h-87v-554h255v554h-87v73h269v-73h-88v-554h88v-73h-968v73h87v554h-87v73z" />
    <glyph glyph-name="afii10043" unicode="&#x429;" horiz-adv-x="1065" 
d="M32 700h268v-73h-87v-554h255v554h-87v73h269v-73h-87v-554h255v554h-87v73h269v-73h-88v-554h128l-16 -244h-82v171h-910v73h87v554h-87v73z" />
    <glyph glyph-name="afii10044" unicode="&#x42a;" horiz-adv-x="793" 
d="M314 354v-281h195q69 0 103 39.5t34 101.5q0 61 -35.5 100.5t-104.5 39.5h-192zM22 700h379v-73h-87v-206h211q104 0 161 -61t57 -147q0 -89 -56 -151t-157 -62h-398v73h88v554h-113v-95h-85v168z" />
    <glyph glyph-name="afii10045" unicode="&#x42b;" horiz-adv-x="963" 
d="M32 700h275v-73h-94v-207h212q104 0 160.5 -60.5t56.5 -146.5q0 -89 -56 -151t-157 -62h-397v73h87v554h-87v73zM213 354v-281h195q70 0 104 39.5t34 101.5q0 61 -35.5 100.5t-104.5 39.5h-193zM662 700h269v-73h-87v-554h87v-73h-269v73h87v554h-87v73z" />
    <glyph glyph-name="afii10046" unicode="&#x42c;" horiz-adv-x="693" 
d="M32 700h275v-73h-94v-207h212q104 0 160.5 -60.5t56.5 -146.5q0 -89 -56 -151t-157 -62h-397v73h87v554h-87v73zM213 354v-281h195q70 0 104 39.5t34 101.5q0 61 -35.5 100.5t-104.5 39.5h-193z" />
    <glyph glyph-name="afii10047" unicode="&#x42d;" horiz-adv-x="688" 
d="M304 710q158 0 247 -102t89 -258q0 -155 -89.5 -257.5t-241.5 -102.5q-120 0 -255 32v166h94v-97q87 -19 161 -19q106 0 165 69t64 186h-297v72h295q-11 106 -69.5 167.5t-159.5 61.5q-72 0 -159 -19v-97h-94v166q135 32 250 32z" />
    <glyph glyph-name="afii10048" unicode="&#x42e;" horiz-adv-x="1026" 
d="M32 700h269v-73h-88v-227h132q14 136 97 223t218 87q148 0 233 -102t85 -258t-85 -258t-233 -102q-142 0 -225 92.5t-91 243.5h-131v-253h88v-73h-269v73h87v554h-87v73zM660 628q-107 0 -161.5 -75.5t-54.5 -202.5t54.5 -202.5t161.5 -75.5t162 75.5t55 202.5t-55 202.5
t-162 75.5z" />
    <glyph glyph-name="afii10049" unicode="&#x42f;" horiz-adv-x="716" 
d="M314 627q-129 0 -129 -121q0 -130 129 -130h188v251h-188zM290 700h394v-73h-87v-554h87v-73h-278v73h96v231h-180q-127 0 -127 -231h93v-73h-272v73h84q0 247 148 265q-78 8 -119.5 53t-41.5 120q0 81 51 135t152 54z" />
    <glyph glyph-name="afii10065" unicode="&#x430;" horiz-adv-x="543" 
d="M79 499q101 11 185 11q190 0 190 -154v-218q0 -74 68 -65v-73q-69 -8 -103 16t-41 84q-44 -109 -183 -109q-69 0 -109 37t-40 100q0 86 64 129t203 43q23 0 55 -2v58q0 87 -109 87q-56 0 -101 -7v-77h-79v140zM315 245q-180 0 -180 -105q0 -37 22.5 -58t63.5 -21
q61 0 104 36.5t43 100.5v45q-32 2 -53 2z" />
    <glyph glyph-name="afii10066" unicode="&#x431;" horiz-adv-x="561" 
d="M311 706h79v53h74v-127h-155q-72 0 -111 -48t-50 -148q72 64 164 64q100 0 150.5 -67.5t50.5 -174.5q0 -120 -57.5 -194t-167.5 -74q-234 0 -234 341q0 177 65 276t192 99zM284 433q-72 0 -141 -52q-1 -18 -1 -57q0 -260 144 -260q70 0 102.5 51.5t32.5 137.5
q0 180 -137 180z" />
    <glyph glyph-name="afii10067" unicode="&#x432;" horiz-adv-x="531" 
d="M181 438v-153h107q47 0 67.5 22t20.5 57q0 74 -88 74h-107zM181 231v-168h114q101 0 101 82q0 38 -25.5 62t-74.5 24h-115zM27 500h287q75 0 115 -36t40 -86q0 -43 -25.5 -74t-74.5 -43q58 -9 89 -43.5t31 -83.5q0 -57 -44.5 -95.5t-122.5 -38.5h-295v73h68v354h-68v73z
" />
    <glyph glyph-name="afii10068" unicode="&#x433;" horiz-adv-x="471" 
d="M27 500h416v-165h-76v92h-186v-354h69v-73h-223v73h68v354h-68v73z" />
    <glyph glyph-name="afii10069" unicode="&#x434;" horiz-adv-x="612" 
d="M104 500h447v-73h-66v-354h100l-19 -210h-73v137h-392v-137h-71l-18 210h76q31 55 54 159t26 195h-64v73zM253 427q-2 -80 -27.5 -189t-56.5 -165h229v354h-145z" />
    <glyph glyph-name="afii10070" unicode="&#x435;" horiz-adv-x="545" 
d="M281 510q107 0 166 -78.5t54 -194.5h-364q2 -85 38.5 -130.5t103.5 -45.5q48 0 80.5 24.5t42.5 69.5h90q-18 -79 -75 -122t-137 -43q-107 0 -169.5 71t-62.5 189q0 117 63 188.5t170 71.5zM278 444q-60 0 -95.5 -38.5t-43.5 -109.5h270q-2 65 -37 106.5t-94 41.5z" />
    <glyph glyph-name="afii10072" unicode="&#x436;" horiz-adv-x="771" 
d="M545 500h210v-73h-54l-174 -171l172 -183h58v-73h-110l-218 250v-177h65v-73h-217v73h65v427h87v-250l175 177h-59v73zM16 500h210v-73h-59l175 -177l-218 -250h-109v73h57l173 183l-174 171h-55v73z" />
    <glyph glyph-name="afii10073" unicode="&#x437;" horiz-adv-x="486" 
d="M237 510q94 0 144 -34.5t50 -95.5q0 -53 -37 -84t-97 -39q65 -6 103.5 -38.5t38.5 -87.5q0 -63 -55 -102t-147 -39q-91 0 -189 24v134h78v-81q43 -13 105 -13q53 0 83 23t30 60q0 89 -139 89v58q67 0 99 20t32 65q0 36 -27 57t-78 21q-58 0 -105 -14v-81h-78v134
q98 24 189 24z" />
    <glyph glyph-name="afii10074" unicode="&#x438;" horiz-adv-x="588" 
d="M27 500h150v-316q0 -38 -3 -74q15 39 28 64l193 326h166v-73h-68v-354h68v-73h-151v337q0 37 3 73q-10 -27 -28 -67l-199 -343h-159v73h68v354h-68v73z" />
    <glyph glyph-name="afii10075" unicode="&#x439;" horiz-adv-x="588" 
d="M174 676h58q0 -77 65 -77t65 77h58q-1 -52 -35.5 -85t-87.5 -33q-54 0 -88 32.5t-35 85.5zM27 500h150v-316q0 -38 -3 -74q15 39 28 64l193 326h166v-73h-68v-354h68v-73h-151v337q0 37 3 73q-10 -27 -28 -67l-199 -343h-159v73h68v354h-68v73z" />
    <glyph glyph-name="afii10076" unicode="&#x43a;" horiz-adv-x="527" 
d="M20 500h220v-73h-66v-354h75v-73h-229v73h68v354h-68v73zM298 500h211v-73h-60l-172 -164l176 -190h63v-73h-116l-221 256l175 171h-56v73z" />
    <glyph glyph-name="afii10077" unicode="&#x43b;" horiz-adv-x="576" 
d="M96 500h451v-73h-66v-354h68v-73h-222v73h67v354h-148q-11 -245 -86 -361q-49 -70 -141 -70v77q52 0 83 60q26 53 41 138.5t17 155.5h-64v73z" />
    <glyph glyph-name="afii10078" unicode="&#x43c;" horiz-adv-x="716" 
d="M27 500h188l127 -339q10 -29 17 -66q8 36 17 66l126 339h186v-73h-67v-354h67v-73h-205v73h59v293q0 42 2 62q-10 -41 -18 -62l-136 -366h-63l-136 361q-8 23 -19 67q2 -20 2 -67v-288h59v-73h-206v73h68v354h-68v73z" />
    <glyph glyph-name="afii10079" unicode="&#x43d;" horiz-adv-x="581" 
d="M27 500h154v-206h219v206h153v-73h-67v-354h67v-73h-153v222h-219v-222h-154v73h68v354h-68v73z" />
    <glyph glyph-name="afii10080" unicode="&#x43e;" horiz-adv-x="554" 
d="M277 437q-67 0 -104.5 -50t-37.5 -137t37.5 -137t104.5 -50t104 49.5t37 137.5q0 87 -37 137t-104 50zM277 510q103 0 166 -70.5t63 -189.5q0 -120 -62.5 -190t-166.5 -70t-166.5 70t-62.5 190q0 119 63 189.5t166 70.5z" />
    <glyph glyph-name="afii10081" unicode="&#x43f;" horiz-adv-x="581" 
d="M27 500h526v-73h-67v-354h67v-73h-216v73h63v354h-219v-354h63v-73h-217v73h68v354h-68v73z" />
    <glyph glyph-name="afii10082" unicode="&#x440;" horiz-adv-x="600" 
d="M322 438q-66 0 -103.5 -49t-37.5 -144q0 -79 35.5 -131t105.5 -52q67 0 103 50t36 138t-36 138t-103 50zM27 500h154v-114q18 55 59.5 89.5t104.5 34.5q95 0 150.5 -71.5t55.5 -188.5t-56 -188.5t-150 -71.5q-59 0 -103 35.5t-61 87.5v-251h68v-73h-222v73h68v565h-68v73
z" />
    <glyph glyph-name="afii10083" unicode="&#x441;" horiz-adv-x="516" 
d="M281 510q97 0 192 -12v-152h-83v84q-57 9 -110 9q-68 0 -106.5 -50.5t-38.5 -137.5q0 -86 37.5 -137.5t105.5 -51.5q52 0 84 27t40 77h87q-11 -80 -68.5 -128t-139.5 -48q-108 0 -170.5 71t-62.5 189q0 124 63 192t170 68z" />
    <glyph glyph-name="afii10084" unicode="&#x442;" horiz-adv-x="483" 
d="M10 500h463v-154h-72v81h-116v-354h67v-73h-221v73h67v354h-116v-81h-72v154z" />
    <glyph glyph-name="afii10085" unicode="&#x443;" horiz-adv-x="532" 
d="M7 500h202v-73h-59l100 -297q7 -22 17 -76q8 49 17 76l103 297h-59v73h197v-73h-54l-171 -479q-33 -98 -84.5 -130.5t-139.5 -32.5v77q47 1 76 16.5t43 53.5l18 49l-153 446h-53v73z" />
    <glyph glyph-name="afii10086" unicode="&#x444;" horiz-adv-x="880" 
d="M330 700h153v-314q17 54 56 89t96 35q87 0 142 -72t55 -188q0 -115 -55 -187.5t-142 -72.5q-54 0 -95 34.5t-57 87.5v-250h68v-73h-221v73h67v250q-16 -52 -57 -87t-95 -35q-87 0 -142 72.5t-55 187.5q0 116 55 188t142 72q57 0 96 -35t56 -89v241h-67v73zM616 438
q-58 0 -95.5 -49.5t-37.5 -143.5q0 -78 35 -130.5t98 -52.5q59 0 92.5 50.5t33.5 137.5t-33.5 137.5t-92.5 50.5zM265 438q-60 0 -93.5 -50.5t-33.5 -137.5t33.5 -137.5t93.5 -50.5q62 0 97 53t35 130q0 93 -37 143t-95 50z" />
    <glyph glyph-name="afii10087" unicode="&#x445;" horiz-adv-x="544" 
d="M14 500h206v-73h-47l102 -138q38 55 101 138h-47v73h201v-73h-63l-128 -167l143 -187h54v-73h-203v73h49l-110 150l-112 -150h51v-73h-203v73h59l140 182l-132 172h-61v73z" />
    <glyph glyph-name="afii10088" unicode="&#x446;" horiz-adv-x="604" 
d="M27 500h217v-73h-63v-354h219v354h-63v73h216v-73h-67v-354h95l-18 -210h-73v137h-463v73h68v354h-68v73z" />
    <glyph glyph-name="afii10089" unicode="&#x447;" horiz-adv-x="591" 
d="M22 500h154v-171q0 -62 23 -94t76 -32q55 0 95 38.5t40 109.5v76h-68v73h222v-73h-68v-354h68v-73h-222v73h68v169q-20 -49 -63.5 -79.5t-104.5 -30.5q-153 0 -153 181v114h-67v73z" />
    <glyph glyph-name="afii10090" unicode="&#x448;" horiz-adv-x="883" 
d="M27 500h215v-73h-61v-354h217v354h-63v73h213v-73h-64v-354h218v354h-60v73h214v-73h-67v-354h67v-73h-829v73h68v354h-68v73z" />
    <glyph glyph-name="afii10091" unicode="&#x449;" horiz-adv-x="907" 
d="M27 500h215v-73h-61v-354h217v354h-63v73h213v-73h-64v-354h218v354h-60v73h214v-73h-67v-354h95l-19 -210h-73v137h-765v73h68v354h-68v73z" />
    <glyph glyph-name="afii10092" unicode="&#x44a;" horiz-adv-x="597" 
d="M265 237v-169h124q91 0 91 82q0 40 -22.5 63.5t-68.5 23.5h-124zM14 500h316v-73h-65v-131h140q82 0 122 -40.5t40 -107.5q0 -66 -40.5 -107t-118.5 -41h-297v73h68v354h-94v-73h-71v146z" />
    <glyph glyph-name="afii10093" unicode="&#x44b;" horiz-adv-x="745" 
d="M181 237v-169h124q91 0 91 82q0 40 -22.5 63.5t-68.5 23.5h-124zM27 500h220v-73h-66v-131h140q82 0 122.5 -40.5t40.5 -107.5q0 -66 -40.5 -107t-119.5 -41h-297v73h68v354h-68v73zM497 500h221v-73h-67v-354h67v-73h-221v73h67v354h-67v73z" />
    <glyph glyph-name="afii10094" unicode="&#x44c;" horiz-adv-x="513" 
d="M181 237v-169h124q91 0 91 82q0 40 -22.5 63.5t-68.5 23.5h-124zM27 500h220v-73h-66v-131h140q82 0 122.5 -40.5t40.5 -107.5q0 -66 -40.5 -107t-119.5 -41h-297v73h68v354h-68v73z" />
    <glyph glyph-name="afii10095" unicode="&#x44d;" horiz-adv-x="518" 
d="M237 510q113 0 173 -67t60 -193q0 -117 -62.5 -188.5t-170.5 -71.5q-82 0 -138.5 45.5t-71.5 125.5h80q20 -104 129 -104q65 0 103.5 46.5t39.5 123.5h-193v58h192q-2 73 -38 115.5t-101 42.5q-63 0 -120 -9v-79h-73v142q102 13 191 13z" />
    <glyph glyph-name="afii10096" unicode="&#x44e;" horiz-adv-x="781" 
d="M27 500h217v-73h-63v-137h103q10 101 69.5 160.5t153.5 59.5q103 0 164.5 -70t61.5 -190t-61.5 -190t-164.5 -70q-96 0 -156 62t-67 169h-103v-148h63v-73h-217v73h68v354h-68v73zM507 436q-67 0 -103 -49.5t-36 -136.5q0 -88 36 -137t103 -49t103 49t36 137
q0 87 -36 136.5t-103 49.5z" />
    <glyph glyph-name="afii10097" unicode="&#x44f;" horiz-adv-x="560" 
d="M256 432q-88 0 -88 -78q0 -82 88 -82h123v160h-123zM237 500h296v-73h-68v-354h68v-73h-214v73h60v143h-115q-50 0 -74.5 -27.5t-24.5 -115.5h59v-73h-208v73h62q0 161 107 175q-51 10 -79 41.5t-28 80.5q0 56 40.5 93t118.5 37z" />
    <glyph glyph-name="afii10071" unicode="&#x451;" horiz-adv-x="545" 
d="M281 510q107 0 166 -78.5t54 -194.5h-364q2 -85 38.5 -130.5t103.5 -45.5q48 0 80.5 24.5t42.5 69.5h90q-18 -79 -75 -122t-137 -43q-107 0 -169.5 71t-62.5 189q0 117 63 188.5t170 71.5zM278 444q-60 0 -95.5 -38.5t-43.5 -109.5h270q-2 65 -37 106.5t-94 41.5z
M234 584h-67v70h67v-70zM395 584h-67v70h67v-70z" />
    <glyph glyph-name="afii10099" unicode="&#x452;" horiz-adv-x="597" 
d="M27 700h154v-111h93v-31h-93v-156q43 108 164 108q78 0 117.5 -48t39.5 -136v-357q0 -78 -48.5 -119t-117.5 -42v70q79 0 79 91v340q0 127 -100 127q-56 0 -94.5 -39.5t-39.5 -116.5v-207h68v-73h-222v73h68v485h-68v31h68v49h-68v62z" />
    <glyph glyph-name="afii10100" unicode="&#x453;" horiz-adv-x="471" 
d="M285 706l90 -11l-137 -155h-61zM27 500h416v-165h-76v92h-186v-354h69v-73h-223v73h68v354h-68v73z" />
    <glyph glyph-name="afii10101" unicode="&#x454;" horiz-adv-x="518" 
d="M334 285v-58h-196q5 -79 42.5 -124.5t101.5 -45.5q109 0 129 104h79q-14 -80 -70.5 -125.5t-138.5 -45.5q-108 0 -170.5 71t-62.5 189q0 124 63.5 192t170.5 68q90 0 192 -13v-142h-73v79q-57 9 -120 9q-62 0 -99 -42t-44 -116h196z" />
    <glyph glyph-name="afii10102" unicode="&#x455;" horiz-adv-x="504" 
d="M257 510q87 0 177 -14v-135h-79v75q-47 10 -95 10q-57 0 -85 -22t-28 -54q0 -37 29.5 -52t89.5 -25q44 -6 72.5 -13t59.5 -22.5t46.5 -44t15.5 -69.5q0 -67 -52.5 -110.5t-155.5 -43.5q-91 0 -146 42t-58 110h82q3 -40 37 -63.5t87 -23.5q62 0 91.5 23t29.5 56
q0 42 -30.5 58.5t-92.5 25.5q-35 5 -56 9.5t-50 15t-44.5 25t-27.5 39t-12 57.5q0 61 53 103.5t142 42.5z" />
    <glyph glyph-name="afii10103" unicode="&#x456;" horiz-adv-x="276" 
d="M94 664h88v-80h-88v80zM27 500h154v-427h68v-73h-222v73h68v354h-68v73z" />
    <glyph glyph-name="afii10104" unicode="&#x457;" horiz-adv-x="272" 
d="M82 584h-67v70h67v-70zM243 584h-67v70h67v-70zM27 500h150v-427h67v-73h-217v73h68v354h-68v73z" />
    <glyph glyph-name="afii10105" unicode="&#x458;" horiz-adv-x="264" 
d="M28 500h154v-555q0 -78 -48.5 -119t-117.5 -42v73q40 0 60 19.5t20 72.5v478h-68v73zM94 664h89v-80h-89v80z" />
    <glyph glyph-name="afii10106" unicode="&#x459;" horiz-adv-x="816" 
d="M481 237v-169h128q90 0 90 82q0 87 -90 87h-128zM96 500h454v-73h-69v-131h144q82 0 122 -40.5t40 -107.5q0 -66 -40.5 -107t-119.5 -41h-300v73h67v354h-148q-5 -97 -26 -196t-61 -162q-52 -73 -140 -73v77q51 0 83 62q26 53 41 138t17 154h-64v73z" />
    <glyph glyph-name="afii10107" unicode="&#x45a;" horiz-adv-x="822" 
d="M27 500h154v-204h223v131h-68v73h224v-73h-70v-131h140q82 0 122.5 -40.5t40.5 -107.5q0 -66 -41 -107t-119 -41h-297v73h68v164h-223v-237h-154v73h68v354h-68v73zM490 237v-169h124q91 0 91 82q0 40 -22.5 63.5t-68.5 23.5h-124z" />
    <glyph glyph-name="afii10108" unicode="&#x45b;" horiz-adv-x="597" 
d="M27 700h154v-111h93v-31h-93v-156q43 108 164 108q78 0 117.5 -48t39.5 -136v-253h68v-73h-218v73h63v236q0 127 -100 127q-56 0 -95 -39.5t-39 -116.5v-207h63v-73h-217v73h68v485h-68v31h68v49h-68v62z" />
    <glyph glyph-name="afii10109" unicode="&#x45c;" horiz-adv-x="527" 
d="M313 706l90 -11l-137 -155h-61zM20 500h220v-73h-66v-354h75v-73h-229v73h68v354h-68v73zM298 500h211v-73h-60l-172 -164l176 -190h63v-73h-116l-221 256l175 171h-56v73z" />
    <glyph glyph-name="afii10110" unicode="&#x45e;" horiz-adv-x="532" 
d="M148 676h58q0 -77 65 -77t65 77h58q-1 -52 -35.5 -85t-87.5 -33q-54 0 -88.5 33t-34.5 85zM7 500h202v-73h-59l100 -297q7 -22 17 -76q8 49 17 76l103 297h-59v73h197v-73h-54l-171 -479q-33 -98 -84.5 -130.5t-139.5 -32.5v77q47 1 76 16.5t43 53.5l18 49l-153 446h-53
v73z" />
    <glyph glyph-name="afii10193" unicode="&#x45f;" horiz-adv-x="581" 
d="M27 500h217v-73h-63v-354h219v354h-63v73h216v-73h-67v-354h67v-73h-221l-12 -143h-59l-13 143h-221v73h68v354h-68v73z" />
    <glyph glyph-name="afii10050" unicode="&#x490;" horiz-adv-x="596" 
d="M32 700h454v115h94v-188h-367v-554h93v-73h-274v73h87v554h-87v73z" />
    <glyph glyph-name="afii10098" unicode="&#x491;" horiz-adv-x="471" 
d="M27 500h340v92h76v-165h-262v-354h69v-73h-223v73h68v354h-68v73z" />
    <glyph glyph-name="Wgrave" unicode="&#x1e80;" horiz-adv-x="1025" 
d="M10 700h255v-73h-83l119 -464q8 -31 14 -75q6 39 16 75l136 537h88l137 -537q10 -43 15 -75q5 32 15 75l123 464h-85v73h255v-73h-79l-170 -627h-116l-126 482q-6 26 -15 82q-5 -44 -15 -82l-124 -482h-116l-167 627h-77v73zM373 864l82 11l116 -150h-56z" />
    <glyph glyph-name="wgrave" unicode="&#x1e81;" horiz-adv-x="793" 
d="M7 500h198v-73h-59l81 -284q10 -39 14 -70q7 37 15 70l100 357h83l98 -357q8 -33 15 -70q4 31 14 70l82 284h-60v73h198v-73h-54l-123 -427h-104l-93 327q-13 54 -16 76q-3 -27 -18 -76l-95 -327h-101l-122 427h-53v73zM265 695l90 11l107 -166h-60z" />
    <glyph glyph-name="Wacute" unicode="&#x1e82;" horiz-adv-x="1025" 
d="M10 700h255v-73h-83l119 -464q8 -31 14 -75q6 39 16 75l136 537h88l137 -537q10 -43 15 -75q5 32 15 75l123 464h-85v73h255v-73h-79l-170 -627h-116l-126 482q-6 26 -15 82q-5 -44 -15 -82l-124 -482h-116l-167 627h-77v73zM564 875l82 -11l-141 -139h-57z" />
    <glyph glyph-name="wacute" unicode="&#x1e83;" horiz-adv-x="793" 
d="M7 500h198v-73h-59l81 -284q10 -39 14 -70q7 37 15 70l100 357h83l98 -357q8 -33 15 -70q4 31 14 70l82 284h-60v73h198v-73h-54l-123 -427h-104l-93 327q-13 54 -16 76q-3 -27 -18 -76l-95 -327h-101l-122 427h-53v73zM437 706l90 -11l-137 -155h-61z" />
    <glyph glyph-name="Wdieresis" unicode="&#x1e84;" horiz-adv-x="1025" 
d="M10 700h255v-73h-83l119 -464q8 -31 14 -75q6 39 16 75l136 537h88l137 -537q10 -43 15 -75q5 32 15 75l123 464h-85v73h255v-73h-79l-170 -627h-116l-126 482q-6 26 -15 82q-5 -44 -15 -82l-124 -482h-116l-167 627h-77v73zM458 756h-67v67h67v-67zM627 756h-67v67h67
v-67z" />
    <glyph glyph-name="wdieresis" unicode="&#x1e85;" horiz-adv-x="793" 
d="M7 500h198v-73h-59l81 -284q10 -39 14 -70q7 37 15 70l100 357h83l98 -357q8 -33 15 -70q4 31 14 70l82 284h-60v73h198v-73h-54l-123 -427h-104l-93 327q-13 54 -16 76q-3 -27 -18 -76l-95 -327h-101l-122 427h-53v73zM510 584h-67v70h67v-70zM349 584h-67v70h67v-70z
" />
    <glyph glyph-name="Ygrave" unicode="&#x1ef2;" horiz-adv-x="671" 
d="M8 700h251v-73h-81l128 -194q21 -32 31 -55q7 15 33 55l129 194h-80v73h245v-73h-64l-219 -325v-229h87v-73h-269v73h87v229l-218 325h-60v73zM199 864l82 11l116 -150h-56z" />
    <glyph glyph-name="ygrave" unicode="&#x1ef3;" horiz-adv-x="532" 
d="M7 500h202v-73h-59l100 -297q7 -22 17 -76q8 49 17 76l103 297h-59v73h197v-73h-54l-171 -479q-33 -98 -84.5 -130.5t-139.5 -32.5v77q47 1 76 16.5t43 53.5l18 49l-153 446h-53v73zM137 695l90 11l107 -166h-60z" />
    <glyph glyph-name="endash" unicode="&#x2013;" horiz-adv-x="654" 
d="M597 264h-540v73h540v-73z" />
    <glyph glyph-name="emdash" unicode="&#x2014;" horiz-adv-x="1016" 
d="M959 264h-902v73h902v-73z" />
    <glyph glyph-name="afii00208" unicode="&#x2015;" horiz-adv-x="1016" 
d="M959 264h-902v73h902v-73z" />
    <glyph glyph-name="quoteleft" unicode="&#x2018;" horiz-adv-x="237" 
d="M184 740l19 -35q-35 -17 -55.5 -50t-20.5 -73h39v-90h-92v90q0 52 32 94.5t78 63.5z" />
    <glyph glyph-name="quoteright" unicode="&#x2019;" horiz-adv-x="237" 
d="M72 700h91v-90q0 -52 -32 -94.5t-78 -63.5l-18 35q35 17 55 50t20 73h-38v90z" />
    <glyph glyph-name="quotesinglbase" unicode="&#x201a;" horiz-adv-x="237" 
d="M71 90h92v-90q0 -52 -32 -94.5t-78 -63.5l-18 35q35 17 55 50t20 73h-39v90z" />
    <glyph glyph-name="quotedblleft" unicode="&#x201c;" horiz-adv-x="388" 
d="M184 740l18 -35q-35 -17 -55.5 -50t-20.5 -73h39v-90h-91v90q0 52 32 94.5t78 63.5zM335 740l18 -35q-35 -17 -55 -49.5t-20 -73.5h38v-90h-91v90q0 52 32 94.5t78 63.5z" />
    <glyph glyph-name="quotedblright" unicode="&#x201d;" horiz-adv-x="388" 
d="M71 700h92v-90q0 -52 -32 -94.5t-78 -63.5l-18 35q35 17 55 50t20 73h-39v90zM223 700h91v-90q0 -52 -32 -94.5t-78 -63.5l-18 35q35 17 55 50t20 73h-38v90z" />
    <glyph glyph-name="quotedblbase" unicode="&#x201e;" horiz-adv-x="388" 
d="M71 90h92v-90q0 -52 -32 -94.5t-78 -63.5l-18 35q35 17 55 50t20 73h-39v90zM223 90h91v-90q0 -52 -32 -94.5t-78 -63.5l-18 35q35 17 55 50t20 73h-38v90z" />
    <glyph glyph-name="dagger" unicode="&#x2020;" horiz-adv-x="485" 
d="M207 700h88l-14 -166l166 15v-88l-166 14l14 -166h-88l14 166l-165 -14v88l165 -15z" />
    <glyph glyph-name="daggerdbl" unicode="&#x2021;" horiz-adv-x="504" 
d="M207 700h88l-14 -166l166 15v-88l-166 14v-250l166 15v-88l-166 14l14 -166h-88l14 166l-165 -14v88l165 -15v250l-165 -14v88l165 -15z" />
    <glyph glyph-name="bullet" unicode="&#x2022;" horiz-adv-x="404" 
d="M202 127q-60 0 -102 42t-42 102q0 61 42 103t102 42t102 -42t42 -103q0 -60 -42 -102t-102 -42z" />
    <glyph glyph-name="ellipsis" unicode="&#x2026;" horiz-adv-x="915" 
d="M407 98h100v-98h-100v98zM690 98h100v-98h-100v98zM124 98h100v-98h-100v98z" />
    <glyph glyph-name="perthousand" unicode="&#x2030;" horiz-adv-x="1215" 
d="M219 647q-47 0 -72.5 -34.5t-25.5 -94.5q0 -59 26.5 -94t71.5 -35q49 0 74 34t25 95q0 59 -26.5 94t-72.5 35zM219 710q78 0 123.5 -53t45.5 -139q0 -85 -45.5 -139t-122.5 -54q-78 0 -123 53t-45 139q0 85 45 139t122 54zM638 700h97l-534 -700h-97zM618 312
q-47 0 -72.5 -34.5t-25.5 -94.5q0 -59 26.5 -93.5t71.5 -34.5q48 0 73.5 34t25.5 94q0 59 -26.5 94t-72.5 35zM618 375q78 0 123.5 -53t45.5 -139q0 -85 -45.5 -139t-122.5 -54q-78 0 -123 53t-45 139q0 85 45 139t122 54zM995 312q-47 0 -72.5 -34.5t-25.5 -94.5
q0 -59 26.5 -93.5t71.5 -34.5q48 0 73.5 34t25.5 94q0 59 -26.5 94t-72.5 35zM995 375q78 0 123.5 -53t45.5 -139q0 -85 -45.5 -139t-122.5 -54q-78 0 -123 53t-45 139q0 85 45 139t122 54z" />
    <glyph glyph-name="minute" unicode="&#x2032;" horiz-adv-x="221" 
d="M133 510h-53l-18 190h98z" />
    <glyph glyph-name="second" unicode="&#x2033;" horiz-adv-x="369" 
d="M132 510h-52l-18 190h98zM280 510h-53l-18 190h98z" />
    <glyph glyph-name="guilsinglleft" unicode="&#x2039;" horiz-adv-x="359" 
d="M267 497l36 -38l-170 -183l170 -183l-36 -38l-211 191v60z" />
    <glyph glyph-name="guilsinglright" unicode="&#x203a;" horiz-adv-x="359" 
d="M93 497l210 -191v-60l-210 -191l-37 38l171 183l-171 183z" />
    <glyph glyph-name="fraction" unicode="&#x2044;" horiz-adv-x="634" 
d="M92 0h-86l535 700h87z" />
    <glyph glyph-name="fraction" unicode="&#x2215;" horiz-adv-x="634" 
d="M92 0h-86l535 700h87z" />
    <glyph glyph-name="Euro" unicode="&#x20ac;" horiz-adv-x="649" 
d="M432 403h-257q-2 -34 -2 -53q0 -36 3 -67h195l-18 -49h-170q33 -161 176 -161q67 0 146 18v84h87v-153q-124 -32 -233 -32q-108 0 -178 66t-94 178h-76l18 49h50q-4 28 -4 67q0 17 2 53h-66l18 49h55q21 117 92.5 187.5t186.5 70.5q109 0 233 -32v-153h-87v84
q-79 18 -149 18q-150 0 -180 -175h270z" />
    <glyph glyph-name="afii61352" unicode="&#x2116;" horiz-adv-x="1259" 
d="M32 700h213l274 -504q7 -13 28 -66q-3 33 -3 73v424h-80v73h259v-73h-87v-627h-115l-288 537q-5 11 -14.5 34t-12.5 29q3 -30 3 -66v-461h87v-73h-264v73h87v554h-87v73zM976 637q-67 0 -104.5 -50t-37.5 -137t37.5 -137t104.5 -50q66 0 103.5 50t37.5 137t-37.5 137
t-103.5 50zM976 710q103 0 165.5 -70.5t62.5 -189.5q0 -120 -62 -190t-166 -70t-166.5 70t-62.5 190q0 119 62.5 189.5t166.5 70.5zM1209 0h-464v73h464v-73z" />
    <glyph glyph-name="trademark" unicode="&#x2122;" horiz-adv-x="776" 
d="M47 700h380l94 -252l93 252h83v-331h-55v265l-98 -265h-47l-99 265v-265h-54v285h-125v-285h-57v285h-115v46z" />
    <glyph glyph-name="estimated" unicode="&#x212e;" horiz-adv-x="726" 
d="M382 710q139 0 217.5 -88.5t86.5 -246.5h-528v-25q0 -126 57.5 -202t165.5 -76q75 0 123 35.5t66 98.5h96q-20 -98 -95.5 -157t-188.5 -59q-149 0 -237 102.5t-88 257.5t88 257.5t237 102.5zM378 632q-84 0 -137.5 -49.5t-72.5 -134.5h406q-9 83 -59 133.5t-137 50.5z
" />
    <glyph glyph-name="onethird" unicode="&#x2153;" horiz-adv-x="783" 
d="M179 0h-86l535 700h87zM309 345h-227v54h86v242l-100 -65l-27 46l129 83h68v-306h71v-54zM595 363q65 0 99.5 -25t34.5 -68q0 -72 -84 -88q42 -6 65.5 -29t23.5 -59q0 -45 -38 -73t-105 -28q-62 0 -136 23v93h64v-55q32 -11 72 -11q36 0 54 16t18 41q0 59 -93 59v44
q88 0 88 57q0 53 -67 53q-38 0 -69 -12v-54h-63v92q72 24 136 24z" />
    <glyph glyph-name="arrowleft" unicode="&#x2190;" horiz-adv-x="679" 
d="M56 301l248 249l52 -52l-161 -161h428v-72h-428l161 -161l-52 -52z" />
    <glyph glyph-name="arrowup" unicode="&#x2191;" horiz-adv-x="609" 
d="M304 568l249 -249l-51 -51l-161 160v-428h-73v429l-161 -161l-51 51z" />
    <glyph glyph-name="arrowright" unicode="&#x2192;" horiz-adv-x="679" 
d="M375 550l248 -249l-248 -249l-51 52l160 160h-428v73h429l-161 161z" />
    <glyph glyph-name="arrowdown" unicode="&#x2193;" horiz-adv-x="609" 
d="M268 538h73v-429l161 161l51 -51l-249 -249l-248 249l51 51l161 -161v429z" />
    <glyph glyph-name="partialdiff" unicode="&#x2202;" horiz-adv-x="595" 
d="M237 710q141 0 226 -102t85 -268q0 -165 -67 -257.5t-191 -92.5q-116 0 -179.5 68.5t-63.5 170.5q0 94 55 160.5t165 66.5q112 0 185 -85q-3 126 -63 198.5t-169 72.5zM287 389q-146 0 -146 -160q0 -74 36 -118.5t109 -44.5q79 0 119.5 64t44.5 176q-65 83 -163 83z" />
    <glyph glyph-name="product" unicode="&#x220f;" horiz-adv-x="753" 
d="M32 700h690v-73h-88v-554h88v-73h-270v73h88v554h-327v-554h88v-73h-269v73h87v554h-87v73z" />
    <glyph glyph-name="summation" unicode="&#x2211;" horiz-adv-x="631" 
d="M48 700h530v-164h-95v91h-324l211 -262l-216 -292h329v91h95v-164h-536v74l216 291l-210 260v75z" />
    <glyph glyph-name="minus" unicode="&#x2212;" 
d="M554 265h-505v72h505v-72z" />
    <glyph glyph-name="radical" unicode="&#x221a;" horiz-adv-x="654" 
d="M396 0h-106l-155 427h-121v73h184l147 -409l222 609h82z" />
    <glyph glyph-name="infinity" unicode="&#x221e;" horiz-adv-x="802" 
d="M571 488q-50 0 -79.5 -32t-51.5 -90q24 -70 53 -107.5t82 -37.5q49 0 76 35.5t27 98.5t-28 98t-79 35zM233 576q69 0 110 -38t69 -107q28 68 67.5 106.5t101.5 38.5q78 0 121.5 -58t43.5 -163q0 -104 -49 -163.5t-128 -59.5q-69 0 -109.5 38.5t-69.5 107.5
q-29 -69 -68.5 -107.5t-101.5 -38.5q-77 0 -120.5 58t-43.5 163q0 104 49 163.5t128 59.5zM226 487q-49 0 -75.5 -35.5t-26.5 -98.5t28 -98t78 -35t79.5 31.5t52.5 89.5q-25 72 -53.5 109t-82.5 37z" />
    <glyph glyph-name="integral" unicode="&#x222b;" horiz-adv-x="601" 
d="M254 -40v574q0 91 53 135.5t153 32.5v-75q-119 16 -119 -96v-571q0 -90 -53 -134.5t-153 -33.5v76q119 -17 119 92z" />
    <glyph glyph-name="approxequal" unicode="&#x2248;" horiz-adv-x="594" 
d="M193 494q43 0 83.5 -22t74.5 -44t60 -22q29 0 46 15.5t24 53.5l54 -28q-20 -118 -126 -118q-49 0 -114.5 44t-103.5 44q-29 0 -46 -16t-24 -54l-54 28q20 119 126 119zM193 259q34 0 67 -13.5t55 -30t48.5 -30t47.5 -13.5q29 0 46 15.5t24 53.5l54 -29
q-20 -118 -126 -118q-49 0 -114.5 44t-103.5 44q-29 0 -46 -16t-24 -54l-54 29q20 118 126 118z" />
    <glyph glyph-name="notequal" unicode="&#x2260;" 
d="M554 152h-291l-67 -120h-79l67 120h-135v73h176l86 152h-262v73h303l61 109h78l-61 -109h124v-73h-165l-85 -152h250v-73z" />
    <glyph glyph-name="lessequal" unicode="&#x2264;" 
d="M530 616l-367 -201l367 -200l-34 -64l-425 235v58l425 235zM554 23h-505v72h505v-72z" />
    <glyph glyph-name="greaterequal" unicode="&#x2265;" horiz-adv-x="594" 
d="M71 215l367 200l-367 201l35 63l424 -235v-58l-424 -235zM554 23h-505v72h505v-72z" />
    <glyph glyph-name="lozenge" unicode="&#x25ca;" horiz-adv-x="484" 
d="M460 245l-167 -456h-106l-163 455l167 456h106zM108 252l134 -372l134 357l-134 372z" />
    <glyph glyph-name="dotlessj" unicode="&#xf6be;" horiz-adv-x="272" 
d="M28 500h150v-555q0 -78 -47 -119t-115 -42v69q40 0 60 21.5t20 74.5v478h-68v73z" />
    <glyph glyph-name="commaaccent" unicode="&#xf6c3;" horiz-adv-x="210" 
d="M74 -48h80v-51q0 -77 -79 -123l-14 29q49 27 49 82h-36v63z" />
    <glyph glyph-name="g.ss01" horiz-adv-x="555" 
d="M273 500h127q2 55 40.5 85t109.5 30v-73q-32 0 -49.5 -14.5t-17.5 -53.5v-140q0 -81 -55 -130t-155 -49q-55 0 -100 17q-24 -15 -24 -42q0 -48 65 -48h155q158 0 158 -125q0 -80 -63.5 -128.5t-190.5 -48.5q-221 0 -221 134q0 39 21 69.5t59 47.5q-62 20 -62 77
q0 27 16.5 52t41.5 37q-61 47 -61 130q0 80 53.5 126.5t152.5 46.5zM345 21h-127q-12 0 -28 2q-51 -28 -51 -85q0 -93 136 -93q84 0 122 31t38 79q0 66 -90 66zM272 432q-115 0 -115 -106q0 -109 119 -109q58 0 89.5 31t31.5 87v97h-125z" />
    <glyph glyph-name="g.ss02" horiz-adv-x="599" 
d="M256 510q64 0 106 -35.5t56 -88.5v114h154v-73h-67v-432q0 -107 -62.5 -158.5t-175.5 -51.5q-86 0 -144.5 45t-66.5 125h93q5 -45 40 -72.5t86 -27.5q143 0 143 140v119q-16 -54 -59 -86.5t-106 -32.5q-95 0 -150 69.5t-55 185.5t53.5 188t154.5 72zM277 438
q-67 0 -103 -50.5t-36 -137.5t36.5 -136.5t103.5 -49.5q70 0 105 51t35 131q0 94 -37 143t-104 49z" />
    <glyph glyph-name="g.ss03" horiz-adv-x="589" 
d="M275 508q33 0 134.5 -4t152.5 -4v-73h-67v-446q0 -107 -58.5 -154.5t-174.5 -47.5q-86 0 -144.5 45t-65.5 124h93q5 -45 39.5 -72t84.5 -27q72 0 105.5 29t33.5 103v136q-17 -54 -56.5 -86t-101.5 -32q-94 0 -148 70t-54 186q0 113 61 183t166 70zM287 439
q-71 0 -109.5 -49t-38.5 -135t35.5 -135.5t101.5 -49.5q67 0 99.5 49.5t32.5 128.5v186q-98 5 -121 5z" />
    <glyph glyph-name="zero.fitted" horiz-adv-x="623" 
d="M311 627q-80 0 -119 -74t-39 -203t39 -203t119 -74t119.5 74t39.5 203t-39.5 203t-119.5 74zM311 710q116 0 185 -94.5t69 -265.5t-69 -265.5t-185 -94.5q-115 0 -184.5 94.5t-69.5 265.5t69.5 265.5t184.5 94.5z" />
    <glyph glyph-name="one.fitted" horiz-adv-x="407" 
d="M394 0h-332v73h131v541l-139 -89l-37 65l176 110h90v-627h111v-73z" />
    <glyph glyph-name="two.fitted" horiz-adv-x="585" 
d="M305 710q116 0 171.5 -58t55.5 -150q0 -103 -77 -194.5t-287 -234.5h369v-73h-480v77q119 82 193.5 143t114.5 109.5t53.5 85.5t13.5 81q0 61 -31.5 100t-100.5 39q-67 0 -131 -18v-96h-92v155q114 34 228 34z" />
    <glyph glyph-name="three.fitted" horiz-adv-x="593" 
d="M297 710q112 0 172.5 -49t60.5 -129q0 -77 -47.5 -120.5t-133.5 -51.5q90 -6 139.5 -50t49.5 -123q0 -85 -67.5 -141t-177.5 -56q-108 0 -230 36v148h91v-95q66 -19 137 -19t108 37t37 94q0 66 -43 99.5t-139 33.5v70q94 0 133.5 31.5t39.5 96.5q0 118 -137 118
q-64 0 -131 -19v-95h-90v148q122 36 228 36z" />
    <glyph glyph-name="four.fitted" horiz-adv-x="587" 
d="M361 609l-224 -323h224v323zM341 700h112v-414h97v-74h-97v-139h74v-73h-242v73h76v139h-309v74z" />
    <glyph glyph-name="five.fitted" horiz-adv-x="589" 
d="M93 700h406v-160h-86v87h-239l-10 -198q69 13 134 13q112 0 177 -58t65 -156q0 -107 -67.5 -172.5t-180.5 -65.5q-103 0 -225 36v149h90v-95q66 -19 131 -19q74 0 114 42t40 118q0 149 -169 149q-111 0 -200 -17z" />
    <glyph glyph-name="six.fitted" horiz-adv-x="621" 
d="M319 389q-95 0 -163 -85q4 -111 45 -174.5t118 -63.5q74 0 111.5 44.5t37.5 118.5q0 71 -35 115.5t-114 44.5zM347 710q92 0 182 -21v-143h-88v84q-48 11 -96 11q-185 0 -190 -274q74 90 187 90q112 0 165 -63.5t53 -158.5q0 -104 -63.5 -174.5t-181.5 -70.5
q-123 0 -189 92t-66 258q0 179 73.5 274.5t213.5 95.5z" />
    <glyph glyph-name="seven.fitted" horiz-adv-x="512" 
d="M22 700h474v-74l-265 -626h-100l273 626h-297v-104h-85v178z" />
    <glyph glyph-name="eight.fitted" horiz-adv-x="607" 
d="M303 638q-67 0 -103 -33t-36 -85q0 -60 38 -91.5t101 -31.5t101 31.5t38 91.5q0 52 -36 85t-103 33zM303 329q-69 0 -113 -31.5t-44 -100.5q0 -60 40.5 -96t116.5 -36t117 36t41 96q0 69 -44.5 100.5t-113.5 31.5zM303 710q109 0 169 -51t60 -131q0 -63 -39.5 -107
t-113.5 -56q76 -6 123 -55t47 -126q0 -90 -64 -142t-182 -52t-182 52t-64 142q0 76 47 124.5t124 54.5q-73 13 -113 57.5t-40 108.5q0 80 59.5 130.5t168.5 50.5z" />
    <glyph glyph-name="nine.fitted" horiz-adv-x="621" 
d="M303 710q124 0 190.5 -90t66.5 -255q0 -171 -69.5 -273t-198.5 -102q-107 0 -209 38v146h90v-95q62 -20 120 -20q85 0 127.5 73.5t44.5 201.5q-71 -89 -185 -89q-110 0 -165 64.5t-55 158.5q0 103 64 172.5t179 69.5zM299 634q-74 0 -111.5 -43.5t-37.5 -116.5
q0 -70 35 -114t114 -44q100 0 165 86q-3 110 -44 171t-121 61z" />
    <glyph glyph-name="zero.slash" 
d="M301 710q116 0 185 -94.5t69 -265.5t-69 -265.5t-185 -94.5q-115 0 -184.5 94.5t-69.5 265.5t69.5 265.5t184.5 94.5zM194 622l-66 -3l44 -86q-29 -68 -29 -183q0 -129 39 -203t119 -74q55 0 92 37l16 -30l67 3l-45 86q29 72 29 181q0 129 -39.5 203t-119.5 74
q-55 0 -91 -36zM393 110q22 21 38 59l-221 422q-23 -23 -38 -58z" />
    <glyph glyph-name="zero.tab" 
d="M301 627q-80 0 -119 -74t-39 -203t39 -203t119 -74t119.5 74t39.5 203t-39.5 203t-119.5 74zM301 710q116 0 185 -94.5t69 -265.5t-69 -265.5t-185 -94.5q-115 0 -184.5 94.5t-69.5 265.5t69.5 265.5t184.5 94.5z" />
    <glyph glyph-name="one.tab" 
d="M532 0h-348v74h136v540l-167 -113l-37 65l205 134h96v-626h115v-74z" />
    <glyph glyph-name="two.tab" 
d="M310 710q116 0 171.5 -58t55.5 -150q0 -103 -77 -194.5t-287 -234.5h369v-73h-480v77q119 82 193.5 143t114.5 109.5t53.5 85.5t13.5 81q0 61 -31.5 100t-100.5 39q-67 0 -131 -18v-96h-92v155q114 34 228 34z" />
    <glyph glyph-name="three.tab" 
d="M304 710q112 0 172.5 -49t60.5 -129q0 -77 -47.5 -120.5t-133.5 -51.5q90 -6 139.5 -50t49.5 -123q0 -85 -67.5 -141t-177.5 -56q-108 0 -230 36v148h91v-95q66 -19 137 -19t108 37t37 94q0 66 -43 99.5t-139 33.5v70q94 0 133.5 31.5t39.5 96.5q0 118 -137 118
q-64 0 -131 -19v-95h-90v148q122 36 228 36z" />
    <glyph glyph-name="four.tab" 
d="M360 609l-224 -323h224v323zM340 700h112v-414h97v-74h-97v-139h74v-73h-242v73h76v139h-309v74z" />
    <glyph glyph-name="five.tab" 
d="M101 700h406v-160h-86v87h-239l-10 -198q69 13 134 13q112 0 177 -58t65 -156q0 -107 -67.5 -172.5t-180.5 -65.5q-103 0 -225 36v149h90v-95q66 -19 131 -19q74 0 114 42t40 118q0 149 -169 149q-111 0 -200 -17z" />
    <glyph glyph-name="six.tab" 
d="M310 389q-95 0 -163 -85q4 -111 45 -174.5t118 -63.5q74 0 111.5 44.5t37.5 118.5q0 71 -35 115.5t-114 44.5zM338 710q92 0 182 -21v-143h-88v84q-48 11 -96 11q-185 0 -190 -274q74 90 187 90q112 0 165 -63.5t53 -158.5q0 -104 -63.5 -174.5t-181.5 -70.5
q-123 0 -189 92t-66 258q0 179 73.5 274.5t213.5 95.5z" />
    <glyph glyph-name="seven.tab" 
d="M66 700h474v-74l-265 -626h-100l273 626h-297v-104h-85v178z" />
    <glyph glyph-name="eight.tab" 
d="M301 638q-67 0 -103 -33t-36 -85q0 -60 38 -91.5t101 -31.5t101 31.5t38 91.5q0 52 -36 85t-103 33zM301 329q-69 0 -113 -31.5t-44 -100.5q0 -60 40.5 -96t116.5 -36t117 36t41 96q0 69 -44.5 100.5t-113.5 31.5zM301 710q109 0 169 -51t60 -131q0 -63 -39.5 -107
t-113.5 -56q76 -6 123 -55t47 -126q0 -90 -64 -142t-182 -52t-182 52t-64 142q0 76 47 124.5t124 54.5q-73 13 -113 57.5t-40 108.5q0 80 59.5 130.5t168.5 50.5z" />
    <glyph glyph-name="nine.tab" 
d="M294 710q124 0 190.5 -90t66.5 -255q0 -171 -69.5 -273t-198.5 -102q-107 0 -209 38v146h90v-95q62 -20 120 -20q85 0 127.5 73.5t44.5 201.5q-71 -89 -185 -89q-110 0 -165 64.5t-55 158.5q0 103 64 172.5t179 69.5zM290 634q-74 0 -111.5 -43.5t-37.5 -116.5
q0 -70 35 -114t114 -44q100 0 165 86q-3 110 -44 171t-121 61z" />
    <glyph glyph-name="dollar.tab" 
d="M327 -98h-55v88q-104 3 -223 33v161h84v-97q67 -18 139 -22v256q-116 16 -174 57.5t-58 132.5q0 80 60 136t172 62v81h55v-81q92 -3 210 -30v-158h-85v94q-58 15 -125 19v-235q113 -17 175.5 -61t62.5 -133q0 -87 -62.5 -146.5t-175.5 -67.5v-89zM471 192q0 55 -36.5 81
t-107.5 39v-246q70 6 107 41.5t37 84.5zM133 519q0 -53 34.5 -77t104.5 -35v227q-71 -5 -105 -37t-34 -78z" />
    <glyph glyph-name="cent.tab" 
d="M284 697h46v-79q81 -1 177 -13v-150h-75v85q-50 8 -102 9v-378q44 4 73.5 32t38.5 71h81q-13 -77 -65 -124t-128 -52v-93h-46v94q-95 10 -149 80t-54 179q0 112 54.5 180t148.5 78v81zM161 358q0 -77 32 -126.5t91 -59.5v374q-59 -10 -91 -59t-32 -129z" />
    <glyph glyph-name="sterling.tab" 
d="M317 710q90 0 224 -31v-158h-82v94q-84 20 -144 20q-78 0 -110 -40.5t-32 -95.5q0 -53 19 -139h218v-49h-209q9 -50 9 -83q0 -82 -53 -155h379v-73h-467v73q51 63 51 144q0 35 -13 94h-70v49h58q-19 80 -19 133q0 89 61 153t180 64z" />
    <glyph glyph-name="yen.tab" 
d="M1 700h243v-73h-70l130 -243l135 243h-69v73h235v-73h-67l-158 -267h129v-50h-159l-2 -4v-74h123v-49h-123v-110h88v-73h-269v73h87v110h-120v49h120v74l-3 4h-155v50h126l-156 267h-65v73z" />
    <glyph glyph-name="florin.tab" 
d="M418 709q30 0 72 -8v-72q-36 9 -62 9q-85 0 -85 -89v-49h147v-67h-147v-482q0 -79 -43.5 -120t-118.5 -41q-30 0 -72 8v72q35 -9 61 -9q86 0 86 90v482h-77v67h77v47q0 80 43.5 121t118.5 41z" />
    <glyph glyph-name="Euro.tab" 
d="M422 403h-257q-2 -34 -2 -53q0 -36 3 -67h195l-18 -49h-170q33 -161 176 -161q67 0 146 18v84h87v-153q-124 -32 -233 -32q-108 0 -178 66t-94 178h-76l18 49h50q-4 28 -4 67q0 17 2 53h-66l18 49h55q21 117 92.5 187.5t186.5 70.5q109 0 233 -32v-153h-87v84
q-79 18 -149 18q-150 0 -180 -175h270z" />
    <glyph glyph-name="numbersign.tab" 
d="M215 0h-82v191h-105v65h105v187h-105v65h105v192h82v-192h174v192h82v-192h104v-65h-104v-187h104v-65h-104v-191h-82v191h-174v-191zM215 443v-187h174v187h-174z" />
    <glyph glyph-name="zero.oldstyle" horiz-adv-x="541" 
d="M271 439q-65 0 -99 -49.5t-34 -139.5q0 -92 34 -140.5t99 -48.5t99 48.5t34 140.5q0 90 -34 139.5t-99 49.5zM271 510q98 0 157.5 -68.5t59.5 -192.5q0 -125 -59 -192t-158 -67t-158 67t-59 192q0 124 59 192.5t158 68.5z" />
    <glyph glyph-name="one.oldstyle" horiz-adv-x="417" 
d="M223 500h81v-427h106v-73h-321v73h131v349l-147 -98l-33 58z" />
    <glyph glyph-name="two.oldstyle" horiz-adv-x="563" 
d="M284 510q102 0 151.5 -44t49.5 -114q0 -73 -65 -133.5t-225 -151.5h302v-67h-428v67q189 106 255.5 162t66.5 116q0 43 -27 70.5t-83 27.5q-46 0 -107 -13v-86h-82v144q103 22 192 22z" />
    <glyph glyph-name="three.oldstyle" horiz-adv-x="563" 
d="M70 500h423v-73l-194 -211q108 -7 162.5 -59t54.5 -136q0 -89 -64.5 -150t-171.5 -61q-98 0 -162 55t-71 147h87q5 -62 42.5 -96.5t103.5 -34.5q68 0 104.5 39.5t36.5 98.5q0 71 -50 106.5t-164 35.5v61l186 204h-244v-73h-79v147z" />
    <glyph glyph-name="four.oldstyle" horiz-adv-x="552" 
d="M426 -187h-84v187h-297v74l273 426h108v-427h95v-73h-95v-187zM342 73v343l-221 -343h221z" />
    <glyph glyph-name="five.oldstyle" horiz-adv-x="549" 
d="M95 500h375v-160h-80v87h-217l-11 -180q74 12 122 12q106 0 162.5 -57t56.5 -157q0 -106 -65.5 -171t-172.5 -65q-93 0 -149.5 51.5t-66.5 139.5h82q13 -123 137 -123q66 0 103.5 44.5t37.5 117.5q0 149 -153 149q-88 0 -182 -18z" />
    <glyph glyph-name="six.oldstyle" horiz-adv-x="582" 
d="M300 389q-96 0 -160 -82q2 -110 43 -176.5t117 -66.5q68 0 103.5 46.5t35.5 120.5q0 70 -33 114t-106 44zM314 710q92 0 186 -23v-138h-88v79q-48 14 -99 14q-85 0 -128.5 -72t-45.5 -199q71 85 179 85q106 0 158 -63t52 -156q0 -104 -60.5 -175.5t-171.5 -71.5
q-116 0 -179.5 92.5t-63.5 257.5q0 170 67.5 270t193.5 100z" />
    <glyph glyph-name="seven.oldstyle" horiz-adv-x="481" 
d="M12 500h458v-73l-255 -614h-96l263 614h-290v-102h-80v175z" />
    <glyph glyph-name="eight.oldstyle" horiz-adv-x="578" 
d="M288 710q101 0 159.5 -47.5t58.5 -125.5q0 -61 -38 -99t-104 -65q75 -26 118.5 -68t43.5 -119q0 -89 -64 -142.5t-173 -53.5q-111 0 -173.5 47t-62.5 135q0 120 168 185q-71 26 -111 63.5t-40 105.5q0 80 59 132t159 52zM277 329q-64 -25 -101 -59.5t-37 -86.5
q0 -58 40.5 -92t111.5 -34t110.5 32.5t39.5 89.5q0 60 -42.5 92t-121.5 58zM289 646q-62 0 -98 -32.5t-36 -82.5q0 -23 9 -41.5t21 -31t34 -24t39 -18t46 -15.5q56 22 87.5 51.5t31.5 78.5q0 52 -36 83.5t-98 31.5z" />
    <glyph glyph-name="nine.oldstyle" horiz-adv-x="582" 
d="M283 510q117 0 181 -88t64 -252q0 -168 -68 -264t-195 -96q-84 0 -139 46.5t-68 132.5h83q7 -55 39.5 -83t85.5 -28q166 0 171 260q-69 -84 -174 -84q-107 0 -159 61.5t-52 154.5q0 103 60.5 171.5t170.5 68.5zM281 436q-67 0 -103 -44t-36 -116q0 -155 138 -155
q46 0 87.5 22t69.5 59q-1 109 -40.5 171.5t-115.5 62.5z" />
    <glyph glyph-name="zero.taboldstyle" horiz-adv-x="573" 
d="M286 439q-65 0 -99 -49.5t-34 -139.5q0 -92 34 -140.5t99 -48.5t99 48.5t34 140.5q0 90 -34 139.5t-99 49.5zM286 510q98 0 157.5 -68.5t59.5 -192.5q0 -125 -59 -192t-158 -67t-158 67t-59 192q0 124 59 192.5t158 68.5z" />
    <glyph glyph-name="one.taboldstyle" horiz-adv-x="573" 
d="M286 500h85v-427h108v-73h-325v73h130v349l-148 -98l-33 58z" />
    <glyph glyph-name="two.taboldstyle" horiz-adv-x="573" 
d="M289 510q102 0 151.5 -44t49.5 -114q0 -73 -65 -133.5t-225 -151.5h302v-67h-428v67q189 106 255.5 162t66.5 116q0 43 -27 70.5t-83 27.5q-46 0 -107 -13v-86h-82v144q103 22 192 22z" />
    <glyph glyph-name="three.taboldstyle" horiz-adv-x="573" 
d="M75 500h423v-73l-194 -211q108 -7 162.5 -59t54.5 -136q0 -89 -64.5 -150t-171.5 -61q-98 0 -162 55t-71 147h87q5 -62 42.5 -96.5t103.5 -34.5q68 0 104.5 39.5t36.5 98.5q0 71 -50 106.5t-164 35.5v61l186 204h-244v-73h-79v147z" />
    <glyph glyph-name="four.taboldstyle" horiz-adv-x="573" 
d="M429 -187h-84v187h-297v74l273 426h108v-427h95v-73h-95v-187zM345 73v343l-221 -343h221z" />
    <glyph glyph-name="five.taboldstyle" horiz-adv-x="573" 
d="M105 500h375v-160h-80v87h-217l-11 -180q74 12 122 12q106 0 162.5 -57t56.5 -157q0 -106 -65.5 -171t-172.5 -65q-93 0 -149.5 51.5t-66.5 139.5h82q13 -123 137 -123q66 0 103.5 44.5t37.5 117.5q0 149 -153 149q-88 0 -182 -18z" />
    <glyph glyph-name="six.taboldstyle" horiz-adv-x="573" 
d="M296 389q-96 0 -160 -82q2 -110 43 -176.5t117 -66.5q68 0 103.5 46.5t35.5 120.5q0 70 -33 114t-106 44zM310 710q92 0 186 -23v-138h-88v79q-48 14 -99 14q-85 0 -128.5 -72t-45.5 -199q71 85 179 85q106 0 158 -63t52 -156q0 -104 -60.5 -175.5t-171.5 -71.5
q-116 0 -179.5 92.5t-63.5 257.5q0 170 67.5 270t193.5 100z" />
    <glyph glyph-name="seven.taboldstyle" horiz-adv-x="573" 
d="M58 500h458v-73l-255 -614h-96l263 614h-290v-102h-80v175z" />
    <glyph glyph-name="eight.taboldstyle" horiz-adv-x="573" 
d="M285 710q101 0 159.5 -47.5t58.5 -125.5q0 -61 -38 -99t-104 -65q75 -26 118.5 -68t43.5 -119q0 -89 -64 -142.5t-173 -53.5q-111 0 -173.5 47t-62.5 135q0 120 168 185q-71 26 -111 63.5t-40 105.5q0 80 59 132t159 52zM274 329q-64 -25 -101 -59.5t-37 -86.5
q0 -58 40.5 -92t111.5 -34t110.5 32.5t39.5 89.5q0 60 -42.5 92t-121.5 58zM286 646q-62 0 -98 -32.5t-36 -82.5q0 -23 9 -41.5t21 -31t34 -24t39 -18t46 -15.5q56 22 87.5 51.5t31.5 78.5q0 52 -36 83.5t-98 31.5z" />
    <glyph glyph-name="nine.taboldstyle" horiz-adv-x="573" 
d="M279 510q117 0 181 -88t64 -252q0 -168 -68 -264t-195 -96q-84 0 -139 46.5t-68 132.5h83q7 -55 39.5 -83t85.5 -28q166 0 171 260q-69 -84 -174 -84q-107 0 -159 61.5t-52 154.5q0 103 60.5 171.5t170.5 68.5zM277 436q-67 0 -103 -44t-36 -116q0 -155 138 -155
q46 0 87.5 22t69.5 59q-1 109 -40.5 171.5t-115.5 62.5z" />
    <glyph glyph-name="zero.small" horiz-adv-x="494" 
d="M248 440q-58 0 -86 -51t-28 -140q0 -189 114 -189q57 0 85 50t28 139t-28 140t-85 51zM248 510q89 0 144 -69t55 -192q0 -124 -54.5 -191.5t-144.5 -67.5q-91 0 -146 67.5t-55 191.5q0 123 55 192t146 69z" />
    <glyph glyph-name="one.small" horiz-adv-x="358" 
d="M165 506h84v-433h92v-73h-296v73h117v351l-131 -88l-32 61z" />
    <glyph glyph-name="two.small" horiz-adv-x="472" 
d="M243 510q88 0 134 -43t46 -108q0 -74 -54.5 -137.5t-205.5 -154.5h262v-67h-376v64q171 104 226 163.5t55 120.5q0 42 -23.5 68.5t-71.5 26.5q-41 0 -93 -14v-90h-78v147q98 24 179 24z" />
    <glyph glyph-name="three.small" horiz-adv-x="489" 
d="M248 510q91 0 139 -35.5t48 -94.5q0 -52 -34.5 -83.5t-93.5 -39.5q63 -6 99 -39t36 -87q0 -62 -53 -101.5t-141 -39.5q-85 0 -183 24v134h80v-81q43 -13 97 -13q53 0 80.5 23.5t27.5 59.5q0 45 -31.5 67t-102.5 22v58q68 0 97 20.5t29 64.5q0 78 -100 78q-50 0 -97 -14
v-81h-80v134q98 24 183 24z" />
    <glyph glyph-name="four.small" horiz-adv-x="469" 
d="M275 427l-158 -212h158v212zM264 500h97v-285h77v-61h-77v-92h67v-62h-221v62h68v92h-238v59z" />
    <glyph glyph-name="five.small" horiz-adv-x="490" 
d="M87 500h329v-129h-77v62h-174l-8 -125q44 7 90 7q92 0 143.5 -40.5t51.5 -115.5q0 -76 -54 -122.5t-145 -46.5q-87 0 -179 23v133h82v-80q45 -13 94 -13q52 0 80.5 27.5t28.5 75.5q0 103 -122 103q-72 0 -156 -15z" />
    <glyph glyph-name="six.small" horiz-adv-x="511" 
d="M262 274q-69 0 -121 -59q3 -76 34 -119t87 -43q54 0 82 30.5t28 81.5q0 49 -26 79t-84 30zM279 510q77 0 162 -16v-126h-81v72q-35 11 -83 11q-65 0 -99 -47t-36 -130q60 55 144 55q89 0 133 -44t44 -117q0 -76 -52.5 -127t-148.5 -51q-100 0 -157.5 67t-57.5 186
q0 122 61.5 194.5t170.5 72.5z" />
    <glyph glyph-name="seven.small" horiz-adv-x="407" 
d="M23 500h366v-64l-199 -436h-95l203 433h-196v-81h-79v148z" />
    <glyph glyph-name="eight.small" horiz-adv-x="511" 
d="M257 452q-50 0 -76.5 -22t-26.5 -59q0 -42 27.5 -63t75.5 -21q46 0 73 21.5t27 62.5q0 36 -26 58.5t-74 22.5zM257 233q-52 0 -84.5 -23t-32.5 -70q0 -41 29.5 -65.5t87.5 -24.5q56 0 85 24.5t29 65.5q0 47 -32 70t-82 23zM257 510q90 0 139 -35.5t49 -94.5
q0 -45 -28 -77t-85 -43q59 -7 93 -41.5t34 -87.5q0 -65 -53 -103t-149 -38q-98 0 -151.5 38t-53.5 103q0 53 34.5 87t92.5 42q-56 12 -84.5 43.5t-28.5 76.5q0 59 49.5 94.5t141.5 35.5z" />
    <glyph glyph-name="nine.small" horiz-adv-x="511" 
d="M250 447q-52 0 -79.5 -30.5t-27.5 -81.5q0 -109 107 -109q74 0 120 57q-2 77 -32.5 120.5t-87.5 43.5zM249 510q99 0 156.5 -67t57.5 -186q0 -122 -59 -194.5t-164 -72.5q-80 0 -178 24v125h82v-76q48 -14 93 -14q63 0 96.5 46t34.5 129q-58 -53 -136 -53
q-90 0 -137 44.5t-47 116.5q0 76 52.5 127t148.5 51z" />
    <glyph glyph-name="zerosmall.tab" horiz-adv-x="504" 
d="M252 440q-58 0 -86 -51t-28 -140q0 -189 114 -189q57 0 85 50t28 139t-28 140t-85 51zM252 510q89 0 144 -69t55 -192q0 -124 -54.5 -191.5t-144.5 -67.5q-91 0 -146 67.5t-55 191.5q0 123 55 192t146 69z" />
    <glyph glyph-name="onesmall.tab" horiz-adv-x="504" 
d="M244 506h84v-433h92v-73h-296v73h117v351l-131 -88l-32 61z" />
    <glyph glyph-name="twosmall.tab" horiz-adv-x="504" 
d="M259 510q88 0 134 -43t46 -108q0 -74 -54.5 -137.5t-205.5 -154.5h262v-67h-376v64q171 104 226 163.5t55 120.5q0 42 -23.5 68.5t-71.5 26.5q-41 0 -93 -14v-90h-78v147q98 24 179 24z" />
    <glyph glyph-name="threesmall.tab" horiz-adv-x="504" 
d="M254 510q91 0 139 -35.5t48 -94.5q0 -52 -34.5 -83.5t-93.5 -39.5q63 -6 99 -39t36 -87q0 -62 -53 -101.5t-141 -39.5q-85 0 -183 24v134h80v-81q43 -13 97 -13q53 0 80.5 23.5t27.5 59.5q0 45 -31.5 67t-102.5 22v58q68 0 97 20.5t29 64.5q0 78 -100 78q-50 0 -97 -14
v-81h-80v134q98 24 183 24z" />
    <glyph glyph-name="foursmall.tab" horiz-adv-x="504" 
d="M289 427l-158 -212h158v212zM278 500h97v-285h77v-61h-77v-92h67v-62h-221v62h68v92h-238v59z" />
    <glyph glyph-name="fivesmall.tab" horiz-adv-x="504" 
d="M90 500h329v-129h-77v62h-174l-8 -125q44 7 90 7q92 0 143.5 -40.5t51.5 -115.5q0 -76 -54 -122.5t-145 -46.5q-87 0 -179 23v133h82v-80q45 -13 94 -13q52 0 80.5 27.5t28.5 75.5q0 103 -122 103q-72 0 -156 -15z" />
    <glyph glyph-name="sixsmall.tab" horiz-adv-x="504" 
d="M259 274q-69 0 -121 -59q3 -76 34 -119t87 -43q54 0 82 30.5t28 81.5q0 49 -26 79t-84 30zM276 510q77 0 162 -16v-126h-81v72q-35 11 -83 11q-65 0 -99 -47t-36 -130q60 55 144 55q89 0 133 -44t44 -117q0 -76 -52.5 -127t-148.5 -51q-100 0 -157.5 67t-57.5 186
q0 122 61.5 194.5t170.5 72.5z" />
    <glyph glyph-name="sevensmall.tab" horiz-adv-x="504" 
d="M70 500h366v-64l-199 -436h-95l203 433h-196v-81h-79v148z" />
    <glyph glyph-name="eightsmall.tab" horiz-adv-x="504" 
d="M253 452q-50 0 -76.5 -22t-26.5 -59q0 -42 27.5 -63t75.5 -21q46 0 73 21.5t27 62.5q0 36 -26 58.5t-74 22.5zM253 233q-52 0 -84.5 -23t-32.5 -70q0 -41 29.5 -65.5t87.5 -24.5q56 0 85 24.5t29 65.5q0 47 -32 70t-82 23zM253 510q90 0 139 -35.5t49 -94.5
q0 -45 -28 -77t-85 -43q59 -7 93 -41.5t34 -87.5q0 -65 -53 -103t-149 -38q-98 0 -151.5 38t-53.5 103q0 53 34.5 87t92.5 42q-56 12 -84.5 43.5t-28.5 76.5q0 59 49.5 94.5t141.5 35.5z" />
    <glyph glyph-name="ninesmall.tab" horiz-adv-x="504" 
d="M247 447q-52 0 -79.5 -30.5t-27.5 -81.5q0 -109 107 -109q74 0 120 57q-2 77 -32.5 120.5t-87.5 43.5zM246 510q99 0 156.5 -67t57.5 -186q0 -122 -59 -194.5t-164 -72.5q-80 0 -178 24v125h82v-76q48 -14 93 -14q63 0 96.5 46t34.5 129q-58 -53 -136 -53
q-90 0 -137 44.5t-47 116.5q0 76 52.5 127t148.5 51z" />
    <glyph glyph-name="zero.superior" horiz-adv-x="377" 
d="M189 707q-79 0 -79 -130q0 -129 79 -129t79 129q0 61 -20 95.5t-59 34.5zM189 763q67 0 107 -49t40 -137q0 -89 -40 -136.5t-107 -47.5q-68 0 -108 47.5t-40 136.5t40 137.5t108 48.5z" />
    <glyph glyph-name="one.superior" horiz-adv-x="377" 
d="M318 400h-227v54h86v242l-100 -65l-27 46l129 83h68v-306h71v-54z" />
    <glyph glyph-name="two.superior" horiz-adv-x="377" 
d="M186 763q72 0 107 -29.5t35 -80.5t-36.5 -93t-141.5 -106h183v-54h-288v48q124 74 165.5 115t41.5 82q0 29 -18 46t-52 17q-32 0 -66 -12v-60h-64v104q69 23 134 23z" />
    <glyph glyph-name="three.superior" horiz-adv-x="377" 
d="M190 763q65 0 99.5 -25t34.5 -68q0 -72 -84 -88q42 -6 65.5 -29t23.5 -59q0 -45 -38 -73t-105 -28q-62 0 -136 23v93h64v-55q32 -11 72 -11q36 0 54 16t18 41q0 59 -93 59v44q88 0 88 57q0 53 -67 53q-38 0 -69 -12v-54h-63v92q72 24 136 24z" />
    <glyph glyph-name="four.superior" horiz-adv-x="377" 
d="M201 756h77v-212h55v-54h-55v-90h-66v90h-171v52zM212 694l-111 -150h111v150z" />
    <glyph glyph-name="five.superior" horiz-adv-x="377" 
d="M75 756h228v-53h-173l-5 -76q36 6 65 6q67 0 102 -30.5t35 -84.5q0 -55 -39 -90t-104 -35q-52 0 -127 23v93h61v-55q33 -10 66 -10q36 0 55.5 20t19.5 53q0 31 -20 50t-61 19q-64 0 -115 -9z" />
    <glyph glyph-name="six.superior" horiz-adv-x="377" 
d="M193 587q-48 0 -84 -38q3 -47 24.5 -75.5t59.5 -28.5q36 0 55 19.5t19 52.5q0 70 -74 70zM200 763q54 0 123 -22v-84h-60v44q-26 10 -65 10q-42 0 -66 -31t-26 -84q49 38 109 38q61 0 91 -31t30 -83q0 -55 -35.5 -91t-107.5 -36q-74 0 -113.5 47t-39.5 132q0 90 41 140.5
t119 50.5z" />
    <glyph glyph-name="seven.superior" horiz-adv-x="377" 
d="M46 756h282v-48l-143 -308h-79l147 300h-147v-58h-60v114z" />
    <glyph glyph-name="eight.superior" horiz-adv-x="377" 
d="M189 717q-34 0 -52 -15t-18 -40q0 -56 70 -56q68 0 68 56q0 25 -17.5 40t-50.5 15zM189 562q-79 0 -79 -62q0 -60 79 -60q38 0 57.5 16t19.5 44q0 62 -77 62zM189 763q63 0 98.5 -26.5t35.5 -68.5q0 -68 -76 -83q42 -6 64.5 -30t22.5 -61q0 -47 -38.5 -74t-106.5 -27
q-70 0 -108 27t-38 74q0 36 23 60t64 30q-78 17 -78 84q0 42 36 68.5t101 26.5z" />
    <glyph glyph-name="nine.superior" horiz-adv-x="377" 
d="M185 711q-36 0 -55 -20t-19 -54q0 -70 73 -70q50 0 83 37q-3 49 -24.5 78t-57.5 29zM184 763q74 0 114 -47.5t40 -132.5q0 -87 -42.5 -138.5t-117.5 -51.5q-72 0 -128 22v82h62v-49q30 -9 62 -9q43 0 68 32t27 88q-45 -38 -100 -38q-64 0 -96 31.5t-32 83.5
q0 54 36.5 90.5t106.5 36.5z" />
    <glyph glyph-name="zero.inferior" horiz-adv-x="377" 
d="M189 187q-79 0 -79 -130q0 -129 79 -129t79 129q0 61 -20 95.5t-59 34.5zM189 243q67 0 107 -49t40 -137q0 -89 -40 -136.5t-107 -47.5q-68 0 -108 47.5t-40 136.5t40 137.5t108 48.5z" />
    <glyph glyph-name="one.inferior" horiz-adv-x="377" 
d="M318 -120h-227v54h86v242l-100 -65l-27 46l129 83h68v-306h71v-54z" />
    <glyph glyph-name="two.inferior" horiz-adv-x="377" 
d="M186 243q72 0 107 -29.5t35 -80.5t-36.5 -93t-141.5 -106h183v-54h-288v48q124 74 165.5 115t41.5 82q0 29 -18 46t-52 17q-32 0 -66 -12v-60h-64v104q69 23 134 23z" />
    <glyph glyph-name="three.inferior" horiz-adv-x="377" 
d="M190 243q65 0 99.5 -25t34.5 -68q0 -72 -84 -88q42 -6 65.5 -29t23.5 -59q0 -45 -38 -73t-105 -28q-62 0 -136 23v93h64v-55q32 -11 72 -11q36 0 54 16t18 41q0 59 -93 59v44q88 0 88 57q0 53 -67 53q-38 0 -69 -12v-54h-63v92q72 24 136 24z" />
    <glyph glyph-name="four.inferior" horiz-adv-x="377" 
d="M201 236h77v-212h55v-54h-55v-90h-66v90h-171v52zM212 174l-111 -150h111v150z" />
    <glyph glyph-name="five.inferior" horiz-adv-x="377" 
d="M75 236h228v-53h-173l-5 -76q36 6 65 6q67 0 102 -30.5t35 -84.5q0 -55 -39 -90t-104 -35q-52 0 -127 23v93h61v-55q33 -10 66 -10q36 0 55.5 20t19.5 53q0 31 -20 50t-61 19q-64 0 -115 -9z" />
    <glyph glyph-name="six.inferior" horiz-adv-x="377" 
d="M193 67q-48 0 -84 -38q3 -47 24.5 -75.5t59.5 -28.5q36 0 55 19.5t19 52.5q0 70 -74 70zM200 243q54 0 123 -22v-84h-60v44q-26 10 -65 10q-42 0 -66 -31t-26 -84q49 38 109 38q61 0 91 -31t30 -83q0 -55 -35.5 -91t-107.5 -36q-74 0 -113.5 47t-39.5 132q0 90 41 140.5
t119 50.5z" />
    <glyph glyph-name="seven.inferior" horiz-adv-x="377" 
d="M46 236h282v-48l-143 -308h-79l147 300h-147v-58h-60v114z" />
    <glyph glyph-name="eight.inferior" horiz-adv-x="377" 
d="M189 197q-34 0 -52 -15t-18 -40q0 -56 70 -56q68 0 68 56q0 25 -17.5 40t-50.5 15zM189 42q-79 0 -79 -62q0 -60 79 -60q38 0 57.5 16t19.5 44q0 62 -77 62zM189 243q63 0 98.5 -26.5t35.5 -68.5q0 -68 -76 -83q42 -6 64.5 -30t22.5 -61q0 -47 -38.5 -74t-106.5 -27
q-70 0 -108 27t-38 74q0 36 23 60t64 30q-78 17 -78 84q0 42 36 68.5t101 26.5z" />
    <glyph glyph-name="nine.inferior" horiz-adv-x="377" 
d="M185 191q-36 0 -55 -20t-19 -54q0 -70 73 -70q50 0 83 37q-3 49 -24.5 78t-57.5 29zM184 243q74 0 114 -47.5t40 -132.5q0 -87 -42.5 -138.5t-117.5 -51.5q-72 0 -128 22v82h62v-49q30 -9 62 -9q43 0 68 32t27 88q-45 -38 -100 -38q-64 0 -96 31.5t-32 83.5
q0 54 36.5 90.5t106.5 36.5z" />
    <glyph glyph-name="zero.numr" horiz-adv-x="377" 
d="M189 651q-79 0 -79 -130q0 -129 79 -129t79 129q0 61 -20 95.5t-59 34.5zM189 707q67 0 107 -49t40 -137q0 -89 -40 -136.5t-107 -47.5q-68 0 -108 47.5t-40 136.5t40 137.5t108 48.5z" />
    <glyph glyph-name="one.numr" horiz-adv-x="377" 
d="M318 344h-227v54h86v242l-100 -65l-27 46l129 83h68v-306h71v-54z" />
    <glyph glyph-name="two.numr" horiz-adv-x="377" 
d="M186 707q72 0 107 -29.5t35 -80.5t-36.5 -93t-141.5 -106h183v-54h-288v48q124 74 165.5 115t41.5 82q0 29 -18 46t-52 17q-32 0 -66 -12v-60h-64v104q69 23 134 23z" />
    <glyph glyph-name="three.numr" horiz-adv-x="377" 
d="M190 707q65 0 99.5 -25t34.5 -68q0 -72 -84 -88q42 -6 65.5 -29t23.5 -59q0 -45 -38 -73t-105 -28q-62 0 -136 23v93h64v-55q32 -11 72 -11q36 0 54 16t18 41q0 59 -93 59v44q88 0 88 57q0 53 -67 53q-38 0 -69 -12v-54h-63v92q72 24 136 24z" />
    <glyph glyph-name="four.numr" horiz-adv-x="377" 
d="M201 700h77v-212h55v-54h-55v-90h-66v90h-171v52zM212 638l-111 -150h111v150z" />
    <glyph glyph-name="five.numr" horiz-adv-x="377" 
d="M75 700h228v-53h-173l-5 -76q36 6 65 6q67 0 102 -30.5t35 -84.5q0 -55 -39 -90t-104 -35q-52 0 -127 23v93h61v-55q33 -10 66 -10q36 0 55.5 20t19.5 53q0 31 -20 50t-61 19q-64 0 -115 -9z" />
    <glyph glyph-name="six.numr" horiz-adv-x="377" 
d="M193 531q-48 0 -84 -38q3 -47 24.5 -75.5t59.5 -28.5q36 0 55 19.5t19 52.5q0 70 -74 70zM200 707q54 0 123 -22v-84h-60v44q-26 10 -65 10q-42 0 -66 -31t-26 -84q49 38 109 38q61 0 91 -31t30 -83q0 -55 -35.5 -91t-107.5 -36q-74 0 -113.5 47t-39.5 132q0 90 41 140.5
t119 50.5z" />
    <glyph glyph-name="seven.numr" horiz-adv-x="377" 
d="M46 700h282v-48l-143 -308h-79l147 300h-147v-58h-60v114z" />
    <glyph glyph-name="eight.numr" horiz-adv-x="377" 
d="M189 661q-34 0 -52 -15t-18 -40q0 -56 70 -56q68 0 68 56q0 25 -17.5 40t-50.5 15zM189 506q-79 0 -79 -62q0 -60 79 -60q38 0 57.5 16t19.5 44q0 62 -77 62zM189 707q63 0 98.5 -26.5t35.5 -68.5q0 -68 -76 -83q42 -6 64.5 -30t22.5 -61q0 -47 -38.5 -74t-106.5 -27
q-70 0 -108 27t-38 74q0 36 23 60t64 30q-78 17 -78 84q0 42 36 68.5t101 26.5z" />
    <glyph glyph-name="nine.numr" horiz-adv-x="377" 
d="M185 655q-36 0 -55 -20t-19 -54q0 -70 73 -70q50 0 83 37q-3 49 -24.5 78t-57.5 29zM184 707q74 0 114 -47.5t40 -132.5q0 -87 -42.5 -138.5t-117.5 -51.5q-72 0 -128 22v82h62v-49q30 -9 62 -9q43 0 68 32t27 88q-45 -38 -100 -38q-64 0 -96 31.5t-32 83.5
q0 54 36.5 90.5t106.5 36.5z" />
    <glyph glyph-name="zero.dnom" horiz-adv-x="377" 
d="M189 307q-79 0 -79 -130q0 -129 79 -129t79 129q0 61 -20 95.5t-59 34.5zM189 363q67 0 107 -49t40 -137q0 -89 -40 -136.5t-107 -47.5q-68 0 -108 47.5t-40 136.5t40 137.5t108 48.5z" />
    <glyph glyph-name="one.dnom" horiz-adv-x="377" 
d="M318 0h-227v54h86v242l-100 -65l-27 46l129 83h68v-306h71v-54z" />
    <glyph glyph-name="two.dnom" horiz-adv-x="377" 
d="M186 363q72 0 107 -29.5t35 -80.5t-36.5 -93t-141.5 -106h183v-54h-288v48q124 74 165.5 115t41.5 82q0 29 -18 46t-52 17q-32 0 -66 -12v-60h-64v104q69 23 134 23z" />
    <glyph glyph-name="three.dnom" horiz-adv-x="377" 
d="M190 363q65 0 99.5 -25t34.5 -68q0 -72 -84 -88q42 -6 65.5 -29t23.5 -59q0 -45 -38 -73t-105 -28q-62 0 -136 23v93h64v-55q32 -11 72 -11q36 0 54 16t18 41q0 59 -93 59v44q88 0 88 57q0 53 -67 53q-38 0 -69 -12v-54h-63v92q72 24 136 24z" />
    <glyph glyph-name="four.dnom" horiz-adv-x="377" 
d="M201 356h77v-212h55v-54h-55v-90h-66v90h-171v52zM212 294l-111 -150h111v150z" />
    <glyph glyph-name="five.dnom" horiz-adv-x="377" 
d="M75 356h228v-53h-173l-5 -76q36 6 65 6q67 0 102 -30.5t35 -84.5q0 -55 -39 -90t-104 -35q-52 0 -127 23v93h61v-55q33 -10 66 -10q36 0 55.5 20t19.5 53q0 31 -20 50t-61 19q-64 0 -115 -9z" />
    <glyph glyph-name="six.dnom" horiz-adv-x="377" 
d="M193 187q-48 0 -84 -38q3 -47 24.5 -75.5t59.5 -28.5q36 0 55 19.5t19 52.5q0 70 -74 70zM200 363q54 0 123 -22v-84h-60v44q-26 10 -65 10q-42 0 -66 -31t-26 -84q49 38 109 38q61 0 91 -31t30 -83q0 -55 -35.5 -91t-107.5 -36q-74 0 -113.5 47t-39.5 132q0 90 41 140.5
t119 50.5z" />
    <glyph glyph-name="seven.dnom" horiz-adv-x="377" 
d="M46 356h282v-48l-143 -308h-79l147 300h-147v-58h-60v114z" />
    <glyph glyph-name="eight.dnom" horiz-adv-x="377" 
d="M189 317q-34 0 -52 -15t-18 -40q0 -56 70 -56q68 0 68 56q0 25 -17.5 40t-50.5 15zM189 162q-79 0 -79 -62q0 -60 79 -60q38 0 57.5 16t19.5 44q0 62 -77 62zM189 363q63 0 98.5 -26.5t35.5 -68.5q0 -68 -76 -83q42 -6 64.5 -30t22.5 -61q0 -47 -38.5 -74t-106.5 -27
q-70 0 -108 27t-38 74q0 36 23 60t64 30q-78 17 -78 84q0 42 36 68.5t101 26.5z" />
    <glyph glyph-name="nine.dnom" horiz-adv-x="377" 
d="M185 311q-36 0 -55 -20t-19 -54q0 -70 73 -70q50 0 83 37q-3 49 -24.5 78t-57.5 29zM184 363q74 0 114 -47.5t40 -132.5q0 -87 -42.5 -138.5t-117.5 -51.5q-72 0 -128 22v82h62v-49q30 -9 62 -9q43 0 68 32t27 88q-45 -38 -100 -38q-64 0 -96 31.5t-32 83.5
q0 54 36.5 90.5t106.5 36.5z" />
    <glyph glyph-name="A.small" horiz-adv-x="557" 
d="M138 500h282v-73h-62l135 -354h58v-73h-125l-50 138h-199l-49 -138h-122v73h58l135 354h-61v73zM277 443q-10 -39 -19 -64l-64 -177h165l-63 177q-17 54 -19 64z" />
    <glyph glyph-name="B.small" horiz-adv-x="531" 
d="M181 438v-153h107q47 0 67.5 22t20.5 57q0 74 -88 74h-107zM181 231v-168h114q101 0 101 82q0 38 -25.5 62t-74.5 24h-115zM27 500h287q75 0 115 -36t40 -86q0 -43 -25.5 -74t-74.5 -43q58 -9 89 -43.5t31 -83.5q0 -57 -44.5 -95.5t-122.5 -38.5h-295v73h68v354h-68v73z
" />
    <glyph glyph-name="C.small" horiz-adv-x="533" 
d="M291 510q74 0 186 -18v-147h-80v83q-66 11 -107 11q-72 0 -110.5 -50.5t-38.5 -138.5q0 -87 38.5 -138t110.5 -51q41 0 107 11v83h80v-147q-101 -18 -186 -18q-112 0 -176 71t-64 189q0 125 64.5 192.5t175.5 67.5z" />
    <glyph glyph-name="D.small" horiz-adv-x="571" 
d="M27 500h267q106 0 167 -67t61 -181q0 -115 -59 -183.5t-165 -68.5h-271v73h68v354h-68v73zM181 434v-368h98q153 0 153 185q0 90 -39.5 136.5t-115.5 46.5h-96z" />
    <glyph glyph-name="E.small" horiz-adv-x="498" 
d="M27 500h418v-129h-72v64h-192v-148h188v-61h-188v-161h196v64h72v-129h-422v73h68v354h-68v73z" />
    <glyph glyph-name="F.small" horiz-adv-x="464" 
d="M27 500h418v-133h-72v68h-192v-158h188v-61h-188v-143h77v-73h-231v73h68v354h-68v73z" />
    <glyph glyph-name="G.small" horiz-adv-x="575" 
d="M295 510q82 0 191 -19v-133h-82v71q-69 13 -109 13q-77 0 -115.5 -51.5t-38.5 -140.5q0 -192 142 -192q58 0 95 43t37 117h-131v57h221v-275h-77v102q-44 -112 -168 -112q-99 0 -154 69t-55 191q0 111 64.5 185.5t179.5 74.5z" />
    <glyph glyph-name="H.small" horiz-adv-x="581" 
d="M27 500h217v-73h-63v-136h219v136h-63v73h216v-73h-67v-354h67v-73h-216v73h63v148h-219v-148h63v-73h-217v73h68v354h-68v73z" />
    <glyph glyph-name="I.small" horiz-adv-x="276" 
d="M27 500h222v-73h-68v-354h68v-73h-222v73h68v354h-68v73z" />
    <glyph glyph-name="J.small" horiz-adv-x="444" 
d="M202 500h222v-73h-68v-291q0 -68 -46.5 -107t-128.5 -39q-70 0 -114 37t-52 99h88q4 -30 24.5 -50.5t56.5 -20.5q86 0 86 84v288h-68v73z" />
    <glyph glyph-name="K.small" horiz-adv-x="539" 
d="M20 500h220v-73h-66v-354h75v-73h-229v73h68v354h-68v73zM305 500h214v-73h-60l-181 -164l200 -190h54v-73h-222v73h60l-191 183l185 171h-59v73z" />
    <glyph glyph-name="L.small" horiz-adv-x="471" 
d="M27 500h223v-73h-69v-354h186v92h76v-165h-416v73h68v354h-68v73z" />
    <glyph glyph-name="M.small" horiz-adv-x="716" 
d="M27 500h188l127 -339q10 -29 17 -66q8 36 17 66l126 339h186v-73h-67v-354h67v-73h-205v73h59v293q0 42 2 62q-10 -41 -18 -62l-136 -366h-63l-136 361q-8 23 -19 67q2 -20 2 -67v-288h59v-73h-206v73h68v354h-68v73z" />
    <glyph glyph-name="N.small" horiz-adv-x="587" 
d="M27 500h177l190 -327q10 -22 26 -64q-2 24 -2 70v248h-58v73h206v-73h-68v-427h-98l-198 345q-18 40 -28 67q3 -24 3 -73v-266h62v-73h-212v73h68v354h-68v73z" />
    <glyph glyph-name="O.small" horiz-adv-x="560" 
d="M280 438q-67 0 -104 -49.5t-37 -138.5t37 -138.5t104 -49.5t104.5 49.5t37.5 138.5t-37.5 138.5t-104.5 49.5zM280 510q106 0 167.5 -70t61.5 -190q0 -121 -61.5 -190.5t-167.5 -69.5t-167.5 69.5t-61.5 190.5q0 120 61.5 190t167.5 70z" />
    <glyph glyph-name="P.small" horiz-adv-x="517" 
d="M181 438v-178h128q91 0 91 92q0 86 -91 86h-128zM27 500h301q79 0 119.5 -41t40.5 -107q0 -67 -40.5 -107.5t-122.5 -40.5h-144v-131h72v-73h-226v73h68v354h-68v73z" />
    <glyph glyph-name="Q.small" horiz-adv-x="560" 
d="M280 510q106 0 167.5 -70t61.5 -190q0 -150 -90 -217l100 -118h-93l-70 86q-36 -11 -76 -11q-106 0 -167.5 69.5t-61.5 190.5q0 120 61.5 190t167.5 70zM230 155h87l51 -62q54 49 54 157q0 89 -37.5 138.5t-104.5 49.5t-104 -49.5t-37 -138.5t37 -138.5t104 -49.5
q8 0 24 2z" />
    <glyph glyph-name="R.small" horiz-adv-x="560" 
d="M181 432v-157h123q88 0 88 82q0 75 -88 75h-123zM27 500h297q79 0 118.5 -35.5t39.5 -91.5q0 -50 -28 -82.5t-79 -42.5q107 -14 107 -175h62v-73h-208v73h60q0 88 -24.5 115.5t-73.5 27.5h-117v-143h60v-73h-214v73h68v354h-68v73z" />
    <glyph glyph-name="S.small" horiz-adv-x="511" 
d="M256 510q81 0 178 -15v-134h-80v77q-43 9 -95 9q-55 0 -83 -22t-28 -54q0 -37 29 -52.5t89 -25.5q35 -5 58 -9.5t51.5 -15.5t45 -26t28 -40t11.5 -59q0 -67 -52 -110t-156 -43q-76 0 -186 16v135h81v-76q46 -11 105 -11q62 0 91.5 23.5t29.5 56.5q0 42 -29.5 58.5
t-91.5 25.5q-35 5 -56 9.5t-50 15t-44.5 25t-27.5 39t-12 57.5q0 61 52.5 103.5t141.5 42.5z" />
    <glyph glyph-name="T.small" horiz-adv-x="483" 
d="M10 500h463v-154h-72v81h-116v-354h67v-73h-221v73h67v354h-116v-81h-72v154z" />
    <glyph glyph-name="U.small" horiz-adv-x="592" 
d="M24 500h222v-73h-68v-277q0 -91 117 -91q118 0 118 91v277h-66v73h220v-73h-67v-291q0 -70 -59 -108t-147 -38q-87 0 -144.5 38t-57.5 108v291h-68v73z" />
    <glyph glyph-name="V.small" horiz-adv-x="535" 
d="M8 500h202v-73h-60l101 -287q13 -52 17 -72q7 40 18 72l102 287h-60v73h199v-73h-54l-150 -427h-115l-146 427h-54v73z" />
    <glyph glyph-name="W.small" horiz-adv-x="787" 
d="M13 500h198v-73h-59l75 -284q10 -40 14 -70q5 30 15 70l94 357h82l101 -357q6 -25 14 -70q4 30 14 71l76 283h-60v73h197v-73h-54l-117 -427h-102l-94 327q-11 40 -17 78q-4 -38 -16 -78l-91 -327h-101l-116 427h-53v73z" />
    <glyph glyph-name="X.small" horiz-adv-x="548" 
d="M16 500h206v-73h-48q96 -126 103 -140q9 18 102 140h-47v73h200v-73h-65l-127 -167l142 -187h56v-73h-203v73h50q-102 133 -111 153q-12 -23 -112 -153h51v-73h-203v73h62l138 182l-130 172h-64v73z" />
    <glyph glyph-name="Y.small" horiz-adv-x="539" 
d="M10 500h202v-73h-48l107 -149q1 3 54 75t54 74h-47v73h197v-73h-57l-159 -214v-140h68v-73h-226v73h68v140l-158 214h-55v73z" />
    <glyph glyph-name="Z.small" horiz-adv-x="479" 
d="M41 500h390v-67l-298 -366h228v78h79v-144h-409v66l299 366h-209v-75h-80v142z" />
    <glyph glyph-name="AE.small" horiz-adv-x="730" 
d="M178 500h498v-129h-71v64h-192v-148h187v-61h-187v-161h196v64h72v-129h-355v138h-205l-99 -138h-114v73h58l265 354h-53v73zM326 435l-169 -233h169v233z" />
    <glyph glyph-name="OE.small" horiz-adv-x="780" 
d="M277 439q-67 0 -104.5 -50t-37.5 -139t37.5 -139t104.5 -50t104 50t37 139t-37 139t-104 50zM277 510q35 0 73 -10h377v-129h-72v64h-221q68 -46 74 -148h143v-61h-143q-2 -112 -73 -161h224v64h72v-129h-381q-37 -10 -73 -10q-106 0 -167.5 69.5t-61.5 190.5
q0 120 61.5 190t167.5 70z" />
    <glyph glyph-name="Eng.small" horiz-adv-x="587" 
d="M27 500h178l213 -368v295h-57v73h205v-73h-68v-430q0 -78 -46 -119t-114 -42v69q39 1 59 18.5t21 76.5h-18l-223 393v-320h63v-73h-213v73h68v354h-68v73z" />
    <glyph glyph-name="Eth.small" horiz-adv-x="571" 
d="M27 500h267q106 0 167 -67t61 -181q0 -115 -59 -183.5t-165 -68.5h-271v73h68v156h-58v57h58v141h-68v73zM181 434v-148h104v-57h-104v-163h98q153 0 153 185q0 90 -39.5 136.5t-115.5 46.5h-96z" />
    <glyph glyph-name="IJ.small" horiz-adv-x="697" 
d="M27 500h222v-73h-68v-354h68v-73h-222v73h68v354h-68v73zM455 500h222v-73h-68v-291q0 -68 -46.5 -107t-128.5 -39q-70 0 -114 37t-52 99h89q3 -30 24 -50.5t56 -20.5q86 0 86 84v288h-68v73z" />
    <glyph glyph-name="Oslash.small" horiz-adv-x="554" 
d="M449 500h61l-57 -71q53 -69 53 -179q0 -121 -61.5 -190.5t-167.5 -69.5q-87 0 -142 45l-28 -35h-63l56 70q-52 67 -52 180q0 120 61.5 190t167.5 70q84 0 142 -47zM277 439q-67 0 -105.5 -50t-38.5 -139q0 -66 22 -113l215 266q-38 36 -93 36zM421 250q0 66 -23 112
l-214 -266q37 -35 93 -35q67 0 105.5 50t38.5 139z" />
    <glyph glyph-name="Thorn.small" horiz-adv-x="515" 
d="M27 500h154v-82h145q78 0 118.5 -43t40.5 -111q0 -71 -40.5 -115t-121.5 -44h-142v-105h-154v73h68v354h-68v73zM181 357v-194h126q46 0 68.5 27t22.5 72q0 95 -91 95h-126z" />
    <glyph glyph-name="rupee" 
d="M49 700h504v-58h-161q65 -32 70 -120h91v-59h-97q-9 -63 -46.5 -103.5t-102.5 -48.5q150 -16 150 -238h85v-73h-272v73h93q0 109 -33 158t-109 49h-172v72h186q116 0 125 111h-311v59h311q-9 104 -120 104h-191v74z" />
    <glyph glyph-name="litre" horiz-adv-x="403" 
d="M252 709q56 0 82 -26.5t26 -67.5q0 -61 -45 -128.5t-121 -128.5v-261q0 -41 36 -41q49 0 58 84h74q-27 -150 -144 -150q-107 0 -107 107v205q-20 -12 -60 -32l-22 50q41 19 82 47v180q0 77 38.5 119.5t102.5 42.5zM194 553v-118q90 91 90 166q0 42 -37 42q-53 0 -53 -90z
" />
    <glyph glyph-name="publish" horiz-adv-x="829" 
d="M413 654q-129 0 -209 -85.5t-80 -218.5t80 -218.5t209 -85.5q131 0 210.5 85.5t79.5 218.5t-79.5 218.5t-210.5 85.5zM413 710q154 0 259.5 -102t105.5 -258q0 -157 -105.5 -258.5t-259.5 -101.5q-152 0 -257 101t-105 259q0 157 105.5 258.5t256.5 101.5zM365 518v-163
h108q83 0 83 84q0 79 -83 79h-108zM239 567h246q68 0 103 -35.5t35 -92.5q0 -58 -34.5 -93.5t-105.5 -35.5h-118v-122h63v-58h-189v58h60v321h-60v58z" />
    <glyph glyph-name="ampersand.ss01" horiz-adv-x="756" 
d="M368 710q94 0 144.5 -42t50.5 -105t-40.5 -100t-96.5 -37q-44 0 -55 36q56 0 85.5 25.5t29.5 68.5q0 38 -29.5 62.5t-89.5 24.5q-62 0 -93.5 -33t-31.5 -80q0 -34 27.5 -75t56.5 -69.5t93 -85.5l94 -85q53 97 60 206h168v-74h-96q-26 -101 -80 -185q148 -161 148 -314
h-82q0 119 -118 248q-102 -105 -240 -105q-109 0 -169 59t-60 146q0 67 40.5 124.5t113.5 81.5q-42 61 -42 119q0 80 55.5 134.5t156.5 54.5zM285 66q105 0 178 80q-21 20 -108 96t-123 117q-48 -17 -75.5 -57.5t-27.5 -86.5q0 -64 40.5 -106.5t115.5 -42.5z" />
    <glyph glyph-name="ampersand.ss02" horiz-adv-x="794" 
d="M384 710q99 0 149 -42t50 -110q0 -79 -72 -121h277v-63h-108q-4 -164 -98 -274t-230 -110q-140 0 -219.5 94t-79.5 246q0 163 94 271.5t237 108.5zM351 72q102 0 170 83.5t72 218.5h-443q-1 -13 -1 -40q0 -124 51 -193t151 -69zM376 636q-82 0 -138.5 -53.5t-77.5 -145.5
h213q56 4 87 33.5t31 71.5q0 41 -29.5 67.5t-85.5 26.5z" />
    <glyph glyph-name="ampersand.ss03" horiz-adv-x="674" 
d="M330 710q124 0 233 -29v-150h-86v88q-78 19 -146 19q-77 0 -117.5 -35t-40.5 -88q0 -56 38 -85.5t96 -29.5h354v-65h-98v-335h-272q-116 0 -180 50t-64 139q0 75 47 122.5t134 57.5q-143 27 -143 155q0 80 65.5 133t179.5 53zM294 73h183v262h-175q-73 0 -120.5 -31.5
t-47.5 -100.5q0 -60 40.5 -95t119.5 -35z" />
    <glyph glyph-name="ampersand.ss04" horiz-adv-x="770" 
d="M397 351h363v-63h-107q-13 -135 -97 -216.5t-202 -81.5q-145 0 -223 93.5t-78 243.5q0 167 98 275t250 108q96 0 146.5 -33.5t50.5 -95.5q0 -180 -445 -185q-4 -27 -4 -62q0 -262 204 -262q84 0 140 56.5t67 159.5h-163v63zM395 641q-83 0 -142.5 -47.5t-85.5 -132.5
q333 5 333 111q0 69 -105 69z" />
    <glyph glyph-name="ampersand.ss05" horiz-adv-x="776" 
d="M351 710q89 0 142 -38.5t53 -108.5q0 -37 -15.5 -64.5t-47.5 -47t-60.5 -31t-75.5 -26.5q-15 -5 -22 -7l193 -180q62 101 69 220h157v-73h-85q-33 -111 -92 -194l94 -87h83v-73h-126l-103 97q-104 -106 -239 -106q-109 0 -169 59t-60 146q0 78 39 125t108 78
q-56 64 -56 135q0 78 56 127t157 49zM289 66q103 0 178 75l-228 212q-106 -50 -106 -148q0 -58 41 -98.5t115 -40.5zM224 540q0 -53 55 -110q5 2 15 5q35 11 52 17.5t42.5 18.5t38 23t22 28t9.5 38q0 37 -29.5 60.5t-79.5 23.5q-58 0 -91.5 -28t-33.5 -76z" />
    <glyph glyph-name="ampersand.small" horiz-adv-x="612" 
d="M420 320h157v-64h-92q-20 -75 -60 -138q97 -55 152 -55v-71q-78 0 -197 70q-72 -70 -168 -70q-83 0 -131.5 41t-48.5 109q0 50 28.5 89.5t79.5 58.5q-20 40 -20 77q0 60 44.5 101.5t127.5 41.5q79 0 160 -18v-114h-77v59q-47 11 -82 11q-91 0 -91 -80q0 -48 49.5 -107
t124.5 -111q42 74 44 170zM332 93q-110 73 -167 155q-27 -13 -40.5 -39.5t-13.5 -55.5q0 -43 29.5 -72.5t80.5 -29.5q64 0 111 42z" />
    <glyph glyph-name="caron.alt" horiz-adv-x="187" 
d="M56 700h80l-37 -151h-43v151z" />
    <glyph glyph-name="acute.case" horiz-adv-x="297" 
d="M165 875l82 -11l-141 -139h-57z" />
    <glyph glyph-name="grave.case" horiz-adv-x="297" 
d="M49 864l82 11l116 -150h-56z" />
    <glyph glyph-name="caron.case" horiz-adv-x="412" 
d="M52 864l55 11l99 -97l99 97l55 -11l-119 -139h-70z" />
    <glyph glyph-name="circumflex.case" horiz-adv-x="412" 
d="M360 735l-55 -10l-99 96l-99 -96l-55 10l119 140h70z" />
    <glyph glyph-name="breve.case" horiz-adv-x="341" 
d="M50 838l47 5q2 -65 73 -65q37 0 55.5 18t18.5 47l47 -5q-1 -50 -34 -80t-87 -30q-53 0 -86 30t-34 80z" />
    <glyph glyph-name="dieresis.case" horiz-adv-x="356" 
d="M127 756h-67v67h67v-67zM296 756h-67v67h67v-67z" />
    <glyph glyph-name="dotaccent.case" horiz-adv-x="194" 
d="M139 756h-84v71h84v-71z" />
    <glyph glyph-name="hungarumlaut.case" horiz-adv-x="424" 
d="M146 874l70 -10l-116 -135h-48zM303 874l69 -10l-116 -135h-48z" />
    <glyph glyph-name="macron.case" horiz-adv-x="360" 
d="M304 748h-248v52h248v-52z" />
    <glyph glyph-name="ring.case" horiz-adv-x="335" 
d="M167 870q49 0 80.5 -21t31.5 -59t-31.5 -58t-80.5 -20t-80 20t-31 58t31.5 59t79.5 21zM167 834q-30 0 -46.5 -12t-16.5 -32q0 -22 17.5 -33t45.5 -11q63 0 63 44q0 22 -18 33t-45 11z" />
    <glyph glyph-name="tilde.case" horiz-adv-x="425" 
d="M147 843q35 0 75.5 -28.5t56.5 -28.5q38 0 45 42l38 -6q-5 -42 -26.5 -64.5t-55.5 -22.5q-30 0 -71 29.5t-64 29.5q-39 0 -45 -45l-37 8q4 41 25.5 63.5t58.5 22.5z" />
    <glyph glyph-name="arrowupleft" horiz-adv-x="559" 
d="M77 148v352h351v-72h-228l303 -304l-50 -51l-304 303v-228h-72z" />
    <glyph glyph-name="arrowupright" horiz-adv-x="559" 
d="M482 500v-352h-72v228l-303 -303l-51 51l303 304h-228v72h351z" />
    <glyph glyph-name="arrowdownleft" horiz-adv-x="559" 
d="M77 0v352h72v-228l304 303l50 -51l-303 -304h228v-72h-351z" />
    <glyph glyph-name="arrowdownright" horiz-adv-x="559" 
d="M482 352v-352h-351v72h228l-303 304l51 51l303 -303v228h72z" />
    <glyph glyph-name="beta.alt" horiz-adv-x="560" 
d="M290 638q-148 0 -148 -285q0 -291 150 -291q129 0 129 143q0 69 -42 101.5t-135 32.5v64q87 0 122.5 30t35.5 91q0 113 -112 114zM291 710q93 0 146 -46t53 -124q0 -148 -163 -165q185 -22 185 -181q0 -86 -54.5 -145t-162.5 -59q-117 0 -180.5 91.5t-63.5 268.5
t62.5 268.5t177.5 91.5z" />
    <glyph glyph-name="theta.alt" horiz-adv-x="576" 
d="M271 710q122 0 182.5 -90t60.5 -259q0 -176 -62.5 -273.5t-182.5 -97.5q-79 0 -120 39t-41 110q0 43 -10 62.5t-35 19.5h-36v74h63q54 0 77.5 -30t23.5 -92q0 -109 86 -109q80 0 114.5 73.5t34.5 218.5v13q-72 -41 -167 -41q-97 0 -148 50t-51 134q0 82 54.5 140
t156.5 58zM274 392q74 0 148 42q-20 204 -151 204q-64 0 -93.5 -35t-29.5 -92q0 -53 31 -86t95 -33z" />
    <glyph glyph-name="sigmafinal" horiz-adv-x="476" 
d="M265 510q80 0 183 -18v-151h-79v83q-60 15 -100 15q-131 0 -131 -162q0 -54 20 -92t50 -56.5t64.5 -36t64.5 -31t50 -41t20 -66.5q0 -44 -41 -90.5t-104 -78.5l-38 59q40 23 64 52t24 55q0 20 -14.5 34t-37.5 24.5l-50.5 22t-55.5 29.5t-51 43.5t-37.5 68t-14.5 98.5
q0 110 55.5 174.5t158.5 64.5z" />
    <glyph glyph-name="phi.alt" horiz-adv-x="738" 
d="M286 509v-71q-75 -7 -114.5 -57t-39.5 -129q0 -174 192 -190v235q0 213 173 213q93 0 144.5 -60t51.5 -180q0 -119 -74.5 -192.5t-208.5 -83.5v-205h-86v205q-136 9 -207.5 75t-71.5 183q0 106 68 177.5t173 79.5zM410 284v-222q96 10 146 65t50 143q0 86 -28 126.5
t-74 40.5q-47 0 -70.5 -35.5t-23.5 -117.5z" />
    <glyph glyph-name="dieresistonoscomb" horiz-adv-x="374" 
d="M117 760h-61v69h61v-69zM151 875h75l-18 -153h-40zM318 760h-60v69h60v-69z" />
    <glyph glyph-name="gacute" horiz-adv-x="557" 
d="M520 622v-74q-49 0 -74.5 -17t-27.5 -60q69 -50 69 -139q0 -77 -55 -124t-155 -47q-55 0 -100 18q-28 -20 -28 -49q0 -48 65 -48h156q155 0 155 -126q0 -80 -62.5 -128t-190.5 -48q-221 0 -221 134q0 39 21.5 69.5t58.5 47.5q-62 20 -62 78q0 29 18.5 55.5t44.5 40.5
q-62 48 -62 130q0 80 55 127.5t154 47.5q41 0 84 -12q3 60 44.5 92t112.5 32zM190 23q-51 -28 -51 -85q0 -93 135 -93q84 0 122 31t38 79q0 66 -91 66h-125q-12 0 -28 2zM279 446q-58 0 -88.5 -30t-30.5 -83q0 -49 31 -79.5t88 -30.5q58 0 89.5 30t31.5 80q0 52 -31 82.5
t-90 30.5zM311 706l90 -11l-137 -155h-61z" />
    <glyph glyph-name="iacute_jacute" horiz-adv-x="527" 
d="M27 500h154v-427h68v-73h-222v73h68v354h-68v73zM280 500h154v-555q0 -78 -49 -119t-118 -42v73q41 0 60.5 19.5t19.5 72.5v478h-67v73zM436 706l90 -11l-137 -155h-61zM184 706l90 -11l-137 -155h-61z" />
    <glyph glyph-name="Aacute.small" horiz-adv-x="557" 
d="M326 706l90 -11l-137 -155h-61zM138 500h282v-73h-62l135 -354h58v-73h-125l-50 138h-199l-49 -138h-122v73h58l135 354h-61v73zM277 443q-10 -39 -19 -64l-64 -177h165l-63 177q-17 54 -19 64z" />
    <glyph glyph-name="Abreve.small" horiz-adv-x="557" 
d="M154 675l53 6q0 -35 18.5 -55t52.5 -20q36 0 53.5 21.5t18.5 53.5l53 -6q-1 -55 -35.5 -88.5t-89.5 -33.5q-54 0 -88.5 33.5t-35.5 88.5zM138 500h282v-73h-62l135 -354h58v-73h-125l-50 138h-199l-49 -138h-122v73h58l135 354h-61v73zM277 443q-10 -39 -19 -64l-64 -177
h165l-63 177q-17 54 -19 64z" />
    <glyph glyph-name="Acircumflex.small" horiz-adv-x="557" 
d="M138 500h282v-73h-62l135 -354h58v-73h-125l-50 138h-199l-49 -138h-122v73h58l135 354h-61v73zM277 443q-10 -39 -19 -64l-64 -177h165l-63 177q-17 54 -19 64zM238 699h79l115 -151l-59 -11l-95 107l-95 -107l-59 11z" />
    <glyph glyph-name="Adieresis.small" horiz-adv-x="557" 
d="M138 500h282v-73h-62l135 -354h58v-73h-125l-50 138h-199l-49 -138h-122v73h58l135 354h-61v73zM277 443q-10 -39 -19 -64l-64 -177h165l-63 177q-17 54 -19 64zM231 584h-67v70h67v-70zM392 584h-67v70h67v-70z" />
    <glyph glyph-name="Agrave.small" horiz-adv-x="557" 
d="M145 695l90 11l107 -166h-60zM138 500h282v-73h-62l135 -354h58v-73h-125l-50 138h-199l-49 -138h-122v73h58l135 354h-61v73zM277 443q-10 -39 -19 -64l-64 -177h165l-63 177q-17 54 -19 64z" />
    <glyph glyph-name="Amacron.small" horiz-adv-x="557" 
d="M402 576h-248v57h248v-57zM138 500h282v-73h-62l135 -354h58v-73h-125l-50 138h-199l-49 -138h-122v73h58l135 354h-61v73zM277 443q-10 -39 -19 -64l-64 -177h165l-63 177q-17 54 -19 64z" />
    <glyph glyph-name="Aogonek.small" horiz-adv-x="557" 
d="M138 500h282v-73h-62l135 -354h58v-73h-55q-56 -44 -56 -106q0 -25 15.5 -39.5t41.5 -14.5q1 0 25 3v-54q-20 -5 -39 -5q-49 0 -79.5 24.5t-30.5 66.5q0 75 77 125h-24l-50 138h-199l-49 -138h-122v73h58l135 354h-61v73zM277 443q-10 -39 -19 -64l-64 -177h165l-63 177
q-17 54 -19 64z" />
    <glyph glyph-name="Aring.small" horiz-adv-x="557" 
d="M277 711q49 0 81 -25.5t32 -67.5q0 -43 -32 -68t-81 -25q-48 0 -80.5 25t-32.5 68q0 42 32.5 67.5t80.5 25.5zM277 668q-28 0 -43.5 -14.5t-15.5 -35.5q0 -24 16.5 -37.5t42.5 -13.5q59 0 59 50q0 24 -17 37.5t-42 13.5zM138 500h282v-73h-62l135 -354h58v-73h-125
l-50 138h-199l-49 -138h-122v73h58l135 354h-61v73zM277 443q-10 -39 -19 -64l-64 -177h165l-63 177q-17 54 -19 64z" />
    <glyph glyph-name="Atilde.small" horiz-adv-x="557" 
d="M212 676q35 0 75.5 -29.5t56.5 -29.5q39 0 45 44l38 -7q-5 -44 -26.5 -68t-55.5 -24q-30 0 -71 30.5t-64 30.5q-39 0 -45 -47l-37 9q4 43 26 67t58 24zM138 500h282v-73h-62l135 -354h58v-73h-125l-50 138h-199l-49 -138h-122v73h58l135 354h-61v73zM277 443
q-10 -39 -19 -64l-64 -177h165l-63 177q-17 54 -19 64z" />
    <glyph glyph-name="Ccedilla.small" horiz-adv-x="533" 
d="M291 510q74 0 186 -18v-147h-80v83q-66 11 -107 11q-72 0 -110.5 -50.5t-38.5 -138.5q0 -87 38.5 -138t110.5 -51q41 0 107 11v83h80v-147q-97 -17 -173 -18l-31 -50q17 4 37 4q46 0 73.5 -21.5t27.5 -56.5q0 -42 -36 -67.5t-93 -25.5q-70 0 -109 36l26 30q21 -26 79 -26
q33 0 50 12.5t17 33.5q0 24 -20 38.5t-62 14.5q-14 0 -58 -6l45 87q-94 13 -146.5 81.5t-52.5 175.5q0 125 64.5 192.5t175.5 67.5z" />
    <glyph glyph-name="Cacute.small" horiz-adv-x="533" 
d="M326 706l90 -11l-137 -155h-61zM291 510q74 0 186 -18v-147h-80v83q-66 11 -107 11q-72 0 -110.5 -50.5t-38.5 -138.5q0 -87 38.5 -138t110.5 -51q41 0 107 11v83h80v-147q-101 -18 -186 -18q-112 0 -176 71t-64 189q0 125 64.5 192.5t175.5 67.5z" />
    <glyph glyph-name="Ccircumflex.small" horiz-adv-x="533" 
d="M291 510q74 0 186 -18v-147h-80v83q-66 11 -107 11q-72 0 -110.5 -50.5t-38.5 -138.5q0 -87 38.5 -138t110.5 -51q41 0 107 11v83h80v-147q-101 -18 -186 -18q-112 0 -176 71t-64 189q0 125 64.5 192.5t175.5 67.5zM265 699h79l115 -151l-59 -11l-95 107l-95 -107l-59 11
z" />
    <glyph glyph-name="Ccaron.small" horiz-adv-x="533" 
d="M146 690l59 12l94 -107l96 107l59 -12l-115 -150h-79zM291 510q74 0 186 -18v-147h-80v83q-66 11 -107 11q-72 0 -110.5 -50.5t-38.5 -138.5q0 -87 38.5 -138t110.5 -51q41 0 107 11v83h80v-147q-101 -18 -186 -18q-112 0 -176 71t-64 189q0 125 64.5 192.5t175.5 67.5z
" />
    <glyph glyph-name="Cdotaccent.small" horiz-adv-x="533" 
d="M291 510q74 0 186 -18v-147h-80v83q-66 11 -107 11q-72 0 -110.5 -50.5t-38.5 -138.5q0 -87 38.5 -138t110.5 -51q41 0 107 11v83h80v-147q-101 -18 -186 -18q-112 0 -176 71t-64 189q0 125 64.5 192.5t175.5 67.5zM340 584h-87v80h87v-80z" />
    </font>
</defs>
</svg>
