<?xml version="1.0" standalone="no"?>
<!DOCTYPE svg PUBLIC "-//W3C//DTD SVG 1.1//EN" "http://www.w3.org/Graphics/SVG/1.1/DTD/svg11.dtd" >
<svg>
<metadata>
Created by FontForge 20090622 at Sun May 24 06:26:17 2015
 By deploy user
Copyright (c) 2012 by Frantisek Storm. www.stormtype.com. All rights reserved.
</metadata>
<defs>
<font id="TriviaSlabRegular-Bold" horiz-adv-x="613" >
  <font-face 
    font-family="Trivia Slab Regular"
    font-weight="700"
    font-stretch="normal"
    units-per-em="1000"
    panose-1="2 0 5 6 9 0 0 2 0 3"
    ascent="800"
    descent="-200"
    x-height="500"
    cap-height="700"
    bbox="-121 -254 1376 894"
    underline-thickness="50"
    underline-position="-100"
    unicode-range="U+0020-U+F6C3"
  />
<missing-glyph horiz-adv-x="213" 
 />
    <glyph glyph-name="f_f" unicode="ff" horiz-adv-x="643" 
d="M267 710q34 0 79 -8v-119q-32 8 -60 8q-57 0 -57 -59v-32h146v30q0 89 49.5 134.5t133.5 45.5q34 0 79 -8v-119q-33 8 -60 8q-57 0 -57 -59v-32h117v-123h-117v-254h57v-123h-259v123h57v254h-146v-254h49v-123h-251v123h57v254h-70v123h70v30q0 89 49.5 134.5
t133.5 45.5z" />
    <glyph glyph-name="f_i" unicode="fi" horiz-adv-x="586" 
d="M513 561h-146v125h146v-125zM275 710q22 0 50 -4v-119q-20 4 -35 4q-61 0 -61 -59v-32h283v-377h58v-123h-251v123h48v254h-138v-254h50v-123h-251v123h56v254h-70v123h70v30q0 90 51 135t140 45z" />
    <glyph glyph-name="f_j" unicode="fj" horiz-adv-x="578" 
d="M272 710q25 0 53 -4v-119q-20 4 -35 4q-61 0 -61 -59v-32h283v-520q0 -94 -68.5 -146.5t-155.5 -52.5v114q40 0 59.5 20.5t19.5 73.5v388h-138v-254h58v-123h-259v123h56v254h-70v123h70v30q0 89 51 134.5t137 45.5zM367 686h146v-125h-146v125z" />
    <glyph glyph-name="f_l" unicode="fl" horiz-adv-x="585" 
d="M303 710q98 0 209 -21v-566h57v-123h-251v123h49v460q-37 8 -65 8q-73 0 -73 -59v-32h102v-123h-102v-254h49v-123h-251v123h57v254h-70v123h70v30q0 88 61 134t158 46z" />
    <glyph glyph-name="f_f_i" unicode="ffi" horiz-adv-x="876" 
d="M267 710q34 0 79 -8v-119q-32 8 -60 8q-57 0 -57 -59v-32h146v30q0 89 49.5 134.5t133.5 45.5q20 0 50 -4v-119q-20 4 -34 4q-30 0 -42 -14.5t-12 -44.5v-32h283v-377h57v-123h-251v123h49v254h-138v-254h50v-123h-252v123h57v254h-146v-254h49v-123h-251v123h57v254h-70
v123h70v30q0 89 49.5 134.5t133.5 45.5zM803 561h-146v125h146v-125z" />
    <glyph glyph-name="f_f_j" unicode="ffj" horiz-adv-x="868" 
d="M657 686h146v-125h-146v125zM267 710q34 0 79 -8v-119q-32 8 -60 8q-57 0 -57 -59v-32h146v30q0 89 49.5 134.5t133.5 45.5q20 0 50 -4v-119q-20 4 -35 4q-30 0 -41.5 -14t-11.5 -45v-32h283v-520q0 -94 -68.5 -146.5t-155.5 -52.5v114q40 0 59.5 20.5t19.5 73.5v388
h-138v-254h50v-123h-252v123h57v254h-146v-254h49v-123h-251v123h57v254h-70v123h70v30q0 89 49.5 134.5t133.5 45.5z" />
    <glyph glyph-name="f_f_k" unicode="ffk" horiz-adv-x="1144" 
d="M267 710q34 0 79 -8v-119q-32 8 -60 8q-57 0 -57 -59v-32h146v30q0 88 61 134t158 46q106 0 217 -21v-566h49v-123h-251v123h57v460q-37 8 -77 8q-69 0 -69 -59v-32h101v-123h-101v-254h50v-123h-252v123h57v254h-146v-254h49v-123h-251v123h57v254h-70v123h70v30
q0 89 49.5 134.5t133.5 45.5zM876 500h262v-123h-51l-111 -117l109 -137h52v-123h-142l-181 247l116 130h-54v123z" />
    <glyph glyph-name="f_f_l" unicode="ffl" horiz-adv-x="873" 
d="M267 710q34 0 79 -8v-119q-32 8 -60 8q-57 0 -57 -59v-32h146v30q0 88 61 134t158 46q98 0 209 -21v-566h57v-123h-251v123h49v460q-37 8 -65 8q-73 0 -73 -59v-32h101v-123h-101v-254h50v-123h-252v123h57v254h-146v-254h49v-123h-251v123h57v254h-70v123h70v30
q0 89 49.5 134.5t133.5 45.5z" />
    <glyph glyph-name="T_h" unicode="Th" horiz-adv-x="1107" 
d="M12 700h732v-267q44 77 139 77q73 0 112 -44.5t39 -126.5v-216h56v-123h-251v123h49v185q0 41 -12 58.5t-46 17.5q-39 0 -62 -26.5t-24 -76.5v-158h49v-123h-251v123h57v454h-192v-454h77v-123h-312v123h77v454h-95v-82h-142v205z" />
    <glyph glyph-name=".notdef" horiz-adv-x="213" 
 />
    <glyph glyph-name=".null" horiz-adv-x="0" 
 />
    <glyph glyph-name="nonmarkingreturn" horiz-adv-x="333" 
 />
    <glyph glyph-name="space" unicode=" " horiz-adv-x="213" 
 />
    <glyph glyph-name="exclam" unicode="!" horiz-adv-x="356" 
d="M92 700h172l-17 -500h-137zM108 139h140v-139h-140v139z" />
    <glyph glyph-name="quotedbl" unicode="&#x22;" horiz-adv-x="457" 
d="M169 504h-87l-28 196h157zM361 504h-87l-28 196h157z" />
    <glyph glyph-name="numbersign" unicode="#" horiz-adv-x="694" 
d="M289 0h-135v174h-85v106h85v139h-85v106h85v175h135v-175h117v175h135v-175h84v-106h-84v-139h84v-106h-84v-174h-135v174h-117v-174zM289 419v-139h117v139h-117z" />
    <glyph glyph-name="dollar" unicode="$" horiz-adv-x="618" 
d="M347 -88h-85v79q-104 3 -225 28v197h139v-88q26 -6 86 -12v173q-123 18 -181 64t-58 138q0 86 62.5 146t176.5 71v73h85v-72q83 -2 214 -26v-194h-139v85q-45 7 -75 9v-162q249 -33 249 -197q0 -95 -66 -157.5t-183 -73.5v-81zM438 200q0 32 -22 49.5t-69 26.5v-158
q45 7 68 29t23 53zM177 505q0 -31 20.5 -47.5t64.5 -25.5v151q-43 -6 -64 -27.5t-21 -50.5z" />
    <glyph glyph-name="percent" unicode="%" horiz-adv-x="902" 
d="M220 603q-62 0 -62 -92t62 -92q64 0 64 91q0 93 -64 93zM220 710q81 0 129.5 -54.5t48.5 -144.5q0 -89 -48 -145t-128 -56q-81 0 -129.5 54.5t-48.5 144.5q0 89 48 145t128 56zM649 700h159l-554 -700h-159zM680 283q-63 0 -63 -92q0 -46 17 -69t46 -23q64 0 64 91
q0 93 -64 93zM680 390q81 0 129.5 -54.5t48.5 -144.5q0 -89 -48 -145t-128 -56q-81 0 -129.5 54.5t-48.5 144.5q0 89 48 145t128 56z" />
    <glyph glyph-name="ampersand" unicode="&#x26;" horiz-adv-x="756" 
d="M394 710q111 0 214 -23v-180h-143v71q-29 7 -75 7q-49 0 -73.5 -21.5t-24.5 -53.5q0 -58 55.5 -134.5t138.5 -141.5q30 45 44 106h-65v124h270v-124h-55q-31 -89 -96 -169q84 -45 151 -45v-134q-107 0 -248 84q-110 -84 -225 -84q-112 0 -172 59t-60 148q0 67 38 123.5
t106 79.5q-22 55 -22 103q0 92 59.5 148.5t182.5 56.5zM284 119q57 0 105 25q-109 85 -172 179q-44 -29 -44 -89q0 -50 28 -82.5t83 -32.5z" />
    <glyph glyph-name="quotesingle" unicode="'" horiz-adv-x="265" 
d="M169 504h-87l-28 197h157z" />
    <glyph glyph-name="parenleft" unicode="(" horiz-adv-x="381" 
d="M364 710v-96q-132 -10 -132 -365t132 -363v-96q-129 4 -211 125t-82 334q0 214 82 335t211 126z" />
    <glyph glyph-name="parenright" unicode=")" horiz-adv-x="381" 
d="M18 710q128 -5 210 -125.5t82 -333.5q0 -214 -82 -335.5t-210 -125.5v96q131 8 131 365q0 353 -131 363v96z" />
    <glyph glyph-name="asterisk" unicode="*" horiz-adv-x="511" 
d="M196 700h115l-8 -124l121 45l35 -107l-125 -30l81 -106l-91 -66l-66 109l-72 -109l-90 66l85 106l-129 30l35 107l119 -45z" />
    <glyph glyph-name="plus" unicode="+" 
d="M367 577v-195h196v-121h-196v-196h-121v196h-195v121h195v195h121z" />
    <glyph glyph-name="comma" unicode="," horiz-adv-x="261" 
d="M53 148h153v-148q0 -62 -43 -110t-103 -71l-29 57q39 18 62 50t23 74h-63v148z" />
    <glyph glyph-name="hyphen" unicode="-" horiz-adv-x="359" 
d="M307 261h-255v121h255v-121z" />
    <glyph glyph-name="hyphen" unicode="&#xad;" horiz-adv-x="359" 
d="M307 261h-255v121h255v-121z" />
    <glyph glyph-name="period" unicode="." horiz-adv-x="262" 
d="M54 150h153v-150h-153v150z" />
    <glyph glyph-name="slash" unicode="/" horiz-adv-x="521" 
d="M356 700h151l-341 -700h-152z" />
    <glyph glyph-name="zero" unicode="0" 
d="M307 568q-62 0 -88 -54.5t-26 -163.5t26 -163.5t88 -54.5q61 0 87 54.5t26 163.5t-26 163.5t-87 54.5zM307 710q119 0 196.5 -91t77.5 -269t-77.5 -269t-196.5 -91q-120 0 -197 91t-77 269t77 269t197 91z" />
    <glyph glyph-name="one" unicode="1" 
d="M549 0h-397v124h129v432l-144 -89l-61 109l207 124h161v-576h105v-124z" />
    <glyph glyph-name="two" unicode="2" 
d="M318 710q122 0 182.5 -59t60.5 -156q0 -100 -72 -180.5t-246 -191.5h316v-123h-502v129q139 91 213.5 154.5t98.5 106.5t24 93q0 102 -84 102q-40 0 -87 -10v-86h-154v186q125 35 250 35z" />
    <glyph glyph-name="three" unicode="3" 
d="M310 710q121 0 187 -50.5t66 -133.5q0 -142 -172 -167q88 -7 135 -48.5t47 -115.5q0 -93 -75 -149t-194 -56q-126 0 -256 37v175h151v-86q47 -10 101 -10q50 0 75 25t25 69q0 53 -31 77.5t-117 24.5v112q84 0 111 22.5t27 72.5q0 85 -92 85q-44 0 -91 -10v-86h-150v175
q129 37 253 37z" />
    <glyph glyph-name="four" unicode="4" 
d="M336 549l-158 -228h158v228zM305 700h186v-379h90v-124h-90v-74h68v-123h-295v123h72v74h-299v124z" />
    <glyph glyph-name="five" unicode="5" 
d="M88 700h444v-189h-143v66h-165l-7 -131q55 10 109 10q107 0 178 -59t71 -163q0 -110 -74.5 -177t-194.5 -67q-118 0 -247 37v178h150v-86q45 -10 90 -10q113 0 113 113q0 59 -30 86t-102 27q-116 0 -216 -16z" />
    <glyph glyph-name="six" unicode="6" 
d="M316 349q-37 0 -63 -14.5t-53 -46.5q8 -171 119 -171q101 0 101 116t-104 116zM335 710q108 0 215 -22v-170h-149v70q-30 6 -69 6q-66 0 -98.5 -50t-35.5 -155q64 73 161 73q110 0 162 -62.5t52 -155.5q0 -105 -67 -179.5t-195 -74.5q-131 0 -201.5 92t-70.5 259
q0 172 76.5 270.5t219.5 98.5z" />
    <glyph glyph-name="seven" unicode="7" 
d="M60 700h494v-124l-239 -576h-169l253 576h-197v-103h-142v227z" />
    <glyph glyph-name="eight" unicode="8" 
d="M307 588q-49 0 -73 -23t-24 -61q0 -90 97 -90q95 0 95 90q0 38 -23 61t-72 23zM307 303q-112 0 -112 -94q0 -44 28 -69t84 -25q55 0 83 25t28 69q0 94 -111 94zM307 710q117 0 181 -53.5t64 -136.5q0 -61 -37.5 -103t-106.5 -54q71 -7 114 -55.5t43 -121.5
q0 -92 -66 -144t-192 -52q-127 0 -193 51.5t-66 144.5q0 73 43 119.5t114 53.5q-66 14 -105 57.5t-39 104.5q0 83 64 136t182 53z" />
    <glyph glyph-name="nine" unicode="9" 
d="M298 710q133 0 204.5 -87.5t71.5 -254.5q0 -169 -76 -273.5t-214 -104.5q-117 0 -224 40v172h150v-86q39 -11 75 -11q66 0 96.5 52.5t33.5 156.5q-62 -72 -157 -72q-106 0 -163 64.5t-57 153.5q0 103 68 176.5t192 73.5zM290 583q-101 0 -101 -111q0 -112 103 -112
q72 0 120 62q-3 82 -31 121.5t-91 39.5z" />
    <glyph glyph-name="colon" unicode=":" horiz-adv-x="262" 
d="M54 150h153v-150h-153v150zM54 500h153v-150h-153v150z" />
    <glyph glyph-name="semicolon" unicode=";" horiz-adv-x="262" 
d="M54 500h153v-150h-153v150zM53 148h153v-148q0 -62 -43 -110t-103 -71l-29 57q39 18 62 50t23 74h-63v148z" />
    <glyph glyph-name="less" unicode="&#x3c;" 
d="M555 510l-341 -186l341 -186l-58 -107l-440 246v94l440 245z" />
    <glyph glyph-name="equal" unicode="=" 
d="M563 138h-512v121h512v-121zM563 385h-512v121h512v-121z" />
    <glyph glyph-name="greater" unicode="&#x3e;" horiz-adv-x="598" 
d="M57 138l341 186l-341 186l58 106l440 -245v-94l-440 -246z" />
    <glyph glyph-name="question" unicode="?" horiz-adv-x="582" 
d="M186 139h141v-139h-141v139zM304 710q112 0 168.5 -51.5t56.5 -136.5q0 -48 -21 -89.5t-51 -70.5t-60 -54.5t-51 -54.5t-21 -58h-137q0 46 20 86t48.5 68l57 53.5t48.5 54.5t20 59q0 32 -22.5 51t-62.5 19q-32 0 -67 -10v-78h-147v179q120 33 221 33z" />
    <glyph glyph-name="at" unicode="@" horiz-adv-x="871" 
d="M442 364q-35 0 -60.5 -26t-36 -60.5t-10.5 -70.5q0 -66 60 -66q52 0 83 46t31 103q0 74 -67 74zM489 609q162 0 245 -80.5t83 -202.5q0 -118 -68 -204.5t-176 -86.5q-84 0 -84 67q0 15 2 26q-42 -81 -142 -81q-60 0 -99 38t-39 103q0 64 24 125t74.5 104.5t116.5 43.5
q43 0 70.5 -21t36.5 -55l14 57h102l-51 -251q-3 -18 -3 -29q0 -23 20 -23q35 0 63 55.5t28 127.5q0 87 -53 141.5t-167 54.5q-78 0 -140 -28.5t-100 -75t-57.5 -103t-19.5 -117.5q0 -94 53 -150t155 -56q36 0 86 14l1 -98q-53 -15 -104 -15q-144 0 -225 87.5t-81 221.5
q0 62 18 121.5t55 112t88 92t121.5 62.5t152.5 23z" />
    <glyph glyph-name="A" unicode="A" horiz-adv-x="751" 
d="M150 700h453v-123h-76l152 -454h66v-123h-307v123h69l-24 78h-222l-26 -78h78v-123h-307v123h67l153 454h-76v123zM372 593q-9 -48 -20 -88l-56 -184h150l-55 185q-9 29 -19 87z" />
    <glyph glyph-name="B" unicode="B" horiz-adv-x="703" 
d="M259 416h124q97 0 97 83q0 39 -22.5 58.5t-74.5 19.5h-124v-161zM24 0v123h77v454h-77v123h404q104 0 159.5 -47.5t55.5 -121.5q0 -133 -144 -162q81 -12 122.5 -58.5t41.5 -118.5q0 -84 -60 -138t-164 -54h-415zM259 123h132q114 0 114 91q0 94 -113 94h-133v-185z" />
    <glyph glyph-name="C" unicode="C" horiz-adv-x="699" 
d="M384 710q126 0 264 -30v-208h-158v89q-55 10 -112 10q-87 0 -129 -58.5t-42 -162.5q0 -103 43 -161.5t129 -58.5q64 0 111 10v88h158v-208q-146 -30 -269 -30q-154 0 -248 102t-94 258q0 159 92 259.5t255 100.5z" />
    <glyph glyph-name="D" unicode="D" horiz-adv-x="749" 
d="M259 577v-454h117q86 0 127 53.5t41 173.5q0 119 -43 173t-130 54h-112zM24 700h375q142 0 228 -93t86 -256q0 -162 -83.5 -256.5t-222.5 -94.5h-383v123h77v454h-77v123z" />
    <glyph glyph-name="E" unicode="E" horiz-adv-x="647" 
d="M24 700h577v-197h-158v74h-184v-154h245v-122h-245v-178h191v82h159v-205h-585v123h77v454h-77v123z" />
    <glyph glyph-name="F" unicode="F" horiz-adv-x="615" 
d="M24 700h575v-197h-159v74h-181v-178h245v-122h-245v-154h89v-123h-324v123h77v454h-77v123z" />
    <glyph glyph-name="G" unicode="G" horiz-adv-x="756" 
d="M383 710q118 0 269 -32v-208h-158v88q-48 11 -118 11q-86 0 -127.5 -58t-41.5 -161q0 -223 166 -223q69 0 108 38.5t40 107.5h-161v119h318v-392h-148v116q-24 -61 -68.5 -93.5t-126.5 -32.5q-55 0 -106.5 22.5t-95 65t-70 113.5t-26.5 159q0 158 93 259t253 101z" />
    <glyph glyph-name="H" unicode="H" horiz-adv-x="761" 
d="M24 700h312v-123h-77v-154h243v154h-77v123h312v-123h-77v-454h77v-123h-312v123h77v177h-243v-177h77v-123h-312v123h77v454h-77v123z" />
    <glyph glyph-name="I" unicode="I" horiz-adv-x="360" 
d="M24 700h312v-123h-77v-454h77v-123h-312v123h77v454h-77v123z" />
    <glyph glyph-name="J" unicode="J" horiz-adv-x="594" 
d="M275 700h311v-123h-77v-352q0 -109 -73 -172t-196 -63q-105 0 -176 63.5t-73 155.5h163q4 -84 92 -84q57 0 81 22.5t24 74.5v355h-76v123z" />
    <glyph glyph-name="K" unicode="K" horiz-adv-x="717" 
d="M24 700h312v-123h-77v-454h77v-123h-312v123h77v454h-77v123zM381 700h314v-123h-66l-184 -213l197 -241h66v-123h-321v123h71l-195 232l184 222h-66v123z" />
    <glyph glyph-name="L" unicode="L" horiz-adv-x="609" 
d="M24 700h317v-123h-82v-454h179v102h158v-225h-572v123h77v454h-77v123z" />
    <glyph glyph-name="M" unicode="M" horiz-adv-x="952" 
d="M24 700h324l120 -410q8 -30 16 -95q7 67 16 95l121 410h306v-123h-76v-454h76v-123h-305v123h76v332q0 16 3 106q-8 -48 -22 -106l-140 -455h-129l-139 455q-6 21 -23 106q4 -60 4 -106v-332h76v-123h-304v123h77v454h-77v123z" />
    <glyph glyph-name="N" unicode="N" horiz-adv-x="759" 
d="M24 700h283l183 -406q1 -2 26 -77q-4 44 -4 79v281h-63v123h293v-123h-76v-577h-194l-202 456q-4 8 -8 21t-8 28t-6 21q3 -60 3 -72v-331h77v-123h-304v123h77v454h-77v123z" />
    <glyph glyph-name="O" unicode="O" horiz-adv-x="743" 
d="M372 571q-84 0 -124.5 -58.5t-40.5 -162.5t40.5 -162.5t124.5 -58.5q83 0 124 59t41 162t-41 162t-124 59zM372 710q152 0 243 -101.5t91 -258.5t-91 -258.5t-243 -101.5t-243.5 101.5t-91.5 258.5t91.5 258.5t243.5 101.5z" />
    <glyph glyph-name="P" unicode="P" horiz-adv-x="674" 
d="M24 700h407q104 0 162.5 -65t58.5 -162q0 -101 -59.5 -166t-170.5 -65h-163v-119h80v-123h-315v123h77v454h-77v123zM391 576h-132v-221h132q100 0 100 114q0 107 -100 107z" />
    <glyph glyph-name="Q" unicode="Q" horiz-adv-x="743" 
d="M372 710q152 0 243 -101.5t91 -258.5q0 -175 -110 -277l131 -177h-167l-78 110q-54 -16 -110 -16q-152 0 -243.5 101.5t-91.5 258.5t91.5 258.5t243.5 101.5zM372 571q-84 0 -124.5 -58.5t-40.5 -162.5t40.5 -162.5t124.5 -58.5q15 0 22 1l-69 98h156l22 -30
q34 56 34 152q0 103 -41 162t-124 59z" />
    <glyph glyph-name="R" unicode="R" horiz-adv-x="726" 
d="M259 397h134q97 0 97 92q0 43 -22.5 65t-74.5 22h-134v-179zM24 700h414q108 0 162 -52t54 -136q0 -77 -43.5 -123t-125.5 -53q76 -8 119 -61t43 -152h67v-123h-304v123h79q0 153 -111 153h-119v-153h80v-123h-315v123h77v454h-77v123z" />
    <glyph glyph-name="S" unicode="S" horiz-adv-x="667" 
d="M335 710q111 0 253 -27v-194h-158v87q-60 11 -98 11q-111 0 -111 -81q0 -39 28.5 -56t97.5 -25q136 -13 206 -63t70 -148q0 -101 -77 -162.5t-215 -61.5q-121 0 -266 29v197h158v-90q61 -13 111 -13q64 0 92.5 24t28.5 62q0 42 -30 59t-107 27q-137 16 -198.5 63
t-61.5 144q0 96 71 157t206 61z" />
    <glyph glyph-name="T" unicode="T" horiz-adv-x="656" 
d="M12 700h632v-208h-142v85h-95v-454h77v-123h-312v123h77v454h-95v-85h-142v208z" />
    <glyph glyph-name="U" unicode="U" horiz-adv-x="752" 
d="M12 700h311v-123h-77v-324q0 -70 30.5 -100.5t100.5 -30.5q71 0 100 30.5t29 100.5v324h-77v123h311v-123h-77v-354q0 -113 -84 -173t-206 -60t-203.5 60t-81.5 173v354h-76v123z" />
    <glyph glyph-name="V" unicode="V" horiz-adv-x="735" 
d="M10 700h301v-123h-68l108 -368q9 -33 17 -71q1 6 19 71l106 368h-69v123h301v-123h-69l-182 -577h-217l-181 577h-66v123z" />
    <glyph glyph-name="W" unicode="W" horiz-adv-x="1038" 
d="M10 700h293v-123h-68l78 -343q5 -21 13 -81q5 46 13 81l105 466h144l108 -466q8 -35 13 -81q6 45 13 81l82 343h-70v123h294v-123h-70l-150 -577h-195l-87 373q-7 34 -11 86q-8 -65 -12 -86l-87 -373h-193l-147 577h-66v123z" />
    <glyph glyph-name="X" unicode="X" horiz-adv-x="718" 
d="M17 700h303v-123h-54l58 -86q22 -31 34 -61q15 31 37 62l57 85h-54v123h303v-123h-58l-170 -222l178 -232h57v-123h-306v123h54l-61 89q-27 40 -36 62q-14 -30 -39 -64l-59 -87h55v-123h-306v123h59l175 229l-172 225h-55v123z" />
    <glyph glyph-name="Y" unicode="Y" horiz-adv-x="665" 
d="M6 700h294v-123h-66l69 -104q25 -40 35 -64q17 35 38 65l67 103h-66v123h282v-123h-50l-198 -297v-157h77v-123h-311v123h76v157l-201 297h-46v123z" />
    <glyph glyph-name="Z" unicode="Z" horiz-adv-x="632" 
d="M42 700h551v-124l-364 -453h209v74h158v-197h-556v124l364 453h-204v-74h-158v197z" />
    <glyph glyph-name="bracketleft" unicode="[" horiz-adv-x="370" 
d="M349 -211h-262v911h262v-86h-125v-739h125v-86z" />
    <glyph glyph-name="backslash" unicode="\" horiz-adv-x="501" 
d="M14 700h151l342 -700h-151z" />
    <glyph glyph-name="bracketright" unicode="]" horiz-adv-x="370" 
d="M21 700h263v-911h-263v86h126v739h-126v86z" />
    <glyph glyph-name="asciicircum" unicode="^" 
d="M306 711l258 -259l-86 -86l-172 173l-172 -172l-86 86z" />
    <glyph glyph-name="underscore" unicode="_" 
d="M569 -174h-525v122h525v-122z" />
    <glyph glyph-name="grave" unicode="`" horiz-adv-x="334" 
d="M41 692l150 16l103 -174h-99z" />
    <glyph glyph-name="a" unicode="a" horiz-adv-x="540" 
d="M59 500q99 10 201 10q113 0 161 -42t48 -124v-180q0 -51 57 -41v-123q-158 -21 -183 84q-41 -92 -166 -92q-70 0 -110 39t-40 104q0 88 59.5 132t193.5 44q30 0 44 -1v34q0 53 -74 53q-35 0 -60 -4v-56h-131v163zM284 219q-109 0 -109 -62q0 -47 50 -47q45 0 72 24t27 63
v20q-24 2 -40 2z" />
    <glyph glyph-name="b" unicode="b" horiz-adv-x="593" 
d="M17 700h201v-283q46 93 140 93q90 0 145.5 -71.5t55.5 -188.5t-55.5 -188.5t-145.5 -71.5q-95 0 -140 93v-83h-201v123h56v454h-56v123zM317 387q-99 0 -99 -139q0 -61 24 -98t75 -37q88 0 88 137t-88 137z" />
    <glyph glyph-name="c" unicode="c" horiz-adv-x="508" 
d="M274 510q112 0 205 -11v-185h-139v68q-36 7 -68 7q-96 0 -96 -137q0 -139 93 -139q74 0 80 78h144q-5 -88 -66.5 -144.5t-152.5 -56.5q-115 0 -178.5 70t-63.5 190q0 132 64.5 196t177.5 64z" />
    <glyph glyph-name="d" unicode="d" horiz-adv-x="591" 
d="M275 387q-93 0 -93 -137t93 -137q50 0 74 37t24 98q0 139 -98 139zM316 700h202v-577h56v-123h-201v83q-47 -93 -136 -93q-91 0 -148 72t-57 188t57 188t148 72q90 0 136 -93v160h-57v123z" />
    <glyph glyph-name="e" unicode="e" horiz-adv-x="531" 
d="M276 510q79 0 134 -43t77 -109t15 -144h-321q4 -55 25 -79t65 -24q63 0 76 60h150q-14 -83 -76 -132t-149 -49q-111 0 -175.5 70.5t-64.5 190.5q0 118 65 188.5t179 70.5zM270 398q-38 0 -58.5 -20.5t-27.5 -65.5h166q-2 40 -22.5 63t-57.5 23z" />
    <glyph glyph-name="f" unicode="f" horiz-adv-x="354" 
d="M267 710q34 0 79 -8v-119q-32 8 -60 8q-57 0 -57 -59v-32h117v-123h-117v-254h57v-123h-259v123h57v254h-70v123h70v30q0 89 49.5 134.5t133.5 45.5z" />
    <glyph glyph-name="g" unicode="g" horiz-adv-x="556" 
d="M537 642v-124q-53 0 -74.5 -13.5t-22.5 -48.5q58 -52 58 -134q0 -78 -59 -126.5t-168 -48.5q-37 0 -72 9q-16 -13 -16 -31q0 -17 10.5 -23t33.5 -6h148q88 0 126 -36.5t38 -104.5q0 -176 -263 -176q-237 0 -237 123q0 35 21.5 63.5t54.5 43.5q-33 11 -49 29t-16 51
q0 30 19.5 59.5t49.5 43.5q-68 50 -68 135q0 83 58 133t166 50q37 0 72 -8q4 64 51.5 102t138.5 38zM275 404q-74 0 -74 -80q0 -33 18.5 -54t55.5 -21q77 0 77 75q0 80 -77 80zM209 -3q-24 -19 -24 -49t22 -44.5t73 -14.5q106 0 106 65q0 42 -60 42h-92q-4 0 -12.5 0.5
t-12.5 0.5z" />
    <glyph glyph-name="h" unicode="h" horiz-adv-x="575" 
d="M17 700h201v-267q44 77 140 77q72 0 111 -45t39 -126v-216h57v-123h-251v123h48v185q0 40 -13 58t-47 18q-39 0 -61.5 -26.5t-22.5 -76.5v-158h49v-123h-250v123h56v454h-56v123z" />
    <glyph glyph-name="i" unicode="i" horiz-adv-x="292" 
d="M73 686h146v-125h-146v125zM17 500h201v-377h57v-123h-258v123h56v254h-56v123z" />
    <glyph glyph-name="j" unicode="j" horiz-adv-x="282" 
d="M18 500h202v-520q0 -94 -68.5 -146.5t-155.5 -52.5v122q41 0 60 17t19 69v388h-57v123zM74 686h146v-125h-146v125z" />
    <glyph glyph-name="k" unicode="k" horiz-adv-x="554" 
d="M17 700h201v-577h57v-123h-258v123h56v454h-56v123zM281 500h262v-123h-50l-112 -117l109 -137h52v-123h-142l-181 247l116 130h-54v123z" />
    <glyph glyph-name="l" unicode="l" horiz-adv-x="292" 
d="M17 700h201v-577h57v-123h-258v123h56v454h-56v123z" />
    <glyph glyph-name="m" unicode="m" horiz-adv-x="862" 
d="M17 500h201v-72q46 82 139 82q49 0 85.5 -28t48.5 -72q49 100 156 100q71 0 109.5 -45t38.5 -126v-216h56v-123h-250v123h48v182q0 41 -13 60t-46 19q-38 0 -61 -28t-23 -84v-149h53v-123h-251v123h53v182q0 40 -13.5 59.5t-46.5 19.5q-38 0 -60.5 -28.5t-22.5 -86.5
v-146h49v-123h-250v123h56v254h-56v123z" />
    <glyph glyph-name="n" unicode="n" horiz-adv-x="575" 
d="M17 500h201v-67q44 77 141 77q72 0 110.5 -44.5t38.5 -126.5v-216h57v-123h-251v123h48v185q0 40 -12.5 58t-46.5 18q-38 0 -61 -26.5t-24 -76.5v-158h49v-123h-250v123h56v254h-56v123z" />
    <glyph glyph-name="o" unicode="o" horiz-adv-x="535" 
d="M268 386q-91 0 -91 -135q0 -136 91 -136q89 0 89 136q0 135 -89 135zM268 510q107 0 171 -68t64 -191q0 -124 -64 -192.5t-171 -68.5t-171.5 68.5t-64.5 192.5q0 123 64.5 191t171.5 68z" />
    <glyph glyph-name="p" unicode="p" horiz-adv-x="593" 
d="M317 387q-99 0 -99 -139q0 -61 24 -98t75 -37q92 0 92 137t-92 137zM17 500h201v-83q46 93 140 93q90 0 145.5 -71.5t55.5 -188.5t-55.5 -188.5t-145.5 -71.5q-95 0 -140 93v-171h57v-123h-258v123h56v465h-56v123z" />
    <glyph glyph-name="q" unicode="q" horiz-adv-x="591" 
d="M275 387q-92 0 -92 -137t92 -137q50 0 74 37t24 98q0 139 -98 139zM373 500h201v-123h-56v-465h56v-123h-258v123h57v171q-45 -93 -140 -93q-90 0 -145.5 71.5t-55.5 188.5t55.5 188.5t145.5 71.5q94 0 140 -93v83z" />
    <glyph glyph-name="r" unicode="r" horiz-adv-x="448" 
d="M17 500h201v-84q40 94 151 94q31 0 65 -6v-198h-133v56q-10 2 -19 2q-28 0 -46 -28.5t-18 -77.5v-135h57v-123h-258v123h56v254h-56v123z" />
    <glyph glyph-name="s" unicode="s" horiz-adv-x="508" 
d="M256 510q96 0 195 -12v-156h-131v55q-28 5 -58 5q-75 0 -75 -43q0 -21 20.5 -30t66.5 -15q37 -4 61.5 -8t54.5 -14.5t47.5 -26t29.5 -42.5t12 -63q0 -78 -55 -124t-171 -46q-104 0 -160.5 47.5t-58.5 123.5h137q2 -29 23.5 -45.5t62.5 -16.5q80 0 80 43q0 24 -18.5 33
t-64.5 15q-37 4 -61 8t-55 15t-49 26.5t-31 43.5t-13 65q0 69 58 115.5t153 46.5z" />
    <glyph glyph-name="t" unicode="t" horiz-adv-x="350" 
d="M75 618h145v-118h117v-123h-117v-189q0 -38 14 -55t47 -17q27 0 56 8v-123q-42 -9 -79 -9q-85 0 -134 42t-49 131v212h-70v123h70v118z" />
    <glyph glyph-name="u" unicode="u" horiz-adv-x="575" 
d="M10 500h203v-308q0 -40 12.5 -58t46.5 -18q80 0 85 102v159h-57v123h202v-377h57v-123h-202v67q-44 -77 -140 -77q-72 0 -111 45t-39 126v216h-57v123z" />
    <glyph glyph-name="v" unicode="v" horiz-adv-x="534" 
d="M4 500h240v-123h-42l54 -187q10 -39 14 -79q3 34 15 79l55 187h-42v123h232v-123h-49l-121 -377h-189l-120 377h-47v123z" />
    <glyph glyph-name="w" unicode="w" horiz-adv-x="799" 
d="M4 500h233v-123h-47l44 -174q12 -47 13 -76q5 40 14 76l72 297h137l70 -297q8 -34 14 -77q4 39 13 77l44 174h-47v123h231v-123h-44l-102 -377h-171l-65 247q-12 57 -15 85q-4 -42 -17 -85l-67 -247h-165l-102 377h-43v123z" />
    <glyph glyph-name="x" unicode="x" horiz-adv-x="548" 
d="M8 500h247v-123h-26l50 -72q23 37 49 72h-26v123h238v-123h-61l-92 -116l107 -138h48v-123h-242v123h29q-35 49 -55 81l-56 -81h30v-123h-242v123h57l102 131l-96 123h-61v123z" />
    <glyph glyph-name="y" unicode="y" horiz-adv-x="534" 
d="M4 500h240v-123h-42l54 -198q8 -29 14 -88q5 54 15 88l55 198h-42v123h232v-123h-49l-129 -397q-17 -55 -39.5 -92t-46 -58.5t-59 -32t-66.5 -13.5t-82 -3v128q52 0 77.5 9t34.5 33l8 22l-128 404h-47v123z" />
    <glyph glyph-name="z" unicode="z" horiz-adv-x="465" 
d="M32 500h401v-111l-225 -266h229v-123h-408v112l238 277h-102v-55h-133v166z" />
    <glyph glyph-name="braceleft" unicode="{" horiz-adv-x="417" 
d="M377 710l8 -97q-61 0 -80.5 -28.5t-19.5 -84.5q0 -23 6 -69t6 -69q0 -94 -84 -109q85 -18 85 -118q0 -23 -5 -67.5t-5 -66.5q0 -58 19 -87t78 -29l-8 -96q-120 0 -174.5 54t-54.5 135q0 19 2.5 63.5t2.5 60.5q0 91 -59 91h-34v114h34q58 0 58 90q0 17 -2.5 61t-2.5 64
q0 80 54.5 134t175.5 54z" />
    <glyph glyph-name="bar" unicode="|" horiz-adv-x="363" 
d="M257 -211h-150v911h150v-911z" />
    <glyph glyph-name="braceright" unicode="}" horiz-adv-x="417" 
d="M32 614l8 96q120 0 175 -54.5t55 -134.5q0 -20 -2.5 -64t-2.5 -60q0 -45 13 -68t45 -23h34v-114h-34q-58 0 -58 -91q0 -17 2.5 -60.5t2.5 -63.5q0 -80 -54.5 -134t-175.5 -54l-8 96q61 0 80.5 28.5t19.5 84.5q0 24 -5.5 69.5t-5.5 68.5q0 47 22 75t61 35
q-40 8 -62.5 38.5t-22.5 79.5q0 23 5 67.5t5 66.5q0 58 -19 87t-78 29z" />
    <glyph glyph-name="asciitilde" unicode="~" 
d="M210 637q42 0 79.5 -17.5t66.5 -34.5t49 -17q45 0 58 54l89 -50q-13 -66 -53.5 -100t-95.5 -34q-48 0 -106.5 34.5t-89.5 34.5q-23 0 -36.5 -12t-20.5 -42l-89 50q12 66 52.5 100t96.5 34z" />
    <glyph glyph-name="nbspace" unicode="&#xa0;" horiz-adv-x="213" 
 />
    <glyph glyph-name="exclamdown" unicode="&#xa1;" horiz-adv-x="356" 
d="M264 -200h-172l18 500h137zM248 361h-140v139h140v-139z" />
    <glyph glyph-name="cent" unicode="&#xa2;" horiz-adv-x="599" 
d="M270 694h71v-77q60 -1 180 -13v-183h-123v71q-26 4 -57 6v-275q52 17 62 75h133q-11 -83 -63 -137.5t-132 -62.5v-89h-71v91q-95 13 -146.5 81t-51.5 176q0 113 53 178.5t145 78.5v80zM205 357q0 -110 65 -133v267q-65 -24 -65 -134z" />
    <glyph glyph-name="sterling" unicode="&#xa3;" horiz-adv-x="618" 
d="M324 710q88 0 231 -27v-194h-135v85q-60 11 -99 11q-100 0 -100 -97q0 -40 15 -121h190v-77h-179q0 -5 0.5 -14.5t0.5 -13.5q0 -65 -43 -139h348v-123h-494v123q41 56 41 119q0 21 -5 48h-70v77h51q-16 60 -16 111q0 98 68.5 165t195.5 67z" />
    <glyph glyph-name="currency" unicode="&#xa4;" horiz-adv-x="738" 
d="M369 599q76 0 131 -39l120 121l86 -86l-129 -129q22 -50 22 -122t-21 -124l128 -128l-86 -86l-120 119q-54 -37 -131 -37q-80 0 -132 38l-119 -119l-86 86l127 127q-22 57 -22 124q0 72 22 123l-127 127l86 86l119 -119q54 38 132 38zM369 473q-91 0 -91 -129t91 -129
q89 0 89 129t-89 129z" />
    <glyph glyph-name="yen" unicode="&#xa5;" horiz-adv-x="609" 
d="M2 700h278v-123h-43l75 -156l75 156h-43v123h266v-123h-57l-111 -191h81v-78h-126l-12 -21v-24h111v-78h-111v-62h76v-123h-311v123h77v62h-112v78h112v24l-13 21h-126v78h80l-112 191h-54v123z" />
    <glyph glyph-name="brokenbar" unicode="&#xa6;" horiz-adv-x="363" 
d="M257 378h-150v322h150v-322zM257 -211h-150v322h150v-322z" />
    <glyph glyph-name="section" unicode="&#xa7;" horiz-adv-x="622" 
d="M326 -199q-116 0 -266 30v196h156v-90q61 -13 111 -13q93 0 93 65q0 27 -40 43.5t-97 29t-113.5 32.5t-96.5 66t-40 116q0 86 70 142q-36 43 -36 105q0 83 63.5 135t177.5 52q111 0 253 -27v-194h-155v85q-57 12 -99 12q-52 0 -72.5 -16t-20.5 -47q0 -20 21 -34t54.5 -23
t74 -18.5t80.5 -25t73.5 -37t54.5 -60t21 -89.5q0 -82 -66 -139q40 -45 40 -108q0 -84 -63.5 -136t-177.5 -52zM458 213q0 34 -28 57.5t-62.5 34t-91 26t-88.5 29.5q-20 -28 -20 -62q0 -27 16 -46.5t46.5 -32.5t62 -21.5l74.5 -20.5t72 -24q19 27 19 60z" />
    <glyph glyph-name="dieresis" unicode="&#xa8;" horiz-adv-x="440" 
d="M174 561h-106v109h106v-109zM372 561h-107v109h107v-109z" />
    <glyph glyph-name="copyright" unicode="&#xa9;" horiz-adv-x="831" 
d="M413 618q-116 0 -182 -73.5t-66 -194.5t66 -194.5t182 -73.5q120 0 185 73.5t65 194.5t-65 194.5t-185 73.5zM413 710q159 0 267.5 -99.5t108.5 -260.5q0 -163 -109 -261.5t-267 -98.5q-154 0 -262 98t-108 262t108.5 262t261.5 98zM412 559q69 0 162 -14v-140h-99v56
q-26 6 -64 6q-41 0 -63.5 -30t-22.5 -86q0 -54 22.5 -85t63.5 -31q20 0 64 6v56h99v-138q-80 -15 -162 -15q-90 0 -142 56.5t-52 150.5q0 105 52 156.5t142 51.5z" />
    <glyph glyph-name="ordfeminine" unicode="&#xaa;" horiz-adv-x="540" 
d="M59 707q99 10 201 10q113 0 161 -42t48 -124v-180q0 -51 57 -41v-123q-158 -21 -183 84q-41 -92 -166 -92q-70 0 -110 39t-40 104q0 88 59.5 132t193.5 44q30 0 44 -1v34q0 53 -74 53q-35 0 -60 -4v-56h-131v163zM284 426q-109 0 -109 -62q0 -47 50 -47q45 0 72 24t27 63
v20q-24 2 -40 2z" />
    <glyph glyph-name="guillemotleft" unicode="&#xab;" horiz-adv-x="650" 
d="M269 509l61 -63l-148 -171l148 -172l-61 -62l-217 184v100zM536 509l61 -63l-148 -171l148 -172l-61 -62l-217 184v100z" />
    <glyph glyph-name="logicalnot" unicode="&#xac;" 
d="M563 0h-151v261h-361v121h512v-382z" />
    <glyph glyph-name="registered" unicode="&#xae;" horiz-adv-x="508" 
d="M252 657q-64 0 -101.5 -40t-37.5 -111q0 -69 37 -109.5t102 -40.5q68 0 104.5 40.5t36.5 109.5t-36.5 110t-104.5 41zM252 710q91 0 152 -56t61 -148q0 -93 -61 -148t-152 -55q-88 0 -148.5 55t-60.5 148t61 148.5t148 55.5zM165 612h111q38 0 57 -17t19 -44
q0 -46 -49 -58q44 -8 44 -56v-33h-59v38q0 30 -31 30h-33v-68h-59v208zM224 568v-53h39q28 0 28 28q0 25 -28 25h-39z" />
    <glyph glyph-name="macron" unicode="&#xaf;" horiz-adv-x="376" 
d="M324 557h-272v93h272v-93z" />
    <glyph glyph-name="macron" unicode="&#x2c9;" horiz-adv-x="376" 
d="M324 557h-272v93h272v-93z" />
    <glyph glyph-name="degree" unicode="&#xb0;" horiz-adv-x="442" 
d="M220 603q-62 0 -62 -92t62 -92q64 0 64 91q0 93 -64 93zM220 710q81 0 129.5 -54.5t48.5 -144.5q0 -89 -48 -145t-128 -56q-81 0 -129.5 54.5t-48.5 144.5q0 89 48 145t128 56z" />
    <glyph glyph-name="plusminus" unicode="&#xb1;" 
d="M367 693v-195h196v-121h-196v-196h-121v196h-195v121h195v195h121zM563 15h-512v121h512v-121z" />
    <glyph glyph-name="acute" unicode="&#xb4;" horiz-adv-x="334" 
d="M143 708l151 -16l-154 -158h-100z" />
    <glyph glyph-name="mu" unicode="&#xb5;" horiz-adv-x="586" 
d="M17 500h202v-308q0 -39 14.5 -57.5t48.5 -18.5q81 0 81 110v151h-56v123h201v-341q0 -41 39 -41q12 0 24 3v-120q-35 -7 -71 -7q-58 0 -95.5 21.5t-41.5 64.5q-15 -38 -49 -64t-79 -26q-34 0 -52 23l34 -224h-144v588h-56v123z" />
    <glyph glyph-name="mu" unicode="&#x3bc;" horiz-adv-x="586" 
d="M17 500h202v-308q0 -39 14.5 -57.5t48.5 -18.5q81 0 81 110v151h-56v123h201v-341q0 -41 39 -41q12 0 24 3v-120q-35 -7 -71 -7q-58 0 -95.5 21.5t-41.5 64.5q-15 -38 -49 -64t-79 -26q-34 0 -52 23l34 -224h-144v588h-56v123z" />
    <glyph glyph-name="paragraph" unicode="&#xb6;" horiz-adv-x="556" 
d="M249 500h249v-520q0 -95 -66.5 -147t-152.5 -52v115q40 0 60.5 15.5t20.5 61.5v27h-103q-105 0 -165 74.5t-60 178.5q0 103 57.5 175t159.5 72z" />
    <glyph glyph-name="periodcentered" unicode="&#xb7;" horiz-adv-x="598" 
d="M220 406h157v-149h-157v149z" />
    <glyph glyph-name="periodcentered" unicode="&#x2219;" horiz-adv-x="598" 
d="M220 406h157v-149h-157v149z" />
    <glyph glyph-name="cedilla" unicode="&#xb8;" horiz-adv-x="367" 
d="M135 0h88l-40 -53q17 3 32 3q44 0 71.5 -21.5t27.5 -59.5q0 -50 -42.5 -78.5t-103.5 -28.5q-75 0 -116 38l41 48q18 -23 65 -23q50 0 50 35q0 42 -77 42q-15 0 -55 -4z" />
    <glyph glyph-name="ordmasculine" unicode="&#xba;" horiz-adv-x="524" 
d="M268 593q-91 0 -91 -135q0 -136 91 -136q89 0 89 136q0 135 -89 135zM268 717q107 0 171 -68t64 -191q0 -124 -64 -192.5t-171 -68.5t-171.5 68.5t-64.5 192.5q0 123 64.5 191t171.5 68z" />
    <glyph glyph-name="guillemotright" unicode="&#xbb;" horiz-adv-x="650" 
d="M381 509l216 -184v-100l-216 -184l-62 62l149 172l-149 171zM114 509l216 -184v-100l-216 -184l-62 62l149 172l-149 171z" />
    <glyph glyph-name="onequarter" unicode="&#xbc;" horiz-adv-x="856" 
d="M246 0h-143l555 700h143zM342 345h-254v88h77v166l-87 -53l-41 75l131 81h113v-269h61v-88zM616 355h127v-195h52v-87h-52v-73h-109v73h-170v82zM634 259l-74 -99h74v99z" />
    <glyph glyph-name="onehalf" unicode="&#xbd;" horiz-adv-x="856" 
d="M245 0h-143l555 700h143l-283 -357q67 19 137 19q83 0 123 -30t40 -83q0 -48 -31 -83.5t-112 -77.5h146v-88h-322v75q113 59 153 92.5t40 66.5q0 37 -46 37q-16 0 -39 -5v-49h-104v107zM341 345h-254v88h77v166l-87 -53l-41 75l131 81h113v-269h61v-88z" />
    <glyph glyph-name="threequarters" unicode="&#xbe;" horiz-adv-x="856" 
d="M235 0h-143l555 700h143zM597 355h127v-195h52v-87h-52v-73h-109v73h-170v82zM615 259l-74 -99h74v99zM222 707q72 0 110.5 -26t38.5 -70q0 -67 -80 -84q86 -14 86 -85q0 -49 -42 -76.5t-119 -27.5t-155 24v102h105v-39q23 -7 49 -7q45 0 45 36q0 20 -14.5 28t-56.5 8v70
q38 0 51.5 7.5t13.5 26.5q0 33 -39 33q-21 0 -44 -7v-39h-104v102q78 24 155 24z" />
    <glyph glyph-name="questiondown" unicode="&#xbf;" horiz-adv-x="582" 
d="M402 361h-141v139h141v-139zM284 -210q-112 0 -168.5 51.5t-56.5 136.5q0 48 21 89.5t51 70.5t60 54.5t51 54.5t21 58h137q0 -46 -20 -86t-48.5 -68l-57 -53.5t-48.5 -54.5t-20 -59q0 -32 22.5 -51t62.5 -19q32 0 67 10v78h147v-179q-120 -33 -221 -33z" />
    <glyph glyph-name="Agrave" unicode="&#xc0;" horiz-adv-x="687" 
d="M119 700h453v-123h-76l152 -454h66v-123h-307v123h69l-24 78h-222l-26 -78h78v-123h-307v123h67l153 454h-76v123zM341 593q-9 -48 -20 -88l-56 -184h150l-55 185q-9 29 -19 87zM182 865l135 15l119 -157h-92z" />
    <glyph glyph-name="Aacute" unicode="&#xc1;" horiz-adv-x="687" 
d="M119 700h453v-123h-76l152 -454h66v-123h-307v123h69l-24 78h-222l-26 -78h78v-123h-307v123h67l153 454h-76v123zM341 593q-9 -48 -20 -88l-56 -184h150l-55 185q-9 29 -19 87zM400 880l135 -15l-162 -142h-92z" />
    <glyph glyph-name="Acircumflex" unicode="&#xc2;" horiz-adv-x="687" 
d="M119 700h453v-123h-76l152 -454h66v-123h-307v123h69l-24 78h-222l-26 -78h78v-123h-307v123h67l153 454h-76v123zM341 593q-9 -48 -20 -88l-56 -184h150l-55 185q-9 29 -19 87zM531 738l-94 -15l-93 73l-93 -73l-94 15l129 142h117z" />
    <glyph glyph-name="Atilde" unicode="&#xc3;" horiz-adv-x="687" 
d="M119 700h453v-123h-76l152 -454h66v-123h-307v123h69l-24 78h-222l-26 -78h78v-123h-307v123h67l153 454h-76v123zM341 593q-9 -48 -20 -88l-56 -184h150l-55 185q-9 29 -19 87zM275 860q38 0 82 -25t57 -25q30 0 35 37l63 -10q-11 -109 -95 -109q-33 0 -79 27t-67 27
q-35 0 -36 -42l-60 13q2 50 27 78.5t73 28.5z" />
    <glyph glyph-name="Adieresis" unicode="&#xc4;" horiz-adv-x="687" 
d="M119 700h453v-123h-76l152 -454h66v-123h-307v123h69l-24 78h-222l-26 -78h78v-123h-307v123h67l153 454h-76v123zM341 593q-9 -48 -20 -88l-56 -184h150l-55 185q-9 29 -19 87zM292 744h-107v105h107v-105zM505 744h-107v105h107v-105z" />
    <glyph glyph-name="Aring" unicode="&#xc5;" horiz-adv-x="687" 
d="M119 700h453v-123h-76l152 -454h66v-123h-307v123h69l-24 78h-222l-26 -78h78v-123h-307v123h67l153 454h-76v123zM341 593q-9 -48 -20 -88l-56 -184h150l-55 185q-9 29 -19 87zM344 892q55 0 91 -24t36 -68t-35.5 -67t-91.5 -23t-91.5 23t-35.5 67t36 68t91 24zM343 834
q-48 0 -48 -34q0 -35 48 -35q49 0 49 35q0 34 -49 34z" />
    <glyph glyph-name="AE" unicode="&#xc6;" horiz-adv-x="982" 
d="M224 700h719v-197h-158v74h-183v-154h245v-122h-245v-178h191v82h158v-205h-584v123h77v78h-231l-51 -78h77v-123h-307v123h66l302 454h-76v123zM444 562l-156 -241h156v241z" />
    <glyph glyph-name="Ccedilla" unicode="&#xc7;" horiz-adv-x="699" 
d="M384 710q126 0 264 -30v-208h-158v89q-55 10 -112 10q-87 0 -129 -58.5t-42 -162.5q0 -103 43 -161.5t129 -58.5q64 0 111 10v88h158v-208q-115 -24 -233 -29l-33 -44q16 3 32 3q44 0 71.5 -21.5t27.5 -59.5q0 -50 -42.5 -78.5t-103.5 -28.5q-75 0 -116 38l41 48
q18 -23 65 -23q50 0 50 35q0 42 -77 42q-15 0 -55 -4l55 95q-134 16 -213.5 115t-79.5 242q0 159 92 259.5t255 100.5z" />
    <glyph glyph-name="Egrave" unicode="&#xc8;" horiz-adv-x="647" 
d="M24 700h577v-197h-158v74h-184v-154h245v-122h-245v-178h191v82h159v-205h-585v123h77v454h-77v123zM152 865l135 15l119 -157h-92z" />
    <glyph glyph-name="Eacute" unicode="&#xc9;" horiz-adv-x="647" 
d="M24 700h577v-197h-158v74h-184v-154h245v-122h-245v-178h191v82h159v-205h-585v123h77v454h-77v123zM388 880l135 -15l-162 -142h-92z" />
    <glyph glyph-name="Ecircumflex" unicode="&#xca;" horiz-adv-x="647" 
d="M24 700h577v-197h-158v74h-184v-154h245v-122h-245v-178h191v82h159v-205h-585v123h77v454h-77v123zM524 738l-94 -15l-93 73l-93 -73l-94 15l129 142h117z" />
    <glyph glyph-name="Edieresis" unicode="&#xcb;" horiz-adv-x="647" 
d="M24 700h577v-197h-158v74h-184v-154h245v-122h-245v-178h191v82h159v-205h-585v123h77v454h-77v123zM285 744h-107v105h107v-105zM498 744h-107v105h107v-105z" />
    <glyph glyph-name="Igrave" unicode="&#xcc;" horiz-adv-x="360" 
d="M24 700h312v-123h-77v-454h77v-123h-312v123h77v454h-77v123zM8 865l135 15l119 -157h-92z" />
    <glyph glyph-name="Iacute" unicode="&#xcd;" horiz-adv-x="360" 
d="M24 700h312v-123h-77v-454h77v-123h-312v123h77v454h-77v123zM221 880l135 -15l-162 -142h-92z" />
    <glyph glyph-name="Icircumflex" unicode="&#xce;" horiz-adv-x="360" 
d="M24 700h312v-123h-77v-454h77v-123h-312v123h77v454h-77v123zM368 738l-94 -15l-93 73l-93 -73l-94 15l129 142h117z" />
    <glyph glyph-name="Idieresis" unicode="&#xcf;" horiz-adv-x="360" 
d="M24 700h312v-123h-77v-454h77v-123h-312v123h77v454h-77v123zM128 744h-107v105h107v-105zM341 744h-107v105h107v-105z" />
    <glyph glyph-name="Eth" unicode="&#xd0;" horiz-adv-x="749" 
d="M24 700h375q142 0 228 -93t86 -256q0 -162 -83.5 -256.5t-222.5 -94.5h-383v123h77v180h-59v113h59v161h-77v123zM259 577v-161h85v-113h-85v-180h117q86 0 127 53.5t41 173.5q0 119 -43 173t-130 54h-112z" />
    <glyph glyph-name="Ntilde" unicode="&#xd1;" horiz-adv-x="759" 
d="M24 700h283l183 -406q1 -2 26 -77q-4 44 -4 79v281h-63v123h293v-123h-76v-577h-194l-202 456q-4 8 -8 21t-8 28t-6 21q3 -60 3 -72v-331h77v-123h-304v123h77v454h-77v123zM315 860q38 0 82 -25t57 -25q30 0 35 37l63 -10q-11 -109 -95 -109q-33 0 -79 27t-67 27
q-35 0 -36 -42l-60 13q2 50 27 78.5t73 28.5z" />
    <glyph glyph-name="Ograve" unicode="&#xd2;" horiz-adv-x="743" 
d="M372 571q-84 0 -124.5 -58.5t-40.5 -162.5t40.5 -162.5t124.5 -58.5q83 0 124 59t41 162t-41 162t-124 59zM372 710q152 0 243 -101.5t91 -258.5t-91 -258.5t-243 -101.5t-243.5 101.5t-91.5 258.5t91.5 258.5t243.5 101.5zM213 865l135 15l119 -157h-92z" />
    <glyph glyph-name="Oacute" unicode="&#xd3;" horiz-adv-x="743" 
d="M372 571q-84 0 -124.5 -58.5t-40.5 -162.5t40.5 -162.5t124.5 -58.5q83 0 124 59t41 162t-41 162t-124 59zM372 710q152 0 243 -101.5t91 -258.5t-91 -258.5t-243 -101.5t-243.5 101.5t-91.5 258.5t91.5 258.5t243.5 101.5zM394 880l135 -15l-162 -142h-92z" />
    <glyph glyph-name="Ocircumflex" unicode="&#xd4;" horiz-adv-x="743" 
d="M372 571q-84 0 -124.5 -58.5t-40.5 -162.5t40.5 -162.5t124.5 -58.5q83 0 124 59t41 162t-41 162t-124 59zM372 710q152 0 243 -101.5t91 -258.5t-91 -258.5t-243 -101.5t-243.5 101.5t-91.5 258.5t91.5 258.5t243.5 101.5zM560 738l-94 -15l-93 73l-93 -73l-94 15
l129 142h117z" />
    <glyph glyph-name="Otilde" unicode="&#xd5;" horiz-adv-x="743" 
d="M372 571q-84 0 -124.5 -58.5t-40.5 -162.5t40.5 -162.5t124.5 -58.5q83 0 124 59t41 162t-41 162t-124 59zM372 710q152 0 243 -101.5t91 -258.5t-91 -258.5t-243 -101.5t-243.5 101.5t-91.5 258.5t91.5 258.5t243.5 101.5zM305 860q38 0 82 -25t57 -25q30 0 35 37
l63 -10q-11 -109 -95 -109q-33 0 -79 27t-67 27q-35 0 -36 -42l-60 13q2 50 27 78.5t73 28.5z" />
    <glyph glyph-name="Odieresis" unicode="&#xd6;" horiz-adv-x="743" 
d="M372 571q-84 0 -124.5 -58.5t-40.5 -162.5t40.5 -162.5t124.5 -58.5q83 0 124 59t41 162t-41 162t-124 59zM372 710q152 0 243 -101.5t91 -258.5t-91 -258.5t-243 -101.5t-243.5 101.5t-91.5 258.5t91.5 258.5t243.5 101.5zM319 744h-107v105h107v-105zM532 744h-107v105
h107v-105z" />
    <glyph glyph-name="multiply" unicode="&#xd7;" 
d="M134 579l171 -172l173 173l86 -86l-173 -173l173 -172l-86 -86l-173 172l-171 -171l-86 86l171 171l-171 172z" />
    <glyph glyph-name="Oslash" unicode="&#xd8;" horiz-adv-x="778" 
d="M567 700h143l-71 -99q85 -99 85 -251q0 -157 -91.5 -258.5t-243.5 -101.5q-89 0 -160 37l-19 -27h-143l71 100q-84 100 -84 250q0 157 91.5 258.5t243.5 101.5q85 0 159 -37zM554 350q0 63 -15 110l-225 -315q31 -16 75 -16q84 0 124.5 58.5t40.5 162.5zM389 571
q-84 0 -124.5 -58.5t-40.5 -162.5q0 -65 14 -110l225 315q-34 16 -74 16z" />
    <glyph glyph-name="Ugrave" unicode="&#xd9;" horiz-adv-x="752" 
d="M12 700h311v-123h-77v-324q0 -70 30.5 -100.5t100.5 -30.5q71 0 100 30.5t29 100.5v324h-77v123h311v-123h-77v-354q0 -113 -84 -173t-206 -60t-203.5 60t-81.5 173v354h-76v123zM225 865l135 15l119 -157h-92z" />
    <glyph glyph-name="Uacute" unicode="&#xda;" horiz-adv-x="752" 
d="M12 700h311v-123h-77v-324q0 -70 30.5 -100.5t100.5 -30.5q71 0 100 30.5t29 100.5v324h-77v123h311v-123h-77v-354q0 -113 -84 -173t-206 -60t-203.5 60t-81.5 173v354h-76v123zM424 880l135 -15l-162 -142h-92z" />
    <glyph glyph-name="Ucircumflex" unicode="&#xdb;" horiz-adv-x="752" 
d="M12 700h311v-123h-77v-324q0 -70 30.5 -100.5t100.5 -30.5q71 0 100 30.5t29 100.5v324h-77v123h311v-123h-77v-354q0 -113 -84 -173t-206 -60t-203.5 60t-81.5 173v354h-76v123zM571 738l-94 -15l-93 73l-93 -73l-94 15l129 142h117z" />
    <glyph glyph-name="Udieresis" unicode="&#xdc;" horiz-adv-x="752" 
d="M12 700h311v-123h-77v-324q0 -70 30.5 -100.5t100.5 -30.5q71 0 100 30.5t29 100.5v324h-77v123h311v-123h-77v-354q0 -113 -84 -173t-206 -60t-203.5 60t-81.5 173v354h-76v123zM331 744h-107v105h107v-105zM544 744h-107v105h107v-105z" />
    <glyph glyph-name="Yacute" unicode="&#xdd;" horiz-adv-x="665" 
d="M6 700h294v-123h-66l69 -104q25 -40 35 -64q17 35 38 65l67 103h-66v123h282v-123h-50l-198 -297v-157h77v-123h-311v123h76v157l-201 297h-46v123zM380 880l135 -15l-162 -142h-92z" />
    <glyph glyph-name="Thorn" unicode="&#xde;" horiz-adv-x="674" 
d="M24 700h312v-123h-77v-40h172q106 0 163.5 -47.5t57.5 -130.5q0 -87 -58 -135t-172 -48h-163v-53h80v-123h-315v123h77v454h-77v123zM391 428h-132v-153h132q53 0 76.5 19t23.5 61q0 39 -23 56t-77 17z" />
    <glyph glyph-name="germandbls" unicode="&#xdf;" horiz-adv-x="589" 
d="M304 710q96 0 160.5 -45.5t64.5 -130.5q0 -135 -145 -160q173 -27 173 -180q0 -86 -70 -142.5t-187 -56.5q-9 0 -45 4v121q21 -4 37 -4q106 0 106 94q0 55 -29 75.5t-106 20.5v113q69 0 91.5 20t22.5 69q0 76 -78 76q-82 0 -82 -78v-506h-201v123h56v391q0 90 67.5 143
t164.5 53z" />
    <glyph glyph-name="agrave" unicode="&#xe0;" horiz-adv-x="540" 
d="M59 500q99 10 201 10q113 0 161 -42t48 -124v-180q0 -51 57 -41v-123q-158 -21 -183 84q-41 -92 -166 -92q-70 0 -110 39t-40 104q0 88 59.5 132t193.5 44q30 0 44 -1v34q0 53 -74 53q-35 0 -60 -4v-56h-131v163zM284 219q-109 0 -109 -62q0 -47 50 -47q45 0 72 24t27 63
v20q-24 2 -40 2zM105 692l150 16l103 -174h-99z" />
    <glyph glyph-name="aacute" unicode="&#xe1;" horiz-adv-x="540" 
d="M59 500q99 10 201 10q113 0 161 -42t48 -124v-180q0 -51 57 -41v-123q-158 -21 -183 84q-41 -92 -166 -92q-70 0 -110 39t-40 104q0 88 59.5 132t193.5 44q30 0 44 -1v34q0 53 -74 53q-35 0 -60 -4v-56h-131v163zM284 219q-109 0 -109 -62q0 -47 50 -47q45 0 72 24t27 63
v20q-24 2 -40 2zM271 708l151 -16l-154 -158h-100z" />
    <glyph glyph-name="acircumflex" unicode="&#xe2;" horiz-adv-x="540" 
d="M59 500q99 10 201 10q113 0 161 -42t48 -124v-180q0 -51 57 -41v-123q-158 -21 -183 84q-41 -92 -166 -92q-70 0 -110 39t-40 104q0 88 59.5 132t193.5 44q30 0 44 -1v34q0 53 -74 53q-35 0 -60 -4v-56h-131v163zM284 219q-109 0 -109 -62q0 -47 50 -47q45 0 72 24t27 63
v20q-24 2 -40 2zM194 695h132l121 -150l-101 -17l-85 82l-86 -82l-102 17z" />
    <glyph glyph-name="atilde" unicode="&#xe3;" horiz-adv-x="540" 
d="M59 500q99 10 201 10q113 0 161 -42t48 -124v-180q0 -51 57 -41v-123q-158 -21 -183 84q-41 -92 -166 -92q-70 0 -110 39t-40 104q0 88 59.5 132t193.5 44q30 0 44 -1v34q0 53 -74 53q-35 0 -60 -4v-56h-131v163zM284 219q-109 0 -109 -62q0 -47 50 -47q45 0 72 24t27 63
v20q-24 2 -40 2zM188 689q38 0 82 -27.5t57 -27.5q15 0 23.5 8t11.5 31l63 -10q-12 -120 -95 -120q-33 0 -79 29t-67 29q-35 0 -36 -45l-60 14q2 55 27 87t73 32z" />
    <glyph glyph-name="adieresis" unicode="&#xe4;" horiz-adv-x="540" 
d="M59 500q99 10 201 10q113 0 161 -42t48 -124v-180q0 -51 57 -41v-123q-158 -21 -183 84q-41 -92 -166 -92q-70 0 -110 39t-40 104q0 88 59.5 132t193.5 44q30 0 44 -1v34q0 53 -74 53q-35 0 -60 -4v-56h-131v163zM284 219q-109 0 -109 -62q0 -47 50 -47q45 0 72 24t27 63
v20q-24 2 -40 2zM215 561h-106v109h106v-109zM413 561h-107v109h107v-109z" />
    <glyph glyph-name="aring" unicode="&#xe5;" horiz-adv-x="540" 
d="M59 500q99 10 201 10q113 0 161 -42t48 -124v-180q0 -51 57 -41v-123q-158 -21 -183 84q-41 -92 -166 -92q-70 0 -110 39t-40 104q0 88 59.5 132t193.5 44q30 0 44 -1v34q0 53 -74 53q-35 0 -60 -4v-56h-131v163zM284 219q-109 0 -109 -62q0 -47 50 -47q45 0 72 24t27 63
v20q-24 2 -40 2zM260 725q55 0 93 -27.5t38 -76.5t-38 -76t-93 -27q-56 0 -93.5 27t-37.5 76t38 76.5t93 27.5zM259 656q-20 0 -32 -9.5t-12 -24.5q0 -36 44 -36q43 0 43 34q0 17 -12.5 26.5t-30.5 9.5z" />
    <glyph glyph-name="ae" unicode="&#xe6;" horiz-adv-x="827" 
d="M66 497q88 13 200 13q107 0 153 -44q59 44 154 44q118 0 174.5 -82t46.5 -207h-325q9 -106 95 -106q31 0 52 15.5t26 40.5h146q-9 -85 -70.5 -133t-149.5 -48q-140 0 -200 97q-56 -95 -191 -95q-71 0 -110.5 38t-39.5 102q0 89 61 134t196 45h44v28q0 58 -72 58
q-35 0 -59 -4v-59h-131v163zM230 105q44 0 71 27t27 69v20h-42q-111 0 -111 -66q0 -50 55 -50zM565 391q-71 0 -91 -80h176q-3 36 -25.5 58t-59.5 22z" />
    <glyph glyph-name="ccedilla" unicode="&#xe7;" horiz-adv-x="508" 
d="M274 510q112 0 205 -11v-185h-139v68q-36 7 -68 7q-96 0 -96 -137q0 -139 93 -139q74 0 80 78h144q-4 -76 -52 -129.5t-122 -66.5l-35 -48q16 3 32 3q44 0 71.5 -21.5t27.5 -59.5q0 -50 -42.5 -78.5t-103.5 -28.5q-75 0 -116 38l41 48q18 -23 65 -23q50 0 50 35
q0 42 -77 42q-15 0 -55 -4l55 95q-96 12 -148 80.5t-52 176.5q0 132 64.5 196t177.5 64z" />
    <glyph glyph-name="egrave" unicode="&#xe8;" horiz-adv-x="531" 
d="M276 510q79 0 134 -43t77 -109t15 -144h-321q4 -55 25 -79t65 -24q63 0 76 60h150q-14 -83 -76 -132t-149 -49q-111 0 -175.5 70.5t-64.5 190.5q0 118 65 188.5t179 70.5zM106 692l150 16l103 -174h-99zM270 398q-38 0 -58.5 -20.5t-27.5 -65.5h166q-2 40 -22.5 63
t-57.5 23z" />
    <glyph glyph-name="eacute" unicode="&#xe9;" horiz-adv-x="531" 
d="M276 510q79 0 134 -43t77 -109t15 -144h-321q4 -55 25 -79t65 -24q63 0 76 60h150q-14 -83 -76 -132t-149 -49q-111 0 -175.5 70.5t-64.5 190.5q0 118 65 188.5t179 70.5zM278 708l151 -16l-154 -158h-100zM270 398q-38 0 -58.5 -20.5t-27.5 -65.5h166q-2 40 -22.5 63
t-57.5 23z" />
    <glyph glyph-name="ecircumflex" unicode="&#xea;" horiz-adv-x="531" 
d="M276 510q79 0 134 -43t77 -109t15 -144h-321q4 -55 25 -79t65 -24q63 0 76 60h150q-14 -83 -76 -132t-149 -49q-111 0 -175.5 70.5t-64.5 190.5q0 118 65 188.5t179 70.5zM210 695h132l121 -150l-101 -17l-85 82l-86 -82l-102 17zM270 398q-38 0 -58.5 -20.5t-27.5 -65.5
h166q-2 40 -22.5 63t-57.5 23z" />
    <glyph glyph-name="edieresis" unicode="&#xeb;" horiz-adv-x="531" 
d="M276 510q79 0 134 -43t77 -109t15 -144h-321q4 -55 25 -79t65 -24q63 0 76 60h150q-14 -83 -76 -132t-149 -49q-111 0 -175.5 70.5t-64.5 190.5q0 118 65 188.5t179 70.5zM429 561h-107v109h107v-109zM231 561h-106v109h106v-109zM270 398q-38 0 -58.5 -20.5t-27.5 -65.5
h166q-2 40 -22.5 63t-57.5 23z" />
    <glyph glyph-name="igrave" unicode="&#xec;" horiz-adv-x="284" 
d="M-27 692l150 16l103 -174h-99zM17 500h194v-377h56v-123h-250v123h56v254h-56v123z" />
    <glyph glyph-name="iacute" unicode="&#xed;" horiz-adv-x="284" 
d="M150 708l151 -16l-154 -158h-100zM17 500h194v-377h56v-123h-250v123h56v254h-56v123z" />
    <glyph glyph-name="icircumflex" unicode="&#xee;" horiz-adv-x="284" 
d="M17 500h194v-377h56v-123h-250v123h56v254h-56v123zM70 695h132l121 -150l-101 -17l-85 82l-86 -82l-102 17z" />
    <glyph glyph-name="idieresis" unicode="&#xef;" horiz-adv-x="284" 
d="M90 561h-106v109h106v-109zM288 561h-107v109h107v-109zM17 500h194v-377h56v-123h-250v123h56v254h-56v123z" />
    <glyph glyph-name="eth" unicode="&#xf0;" horiz-adv-x="599" 
d="M233 710q88 0 162 -41l48 49l56 -53l-41 -42q109 -106 109 -282q0 -167 -72 -259t-204 -92q-124 0 -192 70.5t-68 172.5q0 92 56.5 159.5t162.5 67.5q98 0 156 -65q-5 83 -41 132l-49 -51l-56 53l46 47q-43 20 -100 20zM286 349q-99 0 -99 -116t96 -116q60 0 87.5 44.5
t33.5 130.5q-51 57 -118 57z" />
    <glyph glyph-name="ntilde" unicode="&#xf1;" horiz-adv-x="575" 
d="M17 500h201v-67q44 77 141 77q72 0 110.5 -44.5t38.5 -126.5v-216h57v-123h-251v123h48v185q0 40 -12.5 58t-46.5 18q-38 0 -61 -26.5t-24 -76.5v-158h49v-123h-250v123h56v254h-56v123zM217 689q38 0 82 -27.5t57 -27.5q15 0 23.5 8t11.5 31l63 -10q-12 -120 -95 -120
q-33 0 -79 29t-67 29q-35 0 -36 -45l-60 14q2 55 27 87t73 32z" />
    <glyph glyph-name="ograve" unicode="&#xf2;" horiz-adv-x="535" 
d="M268 386q-91 0 -91 -135q0 -136 91 -136q89 0 89 136q0 135 -89 135zM268 510q107 0 171 -68t64 -191q0 -124 -64 -192.5t-171 -68.5t-171.5 68.5t-64.5 192.5q0 123 64.5 191t171.5 68zM125 692l150 16l103 -174h-99z" />
    <glyph glyph-name="oacute" unicode="&#xf3;" horiz-adv-x="535" 
d="M268 386q-91 0 -91 -135q0 -136 91 -136q89 0 89 136q0 135 -89 135zM268 510q107 0 171 -68t64 -191q0 -124 -64 -192.5t-171 -68.5t-171.5 68.5t-64.5 192.5q0 123 64.5 191t171.5 68zM272 708l151 -16l-154 -158h-100z" />
    <glyph glyph-name="ocircumflex" unicode="&#xf4;" horiz-adv-x="535" 
d="M268 386q-91 0 -91 -135q0 -136 91 -136q89 0 89 136q0 135 -89 135zM268 510q107 0 171 -68t64 -191q0 -124 -64 -192.5t-171 -68.5t-171.5 68.5t-64.5 192.5q0 123 64.5 191t171.5 68zM201 695h132l121 -150l-101 -17l-85 82l-86 -82l-102 17z" />
    <glyph glyph-name="otilde" unicode="&#xf5;" horiz-adv-x="535" 
d="M268 386q-91 0 -91 -135q0 -136 91 -136q89 0 89 136q0 135 -89 135zM268 510q107 0 171 -68t64 -191q0 -124 -64 -192.5t-171 -68.5t-171.5 68.5t-64.5 192.5q0 123 64.5 191t171.5 68zM198 689q38 0 82 -27.5t57 -27.5q15 0 23.5 8t11.5 31l63 -10q-12 -120 -95 -120
q-33 0 -79 29t-67 29q-35 0 -36 -45l-60 14q2 55 27 87t73 32z" />
    <glyph glyph-name="odieresis" unicode="&#xf6;" horiz-adv-x="535" 
d="M268 386q-91 0 -91 -135q0 -136 91 -136q89 0 89 136q0 135 -89 135zM268 510q107 0 171 -68t64 -191q0 -124 -64 -192.5t-171 -68.5t-171.5 68.5t-64.5 192.5q0 123 64.5 191t171.5 68zM221 561h-106v109h106v-109zM419 561h-107v109h107v-109z" />
    <glyph glyph-name="divide" unicode="&#xf7;" 
d="M563 261h-512v121h512v-121zM230 627h153v-150h-153v150zM230 183h153v-150h-153v150z" />
    <glyph glyph-name="oslash" unicode="&#xf8;" horiz-adv-x="534" 
d="M394 500h109l-51 -71q51 -66 51 -178q0 -125 -62.5 -193t-172.5 -68q-63 0 -116 24l-10 -14h-110l51 71q-51 66 -51 180q0 124 62 191.5t174 67.5q63 0 115 -25zM268 384q-94 0 -94 -133q0 -30 4 -50l127 176q-19 7 -37 7zM360 251q0 27 -4 46l-125 -174q17 -6 37 -6
q92 0 92 134z" />
    <glyph glyph-name="ugrave" unicode="&#xf9;" horiz-adv-x="575" 
d="M10 500h203v-308q0 -40 12.5 -58t46.5 -18q80 0 85 102v159h-57v123h202v-377h57v-123h-202v67q-44 -77 -140 -77q-72 0 -111 45t-39 126v216h-57v123zM112 692l150 16l103 -174h-99z" />
    <glyph glyph-name="uacute" unicode="&#xfa;" horiz-adv-x="575" 
d="M10 500h203v-308q0 -40 12.5 -58t46.5 -18q80 0 85 102v159h-57v123h202v-377h57v-123h-202v67q-44 -77 -140 -77q-72 0 -111 45t-39 126v216h-57v123zM296 708l151 -16l-154 -158h-100z" />
    <glyph glyph-name="ucircumflex" unicode="&#xfb;" horiz-adv-x="575" 
d="M10 500h203v-308q0 -40 12.5 -58t46.5 -18q80 0 85 102v159h-57v123h202v-377h57v-123h-202v67q-44 -77 -140 -77q-72 0 -111 45t-39 126v216h-57v123zM210 695h132l121 -150l-101 -17l-85 82l-86 -82l-102 17z" />
    <glyph glyph-name="udieresis" unicode="&#xfc;" horiz-adv-x="575" 
d="M10 500h203v-308q0 -40 12.5 -58t46.5 -18q80 0 85 102v159h-57v123h202v-377h57v-123h-202v67q-44 -77 -140 -77q-72 0 -111 45t-39 126v216h-57v123zM229 561h-106v109h106v-109zM427 561h-107v109h107v-109z" />
    <glyph glyph-name="yacute" unicode="&#xfd;" horiz-adv-x="534" 
d="M4 500h240v-123h-42l54 -198q8 -28 14 -90q5 57 15 90l55 198h-42v123h232v-123h-49l-129 -397q-17 -55 -39.5 -92t-46 -58.5t-59 -32t-66.5 -13.5t-82 -3v128q52 0 77.5 9t34.5 33l8 22l-128 404h-47v123zM293 708l151 -16l-154 -158h-100z" />
    <glyph glyph-name="thorn" unicode="&#xfe;" horiz-adv-x="593" 
d="M319 387q-101 0 -101 -139q0 -61 25 -98t76 -37q90 0 90 137t-90 137zM17 700h201v-283q46 93 141 93q90 0 145 -71.5t55 -188.5t-55 -188.5t-145 -71.5q-96 0 -141 93v-171h57v-123h-258v123h56v665h-56v123z" />
    <glyph glyph-name="ydieresis" unicode="&#xff;" horiz-adv-x="534" 
d="M4 500h240v-123h-42l54 -198q8 -29 14 -88q5 54 15 88l55 198h-42v123h232v-123h-49l-129 -397q-17 -55 -39.5 -92t-46 -58.5t-59 -32t-66.5 -13.5t-82 -3v128q52 0 77.5 9t34.5 33l8 22l-128 404h-47v123zM421 561h-107v109h107v-109zM223 561h-106v109h106v-109z" />
    <glyph glyph-name="Amacron" unicode="&#x100;" horiz-adv-x="687" 
d="M119 700h453v-123h-76l152 -454h66v-123h-307v123h69l-24 78h-222l-26 -78h78v-123h-307v123h67l153 454h-76v123zM341 593q-9 -48 -20 -88l-56 -184h150l-55 185q-9 29 -19 87zM480 740h-272v84h272v-84z" />
    <glyph glyph-name="amacron" unicode="&#x101;" horiz-adv-x="540" 
d="M59 500q99 10 201 10q113 0 161 -42t48 -124v-180q0 -51 57 -41v-123q-158 -21 -183 84q-41 -92 -166 -92q-70 0 -110 39t-40 104q0 88 59.5 132t193.5 44q30 0 44 -1v34q0 53 -74 53q-35 0 -60 -4v-56h-131v163zM284 219q-109 0 -109 -62q0 -47 50 -47q45 0 72 24t27 63
v20q-24 2 -40 2zM398 557h-272v93h272v-93z" />
    <glyph glyph-name="Abreve" unicode="&#x102;" horiz-adv-x="687" 
d="M119 700h453v-123h-76l152 -454h66v-123h-307v123h69l-24 78h-222l-26 -78h78v-123h-307v123h67l153 454h-76v123zM341 593q-9 -48 -20 -88l-56 -184h150l-55 185q-9 29 -19 87zM204 854l75 9q1 -57 67 -57t66 57l76 -9q-1 -59 -41 -93t-101 -34q-62 0 -102 34t-40 93z
" />
    <glyph glyph-name="abreve" unicode="&#x103;" horiz-adv-x="540" 
d="M59 500q99 10 201 10q113 0 161 -42t48 -124v-180q0 -51 57 -41v-123q-158 -21 -183 84q-41 -92 -166 -92q-70 0 -110 39t-40 104q0 88 59.5 132t193.5 44q30 0 44 -1v34q0 53 -74 53q-35 0 -60 -4v-56h-131v163zM284 219q-109 0 -109 -62q0 -47 50 -47q45 0 72 24t27 63
v20q-24 2 -40 2zM110 683l88 10q2 -66 64 -66t62 66l89 -10q0 -65 -44.5 -103.5t-106.5 -38.5q-63 0 -107.5 38.5t-44.5 103.5z" />
    <glyph glyph-name="Aogonek" unicode="&#x104;" horiz-adv-x="687" 
d="M572 0h-165v123h69l-24 78h-222l-26 -78h78v-123h-307v123h67l153 454h-76v123h453v-123h-76l152 -454h66v-123h-66q-22 -16 -35.5 -40.5t-13.5 -45.5q0 -41 45 -41q7 0 21 2v-89q-21 -6 -47 -6q-59 0 -93.5 28.5t-34.5 71.5q0 71 82 120zM341 593q-9 -48 -20 -88
l-56 -184h150l-55 185q-9 29 -19 87z" />
    <glyph glyph-name="aogonek" unicode="&#x105;" horiz-adv-x="540" 
d="M431 0q-72 14 -88 84q-41 -92 -166 -92q-70 0 -110 39t-40 104q0 88 59.5 132t193.5 44q30 0 44 -1v34q0 53 -74 53q-35 0 -60 -4v-56h-131v163q99 10 201 10q113 0 161 -42t48 -124v-180q0 -51 57 -41v-123q-16 -2 -22 -2q-21 -16 -33.5 -39.5t-12.5 -44.5q0 -41 45 -41
q7 0 21 2v-89q-21 -6 -47 -6q-59 0 -93.5 28.5t-34.5 71.5q0 71 82 120zM284 219q-109 0 -109 -62q0 -47 50 -47q45 0 72 24t27 63v20q-24 2 -40 2z" />
    <glyph glyph-name="Cacute" unicode="&#x106;" horiz-adv-x="699" 
d="M384 710q126 0 264 -30v-208h-158v89q-55 10 -112 10q-87 0 -129 -58.5t-42 -162.5q0 -103 43 -161.5t129 -58.5q64 0 111 10v88h158v-208q-146 -30 -269 -30q-154 0 -248 102t-94 258q0 159 92 259.5t255 100.5zM413 880l135 -15l-162 -142h-92z" />
    <glyph glyph-name="cacute" unicode="&#x107;" horiz-adv-x="508" 
d="M274 510q112 0 205 -11v-185h-139v68q-36 7 -68 7q-96 0 -96 -137q0 -139 93 -139q74 0 80 78h144q-5 -88 -66.5 -144.5t-152.5 -56.5q-115 0 -178.5 70t-63.5 190q0 132 64.5 196t177.5 64zM283 708l151 -16l-154 -158h-100z" />
    <glyph glyph-name="Ccircumflex" unicode="&#x108;" horiz-adv-x="699" 
d="M384 710q126 0 264 -30v-208h-158v89q-55 10 -112 10q-87 0 -129 -58.5t-42 -162.5q0 -103 43 -161.5t129 -58.5q64 0 111 10v88h158v-208q-146 -30 -269 -30q-154 0 -248 102t-94 258q0 159 92 259.5t255 100.5zM576 738l-94 -15l-93 73l-93 -73l-94 15l129 142h117z
" />
    <glyph glyph-name="ccircumflex" unicode="&#x109;" horiz-adv-x="508" 
d="M274 510q112 0 205 -11v-185h-139v68q-36 7 -68 7q-96 0 -96 -137q0 -139 93 -139q74 0 80 78h144q-5 -88 -66.5 -144.5t-152.5 -56.5q-115 0 -178.5 70t-63.5 190q0 132 64.5 196t177.5 64zM216 695h132l121 -150l-101 -17l-85 82l-86 -82l-102 17z" />
    <glyph glyph-name="Cdotaccent" unicode="&#x10a;" horiz-adv-x="699" 
d="M384 710q126 0 264 -30v-208h-158v89q-55 10 -112 10q-87 0 -129 -58.5t-42 -162.5q0 -103 43 -161.5t129 -58.5q64 0 111 10v88h158v-208q-146 -30 -269 -30q-154 0 -248 102t-94 258q0 159 92 259.5t255 100.5zM461 744h-138v113h138v-113z" />
    <glyph glyph-name="cdotaccent" unicode="&#x10b;" horiz-adv-x="508" 
d="M274 510q112 0 205 -11v-185h-139v68q-36 7 -68 7q-96 0 -96 -137q0 -139 93 -139q74 0 80 78h144q-5 -88 -66.5 -144.5t-152.5 -56.5q-115 0 -178.5 70t-63.5 190q0 132 64.5 196t177.5 64zM348 561h-139v125h139v-125z" />
    <glyph glyph-name="Ccaron" unicode="&#x10c;" horiz-adv-x="699" 
d="M384 710q126 0 264 -30v-208h-158v89q-55 10 -112 10q-87 0 -129 -58.5t-42 -162.5q0 -103 43 -161.5t129 -58.5q64 0 111 10v88h158v-208q-146 -30 -269 -30q-154 0 -248 102t-94 258q0 159 92 259.5t255 100.5zM200 865l94 15l93 -72l93 72l94 -15l-128 -142h-117z" />
    <glyph glyph-name="ccaron" unicode="&#x10d;" horiz-adv-x="508" 
d="M274 510q112 0 205 -11v-185h-139v68q-36 7 -68 7q-96 0 -96 -137q0 -139 93 -139q74 0 80 78h144q-5 -88 -66.5 -144.5t-152.5 -56.5q-115 0 -178.5 70t-63.5 190q0 132 64.5 196t177.5 64zM93 684l102 17l85 -82l86 82l101 -17l-121 -150h-132z" />
    <glyph glyph-name="Dcaron" unicode="&#x10e;" horiz-adv-x="749" 
d="M259 577v-454h117q86 0 127 53.5t41 173.5q0 119 -43 173t-130 54h-112zM24 700h375q142 0 228 -93t86 -256q0 -162 -83.5 -256.5t-222.5 -94.5h-383v123h77v454h-77v123zM156 865l94 15l93 -72l93 72l94 -15l-128 -142h-117z" />
    <glyph glyph-name="dcaron" unicode="&#x10f;" horiz-adv-x="591" 
d="M275 387q-93 0 -93 -137t93 -137q50 0 74 37t24 98q0 139 -98 139zM316 700h202v-577h56v-123h-201v83q-47 -93 -136 -93q-91 0 -148 72t-57 188t57 188t148 72q90 0 136 -93v160h-57v123zM555 700h125l-54 -159h-71v159z" />
    <glyph glyph-name="Dcroat" unicode="&#x110;" horiz-adv-x="749" 
d="M24 700h375q142 0 228 -93t86 -256q0 -162 -83.5 -256.5t-222.5 -94.5h-383v123h77v188h-51v93h51v173h-77v123zM322 311h-63v-188h117q86 0 127 53.5t41 173.5q0 119 -43 173t-130 54h-112v-173h63v-93z" />
    <glyph glyph-name="dcroat" unicode="&#x111;" horiz-adv-x="591" 
d="M316 700h202v-80h48v-84h-48v-413h56v-123h-201v83q-47 -93 -136 -93q-91 0 -148 72t-57 188t57 188t148 72q90 0 136 -93v119h-92v84h35v80zM275 387q-93 0 -93 -137t93 -137q50 0 74 37t24 98q0 139 -98 139z" />
    <glyph glyph-name="Emacron" unicode="&#x112;" horiz-adv-x="647" 
d="M24 700h577v-197h-158v74h-184v-154h245v-122h-245v-178h191v82h159v-205h-585v123h77v454h-77v123zM473 740h-272v84h272v-84z" />
    <glyph glyph-name="emacron" unicode="&#x113;" horiz-adv-x="531" 
d="M276 510q79 0 134 -43t77 -109t15 -144h-321q4 -55 25 -79t65 -24q63 0 76 60h150q-14 -83 -76 -132t-149 -49q-111 0 -175.5 70.5t-64.5 190.5q0 118 65 188.5t179 70.5zM410 557h-272v93h272v-93zM270 398q-38 0 -58.5 -20.5t-27.5 -65.5h166q-2 40 -22.5 63t-57.5 23z
" />
    <glyph glyph-name="Ebreve" unicode="&#x114;" horiz-adv-x="647" 
d="M24 700h577v-197h-158v74h-184v-154h245v-122h-245v-178h191v82h159v-205h-585v123h77v454h-77v123zM200 854l75 9q1 -57 67 -57t66 57l76 -9q-1 -59 -41 -93t-101 -34q-62 0 -102 34t-40 93z" />
    <glyph glyph-name="ebreve" unicode="&#x115;" horiz-adv-x="531" 
d="M276 510q79 0 134 -43t77 -109t15 -144h-321q4 -55 25 -79t65 -24q63 0 76 60h150q-14 -83 -76 -132t-149 -49q-111 0 -175.5 70.5t-64.5 190.5q0 118 65 188.5t179 70.5zM123 683l88 10q2 -66 64 -66t62 66l89 -10q0 -65 -44.5 -103.5t-106.5 -38.5q-63 0 -107.5 38.5
t-44.5 103.5zM270 398q-38 0 -58.5 -20.5t-27.5 -65.5h166q-2 40 -22.5 63t-57.5 23z" />
    <glyph glyph-name="Edotaccent" unicode="&#x116;" horiz-adv-x="647" 
d="M24 700h577v-197h-158v74h-184v-154h245v-122h-245v-178h191v82h159v-205h-585v123h77v454h-77v123zM410 744h-138v113h138v-113z" />
    <glyph glyph-name="edotaccent" unicode="&#x117;" horiz-adv-x="531" 
d="M276 510q79 0 134 -43t77 -109t15 -144h-321q4 -55 25 -79t65 -24q63 0 76 60h150q-14 -83 -76 -132t-149 -49q-111 0 -175.5 70.5t-64.5 190.5q0 118 65 188.5t179 70.5zM341 561h-139v125h139v-125zM270 398q-38 0 -58.5 -20.5t-27.5 -65.5h166q-2 40 -22.5 63
t-57.5 23z" />
    <glyph glyph-name="Eogonek" unicode="&#x118;" horiz-adv-x="647" 
d="M476 0h-452v123h77v454h-77v123h577v-197h-158v74h-184v-154h245v-122h-245v-178h191v82h159v-205h-57q-22 -16 -35.5 -40.5t-13.5 -45.5q0 -41 45 -41q7 0 21 2v-89q-21 -6 -47 -6q-59 0 -93.5 28.5t-34.5 71.5q0 71 82 120z" />
    <glyph glyph-name="eogonek" unicode="&#x119;" horiz-adv-x="531" 
d="M276 510q79 0 134 -43t77 -109t15 -144h-321q4 -55 25 -79t65 -24q63 0 76 60h150q-11 -66 -53.5 -111t-104.5 -61q-47 -36 -47 -85q0 -41 45 -41q7 0 21 2v-89q-21 -6 -47 -6q-59 0 -93.5 28.5t-34.5 71.5q0 64 67 111q-101 7 -159.5 76.5t-58.5 183.5q0 118 65 188.5
t179 70.5zM270 398q-38 0 -58.5 -20.5t-27.5 -65.5h166q-2 40 -22.5 63t-57.5 23z" />
    <glyph glyph-name="Ecaron" unicode="&#x11a;" horiz-adv-x="647" 
d="M24 700h577v-197h-158v74h-184v-154h245v-122h-245v-178h191v82h159v-205h-585v123h77v454h-77v123zM159 865l94 15l93 -72l93 72l94 -15l-128 -142h-117z" />
    <glyph glyph-name="ecaron" unicode="&#x11b;" horiz-adv-x="531" 
d="M276 510q79 0 134 -43t77 -109t15 -144h-321q4 -55 25 -79t65 -24q63 0 76 60h150q-14 -83 -76 -132t-149 -49q-111 0 -175.5 70.5t-64.5 190.5q0 118 65 188.5t179 70.5zM86 684l102 17l85 -82l86 82l101 -17l-121 -150h-132zM270 398q-38 0 -58.5 -20.5t-27.5 -65.5
h166q-2 40 -22.5 63t-57.5 23z" />
    <glyph glyph-name="Gcircumflex" unicode="&#x11c;" horiz-adv-x="756" 
d="M383 710q118 0 269 -32v-208h-158v88q-48 11 -118 11q-86 0 -127.5 -58t-41.5 -161q0 -223 166 -223q69 0 108 38.5t40 107.5h-161v119h318v-392h-148v116q-24 -61 -68.5 -93.5t-126.5 -32.5q-55 0 -106.5 22.5t-95 65t-70 113.5t-26.5 159q0 158 93 259t253 101z
M575 738l-94 -15l-93 73l-93 -73l-94 15l129 142h117z" />
    <glyph glyph-name="gcircumflex" unicode="&#x11d;" horiz-adv-x="556" 
d="M537 642v-124q-53 0 -74.5 -13.5t-22.5 -48.5q58 -52 58 -134q0 -78 -59 -126.5t-168 -48.5q-37 0 -72 9q-16 -13 -16 -31q0 -17 10.5 -23t33.5 -6h148q88 0 126 -36.5t38 -104.5q0 -176 -263 -176q-237 0 -237 123q0 35 21.5 63.5t54.5 43.5q-33 11 -49 29t-16 51
q0 30 19.5 59.5t49.5 43.5q-68 50 -68 135q0 83 58 133t166 50q37 0 72 -8q1 29 14 56l-74 -15l-76 83l-76 -83l-91 18l108 152h117l100 -141q46 70 168 70zM275 404q-74 0 -74 -80q0 -33 18.5 -54t55.5 -21q77 0 77 75q0 80 -77 80zM209 -3q-24 -19 -24 -49t22 -44.5
t73 -14.5q106 0 106 65q0 42 -60 42h-92q-4 0 -12.5 0.5t-12.5 0.5z" />
    <glyph glyph-name="Gbreve" unicode="&#x11e;" horiz-adv-x="756" 
d="M383 710q118 0 269 -32v-208h-158v88q-48 11 -118 11q-86 0 -127.5 -58t-41.5 -161q0 -223 166 -223q69 0 108 38.5t40 107.5h-161v119h318v-392h-148v116q-24 -61 -68.5 -93.5t-126.5 -32.5q-55 0 -106.5 22.5t-95 65t-70 113.5t-26.5 159q0 158 93 259t253 101z
M242 854l75 9q1 -57 67 -57t66 57l76 -9q-1 -59 -41 -93t-101 -34q-62 0 -102 34t-40 93z" />
    <glyph glyph-name="gbreve" unicode="&#x11f;" horiz-adv-x="556" 
d="M537 642v-124q-53 0 -74.5 -13.5t-22.5 -48.5q58 -52 58 -134q0 -78 -59 -126.5t-168 -48.5q-37 0 -72 9q-16 -13 -16 -31q0 -17 10.5 -23t33.5 -6h148q88 0 126 -36.5t38 -104.5q0 -176 -263 -176q-237 0 -237 123q0 35 21.5 63.5t54.5 43.5q-33 11 -49 29t-16 51
q0 30 19.5 59.5t49.5 43.5q-68 50 -68 135q0 83 58 133t166 50q37 0 72 -8q4 64 51.5 102t138.5 38zM88 683l88 10q2 -66 64 -66t62 66l89 -10q0 -65 -44.5 -103.5t-106.5 -38.5q-63 0 -107.5 38.5t-44.5 103.5zM275 404q-74 0 -74 -80q0 -33 18.5 -54t55.5 -21q77 0 77 75
q0 80 -77 80zM209 -3q-24 -19 -24 -49t22 -44.5t73 -14.5q106 0 106 65q0 42 -60 42h-92q-4 0 -12.5 0.5t-12.5 0.5z" />
    <glyph glyph-name="Gdotaccent" unicode="&#x120;" horiz-adv-x="756" 
d="M383 710q118 0 269 -32v-208h-158v88q-48 11 -118 11q-86 0 -127.5 -58t-41.5 -161q0 -223 166 -223q69 0 108 38.5t40 107.5h-161v119h318v-392h-148v116q-24 -61 -68.5 -93.5t-126.5 -32.5q-55 0 -106.5 22.5t-95 65t-70 113.5t-26.5 159q0 158 93 259t253 101z
M454 744h-138v113h138v-113z" />
    <glyph glyph-name="gdotaccent" unicode="&#x121;" horiz-adv-x="556" 
d="M537 642v-124q-53 0 -74.5 -13.5t-22.5 -48.5q58 -52 58 -134q0 -78 -59 -126.5t-168 -48.5q-37 0 -72 9q-16 -13 -16 -31q0 -17 10.5 -23t33.5 -6h148q88 0 126 -36.5t38 -104.5q0 -176 -263 -176q-237 0 -237 123q0 35 21.5 63.5t54.5 43.5q-33 11 -49 29t-16 51
q0 30 19.5 59.5t49.5 43.5q-68 50 -68 135q0 83 58 133t166 50q37 0 72 -8q4 64 51.5 102t138.5 38zM275 404q-74 0 -74 -80q0 -33 18.5 -54t55.5 -21q77 0 77 75q0 80 -77 80zM209 -3q-24 -19 -24 -49t22 -44.5t73 -14.5q106 0 106 65q0 42 -60 42h-92q-4 0 -12.5 0.5
t-12.5 0.5zM326 561h-139v125h139v-125z" />
    <glyph glyph-name="Gcommaaccent" unicode="&#x122;" horiz-adv-x="756" 
d="M383 710q118 0 269 -32v-208h-158v88q-48 11 -118 11q-86 0 -127.5 -58t-41.5 -161q0 -223 166 -223q69 0 108 38.5t40 107.5h-161v119h318v-392h-148v116q-24 -61 -68.5 -93.5t-126.5 -32.5q-55 0 -106.5 22.5t-95 65t-70 113.5t-26.5 159q0 158 93 259t253 101z
M324 -38h124v-68q0 -96 -119 -148l-18 49q65 20 65 75h-52v92z" />
    <glyph glyph-name="gcommaaccent" unicode="&#x123;" horiz-adv-x="556" 
d="M537 642v-124q-53 0 -74.5 -13.5t-22.5 -48.5q58 -52 58 -134q0 -78 -59 -126.5t-168 -48.5q-37 0 -72 9q-16 -13 -16 -31q0 -17 10.5 -23t33.5 -6h148q88 0 126 -36.5t38 -104.5q0 -176 -263 -176q-237 0 -237 123q0 35 21.5 63.5t54.5 43.5q-33 11 -49 29t-16 51
q0 30 19.5 59.5t49.5 43.5q-68 50 -68 135q0 83 58 133t166 50q37 0 72 -8q4 64 51.5 102t138.5 38zM310 767l27 -39q-79 -28 -79 -86h50v-97h-132v97q0 42 39.5 75.5t94.5 49.5zM275 404q-74 0 -74 -80q0 -33 18.5 -54t55.5 -21q77 0 77 75q0 80 -77 80zM209 -3
q-24 -19 -24 -49t22 -44.5t73 -14.5q106 0 106 65q0 42 -60 42h-92q-4 0 -12.5 0.5t-12.5 0.5z" />
    <glyph glyph-name="Hcircumflex" unicode="&#x124;" horiz-adv-x="761" 
d="M24 700h312v-123h-77v-154h243v154h-77v123h312v-123h-77v-454h77v-123h-312v123h77v177h-243v-177h77v-123h-312v123h77v454h-77v123zM567 738l-94 -15l-93 73l-93 -73l-94 15l129 142h117z" />
    <glyph glyph-name="hcircumflex" unicode="&#x125;" horiz-adv-x="575" 
d="M17 700h201v-267q44 77 140 77q72 0 111 -45t39 -126v-216h57v-123h-251v123h48v185q0 40 -13 58t-47 18q-39 0 -61.5 -26.5t-22.5 -76.5v-158h49v-123h-250v123h56v454h-56v123zM421 738l-94 -15l-93 73l-93 -73l-94 15l129 142h117z" />
    <glyph glyph-name="Hbar" unicode="&#x126;" horiz-adv-x="761" 
d="M24 700h312v-123h-77v-46h243v46h-77v123h312v-123h-77v-46h67v-50h-67v-358h77v-123h-312v123h77v177h-243v-177h77v-123h-312v123h77v358h-64v50h64v46h-77v123zM259 423h243v58h-243v-58z" />
    <glyph glyph-name="hbar" unicode="&#x127;" horiz-adv-x="581" 
d="M17 700h201v-127h83v-45h-83v-95q44 77 140 77q72 0 111 -45t39 -126v-216h57v-123h-251v123h48v185q0 40 -13 58t-47 18q-39 0 -61.5 -26.5t-22.5 -76.5v-158h49v-123h-250v123h56v405h-57v45h57v25h-56v102z" />
    <glyph glyph-name="Itilde" unicode="&#x128;" horiz-adv-x="360" 
d="M24 700h312v-123h-77v-454h77v-123h-312v123h77v454h-77v123zM112 860q38 0 82 -25t57 -25q30 0 35 37l63 -10q-11 -109 -95 -109q-33 0 -79 27t-67 27q-35 0 -36 -42l-60 13q2 50 27 78.5t73 28.5z" />
    <glyph glyph-name="itilde" unicode="&#x129;" horiz-adv-x="284" 
d="M66 689q38 0 82 -27.5t57 -27.5q15 0 23.5 8t11.5 31l63 -10q-12 -120 -95 -120q-33 0 -79 29t-67 29q-35 0 -36 -45l-60 14q2 55 27 87t73 32zM17 500h194v-377h56v-123h-250v123h56v254h-56v123z" />
    <glyph glyph-name="Imacron" unicode="&#x12a;" horiz-adv-x="360" 
d="M24 700h312v-123h-77v-454h77v-123h-312v123h77v454h-77v123zM316 740h-272v84h272v-84z" />
    <glyph glyph-name="imacron" unicode="&#x12b;" horiz-adv-x="284" 
d="M271 557h-272v93h272v-93zM17 500h194v-377h56v-123h-250v123h56v254h-56v123z" />
    <glyph glyph-name="Ibreve" unicode="&#x12c;" horiz-adv-x="360" 
d="M24 700h312v-123h-77v-454h77v-123h-312v123h77v454h-77v123zM38 854l75 9q1 -57 67 -57t66 57l76 -9q-1 -59 -41 -93t-101 -34q-62 0 -102 34t-40 93z" />
    <glyph glyph-name="ibreve" unicode="&#x12d;" horiz-adv-x="284" 
d="M-14 683l88 10q2 -66 64 -66t62 66l89 -10q0 -65 -44.5 -103.5t-106.5 -38.5q-63 0 -107.5 38.5t-44.5 103.5zM17 500h194v-377h56v-123h-250v123h56v254h-56v123z" />
    <glyph glyph-name="Iogonek" unicode="&#x12e;" horiz-adv-x="360" 
d="M166 0h-142v123h77v454h-77v123h312v-123h-77v-454h77v-123h-94q-22 -16 -35.5 -40.5t-13.5 -45.5q0 -41 45 -41q7 0 21 2v-89q-21 -6 -47 -6q-59 0 -93.5 28.5t-34.5 71.5q0 71 82 120z" />
    <glyph glyph-name="iogonek" unicode="&#x12f;" horiz-adv-x="292" 
d="M125 0h-108v123h56v254h-56v123h201v-377h57v-123h-74q-22 -16 -35.5 -40.5t-13.5 -45.5q0 -41 45 -41q7 0 21 2v-89q-21 -6 -47 -6q-59 0 -93.5 28.5t-34.5 71.5q0 71 82 120zM73 686h146v-125h-146v125z" />
    <glyph glyph-name="Idotaccent" unicode="&#x130;" horiz-adv-x="360" 
d="M24 700h312v-123h-77v-454h77v-123h-312v123h77v454h-77v123zM249 744h-138v113h138v-113z" />
    <glyph glyph-name="dotlessi" unicode="&#x131;" horiz-adv-x="284" 
d="M17 500h194v-377h56v-123h-250v123h56v254h-56v123z" />
    <glyph glyph-name="IJ" unicode="&#x132;" horiz-adv-x="949" 
d="M24 700h312v-123h-77v-454h77v-123h-312v123h77v454h-77v123zM630 700h311v-123h-77v-352q0 -109 -73 -172t-196 -63q-105 0 -176 63.5t-73 155.5h163q4 -84 92 -84q57 0 81 22.5t24 74.5v355h-76v123z" />
    <glyph glyph-name="ij" unicode="&#x133;" horiz-adv-x="554" 
d="M73 686h146v-125h-146v125zM17 500h201v-377h57v-123h-258v123h56v254h-56v123zM289 500h202v-520q0 -94 -68.5 -146.5t-155.5 -52.5v122q41 0 60 17t19 69v388h-57v123zM345 686h146v-125h-146v125z" />
    <glyph glyph-name="Jcircumflex" unicode="&#x134;" horiz-adv-x="594" 
d="M275 700h311v-123h-77v-352q0 -109 -73 -172t-196 -63q-105 0 -176 63.5t-73 155.5h163q4 -84 92 -84q57 0 81 22.5t24 74.5v355h-76v123zM611 738l-94 -15l-93 73l-93 -73l-94 15l129 142h117z" />
    <glyph glyph-name="jcircumflex" unicode="&#x135;" horiz-adv-x="284" 
d="M18 500h194v-520q0 -95 -65 -147t-151 -52v114q40 0 59.5 20.5t19.5 73.5v388h-57v123zM65 695h132l121 -150l-101 -17l-85 82l-86 -82l-102 17z" />
    <glyph glyph-name="Kcommaaccent" unicode="&#x136;" horiz-adv-x="717" 
d="M24 700h312v-123h-77v-454h77v-123h-312v123h77v454h-77v123zM381 700h314v-123h-66l-184 -213l197 -241h66v-123h-321v123h71l-195 232l184 222h-66v123zM298 -38h124v-68q0 -96 -119 -148l-18 49q65 20 65 75h-52v92z" />
    <glyph glyph-name="kcommaaccent" unicode="&#x137;" horiz-adv-x="554" 
d="M17 700h201v-577h57v-123h-258v123h56v454h-56v123zM281 500h262v-123h-50l-112 -117l109 -137h52v-123h-142l-181 247l116 130h-54v123zM238 -38h124v-68q0 -96 -119 -148l-18 49q65 20 65 75h-52v92z" />
    <glyph glyph-name="Lacute" unicode="&#x139;" horiz-adv-x="609" 
d="M24 700h317v-123h-82v-454h179v102h158v-225h-572v123h77v454h-77v123zM243 880l135 -15l-162 -142h-92z" />
    <glyph glyph-name="lacute" unicode="&#x13a;" horiz-adv-x="292" 
d="M17 700h201v-577h57v-123h-258v123h56v454h-56v123zM179 880l135 -15l-162 -142h-92z" />
    <glyph glyph-name="Lcommaaccent" unicode="&#x13b;" horiz-adv-x="609" 
d="M24 700h317v-123h-82v-454h179v102h158v-225h-572v123h77v454h-77v123zM256 -38h124v-68q0 -96 -119 -148l-18 49q65 20 65 75h-52v92z" />
    <glyph glyph-name="lcommaaccent" unicode="&#x13c;" horiz-adv-x="292" 
d="M17 700h201v-577h57v-123h-258v123h56v454h-56v123zM78 -38h124v-68q0 -96 -119 -148l-18 49q65 20 65 75h-52v92z" />
    <glyph glyph-name="Lcaron" unicode="&#x13d;" horiz-adv-x="609" 
d="M24 700h317v-123h-82v-454h179v102h158v-225h-572v123h77v454h-77v123zM375 700h125l-54 -159h-71v159z" />
    <glyph glyph-name="lcaron" unicode="&#x13e;" horiz-adv-x="292" 
d="M17 700h201v-577h57v-123h-258v123h56v454h-56v123zM250 700h125l-54 -159h-71v159z" />
    <glyph glyph-name="Lslash" unicode="&#x141;" horiz-adv-x="609" 
d="M24 700h317v-123h-82v-126l110 83l56 -76l-166 -124v-211h179v102h158v-225h-572v123h77v93l-44 -33l-55 76l99 74v244h-77v123z" />
    <glyph glyph-name="lslash" unicode="&#x142;" horiz-adv-x="292" 
d="M17 700h201v-111l27 27l57 -57l-84 -84v-352h57v-123h-258v123h56v207l-35 -35l-57 56l92 92v134h-56v123z" />
    <glyph glyph-name="Nacute" unicode="&#x143;" horiz-adv-x="759" 
d="M24 700h283l183 -406q1 -2 26 -77q-4 44 -4 79v281h-63v123h293v-123h-76v-577h-194l-202 456q-4 8 -8 21t-8 28t-6 21q3 -60 3 -72v-331h77v-123h-304v123h77v454h-77v123zM424 880l135 -15l-162 -142h-92z" />
    <glyph glyph-name="nacute" unicode="&#x144;" horiz-adv-x="575" 
d="M17 500h201v-67q44 77 141 77q72 0 110.5 -44.5t38.5 -126.5v-216h57v-123h-251v123h48v185q0 40 -12.5 58t-46.5 18q-38 0 -61 -26.5t-24 -76.5v-158h49v-123h-250v123h56v254h-56v123zM304 708l151 -16l-154 -158h-100z" />
    <glyph glyph-name="Ncommaaccent" unicode="&#x145;" horiz-adv-x="759" 
d="M24 700h283l183 -406q1 -2 26 -77q-4 44 -4 79v281h-63v123h293v-123h-76v-577h-194l-202 456q-4 8 -8 21t-8 28t-6 21q3 -60 3 -72v-331h77v-123h-304v123h77v454h-77v123zM330 -38h124v-68q0 -96 -119 -148l-18 49q65 20 65 75h-52v92z" />
    <glyph glyph-name="ncommaaccent" unicode="&#x146;" horiz-adv-x="575" 
d="M17 500h201v-67q44 77 141 77q72 0 110.5 -44.5t38.5 -126.5v-216h57v-123h-251v123h48v185q0 40 -12.5 58t-46.5 18q-38 0 -61 -26.5t-24 -76.5v-158h49v-123h-250v123h56v254h-56v123zM228 -38h124v-68q0 -96 -119 -148l-18 49q65 20 65 75h-52v92z" />
    <glyph glyph-name="Ncaron" unicode="&#x147;" horiz-adv-x="759" 
d="M24 700h283l183 -406q1 -2 26 -77q-4 44 -4 79v281h-63v123h293v-123h-76v-577h-194l-202 456q-4 8 -8 21t-8 28t-6 21q3 -60 3 -72v-331h77v-123h-304v123h77v454h-77v123zM194 865l94 15l93 -72l93 72l94 -15l-128 -142h-117z" />
    <glyph glyph-name="ncaron" unicode="&#x148;" horiz-adv-x="575" 
d="M17 500h201v-67q44 77 141 77q72 0 110.5 -44.5t38.5 -126.5v-216h57v-123h-251v123h48v185q0 40 -12.5 58t-46.5 18q-38 0 -61 -26.5t-24 -76.5v-158h49v-123h-250v123h56v254h-56v123zM101 684l102 17l85 -82l86 82l101 -17l-121 -150h-132z" />
    <glyph glyph-name="napostrophe" unicode="&#x149;" horiz-adv-x="575" 
d="M17 500h201v-67q44 77 141 77q72 0 110.5 -44.5t38.5 -126.5v-216h57v-123h-251v123h48v185q0 40 -12.5 58t-46.5 18q-38 0 -61 -26.5t-24 -76.5v-158h49v-123h-250v123h56v254h-56v123zM71 737h124v-68q0 -96 -119 -148l-18 49q65 20 65 75h-52v92z" />
    <glyph glyph-name="Eng" unicode="&#x14a;" horiz-adv-x="767" 
d="M24 700h285l203 -436v313h-62v123h293v-123h-77v-597q0 -95 -65 -147t-151 -52v115q77 0 77 75v29h-58l-218 492v-369h77v-123h-304v123h77v454h-77v123z" />
    <glyph glyph-name="eng" unicode="&#x14b;" horiz-adv-x="566" 
d="M17 500h201v-67q44 77 140 77q72 0 111 -45t39 -126v-342q0 -94 -68 -146.5t-155 -52.5v117q38 0 57.5 17.5t19.5 64.5v311q0 41 -12.5 58.5t-46.5 17.5q-39 0 -62 -26.5t-23 -76.5v-158h57v-123h-258v123h56v254h-56v123z" />
    <glyph glyph-name="Omacron" unicode="&#x14c;" horiz-adv-x="743" 
d="M372 571q-84 0 -124.5 -58.5t-40.5 -162.5t40.5 -162.5t124.5 -58.5q83 0 124 59t41 162t-41 162t-124 59zM372 710q152 0 243 -101.5t91 -258.5t-91 -258.5t-243 -101.5t-243.5 101.5t-91.5 258.5t91.5 258.5t243.5 101.5zM507 740h-272v84h272v-84z" />
    <glyph glyph-name="omacron" unicode="&#x14d;" horiz-adv-x="535" 
d="M268 386q-91 0 -91 -135q0 -136 91 -136q89 0 89 136q0 135 -89 135zM268 510q107 0 171 -68t64 -191q0 -124 -64 -192.5t-171 -68.5t-171.5 68.5t-64.5 192.5q0 123 64.5 191t171.5 68zM403 557h-272v93h272v-93z" />
    <glyph glyph-name="Obreve" unicode="&#x14e;" horiz-adv-x="743" 
d="M372 571q-84 0 -124.5 -58.5t-40.5 -162.5t40.5 -162.5t124.5 -58.5q83 0 124 59t41 162t-41 162t-124 59zM372 710q152 0 243 -101.5t91 -258.5t-91 -258.5t-243 -101.5t-243.5 101.5t-91.5 258.5t91.5 258.5t243.5 101.5zM230 854l75 9q1 -57 67 -57t66 57l76 -9
q-1 -59 -41 -93t-101 -34q-62 0 -102 34t-40 93z" />
    <glyph glyph-name="obreve" unicode="&#x14f;" horiz-adv-x="535" 
d="M268 386q-91 0 -91 -135q0 -136 91 -136q89 0 89 136q0 135 -89 135zM268 510q107 0 171 -68t64 -191q0 -124 -64 -192.5t-171 -68.5t-171.5 68.5t-64.5 192.5q0 123 64.5 191t171.5 68zM115 683l88 10q2 -66 64 -66t62 66l89 -10q0 -65 -44.5 -103.5t-106.5 -38.5
q-63 0 -107.5 38.5t-44.5 103.5z" />
    <glyph glyph-name="Ohungarumlaut" unicode="&#x150;" horiz-adv-x="743" 
d="M372 571q-84 0 -124.5 -58.5t-40.5 -162.5t40.5 -162.5t124.5 -58.5q83 0 124 59t41 162t-41 162t-124 59zM372 710q152 0 243 -101.5t91 -258.5t-91 -258.5t-243 -101.5t-243.5 101.5t-91.5 258.5t91.5 258.5t243.5 101.5zM306 880l114 -15l-124 -134h-78zM494 880
l114 -15l-123 -134h-78z" />
    <glyph glyph-name="ohungarumlaut" unicode="&#x151;" horiz-adv-x="535" 
d="M268 386q-91 0 -91 -135q0 -136 91 -136q89 0 89 136q0 135 -89 135zM268 510q107 0 171 -68t64 -191q0 -124 -64 -192.5t-171 -68.5t-171.5 68.5t-64.5 192.5q0 123 64.5 191t171.5 68zM213 708l114 -16l-124 -150h-78zM383 708l114 -16l-123 -150h-78z" />
    <glyph glyph-name="OE" unicode="&#x152;" horiz-adv-x="1062" 
d="M372 571q-84 0 -124.5 -58.5t-40.5 -162.5t40.5 -162.5t124.5 -58.5q83 0 124 59t41 162t-41 162t-124 59zM372 710q41 0 86 -10h565v-197h-158v74h-237q60 -59 71 -154h228v-122h-224q-9 -114 -75 -178h245v82h158v-205h-573q-45 -10 -86 -10q-152 0 -243.5 101.5
t-91.5 258.5t91.5 258.5t243.5 101.5z" />
    <glyph glyph-name="oe" unicode="&#x153;" horiz-adv-x="860" 
d="M606 510q114 0 174 -87t50 -207h-328q4 -56 27 -80.5t70 -24.5q31 0 51 15.5t26 41.5h145q-18 -84 -77 -131t-144 -47q-104 0 -168 62q-59 -62 -164 -62q-112 0 -174 68t-62 193q0 124 62 191.5t174 67.5q106 0 166 -63q66 63 172 63zM268 384q-91 0 -91 -133
q0 -134 91 -134q90 0 90 134q0 133 -90 133zM598 400q-77 0 -93 -89h177q-2 40 -23 64.5t-61 24.5z" />
    <glyph glyph-name="Racute" unicode="&#x154;" horiz-adv-x="726" 
d="M259 397h134q97 0 97 92q0 43 -22.5 65t-74.5 22h-134v-179zM24 700h414q108 0 162 -52t54 -136q0 -77 -43.5 -123t-125.5 -53q76 -8 119 -61t43 -152h67v-123h-304v123h79q0 153 -111 153h-119v-153h80v-123h-315v123h77v454h-77v123zM387 880l135 -15l-162 -142h-92z
" />
    <glyph glyph-name="racute" unicode="&#x155;" horiz-adv-x="447" 
d="M17 500h201v-84q40 94 151 94q31 0 65 -6v-198h-133v56q-10 2 -19 2q-28 0 -46 -28.5t-18 -77.5v-135h57v-123h-258v123h56v254h-56v123zM257 708l151 -16l-154 -158h-100z" />
    <glyph glyph-name="Rcommaaccent" unicode="&#x156;" horiz-adv-x="726" 
d="M259 397h134q97 0 97 92q0 43 -22.5 65t-74.5 22h-134v-179zM24 700h414q108 0 162 -52t54 -136q0 -77 -43.5 -123t-125.5 -53q76 -8 119 -61t43 -152h67v-123h-304v123h79q0 153 -111 153h-119v-153h80v-123h-315v123h77v454h-77v123zM293 -38h124v-68q0 -96 -119 -148
l-18 49q65 20 65 75h-52v92z" />
    <glyph glyph-name="rcommaaccent" unicode="&#x157;" horiz-adv-x="447" 
d="M17 500h201v-84q40 94 151 94q31 0 65 -6v-198h-133v56q-10 2 -19 2q-28 0 -46 -28.5t-18 -77.5v-135h57v-123h-258v123h56v254h-56v123zM83 -38h124v-68q0 -96 -119 -148l-18 49q65 20 65 75h-52v92z" />
    <glyph glyph-name="Rcaron" unicode="&#x158;" horiz-adv-x="726" 
d="M259 397h134q97 0 97 92q0 43 -22.5 65t-74.5 22h-134v-179zM24 700h414q108 0 162 -52t54 -136q0 -77 -43.5 -123t-125.5 -53q76 -8 119 -61t43 -152h67v-123h-304v123h79q0 153 -111 153h-119v-153h80v-123h-315v123h77v454h-77v123zM163 865l94 15l93 -72l93 72
l94 -15l-128 -142h-117z" />
    <glyph glyph-name="rcaron" unicode="&#x159;" horiz-adv-x="447" 
d="M17 500h201v-84q40 94 151 94q31 0 65 -6v-198h-133v56q-10 2 -19 2q-28 0 -46 -28.5t-18 -77.5v-135h57v-123h-258v123h56v254h-56v123zM47 684l102 17l85 -82l86 82l101 -17l-121 -150h-132z" />
    <glyph glyph-name="Sacute" unicode="&#x15a;" horiz-adv-x="667" 
d="M335 710q111 0 253 -27v-194h-158v87q-60 11 -98 11q-111 0 -111 -81q0 -39 28.5 -56t97.5 -25q136 -13 206 -63t70 -148q0 -101 -77 -162.5t-215 -61.5q-121 0 -266 29v197h158v-90q61 -13 111 -13q64 0 92.5 24t28.5 62q0 42 -30 59t-107 27q-137 16 -198.5 63
t-61.5 144q0 96 71 157t206 61zM377 880l135 -15l-162 -142h-92z" />
    <glyph glyph-name="sacute" unicode="&#x15b;" horiz-adv-x="508" 
d="M256 510q96 0 195 -12v-156h-131v55q-28 5 -58 5q-75 0 -75 -43q0 -21 20.5 -30t66.5 -15q37 -4 61.5 -8t54.5 -14.5t47.5 -26t29.5 -42.5t12 -63q0 -78 -55 -124t-171 -46q-104 0 -160.5 47.5t-58.5 123.5h137q2 -29 23.5 -45.5t62.5 -16.5q80 0 80 43q0 24 -18.5 33
t-64.5 15q-37 4 -61 8t-55 15t-49 26.5t-31 43.5t-13 65q0 69 58 115.5t153 46.5zM265 708l151 -16l-154 -158h-100z" />
    <glyph glyph-name="Scircumflex" unicode="&#x15c;" horiz-adv-x="667" 
d="M335 710q111 0 253 -27v-194h-158v87q-60 11 -98 11q-111 0 -111 -81q0 -39 28.5 -56t97.5 -25q136 -13 206 -63t70 -148q0 -101 -77 -162.5t-215 -61.5q-121 0 -266 29v197h158v-90q61 -13 111 -13q64 0 92.5 24t28.5 62q0 42 -30 59t-107 27q-137 16 -198.5 63
t-61.5 144q0 96 71 157t206 61zM535 738l-94 -15l-93 73l-93 -73l-94 15l129 142h117z" />
    <glyph glyph-name="scircumflex" unicode="&#x15d;" horiz-adv-x="508" 
d="M256 510q96 0 195 -12v-156h-131v55q-28 5 -58 5q-75 0 -75 -43q0 -21 20.5 -30t66.5 -15q37 -4 61.5 -8t54.5 -14.5t47.5 -26t29.5 -42.5t12 -63q0 -78 -55 -124t-171 -46q-104 0 -160.5 47.5t-58.5 123.5h137q2 -29 23.5 -45.5t62.5 -16.5q80 0 80 43q0 24 -18.5 33
t-64.5 15q-37 4 -61 8t-55 15t-49 26.5t-31 43.5t-13 65q0 69 58 115.5t153 46.5zM199 695h132l121 -150l-101 -17l-85 82l-86 -82l-102 17z" />
    <glyph glyph-name="Scedilla" unicode="&#x15e;" horiz-adv-x="667" 
d="M335 710q111 0 253 -27v-194h-158v87q-60 11 -98 11q-111 0 -111 -81q0 -39 28.5 -56t97.5 -25q136 -13 206 -63t70 -148q0 -93 -66 -153t-186 -69l-33 -45q16 3 32 3q44 0 71.5 -21.5t27.5 -59.5q0 -50 -42.5 -78.5t-103.5 -28.5q-75 0 -116 38l41 48q18 -23 65 -23
q50 0 50 35q0 42 -77 42q-15 0 -55 -4l54 93q-111 6 -220 28v197h158v-90q61 -13 111 -13q64 0 92.5 24t28.5 62q0 42 -30 59t-107 27q-137 16 -198.5 63t-61.5 144q0 96 71 157t206 61z" />
    <glyph glyph-name="Scedilla" unicode="&#xf6c1;" horiz-adv-x="667" 
d="M335 710q111 0 253 -27v-194h-158v87q-60 11 -98 11q-111 0 -111 -81q0 -39 28.5 -56t97.5 -25q136 -13 206 -63t70 -148q0 -93 -66 -153t-186 -69l-33 -45q16 3 32 3q44 0 71.5 -21.5t27.5 -59.5q0 -50 -42.5 -78.5t-103.5 -28.5q-75 0 -116 38l41 48q18 -23 65 -23
q50 0 50 35q0 42 -77 42q-15 0 -55 -4l54 93q-111 6 -220 28v197h158v-90q61 -13 111 -13q64 0 92.5 24t28.5 62q0 42 -30 59t-107 27q-137 16 -198.5 63t-61.5 144q0 96 71 157t206 61z" />
    <glyph glyph-name="scedilla" unicode="&#x15f;" horiz-adv-x="508" 
d="M256 510q96 0 195 -12v-156h-131v55q-28 5 -58 5q-75 0 -75 -43q0 -21 20.5 -30t66.5 -15q37 -4 61.5 -8t54.5 -14.5t47.5 -26t29.5 -42.5t12 -63q0 -71 -45.5 -116t-141.5 -52l-33 -45q17 3 32 3q44 0 71.5 -21.5t27.5 -59.5q0 -50 -42.5 -78.5t-103.5 -28.5
q-75 0 -116 38l41 48q18 -23 65 -23q50 0 50 35q0 42 -77 42q-15 0 -55 -4l55 95q-83 10 -127 55.5t-46 112.5h137q2 -29 23.5 -45.5t62.5 -16.5q80 0 80 43q0 24 -18.5 33t-64.5 15q-37 4 -61 8t-55 15t-49 26.5t-31 43.5t-13 65q0 69 58 115.5t153 46.5z" />
    <glyph glyph-name="scedilla" unicode="&#xf6c2;" horiz-adv-x="508" 
d="M256 510q96 0 195 -12v-156h-131v55q-28 5 -58 5q-75 0 -75 -43q0 -21 20.5 -30t66.5 -15q37 -4 61.5 -8t54.5 -14.5t47.5 -26t29.5 -42.5t12 -63q0 -71 -45.5 -116t-141.5 -52l-33 -45q17 3 32 3q44 0 71.5 -21.5t27.5 -59.5q0 -50 -42.5 -78.5t-103.5 -28.5
q-75 0 -116 38l41 48q18 -23 65 -23q50 0 50 35q0 42 -77 42q-15 0 -55 -4l55 95q-83 10 -127 55.5t-46 112.5h137q2 -29 23.5 -45.5t62.5 -16.5q80 0 80 43q0 24 -18.5 33t-64.5 15q-37 4 -61 8t-55 15t-49 26.5t-31 43.5t-13 65q0 69 58 115.5t153 46.5z" />
    <glyph glyph-name="Scaron" unicode="&#x160;" horiz-adv-x="667" 
d="M335 710q111 0 253 -27v-194h-158v87q-60 11 -98 11q-111 0 -111 -81q0 -39 28.5 -56t97.5 -25q136 -13 206 -63t70 -148q0 -101 -77 -162.5t-215 -61.5q-121 0 -266 29v197h158v-90q61 -13 111 -13q64 0 92.5 24t28.5 62q0 42 -30 59t-107 27q-137 16 -198.5 63
t-61.5 144q0 96 71 157t206 61zM159 865l94 15l93 -72l93 72l94 -15l-128 -142h-117z" />
    <glyph glyph-name="scaron" unicode="&#x161;" horiz-adv-x="508" 
d="M256 510q96 0 195 -12v-156h-131v55q-28 5 -58 5q-75 0 -75 -43q0 -21 20.5 -30t66.5 -15q37 -4 61.5 -8t54.5 -14.5t47.5 -26t29.5 -42.5t12 -63q0 -78 -55 -124t-171 -46q-104 0 -160.5 47.5t-58.5 123.5h137q2 -29 23.5 -45.5t62.5 -16.5q80 0 80 43q0 24 -18.5 33
t-64.5 15q-37 4 -61 8t-55 15t-49 26.5t-31 43.5t-13 65q0 69 58 115.5t153 46.5zM78 684l102 17l85 -82l86 82l101 -17l-121 -150h-132z" />
    <glyph glyph-name="Tcommaaccent" unicode="&#x162;" horiz-adv-x="656" 
d="M12 700h632v-208h-142v85h-95v-454h77v-123h-312v123h77v454h-95v-85h-142v208zM268 -38h124v-68q0 -96 -119 -148l-18 49q65 20 65 75h-52v92z" />
    <glyph glyph-name="Tcommaaccent" unicode="&#x21a;" horiz-adv-x="656" 
d="M12 700h632v-208h-142v85h-95v-454h77v-123h-312v123h77v454h-95v-85h-142v208zM268 -38h124v-68q0 -96 -119 -148l-18 49q65 20 65 75h-52v92z" />
    <glyph glyph-name="tcommaaccent" unicode="&#x163;" horiz-adv-x="350" 
d="M75 618h145v-118h117v-123h-117v-189q0 -38 14 -55t47 -17q27 0 56 8v-123q-42 -9 -79 -9q-85 0 -134 42t-49 131v212h-70v123h70v118zM126 -38h124v-68q0 -96 -119 -148l-18 49q65 20 65 75h-52v92z" />
    <glyph glyph-name="tcommaaccent" unicode="&#x21b;" horiz-adv-x="350" 
d="M75 618h145v-118h117v-123h-117v-189q0 -38 14 -55t47 -17q27 0 56 8v-123q-42 -9 -79 -9q-85 0 -134 42t-49 131v212h-70v123h70v118zM126 -38h124v-68q0 -96 -119 -148l-18 49q65 20 65 75h-52v92z" />
    <glyph glyph-name="Tcaron" unicode="&#x164;" horiz-adv-x="656" 
d="M12 700h632v-208h-142v85h-95v-454h77v-123h-312v123h77v454h-95v-85h-142v208zM140 865l94 15l93 -72l93 72l94 -15l-128 -142h-117z" />
    <glyph glyph-name="tcaron" unicode="&#x165;" horiz-adv-x="350" 
d="M75 618h145v-118h117v-123h-117v-189q0 -38 14 -55t47 -17q27 0 56 8v-123q-42 -9 -79 -9q-85 0 -134 42t-49 131v212h-70v123h70v118zM259 700h125l-54 -159h-71v159z" />
    <glyph glyph-name="Tbar" unicode="&#x166;" horiz-adv-x="656" 
d="M12 700h632v-208h-142v85h-95v-201h85v-93h-85v-160h77v-123h-312v123h77v160h-87v93h87v201h-95v-85h-142v208z" />
    <glyph glyph-name="tbar" unicode="&#x167;" horiz-adv-x="350" 
d="M75 618h145v-118h117v-123h-117v-69h94v-84h-94v-36q0 -38 14 -55t47 -17q27 0 56 8v-123q-42 -9 -79 -9q-85 0 -134 42t-49 131v59h-45v84h45v69h-70v123h70v118z" />
    <glyph glyph-name="Utilde" unicode="&#x168;" horiz-adv-x="752" 
d="M12 700h311v-123h-77v-324q0 -70 30.5 -100.5t100.5 -30.5q71 0 100 30.5t29 100.5v324h-77v123h311v-123h-77v-354q0 -113 -84 -173t-206 -60t-203.5 60t-81.5 173v354h-76v123zM316 860q38 0 82 -25t57 -25q30 0 35 37l63 -10q-11 -109 -95 -109q-33 0 -79 27t-67 27
q-35 0 -36 -42l-60 13q2 50 27 78.5t73 28.5z" />
    <glyph glyph-name="utilde" unicode="&#x169;" horiz-adv-x="575" 
d="M10 500h203v-308q0 -40 12.5 -58t46.5 -18q80 0 85 102v159h-57v123h202v-377h57v-123h-202v67q-44 -77 -140 -77q-72 0 -111 45t-39 126v216h-57v123zM207 689q38 0 82 -27.5t57 -27.5q15 0 23.5 8t11.5 31l63 -10q-12 -120 -95 -120q-33 0 -79 29t-67 29q-35 0 -36 -45
l-60 14q2 55 27 87t73 32z" />
    <glyph glyph-name="Umacron" unicode="&#x16a;" horiz-adv-x="752" 
d="M12 700h311v-123h-77v-324q0 -70 30.5 -100.5t100.5 -30.5q71 0 100 30.5t29 100.5v324h-77v123h311v-123h-77v-354q0 -113 -84 -173t-206 -60t-203.5 60t-81.5 173v354h-76v123zM520 740h-272v84h272v-84z" />
    <glyph glyph-name="umacron" unicode="&#x16b;" horiz-adv-x="575" 
d="M10 500h203v-308q0 -40 12.5 -58t46.5 -18q80 0 85 102v159h-57v123h202v-377h57v-123h-202v67q-44 -77 -140 -77q-72 0 -111 45t-39 126v216h-57v123zM414 557h-272v93h272v-93z" />
    <glyph glyph-name="Ubreve" unicode="&#x16c;" horiz-adv-x="752" 
d="M12 700h311v-123h-77v-324q0 -70 30.5 -100.5t100.5 -30.5q71 0 100 30.5t29 100.5v324h-77v123h311v-123h-77v-354q0 -113 -84 -173t-206 -60t-203.5 60t-81.5 173v354h-76v123zM242 854l75 9q1 -57 67 -57t66 57l76 -9q-1 -59 -41 -93t-101 -34q-62 0 -102 34t-40 93z
" />
    <glyph glyph-name="ubreve" unicode="&#x16d;" horiz-adv-x="575" 
d="M10 500h203v-308q0 -40 12.5 -58t46.5 -18q80 0 85 102v159h-57v123h202v-377h57v-123h-202v67q-44 -77 -140 -77q-72 0 -111 45t-39 126v216h-57v123zM126 683l88 10q2 -66 64 -66t62 66l89 -10q0 -65 -44.5 -103.5t-106.5 -38.5q-63 0 -107.5 38.5t-44.5 103.5z" />
    <glyph glyph-name="Uring" unicode="&#x16e;" horiz-adv-x="752" 
d="M12 700h311v-123h-77v-324q0 -70 30.5 -100.5t100.5 -30.5q71 0 100 30.5t29 100.5v324h-77v123h311v-123h-77v-354q0 -113 -84 -173t-206 -60t-203.5 60t-81.5 173v354h-76v123zM384 892q55 0 91 -24t36 -68t-35.5 -67t-91.5 -23t-91.5 23t-35.5 67t36 68t91 24z
M383 834q-48 0 -48 -34q0 -35 48 -35q49 0 49 35q0 34 -49 34z" />
    <glyph glyph-name="uring" unicode="&#x16f;" horiz-adv-x="575" 
d="M10 500h203v-308q0 -40 12.5 -58t46.5 -18q80 0 85 102v159h-57v123h202v-377h57v-123h-202v67q-44 -77 -140 -77q-72 0 -111 45t-39 126v216h-57v123zM276 725q55 0 93 -27.5t38 -76.5t-38 -76t-93 -27q-56 0 -93.5 27t-37.5 76t38 76.5t93 27.5zM275 656
q-20 0 -32 -9.5t-12 -24.5q0 -36 44 -36q43 0 43 34q0 17 -12.5 26.5t-30.5 9.5z" />
    <glyph glyph-name="Uhungarumlaut" unicode="&#x170;" horiz-adv-x="752" 
d="M12 700h311v-123h-77v-324q0 -70 30.5 -100.5t100.5 -30.5q71 0 100 30.5t29 100.5v324h-77v123h311v-123h-77v-354q0 -113 -84 -173t-206 -60t-203.5 60t-81.5 173v354h-76v123zM332 880l114 -15l-124 -134h-78zM520 880l114 -15l-123 -134h-78z" />
    <glyph glyph-name="uhungarumlaut" unicode="&#x171;" horiz-adv-x="575" 
d="M10 500h203v-308q0 -40 12.5 -58t46.5 -18q80 0 85 102v159h-57v123h202v-377h57v-123h-202v67q-44 -77 -140 -77q-72 0 -111 45t-39 126v216h-57v123zM220 708l114 -16l-124 -150h-78zM390 708l114 -16l-123 -150h-78z" />
    <glyph glyph-name="Uogonek" unicode="&#x172;" horiz-adv-x="752" 
d="M12 700h311v-123h-77v-324q0 -70 30.5 -100.5t100.5 -30.5q71 0 100 30.5t29 100.5v324h-77v123h311v-123h-77v-354q0 -91 -55.5 -148t-145.5 -76q-22 -16 -35 -39.5t-13 -45.5q0 -41 45 -41q7 0 21 2v-89q-21 -6 -47 -6q-59 0 -93.5 28.5t-34.5 71.5q0 63 66 110
q-122 1 -202.5 60.5t-80.5 172.5v354h-76v123z" />
    <glyph glyph-name="uogonek" unicode="&#x173;" horiz-adv-x="575" 
d="M406 0h-49v67q-44 -77 -140 -77q-72 0 -111 45t-39 126v216h-57v123h203v-308q0 -40 12.5 -58t46.5 -18q80 0 85 102v159h-57v123h202v-377h57v-123h-77q-22 -16 -35.5 -40.5t-13.5 -45.5q0 -41 45 -41q7 0 21 2v-89q-21 -6 -47 -6q-59 0 -93.5 28.5t-34.5 71.5
q0 71 82 120z" />
    <glyph glyph-name="Wcircumflex" unicode="&#x174;" horiz-adv-x="1038" 
d="M10 700h293v-123h-68l78 -343q5 -21 13 -81q5 46 13 81l105 466h144l108 -466q8 -35 13 -81q6 45 13 81l82 343h-70v123h294v-123h-70l-150 -577h-195l-87 373q-7 34 -11 86q-8 -65 -12 -86l-87 -373h-193l-147 577h-66v123zM700 738l-94 -15l-93 73l-93 -73l-94 15
l129 142h117z" />
    <glyph glyph-name="wcircumflex" unicode="&#x175;" horiz-adv-x="799" 
d="M4 500h233v-123h-47l44 -174q12 -47 13 -76q5 40 14 76l72 297h137l70 -297q8 -34 14 -77q4 39 13 77l44 174h-47v123h231v-123h-44l-102 -377h-171l-65 247q-12 57 -15 85q-4 -42 -17 -85l-67 -247h-165l-102 377h-43v123zM333 695h132l121 -150l-101 -17l-85 82
l-86 -82l-102 17z" />
    <glyph glyph-name="Ycircumflex" unicode="&#x176;" horiz-adv-x="665" 
d="M6 700h294v-123h-66l69 -104q25 -40 35 -64q17 35 38 65l67 103h-66v123h282v-123h-50l-198 -297v-157h77v-123h-311v123h76v157l-201 297h-46v123zM524 738l-94 -15l-93 73l-93 -73l-94 15l129 142h117z" />
    <glyph glyph-name="ycircumflex" unicode="&#x177;" horiz-adv-x="534" 
d="M4 500h240v-123h-42l54 -198q8 -28 14 -90q5 57 15 90l55 198h-42v123h232v-123h-49l-129 -397q-17 -55 -39.5 -92t-46 -58.5t-59 -32t-66.5 -13.5t-82 -3v128q52 0 77.5 9t34.5 33l8 22l-128 404h-47v123zM204 695h132l121 -150l-101 -17l-85 82l-86 -82l-102 17z" />
    <glyph glyph-name="Ydieresis" unicode="&#x178;" horiz-adv-x="665" 
d="M6 700h294v-123h-66l69 -104q25 -40 35 -64q17 35 38 65l67 103h-66v123h282v-123h-50l-198 -297v-157h77v-123h-311v123h76v157l-201 297h-46v123zM284 744h-107v105h107v-105zM497 744h-107v105h107v-105z" />
    <glyph glyph-name="Zacute" unicode="&#x179;" horiz-adv-x="632" 
d="M42 700h551v-124l-364 -453h209v74h158v-197h-556v124l364 453h-204v-74h-158v197zM364 880l135 -15l-162 -142h-92z" />
    <glyph glyph-name="zacute" unicode="&#x17a;" horiz-adv-x="465" 
d="M32 500h401v-111l-225 -266h229v-123h-408v112l238 277h-102v-55h-133v166zM250 708l151 -16l-154 -158h-100z" />
    <glyph glyph-name="Zdotaccent" unicode="&#x17b;" horiz-adv-x="632" 
d="M42 700h551v-124l-364 -453h209v74h158v-197h-556v124l364 453h-204v-74h-158v197zM386 744h-138v113h138v-113z" />
    <glyph glyph-name="zdotaccent" unicode="&#x17c;" horiz-adv-x="465" 
d="M32 500h401v-111l-225 -266h229v-123h-408v112l238 277h-102v-55h-133v166zM306 561h-139v125h139v-125z" />
    <glyph glyph-name="Zcaron" unicode="&#x17d;" horiz-adv-x="632" 
d="M42 700h551v-124l-364 -453h209v74h158v-197h-556v124l364 453h-204v-74h-158v197zM133 865l94 15l93 -72l93 72l94 -15l-128 -142h-117z" />
    <glyph glyph-name="zcaron" unicode="&#x17e;" horiz-adv-x="465" 
d="M32 500h401v-111l-225 -266h229v-123h-408v112l238 277h-102v-55h-133v166zM47 684l102 17l85 -82l86 82l101 -17l-121 -150h-132z" />
    <glyph glyph-name="longs" unicode="&#x17f;" horiz-adv-x="292" 
d="M260 710q35 0 78 -8v-119q-32 8 -63 8q-61 0 -61 -59v-409h56v-123h-258v123h56v407q0 88 53.5 134t138.5 46z" />
    <glyph glyph-name="florin" unicode="&#x192;" horiz-adv-x="545" 
d="M383 708q33 0 78 -8v-120q-40 10 -61 10q-64 0 -64 -60v-30h125v-111h-125v-419q0 -89 -53 -135t-138 -46q-37 0 -79 9v119q36 -9 61 -9q64 0 64 62v419h-69v111h69v28q0 89 53 134.5t139 45.5z" />
    <glyph glyph-name="AEacute" unicode="&#x1fc;" horiz-adv-x="982" 
d="M224 700h719v-197h-158v74h-183v-154h245v-122h-245v-178h191v82h158v-205h-584v123h77v78h-231l-51 -78h77v-123h-307v123h66l302 454h-76v123zM444 562l-156 -241h156v241zM611 880l135 -15l-162 -142h-92z" />
    <glyph glyph-name="aeacute" unicode="&#x1fd;" horiz-adv-x="827" 
d="M66 497q88 13 200 13q107 0 153 -44q59 44 154 44q118 0 174.5 -82t46.5 -207h-325q9 -106 95 -106q31 0 52 15.5t26 40.5h146q-9 -85 -70.5 -133t-149.5 -48q-140 0 -200 97q-56 -95 -191 -95q-71 0 -110.5 38t-39.5 102q0 89 61 134t196 45h44v28q0 58 -72 58
q-35 0 -59 -4v-59h-131v163zM441 708l151 -16l-154 -158h-100zM230 105q44 0 71 27t27 69v20h-42q-111 0 -111 -66q0 -50 55 -50zM565 391q-71 0 -91 -80h176q-3 36 -25.5 58t-59.5 22z" />
    <glyph glyph-name="Oslashacute" unicode="&#x1fe;" horiz-adv-x="720" 
d="M567 700h143l-71 -99q85 -99 85 -251q0 -157 -91.5 -258.5t-243.5 -101.5q-89 0 -160 37l-19 -27h-143l71 100q-84 100 -84 250q0 157 91.5 258.5t243.5 101.5q85 0 159 -37zM554 350q0 63 -15 110l-225 -315q31 -16 75 -16q84 0 124.5 58.5t40.5 162.5zM389 571
q-84 0 -124.5 -58.5t-40.5 -162.5q0 -65 14 -110l225 315q-34 16 -74 16zM410 880l135 -15l-162 -142h-92z" />
    <glyph glyph-name="oslashacute" unicode="&#x1ff;" horiz-adv-x="534" 
d="M394 500h109l-51 -71q51 -66 51 -178q0 -125 -62.5 -193t-172.5 -68q-63 0 -116 24l-10 -14h-110l51 71q-51 66 -51 180q0 124 62 191.5t174 67.5q63 0 115 -25zM276 708l151 -16l-154 -158h-100zM268 384q-94 0 -94 -133q0 -30 4 -50l127 176q-19 7 -37 7zM360 251
q0 27 -4 46l-125 -174q17 -6 37 -6q92 0 92 134z" />
    <glyph glyph-name="Scommaaccent" unicode="&#x218;" horiz-adv-x="667" 
d="M335 710q111 0 253 -27v-194h-158v87q-60 11 -98 11q-111 0 -111 -81q0 -39 28.5 -56t97.5 -25q136 -13 206 -63t70 -148q0 -101 -77 -162.5t-215 -61.5q-121 0 -266 29v197h158v-90q61 -13 111 -13q64 0 92.5 24t28.5 62q0 42 -30 59t-107 27q-137 16 -198.5 63
t-61.5 144q0 96 71 157t206 61zM280 -38h124v-68q0 -96 -119 -148l-18 49q65 20 65 75h-52v92z" />
    <glyph glyph-name="scommaaccent" unicode="&#x219;" horiz-adv-x="508" 
d="M256 510q96 0 195 -12v-156h-131v55q-28 5 -58 5q-75 0 -75 -43q0 -21 20.5 -30t66.5 -15q37 -4 61.5 -8t54.5 -14.5t47.5 -26t29.5 -42.5t12 -63q0 -78 -55 -124t-171 -46q-104 0 -160.5 47.5t-58.5 123.5h137q2 -29 23.5 -45.5t62.5 -16.5q80 0 80 43q0 24 -18.5 33
t-64.5 15q-37 4 -61 8t-55 15t-49 26.5t-31 43.5t-13 65q0 69 58 115.5t153 46.5zM196 -38h124v-68q0 -96 -119 -148l-18 49q65 20 65 75h-52v92z" />
    <glyph glyph-name="circumflex" unicode="&#x2c6;" horiz-adv-x="462" 
d="M165 695h132l121 -150l-101 -17l-85 82l-86 -82l-102 17z" />
    <glyph glyph-name="caron" unicode="&#x2c7;" horiz-adv-x="462" 
d="M44 684l102 17l85 -82l86 82l101 -17l-121 -150h-132z" />
    <glyph glyph-name="breve" unicode="&#x2d8;" horiz-adv-x="371" 
d="M34 683l88 10q2 -66 64 -66t62 66l89 -10q0 -65 -44.5 -103.5t-106.5 -38.5q-63 0 -107.5 38.5t-44.5 103.5z" />
    <glyph glyph-name="dotaccent" unicode="&#x2d9;" horiz-adv-x="242" 
d="M190 561h-139v125h139v-125z" />
    <glyph glyph-name="ring" unicode="&#x2da;" horiz-adv-x="358" 
d="M179 725q55 0 93 -27.5t38 -76.5t-38 -76t-93 -27q-56 0 -93.5 27t-37.5 76t38 76.5t93 27.5zM178 656q-20 0 -32 -9.5t-12 -24.5q0 -36 44 -36q43 0 43 34q0 17 -12.5 26.5t-30.5 9.5z" />
    <glyph glyph-name="ogonek" unicode="&#x2db;" horiz-adv-x="279" 
d="M134 0h76q-22 -16 -35.5 -40.5t-13.5 -45.5q0 -41 45 -41q7 0 21 2v-89q-21 -6 -47 -6q-59 0 -93.5 28.5t-34.5 71.5q0 71 82 120z" />
    <glyph glyph-name="tilde" unicode="&#x2dc;" horiz-adv-x="447" 
d="M155 689q38 0 82 -27.5t57 -27.5q15 0 23.5 8t11.5 31l63 -10q-12 -120 -95 -120q-33 0 -79 29t-67 29q-35 0 -36 -45l-60 14q2 55 27 87t73 32z" />
    <glyph glyph-name="hungarumlaut" unicode="&#x2dd;" horiz-adv-x="479" 
d="M141 708l114 -16l-124 -150h-78zM311 708l114 -16l-123 -150h-78z" />
    <glyph glyph-name="tonos" unicode="&#x384;" horiz-adv-x="261" 
d="M84 716h149l-74 -182h-79z" />
    <glyph glyph-name="dieresistonos" unicode="&#x385;" horiz-adv-x="457" 
d="M148 571h-96v108h96v-108zM174 729h112l-25 -185h-64zM404 571h-95v108h95v-108z" />
    <glyph glyph-name="Alphatonos" unicode="&#x386;" horiz-adv-x="751" 
d="M150 700h453v-123h-76l152 -454h66v-123h-307v123h69l-24 78h-222l-26 -78h78v-123h-307v123h67l153 454h-76v123zM372 578q-11 -52 -20 -82l-56 -175h150l-55 178q-13 50 -19 79zM5 716h149l-74 -182h-79z" />
    <glyph glyph-name="anoteleia" unicode="&#x387;" horiz-adv-x="598" 
d="M220 406h157v-149h-157v149z" />
    <glyph glyph-name="Epsilontonos" unicode="&#x388;" horiz-adv-x="647" 
d="M-106 716h149l-7 -16h565v-197h-158v74h-184v-154h245v-122h-245v-178h191v82h159v-205h-585v123h77v454h-77v92l-55 -135h-79z" />
    <glyph glyph-name="Etatonos" unicode="&#x389;" horiz-adv-x="761" 
d="M-107 716h149l-7 -16h301v-123h-77v-154h243v154h-77v123h312v-123h-77v-454h77v-123h-312v123h77v177h-243v-177h77v-123h-312v123h77v454h-77v94l-56 -137h-79z" />
    <glyph glyph-name="Iotatonos" unicode="&#x38a;" horiz-adv-x="360" 
d="M-106 716h149l-7 -16h300v-123h-77v-454h77v-123h-312v123h77v454h-77v92l-55 -135h-79z" />
    <glyph glyph-name="Omicrontonos" unicode="&#x38c;" horiz-adv-x="743" 
d="M-44 716h149l-74 -182h-79zM372 571q-84 0 -124.5 -58.5t-40.5 -162.5t40.5 -162.5t124.5 -58.5q83 0 124 59t41 162t-41 162t-124 59zM372 710q152 0 243 -101.5t91 -258.5t-91 -258.5t-243 -101.5t-243.5 101.5t-91.5 258.5t91.5 258.5t243.5 101.5z" />
    <glyph glyph-name="Upsilontonos" unicode="&#x38e;" horiz-adv-x="673" 
d="M-117 716h149l-7 -16h279v-123h-59l62 -92q23 -32 35 -62q13 27 38 64l59 90h-58v123h282v-123h-58l-190 -290v-164h77v-123h-311v123h76v164l-193 290h-54v85l-52 -128h-79z" />
    <glyph glyph-name="Omegatonos" unicode="&#x38f;" horiz-adv-x="854" 
d="M427 710q153 0 243.5 -85t90.5 -227q0 -98 -51.5 -171t-119.5 -104h121v74h127v-197h-366v142q119 35 119 219q0 100 -41 155t-122 55q-83 0 -123.5 -55t-40.5 -155q0 -184 118 -219v-142h-365v197h126v-74h121q-68 31 -119.5 104t-51.5 171q0 142 90.5 227t243.5 85z
M1 716h149l-74 -182h-79z" />
    <glyph glyph-name="iotadieresistonos" unicode="&#x390;" horiz-adv-x="288" 
d="M12 500h201v-342q0 -42 39 -42q12 0 24 3v-120q-34 -7 -73 -7q-135 0 -135 103v282h-56v123zM60 571h-96v108h96v-108zM86 729h112l-25 -185h-64zM316 571h-95v108h95v-108z" />
    <glyph glyph-name="Alpha" unicode="&#x391;" horiz-adv-x="751" 
d="M150 700h453v-123h-76l152 -454h66v-123h-307v123h69l-24 78h-222l-26 -78h78v-123h-307v123h67l153 454h-76v123zM372 578q-11 -52 -20 -82l-56 -175h150l-55 178q-13 50 -19 79z" />
    <glyph glyph-name="Beta" unicode="&#x392;" horiz-adv-x="703" 
d="M259 416h124q97 0 97 83q0 39 -22.5 58.5t-74.5 19.5h-124v-161zM24 0v123h77v454h-77v123h404q104 0 159.5 -47.5t55.5 -121.5q0 -133 -144 -162q81 -12 122.5 -58.5t41.5 -118.5q0 -84 -60 -138t-164 -54h-415zM259 123h132q114 0 114 91q0 94 -113 94h-133v-185z" />
    <glyph glyph-name="Gamma" unicode="&#x393;" horiz-adv-x="609" 
d="M24 700h572v-225h-158v102h-179v-454h82v-123h-317v123h77v454h-77v123z" />
    <glyph glyph-name="Delta" unicode="&#x394;" horiz-adv-x="735" 
d="M261 700h217l182 -577h65v-123h-715v123h70zM367 562q-4 -21 -18 -71l-107 -368h250l-107 368q-9 29 -18 71z" />
    <glyph glyph-name="Delta" unicode="&#x2206;" horiz-adv-x="735" 
d="M261 700h217l182 -577h65v-123h-715v123h70zM367 562q-4 -21 -18 -71l-107 -368h250l-107 368q-9 29 -18 71z" />
    <glyph glyph-name="Epsilon" unicode="&#x395;" horiz-adv-x="647" 
d="M24 700h577v-197h-158v74h-184v-154h245v-122h-245v-178h191v82h159v-205h-585v123h77v454h-77v123z" />
    <glyph glyph-name="Zeta" unicode="&#x396;" horiz-adv-x="632" 
d="M42 700h551v-124l-364 -453h209v74h158v-197h-556v124l364 453h-204v-74h-158v197z" />
    <glyph glyph-name="Eta" unicode="&#x397;" horiz-adv-x="761" 
d="M24 700h312v-123h-77v-154h243v154h-77v123h312v-123h-77v-454h77v-123h-312v123h77v177h-243v-177h77v-123h-312v123h77v454h-77v123z" />
    <glyph glyph-name="Theta" unicode="&#x398;" horiz-adv-x="743" 
d="M372 571q-84 0 -124.5 -58.5t-40.5 -162.5t40.5 -162.5t124.5 -58.5q83 0 124 59t41 162t-41 162t-124 59zM372 710q152 0 243 -101.5t91 -258.5t-91 -258.5t-243 -101.5t-243.5 101.5t-91.5 258.5t91.5 258.5t243.5 101.5zM254 414h236v-114h-236v114z" />
    <glyph glyph-name="Iota" unicode="&#x399;" horiz-adv-x="360" 
d="M24 700h312v-123h-77v-454h77v-123h-312v123h77v454h-77v123z" />
    <glyph glyph-name="Kappa" unicode="&#x39a;" horiz-adv-x="717" 
d="M24 700h312v-123h-77v-454h77v-123h-312v123h77v454h-77v123zM381 700h314v-123h-66l-184 -213l197 -241h66v-123h-321v123h71l-195 232l184 222h-66v123z" />
    <glyph glyph-name="Lambda" unicode="&#x39b;" horiz-adv-x="735" 
d="M261 700h217l182 -577h65v-123h-301v123h68l-107 368q-9 29 -18 71q-4 -21 -18 -71l-107 -368h69v-123h-301v123h70z" />
    <glyph glyph-name="Mu" unicode="&#x39c;" horiz-adv-x="952" 
d="M24 700h324l120 -410q8 -30 16 -95q7 67 16 95l121 410h306v-123h-76v-454h76v-123h-305v123h76v332q0 16 3 106q-8 -48 -22 -106l-140 -455h-129l-139 455q-6 21 -23 106q4 -60 4 -106v-332h76v-123h-304v123h77v454h-77v123z" />
    <glyph glyph-name="Nu" unicode="&#x39d;" horiz-adv-x="759" 
d="M24 700h283l183 -406q1 -2 26 -77q-4 44 -4 79v281h-63v123h293v-123h-76v-577h-194l-202 456q-4 8 -8 21t-8 28t-6 21q3 -60 3 -72v-331h77v-123h-304v123h77v454h-77v123z" />
    <glyph glyph-name="Xi" unicode="&#x39e;" horiz-adv-x="670" 
d="M143 423h383v-122h-383v122zM47 700h576v-197h-158v74h-260v-74h-158v197zM39 205h158v-82h276v82h158v-205h-592v205z" />
    <glyph glyph-name="Omicron" unicode="&#x39f;" horiz-adv-x="743" 
d="M372 571q-84 0 -124.5 -58.5t-40.5 -162.5t40.5 -162.5t124.5 -58.5q83 0 124 59t41 162t-41 162t-124 59zM372 710q152 0 243 -101.5t91 -258.5t-91 -258.5t-243 -101.5t-243.5 101.5t-91.5 258.5t91.5 258.5t243.5 101.5z" />
    <glyph glyph-name="Pi" unicode="&#x3a0;" horiz-adv-x="761" 
d="M24 700h713v-123h-77v-454h77v-123h-312v123h77v454h-243v-454h77v-123h-312v123h77v454h-77v123z" />
    <glyph glyph-name="Rho" unicode="&#x3a1;" horiz-adv-x="674" 
d="M24 700h407q104 0 162.5 -65t58.5 -162q0 -101 -59.5 -166t-170.5 -65h-163v-119h80v-123h-315v123h77v454h-77v123zM391 576h-132v-221h132q100 0 100 114q0 107 -100 107z" />
    <glyph glyph-name="Sigma" unicode="&#x3a3;" horiz-adv-x="646" 
d="M43 700h550v-197h-158v74h-204l182 -218l-184 -236h206v74h158v-197h-553v124l184 235l-181 217v124z" />
    <glyph glyph-name="Tau" unicode="&#x3a4;" horiz-adv-x="656" 
d="M12 700h632v-208h-142v85h-95v-454h77v-123h-312v123h77v454h-95v-85h-142v208z" />
    <glyph glyph-name="Upsilon" unicode="&#x3a5;" horiz-adv-x="673" 
d="M10 700h294v-123h-59l62 -92q23 -32 35 -62q13 27 38 64l59 90h-58v123h282v-123h-58l-190 -290v-164h77v-123h-311v123h76v164l-193 290h-54v123z" />
    <glyph glyph-name="Phi" unicode="&#x3a6;" horiz-adv-x="842" 
d="M265 700h311v-123h-76v-29q149 -10 230.5 -62t81.5 -134q0 -83 -81.5 -135t-230.5 -62v-32h76v-123h-311v123h77v32q-149 10 -230 62t-81 135q0 82 81 134t230 62v29h-77v123zM627 352q0 84 -127 88v-178q127 6 127 90zM216 352q0 -84 126 -90v178q-126 -4 -126 -88z" />
    <glyph glyph-name="Chi" unicode="&#x3a7;" horiz-adv-x="718" 
d="M17 700h303v-123h-54l58 -86q22 -31 34 -61q15 31 37 62l57 85h-54v123h303v-123h-58l-170 -222l178 -232h57v-123h-306v123h54l-61 89q-27 40 -36 62q-14 -30 -39 -64l-59 -87h55v-123h-306v123h59l175 229l-172 225h-55v123z" />
    <glyph glyph-name="Psi" unicode="&#x3a8;" horiz-adv-x="873" 
d="M6 700h230v-211q0 -65 28.5 -98.5t93.5 -37.5v224h-77v123h312v-123h-77v-224q64 4 92.5 38t28.5 98v211h230v-123h-73v-104q0 -119 -67 -179t-211 -74v-97h77v-123h-312v123h77v97q-145 14 -212 74t-67 179v104h-73v123z" />
    <glyph glyph-name="Omega" unicode="&#x3a9;" horiz-adv-x="854" 
d="M427 710q153 0 243.5 -85t90.5 -227q0 -98 -51.5 -171t-119.5 -104h121v74h127v-197h-366v142q119 35 119 219q0 100 -41 155t-122 55q-83 0 -123.5 -55t-40.5 -155q0 -184 118 -219v-142h-365v197h126v-74h121q-68 31 -119.5 104t-51.5 171q0 142 90.5 227t243.5 85z
" />
    <glyph glyph-name="Omega" unicode="&#x2126;" horiz-adv-x="854" 
d="M427 710q153 0 243.5 -85t90.5 -227q0 -98 -51.5 -171t-119.5 -104h121v74h127v-197h-366v142q119 35 119 219q0 100 -41 155t-122 55q-83 0 -123.5 -55t-40.5 -155q0 -184 118 -219v-142h-365v197h126v-74h121q-68 31 -119.5 104t-51.5 171q0 142 90.5 227t243.5 85z
" />
    <glyph glyph-name="Iotadieresis" unicode="&#x3aa;" horiz-adv-x="360" 
d="M24 700h312v-123h-77v-454h77v-123h-312v123h77v454h-77v123zM128 744h-107v105h107v-105zM341 744h-107v105h107v-105z" />
    <glyph glyph-name="Upsilondieresis" unicode="&#x3ab;" horiz-adv-x="673" 
d="M10 700h294v-123h-59l62 -92q23 -32 35 -62q13 27 38 64l59 90h-58v123h282v-123h-58l-190 -290v-164h77v-123h-311v123h76v164l-193 290h-54v123zM289 744h-106v105h106v-105zM502 744h-106v105h106v-105z" />
    <glyph glyph-name="alphatonos" unicode="&#x3ac;" horiz-adv-x="598" 
d="M231 510q38 0 66 -8t48 -25.5t31.5 -34.5t26.5 -45l21 103h154v-123h-41l-34 -147q13 -112 51 -112q10 0 24 3v-120q-35 -7 -71 -7q-53 0 -79 23t-39 75q-24 -51 -61.5 -75.5t-98.5 -24.5q-96 0 -146.5 69t-50.5 189q0 117 54.5 188.5t144.5 71.5zM263 387
q-77 0 -77 -137t77 -137q39 0 62 35t40 101q-31 138 -102 138zM270 716h149l-74 -182h-79z" />
    <glyph glyph-name="epsilontonos" unicode="&#x3ad;" horiz-adv-x="518" 
d="M214 716h149l-74 -182h-79zM254 510q103 0 213 -16v-155h-139v59q-34 8 -58 8q-68 0 -68 -50q0 -32 20 -44t75 -12v-93q-60 0 -82.5 -14.5t-22.5 -48.5q0 -50 64 -50q38 0 56.5 16.5t25.5 55.5h149q-7 -80 -72 -128t-156 -48q-103 0 -162.5 38t-59.5 105q0 51 33 83.5
t94 39.5q-57 9 -88 38.5t-31 76.5q0 63 55 101t154 38z" />
    <glyph glyph-name="etatonos" unicode="&#x3ae;" horiz-adv-x="560" 
d="M17 500h201v-67q44 77 140 77q72 0 111 -45t39 -126v-550h-146v519q0 40 -12.5 58t-46.5 18q-39 0 -62 -26.5t-23 -76.5v-158h57v-123h-258v123h56v254h-56v123zM237 716h149l-74 -182h-79z" />
    <glyph glyph-name="iotatonos" unicode="&#x3af;" horiz-adv-x="288" 
d="M12 500h201v-342q0 -42 39 -42q12 0 24 3v-120q-34 -7 -73 -7q-135 0 -135 103v282h-56v123zM89 716h149l-74 -182h-79z" />
    <glyph glyph-name="upsilondieresistonos" unicode="&#x3b0;" horiz-adv-x="577" 
d="M88 510q135 0 135 -103v-215q0 -39 17 -57.5t55 -18.5t54.5 18.5t16.5 57.5v185h-56v123h258v-123h-56v-200q0 -84 -56 -135.5t-161 -51.5t-161.5 51.5t-56.5 135.5v167q0 42 -38 42q-11 0 -25 -3v120q35 7 74 7zM212 571h-96v108h96v-108zM238 729h112l-25 -185h-64z
M468 571h-95v108h95v-108z" />
    <glyph glyph-name="alpha" unicode="&#x3b1;" horiz-adv-x="598" 
d="M231 510q38 0 66 -8t48 -25.5t31.5 -34.5t26.5 -45l21 103h154v-123h-41l-34 -147q13 -112 51 -112q10 0 24 3v-120q-35 -7 -71 -7q-53 0 -79 23t-39 75q-24 -51 -61.5 -75.5t-98.5 -24.5q-96 0 -146.5 69t-50.5 189q0 117 54.5 188.5t144.5 71.5zM263 387
q-77 0 -77 -137t77 -137q39 0 62 35t40 101q-31 138 -102 138z" />
    <glyph glyph-name="beta" unicode="&#x3b2;" horiz-adv-x="581" 
d="M296 710q96 0 160.5 -45.5t64.5 -130.5q0 -135 -145 -160q173 -27 173 -176q0 -86 -70 -144.5t-186 -58.5q-42 0 -84 7v-213h-145v725q0 90 67.5 143t164.5 53zM209 506v-385q31 -6 76 -6q105 0 105 94q0 55 -32 75.5t-111 20.5v114q75 0 98.5 20t23.5 69q0 76 -78 76
q-82 0 -82 -78z" />
    <glyph glyph-name="gamma" unicode="&#x3b3;" horiz-adv-x="543" 
d="M6 500h162q26 -67 61 -194t45 -176q34 84 83 247h-54v123h234v-123h-43q-66 -214 -146 -396l8 -192h-180l11 201q-63 218 -131 387h-50v123z" />
    <glyph glyph-name="delta" unicode="&#x3b4;" horiz-adv-x="528" 
d="M263 366q-86 0 -86 -129q0 -124 86 -124t86 124q0 66 -20 97.5t-66 31.5zM269 709q95 0 202 -21v-162h-131v63q-28 5 -60 5q-74 0 -74 -35q0 -37 105 -62q185 -44 185 -254q0 -117 -62.5 -185t-167.5 -68q-108 0 -171 62.5t-63 179.5q0 87 48 144t121 62
q-67 11 -108 44.5t-41 83.5q0 67 55 105t162 38z" />
    <glyph glyph-name="epsilon" unicode="&#x3b5;" horiz-adv-x="518" 
d="M254 510q103 0 213 -16v-155h-139v59q-34 8 -58 8q-68 0 -68 -50q0 -32 20 -44t75 -12v-93q-60 0 -82.5 -14.5t-22.5 -48.5q0 -50 64 -50q38 0 56.5 16.5t25.5 55.5h149q-7 -80 -72 -128t-156 -48q-103 0 -162.5 38t-59.5 105q0 51 33 83.5t94 39.5q-57 9 -88 38.5
t-31 76.5q0 63 55 101t154 38z" />
    <glyph glyph-name="zeta" unicode="&#x3b6;" horiz-adv-x="489" 
d="M13 700h466v-123l-200 -235q-46 -57 -46 -104q0 -32 31.5 -59t68.5 -45t68.5 -54t31.5 -84q0 -57 -55.5 -114.5t-139.5 -91.5l-66 103q48 20 72.5 45.5t24.5 49.5q0 23 -31.5 44.5t-68.5 38.5t-68.5 55.5t-31.5 91.5q0 42 22 85t74 102l139 172h-150v-82h-141v205z" />
    <glyph glyph-name="eta" unicode="&#x3b7;" horiz-adv-x="575" 
d="M17 500h201v-67q44 77 140 77q72 0 111 -45t39 -126v-550h-146v519q0 40 -12.5 58t-46.5 18q-39 0 -62 -26.5t-23 -76.5v-158h57v-123h-258v123h56v254h-56v123z" />
    <glyph glyph-name="theta" unicode="&#x3b8;" horiz-adv-x="581" 
d="M290 710q118 0 187 -90t69 -270t-69 -270t-187 -90q-117 0 -186.5 90t-69.5 270t69.5 270t186.5 90zM290 112q108 0 108 197h-217q2 -197 109 -197zM290 588q-102 0 -108 -181h216q-5 181 -108 181z" />
    <glyph glyph-name="iota" unicode="&#x3b9;" horiz-adv-x="288" 
d="M12 500h201v-342q0 -42 39 -42q12 0 24 3v-120q-34 -7 -73 -7q-135 0 -135 103v282h-56v123z" />
    <glyph glyph-name="kappa" unicode="&#x3ba;" horiz-adv-x="555" 
d="M278 500h263v-123h-51l-113 -118l174 -259h-177l-153 248l111 129h-54v123zM17 500h201v-377h53v-123h-254v123h56v254h-56v123z" />
    <glyph glyph-name="lambda" unicode="&#x3bb;" horiz-adv-x="539" 
d="M54 719q53 0 85.5 -3t69 -13.5t60 -32t46 -58.5t39.5 -92l129 -397h49v-123h-160l-86 305q-8 26 -14 71q-4 -33 -14 -71l-55 -182h50v-123h-247v123h48l126 396l-12 28q-13 25 -39 35.5t-75 10.5v126z" />
    <glyph glyph-name="nu" unicode="&#x3bd;" horiz-adv-x="546" 
d="M6 500h168q44 -113 106 -370q39 102 84 247h-57v123h233v-123h-42q-67 -208 -138 -377h-172q-62 207 -130 377h-52v123z" />
    <glyph glyph-name="xi" unicode="&#x3be;" horiz-adv-x="486" 
d="M10 700h470v-112q-221 -122 -221 -201q0 -60 150 -60v-106q-75 0 -117.5 -22t-42.5 -52q0 -19 28.5 -38t62.5 -34t62.5 -45t28.5 -69q0 -47 -55 -99.5t-144 -80.5l-50 99q80 31 80 65q0 17 -29 33t-63.5 29.5t-63.5 46.5t-29 81q0 43 38.5 84t88.5 57q-123 28 -123 99
q0 92 208 206h-137v-61h-142v180z" />
    <glyph glyph-name="omicron" unicode="&#x3bf;" horiz-adv-x="535" 
d="M268 389q-91 0 -91 -138q0 -140 91 -140q89 0 89 140q0 138 -89 138zM268 510q106 0 170.5 -69t64.5 -190q0 -122 -64.5 -191.5t-170.5 -69.5q-107 0 -171.5 69.5t-64.5 191.5q0 121 64.5 190t171.5 69z" />
    <glyph glyph-name="pi" unicode="&#x3c0;" horiz-adv-x="663" 
d="M8 500h505v75h142v-198h-139v-219q0 -42 39 -42q12 0 24 3v-120q-35 -7 -73 -7q-135 0 -135 103v282h-106v-377h-201v123h56v254h-112v123z" />
    <glyph glyph-name="rho" unicode="&#x3c1;" horiz-adv-x="572" 
d="M299 510q114 0 177 -69.5t63 -190.5q0 -117 -56.5 -188.5t-146.5 -71.5t-130 84v-162h65v-123h-210v459q0 122 58 192t180 70zM296 389q-48 0 -69 -35.5t-21 -105.5q0 -135 92 -135q47 0 67 34t20 103q0 139 -89 139z" />
    <glyph glyph-name="sigma1" unicode="&#x3c2;" horiz-adv-x="475" 
d="M258 510q89 0 201 -13v-185h-131v69q-37 8 -64 8q-44 0 -63.5 -24.5t-19.5 -80.5q0 -44 18.5 -76.5t46.5 -49l60 -34l60 -33t46.5 -46t18.5 -71.5q0 -55 -54 -105.5t-142 -86.5l-62 102q99 43 99 85q0 14 -17.5 26.5t-43.5 22t-56 29t-56 45t-43.5 72.5t-17.5 109
q0 109 58 173t162 64z" />
    <glyph glyph-name="sigma" unicode="&#x3c3;" horiz-adv-x="562" 
d="M268 510q43 0 126.5 -5t151.5 -5v-111q-87 0 -109 2q28 -18 47 -60t19 -96q0 -113 -64.5 -179t-170.5 -66q-107 0 -171.5 68.5t-64.5 192.5q0 123 64.5 191t171.5 68zM268 389q-91 0 -91 -138q0 -140 91 -140q89 0 89 140q0 138 -89 138z" />
    <glyph glyph-name="tau" unicode="&#x3c4;" horiz-adv-x="496" 
d="M8 500h339v75h141v-198h-173v-219q0 -42 39 -42q12 0 24 3v-120q-34 -7 -74 -7q-134 0 -134 103v282h-162v123z" />
    <glyph glyph-name="upsilon" unicode="&#x3c5;" horiz-adv-x="585" 
d="M88 510q135 0 135 -103v-215q0 -39 17 -57.5t55 -18.5t54.5 18.5t16.5 57.5v185h-56v123h258v-123h-56v-200q0 -84 -56 -135.5t-161 -51.5t-161.5 51.5t-56.5 135.5v167q0 42 -38 42q-11 0 -25 -3v120q35 7 74 7z" />
    <glyph glyph-name="phi" unicode="&#x3c6;" horiz-adv-x="783" 
d="M261 700h202v-194q138 -12 214 -78t76 -177q0 -112 -76 -178.5t-214 -78.5v-82h56v-123h-258v123h57v82q-139 13 -214 79t-75 178q0 111 75 176.5t214 78.5v71h-57v123zM603 251q0 61 -36 99t-104 40v-280q68 1 104 40t36 101zM179 251q0 -62 35.5 -100t103.5 -40v278
q-68 -1 -103.5 -39t-35.5 -99z" />
    <glyph glyph-name="chi" unicode="&#x3c7;" horiz-adv-x="526" 
d="M13 500h159l76 -190q21 -52 24 -67q5 23 22 68l32 66h-40v123h227v-123h-47l-115 -233l115 -232h49v-123h-158l-79 195q-21 52 -24 68q-8 -30 -22 -70l-35 -70h41v-123h-227v123h46l118 238l-112 227h-50v123z" />
    <glyph glyph-name="psi" unicode="&#x3c8;" horiz-adv-x="792" 
d="M8 500h212v-259q0 -61 24.5 -90t79.5 -36v385h145v-385q54 7 78.5 36t24.5 90v259h212v-123h-66v-122q0 -120 -59.5 -182.5t-189.5 -75.5v-85h71v-123h-288v123h72v85q-131 13 -190.5 75.5t-59.5 182.5v122h-66v123z" />
    <glyph glyph-name="omega" unicode="&#x3c9;" horiz-adv-x="758" 
d="M261 510v-113q-45 0 -64.5 -33.5t-19.5 -111.5q0 -139 69 -139q68 0 68 77l-8 172h146l-8 -172q0 -77 67 -77q70 0 70 139q0 78 -19.5 111.5t-65.5 33.5v113q115 -1 172.5 -68.5t57.5 -189.5q0 -262 -199 -262q-49 0 -88.5 24t-59.5 69q-20 -45 -59.5 -69t-88.5 -24
q-199 0 -199 262q0 122 57.5 189.5t171.5 68.5z" />
    <glyph glyph-name="iotadieresis" unicode="&#x3ca;" horiz-adv-x="288" 
d="M12 500h201v-342q0 -42 39 -42q12 0 24 3v-120q-34 -7 -73 -7q-135 0 -135 103v282h-56v123zM92 561h-106v109h106v-109zM290 561h-107v109h107v-109z" />
    <glyph glyph-name="upsilondieresis" unicode="&#x3cb;" horiz-adv-x="577" 
d="M88 510q135 0 135 -103v-215q0 -39 17 -57.5t55 -18.5t54.5 18.5t16.5 57.5v185h-56v123h258v-123h-56v-200q0 -84 -56 -135.5t-161 -51.5t-161.5 51.5t-56.5 135.5v167q0 42 -38 42q-11 0 -25 -3v120q35 7 74 7zM245 561h-106v109h106v-109zM443 561h-107v109h107v-109z
" />
    <glyph glyph-name="omicrontonos" unicode="&#x3cc;" horiz-adv-x="535" 
d="M220 716h149l-74 -182h-79zM268 389q-91 0 -91 -138q0 -140 91 -140q89 0 89 140q0 138 -89 138zM268 510q106 0 170.5 -69t64.5 -190q0 -122 -64.5 -191.5t-170.5 -69.5q-107 0 -171.5 69.5t-64.5 191.5q0 121 64.5 190t171.5 69z" />
    <glyph glyph-name="upsilontonos" unicode="&#x3cd;" horiz-adv-x="577" 
d="M239 716h149l-74 -182h-79zM88 510q135 0 135 -103v-215q0 -39 17 -57.5t55 -18.5t54.5 18.5t16.5 57.5v185h-56v123h258v-123h-56v-200q0 -84 -56 -135.5t-161 -51.5t-161.5 51.5t-56.5 135.5v167q0 42 -38 42q-11 0 -25 -3v120q35 7 74 7z" />
    <glyph glyph-name="omegatonos" unicode="&#x3ce;" horiz-adv-x="758" 
d="M261 510v-113q-45 0 -64.5 -33.5t-19.5 -111.5q0 -139 69 -139q68 0 68 77l-8 172h146l-8 -172q0 -77 67 -77q70 0 70 139q0 78 -19.5 111.5t-65.5 33.5v113q115 -1 172.5 -68.5t57.5 -189.5q0 -262 -199 -262q-49 0 -88.5 24t-59.5 69q-20 -45 -59.5 -69t-88.5 -24
q-199 0 -199 262q0 122 57.5 189.5t171.5 68.5zM332 716h149l-74 -182h-79z" />
    <glyph glyph-name="afii10023" unicode="&#x401;" horiz-adv-x="647" 
d="M24 700h577v-197h-158v74h-184v-154h245v-122h-245v-178h191v82h159v-205h-585v123h77v454h-77v123zM285 744h-107v105h107v-105zM498 744h-107v105h107v-105z" />
    <glyph glyph-name="afii10051" unicode="&#x402;" horiz-adv-x="804" 
d="M12 700h632v-205h-142v82h-95v-205q45 76 176 76q69 0 116.5 -48t47.5 -126v-146q0 -49 -21.5 -85t-57.5 -55t-75 -28t-81 -9v130q36 0 53 19t17 67v77q0 78 -73 78q-40 0 -71 -27t-31 -74v-98h53v-123h-288v123h77v454h-95v-82h-142v205z" />
    <glyph glyph-name="afii10052" unicode="&#x403;" horiz-adv-x="609" 
d="M24 700h572v-225h-158v102h-179v-454h82v-123h-317v123h77v454h-77v123zM363 880l135 -15l-162 -142h-92z" />
    <glyph glyph-name="afii10053" unicode="&#x404;" horiz-adv-x="704" 
d="M384 710q121 0 267 -30v-208h-158v89q-55 10 -115 10q-138 0 -166 -149h235v-121h-238q20 -172 166 -172q63 0 118 10v89h158v-208q-146 -30 -276 -30q-153 0 -245.5 101.5t-92.5 258.5q0 159 92 259.5t255 100.5z" />
    <glyph glyph-name="afii10054" unicode="&#x405;" horiz-adv-x="667" 
d="M335 710q111 0 253 -27v-194h-158v87q-60 11 -98 11q-111 0 -111 -81q0 -39 28.5 -56t97.5 -25q136 -13 206 -63t70 -148q0 -101 -77 -162.5t-215 -61.5q-121 0 -266 29v197h158v-90q61 -13 111 -13q64 0 92.5 24t28.5 62q0 42 -30 59t-107 27q-137 16 -198.5 63
t-61.5 144q0 96 71 157t206 61z" />
    <glyph glyph-name="afii10055" unicode="&#x406;" horiz-adv-x="360" 
d="M24 700h312v-123h-77v-454h77v-123h-312v123h77v454h-77v123z" />
    <glyph glyph-name="afii10056" unicode="&#x407;" horiz-adv-x="360" 
d="M24 700h312v-123h-77v-454h77v-123h-312v123h77v454h-77v123zM128 744h-107v105h107v-105zM341 744h-107v105h107v-105z" />
    <glyph glyph-name="afii10057" unicode="&#x408;" horiz-adv-x="594" 
d="M275 700h311v-123h-77v-352q0 -109 -73 -172t-196 -63q-105 0 -176 63.5t-73 155.5h163q4 -84 92 -84q57 0 81 22.5t24 74.5v355h-76v123z" />
    <glyph glyph-name="afii10058" unicode="&#x409;" horiz-adv-x="1069" 
d="M90 700h626v-123h-76v-132h164q111 0 172 -64t61 -155q0 -92 -60.5 -159t-163.5 -67h-408v123h77v454h-159q-7 -316 -80 -454q-71 -133 -235 -133v150q41 0 66.5 15.5t42.5 55.5q38 89 48 366h-75v123zM640 335v-212h133q53 0 78 30t25 78t-26 76t-78 28h-132z" />
    <glyph glyph-name="afii10059" unicode="&#x40a;" horiz-adv-x="1071" 
d="M24 700h312v-123h-77v-132h234v132h-77v123h312v-123h-77v-132h156q111 0 172 -64t61 -155q0 -92 -60.5 -159t-163.5 -67h-400v123h77v209h-234v-209h77v-123h-312v123h77v454h-77v123zM651 332v-209h125q52 0 77 30t25 78q0 47 -25.5 74t-77.5 27h-124z" />
    <glyph glyph-name="afii10060" unicode="&#x40b;" horiz-adv-x="802" 
d="M12 700h632v-205h-142v82h-95v-211q21 36 61 56.5t92 20.5q74 0 119 -45.5t45 -125.5v-149h61v-123h-219v241q0 39 -15 57.5t-50 18.5q-39 0 -66.5 -27t-27.5 -74v-93h69v-123h-304v123h77v454h-95v-82h-142v205z" />
    <glyph glyph-name="afii10061" unicode="&#x40c;" horiz-adv-x="717" 
d="M24 700h312v-123h-77v-454h77v-123h-312v123h77v454h-77v123zM381 700h314v-123h-66l-184 -213l197 -241h66v-123h-321v123h71l-195 232l184 222h-66v123zM401 880l135 -15l-162 -142h-92z" />
    <glyph glyph-name="afii10062" unicode="&#x40e;" horiz-adv-x="673" 
d="M187 870h94q0 -35 16.5 -55t46.5 -20q33 0 49 20.5t16 54.5h93q0 -59 -47.5 -97t-110.5 -38q-62 0 -109.5 38t-47.5 97zM10 700h300v-123h-61l79 -169q11 -28 18 -59q9 36 19 59l76 169h-56v123h286v-123h-60l-196 -398q-45 -95 -108.5 -142t-155.5 -47q-37 0 -66 4v143
q28 -4 44 -4q74 0 103 48l22 39l-178 357h-66v123z" />
    <glyph glyph-name="afii10145" unicode="&#x40f;" horiz-adv-x="761" 
d="M24 700h312v-123h-77v-454h243v454h-77v123h312v-123h-77v-454h77v-123h-281l-26 -173h-99l-27 173h-280v123h77v454h-77v123z" />
    <glyph glyph-name="afii10017" unicode="&#x410;" horiz-adv-x="751" 
d="M150 700h453v-123h-76l152 -454h66v-123h-307v123h69l-24 78h-222l-26 -78h78v-123h-307v123h67l153 454h-76v123zM372 593q-9 -48 -20 -88l-56 -184h150l-55 185q-9 29 -19 87z" />
    <glyph glyph-name="afii10018" unicode="&#x411;" horiz-adv-x="700" 
d="M24 700h572v-189h-142v66h-195v-156h165q111 0 171.5 -60t60.5 -151q0 -90 -59.5 -150t-164.5 -60h-408v123h77v454h-77v123zM259 312v-189h133q103 0 103 94q0 44 -25.5 69.5t-77.5 25.5h-133z" />
    <glyph glyph-name="afii10019" unicode="&#x412;" horiz-adv-x="703" 
d="M259 416h124q97 0 97 83q0 39 -22.5 58.5t-74.5 19.5h-124v-161zM24 0v123h77v454h-77v123h404q104 0 159.5 -47.5t55.5 -121.5q0 -133 -144 -162q81 -12 122.5 -58.5t41.5 -118.5q0 -84 -60 -138t-164 -54h-415zM259 123h132q114 0 114 91q0 94 -113 94h-133v-185z" />
    <glyph glyph-name="afii10020" unicode="&#x413;" horiz-adv-x="609" 
d="M24 700h572v-225h-158v102h-179v-454h82v-123h-317v123h77v454h-77v123z" />
    <glyph glyph-name="afii10021" unicode="&#x414;" horiz-adv-x="808" 
d="M122 700h611v-123h-78v-454h140l-18 -301h-141v178h-473v-178h-140l-19 301h112q85 195 87 454h-81v123zM352 577q-2 -241 -88 -454h234v454h-146z" />
    <glyph glyph-name="afii10022" unicode="&#x415;" horiz-adv-x="647" 
d="M24 700h577v-197h-158v74h-184v-154h245v-122h-245v-178h191v82h159v-205h-585v123h77v454h-77v123z" />
    <glyph glyph-name="afii10024" unicode="&#x416;" horiz-adv-x="1048" 
d="M368 700h312v-123h-77v-454h77v-123h-312v123h77v454h-77v123zM17 700h314v-123h-67l180 -222l-267 -355h-166v123h67l188 233l-183 221h-66v123zM718 700h314v-123h-67l-183 -221l189 -233h66v-123h-166l-267 355l180 222h-66v123z" />
    <glyph glyph-name="afii10025" unicode="&#x417;" horiz-adv-x="638" 
d="M318 710q122 0 192.5 -51t70.5 -133q0 -142 -175 -167q88 -7 136.5 -49t48.5 -116q0 -93 -77 -148.5t-203 -55.5q-137 0 -266 37v175h150v-86q48 -10 113 -10q53 0 88.5 25.5t35.5 67.5q0 103 -181 103v112q167 0 167 95q0 85 -112 85q-55 0 -103 -10v-86h-150v175
q129 37 265 37z" />
    <glyph glyph-name="afii10026" unicode="&#x418;" horiz-adv-x="768" 
d="M24 700h312v-123h-77v-285q0 -34 -4 -78q11 34 33 75l160 288h-41v123h337v-123h-77v-454h77v-123h-311v123h76v293q0 8 3 68q-5 -20 -29 -68l-161 -293h40v-123h-338v123h77v454h-77v123z" />
    <glyph glyph-name="afii10027" unicode="&#x419;" horiz-adv-x="768" 
d="M227 870h94q0 -75 63 -75q32 0 48 20.5t16 54.5h93q0 -59 -47.5 -97t-109.5 -38t-109.5 38t-47.5 97zM24 700h312v-123h-77v-285q0 -34 -4 -78q11 34 33 75l160 288h-41v123h337v-123h-77v-454h77v-123h-311v123h76v293q0 8 3 68q-5 -20 -29 -68l-161 -293h40v-123h-338
v123h77v454h-77v123z" />
    <glyph glyph-name="afii10028" unicode="&#x41a;" horiz-adv-x="717" 
d="M24 700h312v-123h-77v-454h77v-123h-312v123h77v454h-77v123zM381 700h314v-123h-66l-184 -213l197 -241h66v-123h-321v123h71l-195 232l184 222h-66v123z" />
    <glyph glyph-name="afii10029" unicode="&#x41b;" horiz-adv-x="741" 
d="M90 700h626v-123h-76v-454h76v-123h-311v123h77v454h-159q-7 -316 -80 -454q-71 -133 -235 -133v150q41 0 66.5 15.5t42.5 55.5q38 89 48 366h-75v123z" />
    <glyph glyph-name="afii10030" unicode="&#x41c;" horiz-adv-x="952" 
d="M24 700h324l120 -410q8 -30 16 -95q7 67 16 95l121 410h306v-123h-76v-454h76v-123h-305v123h76v332q0 16 3 106q-8 -48 -22 -106l-140 -455h-129l-139 455q-6 21 -23 106q4 -60 4 -106v-332h76v-123h-304v123h77v454h-77v123z" />
    <glyph glyph-name="afii10031" unicode="&#x41d;" horiz-adv-x="761" 
d="M24 700h312v-123h-77v-154h243v154h-77v123h312v-123h-77v-454h77v-123h-312v123h77v177h-243v-177h77v-123h-312v123h77v454h-77v123z" />
    <glyph glyph-name="afii10032" unicode="&#x41e;" horiz-adv-x="743" 
d="M372 571q-84 0 -124.5 -58.5t-40.5 -162.5t40.5 -162.5t124.5 -58.5q83 0 124 59t41 162t-41 162t-124 59zM372 710q152 0 243 -101.5t91 -258.5t-91 -258.5t-243 -101.5t-243.5 101.5t-91.5 258.5t91.5 258.5t243.5 101.5z" />
    <glyph glyph-name="afii10033" unicode="&#x41f;" horiz-adv-x="761" 
d="M24 700h713v-123h-77v-454h77v-123h-312v123h77v454h-243v-454h77v-123h-312v123h77v454h-77v123z" />
    <glyph glyph-name="afii10034" unicode="&#x420;" horiz-adv-x="674" 
d="M24 700h407q104 0 162.5 -65t58.5 -162q0 -101 -59.5 -166t-170.5 -65h-163v-119h80v-123h-315v123h77v454h-77v123zM391 576h-132v-221h132q100 0 100 114q0 107 -100 107z" />
    <glyph glyph-name="afii10035" unicode="&#x421;" horiz-adv-x="699" 
d="M384 710q126 0 264 -30v-208h-158v89q-55 10 -112 10q-87 0 -129 -58.5t-42 -162.5q0 -103 43 -161.5t129 -58.5q64 0 111 10v88h158v-208q-146 -30 -269 -30q-154 0 -248 102t-94 258q0 159 92 259.5t255 100.5z" />
    <glyph glyph-name="afii10036" unicode="&#x422;" horiz-adv-x="656" 
d="M12 700h632v-208h-142v85h-95v-454h77v-123h-312v123h77v454h-95v-85h-142v208z" />
    <glyph glyph-name="afii10037" unicode="&#x423;" horiz-adv-x="673" 
d="M10 700h300v-123h-61l79 -169q11 -28 18 -59q9 36 19 59l76 169h-56v123h286v-123h-60l-196 -398q-45 -95 -108.5 -142t-155.5 -47q-37 0 -66 4v143q28 -4 44 -4q74 0 103 48l22 39l-178 357h-66v123z" />
    <glyph glyph-name="afii10038" unicode="&#x424;" horiz-adv-x="842" 
d="M265 700h311v-123h-76v-29q149 -10 230.5 -62t81.5 -134q0 -83 -81.5 -135t-230.5 -62v-32h76v-123h-311v123h77v32q-149 10 -230 62t-81 135q0 82 81 134t230 62v29h-77v123zM627 352q0 84 -127 88v-178q127 6 127 90zM216 352q0 -84 126 -90v178q-126 -4 -126 -88z" />
    <glyph glyph-name="afii10039" unicode="&#x425;" horiz-adv-x="718" 
d="M17 700h303v-123h-54l58 -86q22 -31 34 -61q15 31 37 62l57 85h-54v123h303v-123h-58l-170 -222l178 -232h57v-123h-306v123h54l-61 89q-27 40 -36 62q-14 -30 -39 -64l-59 -87h55v-123h-306v123h59l175 229l-172 225h-55v123z" />
    <glyph glyph-name="afii10040" unicode="&#x426;" horiz-adv-x="813" 
d="M24 700h312v-123h-77v-454h243v454h-77v123h312v-123h-77v-454h140l-18 -301h-141v178h-617v123h77v454h-77v123z" />
    <glyph glyph-name="afii10041" unicode="&#x427;" horiz-adv-x="746" 
d="M14 700h312v-123h-77v-170q0 -77 89 -77q57 0 103.5 36t46.5 97v114h-77v123h311v-123h-77v-454h77v-123h-311v123h77v182q-25 -60 -81 -91.5t-129 -31.5q-83 0 -135 44.5t-52 130.5v220h-77v123z" />
    <glyph glyph-name="afii10042" unicode="&#x428;" horiz-adv-x="1090" 
d="M24 700h311v-123h-76v-454h207v454h-76v123h311v-123h-77v-454h207v454h-76v123h311v-123h-77v-454h77v-123h-1042v123h77v454h-77v123z" />
    <glyph glyph-name="afii10043" unicode="&#x429;" horiz-adv-x="1142" 
d="M24 700h311v-123h-76v-454h207v454h-76v123h311v-123h-77v-454h207v454h-76v123h311v-123h-77v-454h140l-18 -301h-141v178h-946v123h77v454h-77v123z" />
    <glyph glyph-name="afii10044" unicode="&#x42a;" horiz-adv-x="815" 
d="M386 335v-212h133q53 0 78 30t25 78q0 47 -25.5 75.5t-77.5 28.5h-133zM14 700h449v-123h-77v-132h165q110 0 171 -63.5t61 -155.5t-60 -159t-164 -67h-408v123h77v454h-72v-82h-142v205z" />
    <glyph glyph-name="afii10045" unicode="&#x42b;" horiz-adv-x="1025" 
d="M24 700h314v-123h-79v-132h165q110 0 171 -63.5t61 -155.5t-60 -159t-164 -67h-408v123h77v454h-77v123zM259 335v-212h133q53 0 78 30t25 78q0 47 -25.5 75.5t-77.5 28.5h-133zM689 700h312v-123h-77v-454h77v-123h-312v123h77v454h-77v123z" />
    <glyph glyph-name="afii10046" unicode="&#x42c;" horiz-adv-x="688" 
d="M24 700h314v-123h-79v-132h165q110 0 171 -63.5t61 -155.5t-60 -159t-164 -67h-408v123h77v454h-77v123zM259 335v-212h133q53 0 78 30t25 78q0 47 -25.5 75.5t-77.5 28.5h-133z" />
    <glyph glyph-name="afii10047" unicode="&#x42d;" horiz-adv-x="704" 
d="M320 710q163 0 255 -100.5t92 -259.5q0 -157 -92.5 -258.5t-245.5 -101.5q-130 0 -276 30v208h158v-89q55 -10 118 -10q147 0 165 172h-237v121h234q-26 149 -165 149q-60 0 -115 -10v-89h-158v208q146 30 267 30z" />
    <glyph glyph-name="afii10048" unicode="&#x42e;" horiz-adv-x="1042" 
d="M24 700h312v-123h-77v-154h99q19 129 104 208t217 79q150 0 238 -101t88 -259t-88 -259t-238 -101q-139 0 -224.5 85t-100.5 225h-95v-177h77v-123h-312v123h77v454h-77v123zM679 571q-158 0 -158 -221t158 -221q157 0 157 221t-157 221z" />
    <glyph glyph-name="afii10049" unicode="&#x42f;" horiz-adv-x="726" 
d="M333 577q-52 0 -74.5 -22.5t-22.5 -65.5q0 -92 97 -92h134v180h-134zM288 700h413v-123h-76v-454h76v-123h-314v123h80v153h-119q-111 0 -111 -153h79v-123h-304v123h67q0 99 43 152t119 61q-169 16 -169 163q0 86 55 143.5t161 57.5z" />
    <glyph glyph-name="afii10065" unicode="&#x430;" horiz-adv-x="540" 
d="M59 500q99 10 201 10q113 0 161 -42t48 -124v-180q0 -51 57 -41v-123q-158 -21 -183 84q-41 -92 -166 -92q-70 0 -110 39t-40 104q0 88 59.5 132t193.5 44q30 0 44 -1v34q0 53 -74 53q-35 0 -60 -4v-56h-131v163zM284 219q-109 0 -109 -62q0 -47 50 -47q45 0 72 24t27 63
v20q-24 2 -40 2z" />
    <glyph glyph-name="afii10066" unicode="&#x431;" horiz-adv-x="539" 
d="M306 702h36v47h119v-170h-159q-55 0 -80.5 -28t-34.5 -101q57 41 126 41q89 0 141.5 -62.5t52.5 -168.5q0 -126 -58 -198t-173 -72q-242 0 -242 347q0 365 272 365zM261 378q-38 0 -79 -19v-36q0 -114 21 -160t71 -46q46 0 63.5 33.5t17.5 101.5q0 64 -21.5 95t-72.5 31z
" />
    <glyph glyph-name="afii10067" unicode="&#x432;" horiz-adv-x="525" 
d="M218 398v-96h49q58 0 58 49q0 25 -13 36t-45 11h-49zM218 213v-109h53q38 0 55 13t17 40q0 56 -70 56h-55zM17 500h298q80 0 123.5 -35t43.5 -88q0 -88 -100 -115q57 -10 87 -43.5t30 -81.5q0 -59 -47.5 -98t-128.5 -39h-306v123h56v254h-56v123z" />
    <glyph glyph-name="afii10068" unicode="&#x433;" horiz-adv-x="463" 
d="M17 500h430v-202h-126v79h-103v-254h58v-123h-259v123h56v254h-56v123z" />
    <glyph glyph-name="afii10069" unicode="&#x434;" horiz-adv-x="644" 
d="M95 500h481v-123h-53v-254h104l-27 -264h-127v141h-319v-141h-122l-28 264h84q24 31 40.5 101t20.5 153h-54v123zM292 377q-2 -68 -21 -141.5t-46 -112.5h152v254h-85z" />
    <glyph glyph-name="afii10070" unicode="&#x435;" horiz-adv-x="531" 
d="M276 510q79 0 134 -43t77 -109t15 -144h-321q4 -55 25 -79t65 -24q63 0 76 60h150q-14 -83 -76 -132t-149 -49q-111 0 -175.5 70.5t-64.5 190.5q0 118 65 188.5t179 70.5zM270 398q-38 0 -58.5 -20.5t-27.5 -65.5h166q-2 40 -22.5 63t-57.5 23z" />
    <glyph glyph-name="afii10072" unicode="&#x436;" horiz-adv-x="822" 
d="M559 500h246v-123h-42l-118 -120l113 -134h52v-123h-142l-184 245v-122h52v-123h-250v123h52v377h146v-255l121 132h-46v123zM17 500h246v-123h-46l121 -132l-184 -245h-142v123h52l113 134l-118 120h-42v123z" />
    <glyph glyph-name="afii10073" unicode="&#x437;" horiz-adv-x="482" 
d="M233 510q105 0 158 -36t53 -99q0 -95 -117 -119q125 -15 125 -120q0 -69 -58 -107.5t-160 -38.5q-99 0 -209 24v150h129v-60q27 -7 69 -7q69 0 69 51q0 32 -22.5 45.5t-79.5 13.5v93q53 0 72.5 12t19.5 43q0 48 -61 48q-41 0 -68 -7v-60h-128v150q108 24 208 24z" />
    <glyph glyph-name="afii10074" unicode="&#x438;" horiz-adv-x="590" 
d="M17 500h193v-233q0 -30 -4 -88q14 52 27 80l115 241h226v-123h-57v-254h57v-123h-196v266q0 37 5 89q-16 -56 -28 -83l-125 -272h-213v123h56v254h-56v123z" />
    <glyph glyph-name="afii10075" unicode="&#x439;" horiz-adv-x="590" 
d="M152 685h92q0 -67 57 -67t57 67h92q0 -60 -44 -98.5t-105 -38.5q-62 0 -105.5 38t-43.5 99zM17 500h193v-233q0 -30 -4 -88q14 52 27 80l115 241h226v-123h-57v-254h57v-123h-196v266q0 37 5 89q-16 -56 -28 -83l-125 -272h-213v123h56v254h-56v123z" />
    <glyph glyph-name="afii10076" unicode="&#x43a;" horiz-adv-x="553" 
d="M14 500h254v-123h-52v-254h53v-123h-255v123h57v254h-57v123zM299 500h240v-123h-45l-115 -118l112 -136h55v-123h-146l-181 247l118 130h-38v123z" />
    <glyph glyph-name="afii10077" unicode="&#x43b;" horiz-adv-x="589" 
d="M79 500h490v-123h-53v-254h56v-123h-259v123h57v254h-92q-14 -241 -90 -328q-29 -32 -70 -44.5t-108 -12.5v131q59 0 85 45q36 67 40 209h-56v123z" />
    <glyph glyph-name="afii10078" unicode="&#x43c;" horiz-adv-x="726" 
d="M17 500h257l76 -259q10 -34 15 -77q4 34 14 77l77 259h254v-123h-57v-254h57v-123h-230v123h41v183q0 36 3 69l-15 -69l-94 -306h-102l-93 298q-14 55 -17 73q3 -33 3 -73v-175h41v-123h-230v123h56v254h-56v123z" />
    <glyph glyph-name="afii10079" unicode="&#x43d;" horiz-adv-x="577" 
d="M17 500h201v-183h141v183h202v-123h-57v-254h57v-123h-202v197h-141v-197h-201v123h56v254h-56v123z" />
    <glyph glyph-name="afii10080" unicode="&#x43e;" horiz-adv-x="535" 
d="M268 386q-91 0 -91 -135q0 -136 91 -136q89 0 89 136q0 135 -89 135zM268 510q107 0 171 -68t64 -191q0 -124 -64 -192.5t-171 -68.5t-171.5 68.5t-64.5 192.5q0 123 64.5 191t171.5 68z" />
    <glyph glyph-name="afii10081" unicode="&#x43f;" horiz-adv-x="577" 
d="M17 500h544v-123h-57v-254h57v-123h-249v123h47v254h-141v-254h48v-123h-249v123h56v254h-56v123z" />
    <glyph glyph-name="afii10082" unicode="&#x440;" horiz-adv-x="593" 
d="M317 387q-99 0 -99 -139q0 -61 24 -98t75 -37q92 0 92 137t-92 137zM17 500h201v-83q46 93 140 93q90 0 145.5 -71.5t55.5 -188.5t-55.5 -188.5t-145.5 -71.5q-95 0 -140 93v-171h57v-123h-258v123h56v465h-56v123z" />
    <glyph glyph-name="afii10083" unicode="&#x441;" horiz-adv-x="508" 
d="M274 510q112 0 205 -11v-185h-139v68q-36 7 -68 7q-96 0 -96 -137q0 -139 93 -139q74 0 80 78h144q-5 -88 -66.5 -144.5t-152.5 -56.5q-115 0 -178.5 70t-63.5 190q0 132 64.5 196t177.5 64z" />
    <glyph glyph-name="afii10084" unicode="&#x442;" horiz-adv-x="523" 
d="M10 500h503v-198h-118v75h-61v-254h56v-123h-258v123h57v254h-61v-75h-118v198z" />
    <glyph glyph-name="afii10085" unicode="&#x443;" horiz-adv-x="534" 
d="M4 500h240v-123h-42l54 -198q8 -29 14 -88q5 54 15 88l55 198h-42v123h232v-123h-49l-129 -397q-17 -55 -39.5 -92t-46 -58.5t-59 -32t-66.5 -13.5t-82 -3v128q52 0 77.5 9t34.5 33l8 22l-128 404h-47v123z" />
    <glyph glyph-name="afii10086" unicode="&#x444;" horiz-adv-x="881" 
d="M311 700h202v-283q44 93 135 93q88 0 144.5 -72t56.5 -188t-56.5 -188t-144.5 -72q-91 0 -135 92v-170h57v-123h-259v123h57v170q-44 -92 -135 -92q-88 0 -144.5 72t-56.5 188t56.5 188t144.5 72q89 0 135 -93v160h-57v123zM612 387q-47 0 -73 -36.5t-26 -102.5
q0 -60 25.5 -97.5t73.5 -37.5q87 0 87 137t-87 137zM269 387q-87 0 -87 -137t87 -137q48 0 73.5 37.5t25.5 97.5q0 66 -26 102.5t-73 36.5z" />
    <glyph glyph-name="afii10087" unicode="&#x445;" horiz-adv-x="548" 
d="M8 500h247v-123h-26l50 -72q23 37 49 72h-26v123h238v-123h-61l-92 -116l107 -138h48v-123h-242v123h29q-35 49 -55 81l-56 -81h30v-123h-242v123h57l102 131l-96 123h-61v123z" />
    <glyph glyph-name="afii10088" unicode="&#x446;" horiz-adv-x="609" 
d="M17 500h249v-123h-48v-254h141v254h-47v123h249v-123h-57v-254h96l-27 -264h-127v141h-429v123h56v254h-56v123z" />
    <glyph glyph-name="afii10089" unicode="&#x447;" horiz-adv-x="579" 
d="M14 500h203v-168q0 -40 12 -57.5t47 -17.5q38 0 61.5 24.5t23.5 64.5v31h-57v123h259v-123h-57v-254h57v-123h-259v123h57v96q-47 -81 -147 -81q-143 0 -143 164v75h-57v123z" />
    <glyph glyph-name="afii10090" unicode="&#x448;" horiz-adv-x="856" 
d="M17 500h245v-123h-44v-254h138v254h-50v123h244v-123h-50v-254h138v254h-44v123h246v-123h-57v-254h57v-123h-823v123h56v254h-56v123z" />
    <glyph glyph-name="afii10091" unicode="&#x449;" horiz-adv-x="888" 
d="M17 500h245v-123h-44v-254h138v254h-50v123h244v-123h-50v-254h138v254h-44v123h246v-123h-57v-254h97l-28 -264h-126v141h-709v123h56v254h-56v123z" />
    <glyph glyph-name="afii10092" unicode="&#x44a;" horiz-adv-x="617" 
d="M323 216v-102h68q61 0 61 49q0 53 -61 53h-68zM8 500h368v-123h-53v-64h98q88 0 133 -41t45 -112q0 -72 -45 -116t-127 -44h-305v123h56v254h-52v-60h-118v183z" />
    <glyph glyph-name="afii10093" unicode="&#x44b;" horiz-adv-x="786" 
d="M218 216v-102h68q61 0 61 49q0 53 -61 53h-68zM17 500h254v-123h-53v-64h98q88 0 133 -41t45 -112q0 -72 -45 -116t-127 -44h-305v123h56v254h-56v123zM511 500h259v-123h-57v-254h57v-123h-259v123h57v254h-57v123z" />
    <glyph glyph-name="afii10094" unicode="&#x44c;" horiz-adv-x="512" 
d="M218 216v-102h68q61 0 61 49q0 53 -61 53h-68zM17 500h254v-123h-53v-64h98q88 0 133 -41t45 -112q0 -72 -45 -116t-127 -44h-305v123h56v254h-56v123z" />
    <glyph glyph-name="afii10095" unicode="&#x44d;" horiz-adv-x="512" 
d="M236 510q244 0 244 -260q0 -118 -64 -189t-178 -71q-92 0 -151.5 51.5t-69.5 139.5h130q6 -41 25.5 -59t62.5 -18t66.5 26.5t25.5 74.5h-142v97h141q-2 95 -88 95q-49 0 -85 -7v-61h-121v169q102 12 204 12z" />
    <glyph glyph-name="afii10096" unicode="&#x44e;" horiz-adv-x="783" 
d="M17 500h249v-123h-48v-66h70q15 95 76 147t153 52q106 0 170 -68t64 -191q0 -124 -64 -192.5t-170 -68.5q-93 0 -154 53.5t-76 151.5h-69v-72h48v-123h-249v123h56v254h-56v123zM517 384q-90 0 -90 -133q0 -68 21.5 -101t68.5 -33q89 0 89 134q0 133 -89 133z" />
    <glyph glyph-name="afii10097" unicode="&#x44f;" horiz-adv-x="553" 
d="M264 386q-59 0 -59 -46q0 -52 59 -52h70v98h-70zM227 500h309v-123h-57v-254h57v-123h-244v123h42v73h-57q-37 0 -54.5 -14.5t-17.5 -58.5h41v-123h-234v123h47q0 57 31 89t76 37q-52 10 -81 40.5t-29 79.5q0 58 43.5 94.5t127.5 36.5z" />
    <glyph glyph-name="afii10071" unicode="&#x451;" horiz-adv-x="531" 
d="M276 510q79 0 134 -43t77 -109t15 -144h-321q4 -55 25 -79t65 -24q63 0 76 60h150q-14 -83 -76 -132t-149 -49q-111 0 -175.5 70.5t-64.5 190.5q0 118 65 188.5t179 70.5zM429 561h-107v109h107v-109zM231 561h-106v109h106v-109zM270 398q-38 0 -58.5 -20.5t-27.5 -65.5
h166q-2 40 -22.5 63t-57.5 23z" />
    <glyph glyph-name="afii10099" unicode="&#x452;" horiz-adv-x="581" 
d="M17 700h201v-127h83v-45h-83v-95q44 77 140 77q72 0 111 -45t39 -126v-342q0 -94 -68 -146.5t-155 -52.5v115q38 0 57.5 18.5t19.5 65.5v311q0 40 -12.5 58t-46.5 18q-38 0 -61 -26.5t-24 -76.5v-158h57v-123h-258v123h56v405h-57v45h57v25h-56v102z" />
    <glyph glyph-name="afii10100" unicode="&#x453;" horiz-adv-x="463" 
d="M259 708l151 -16l-154 -158h-100zM17 500h430v-202h-126v79h-103v-254h58v-123h-259v123h56v254h-56v123z" />
    <glyph glyph-name="afii10101" unicode="&#x454;" horiz-adv-x="512" 
d="M330 302v-97h-148q14 -101 95 -101q43 0 62 18t25 59h131q-10 -88 -70 -139.5t-151 -51.5q-115 0 -178.5 70t-63.5 190q0 132 66 196t179 64q101 0 204 -12v-169h-121v61q-38 7 -86 7q-77 0 -91 -95h147z" />
    <glyph glyph-name="afii10102" unicode="&#x455;" horiz-adv-x="508" 
d="M256 510q96 0 195 -12v-156h-131v55q-28 5 -58 5q-75 0 -75 -43q0 -21 20.5 -30t66.5 -15q37 -4 61.5 -8t54.5 -14.5t47.5 -26t29.5 -42.5t12 -63q0 -78 -55 -124t-171 -46q-104 0 -160.5 47.5t-58.5 123.5h137q2 -29 23.5 -45.5t62.5 -16.5q80 0 80 43q0 24 -18.5 33
t-64.5 15q-37 4 -61 8t-55 15t-49 26.5t-31 43.5t-13 65q0 69 58 115.5t153 46.5z" />
    <glyph glyph-name="afii10103" unicode="&#x456;" horiz-adv-x="292" 
d="M73 686h146v-125h-146v125zM17 500h201v-377h57v-123h-258v123h56v254h-56v123z" />
    <glyph glyph-name="afii10104" unicode="&#x457;" horiz-adv-x="284" 
d="M90 561h-106v109h106v-109zM288 561h-107v109h107v-109zM17 500h194v-377h56v-123h-250v123h56v254h-56v123z" />
    <glyph glyph-name="afii10105" unicode="&#x458;" horiz-adv-x="282" 
d="M18 500h202v-520q0 -94 -68.5 -146.5t-155.5 -52.5v122q41 0 60 17t19 69v388h-57v123zM74 686h146v-125h-146v125z" />
    <glyph glyph-name="afii10106" unicode="&#x459;" horiz-adv-x="815" 
d="M515 216v-102h75q61 0 61 49q0 53 -61 53h-75zM79 500h496v-123h-60v-64h105q88 0 133 -41t45 -112q0 -72 -45 -116t-128 -44h-312v123h57v254h-92q-15 -233 -90 -321q-60 -64 -178 -64v131q57 0 85 49q36 67 40 205h-56v123z" />
    <glyph glyph-name="afii10107" unicode="&#x45a;" horiz-adv-x="805" 
d="M17 500h201v-187h149v64h-57v123h262v-123h-60v-64h98q88 0 133 -41t45 -112q0 -72 -45 -116t-128 -44h-305v123h57v93h-149v-216h-201v123h56v254h-56v123zM512 216v-102h68q60 0 60 49q0 53 -60 53h-68z" />
    <glyph glyph-name="afii10108" unicode="&#x45b;" horiz-adv-x="581" 
d="M17 700h201v-127h83v-45h-83v-95q44 77 140 77q72 0 111 -45t39 -126v-216h57v-123h-251v123h48v185q0 40 -13 58t-47 18q-39 0 -61.5 -26.5t-22.5 -76.5v-158h49v-123h-250v123h56v405h-57v45h57v25h-56v102z" />
    <glyph glyph-name="afii10109" unicode="&#x45c;" horiz-adv-x="553" 
d="M302 708l151 -16l-154 -158h-100zM14 500h254v-123h-52v-254h53v-123h-255v123h57v254h-57v123zM299 500h240v-123h-45l-115 -118l112 -136h55v-123h-146l-181 247l118 130h-38v123z" />
    <glyph glyph-name="afii10110" unicode="&#x45e;" horiz-adv-x="534" 
d="M4 500h240v-123h-42l54 -198q8 -29 14 -88q5 54 15 88l55 198h-42v123h232v-123h-49l-129 -397q-17 -55 -39.5 -92t-46 -58.5t-59 -32t-66.5 -13.5t-82 -3v128q52 0 77.5 9t34.5 33l8 22l-128 404h-47v123zM124 685h92q0 -67 57 -67t57 67h92q0 -60 -44 -98.5t-105 -38.5
t-105 38.5t-44 98.5z" />
    <glyph glyph-name="afii10193" unicode="&#x45f;" horiz-adv-x="577" 
d="M17 500h249v-123h-48v-254h141v254h-47v123h249v-123h-57v-254h57v-123h-205l-17 -156h-100l-18 156h-204v123h56v254h-56v123z" />
    <glyph glyph-name="afii10050" unicode="&#x490;" horiz-adv-x="609" 
d="M24 700h414v101h158v-224h-337v-454h82v-123h-317v123h77v454h-77v123z" />
    <glyph glyph-name="afii10098" unicode="&#x491;" horiz-adv-x="463" 
d="M17 500h304v78h126v-201h-229v-254h58v-123h-259v123h56v254h-56v123z" />
    <glyph glyph-name="Wgrave" unicode="&#x1e80;" horiz-adv-x="1038" 
d="M10 700h293v-123h-68l78 -343q5 -21 13 -81q5 46 13 81l105 466h144l108 -466q8 -35 13 -81q6 45 13 81l82 343h-70v123h294v-123h-70l-150 -577h-195l-87 373q-7 34 -11 86q-8 -65 -12 -86l-87 -373h-193l-147 577h-66v123zM345 865l135 15l119 -157h-92z" />
    <glyph glyph-name="wgrave" unicode="&#x1e81;" horiz-adv-x="799" 
d="M4 500h233v-123h-47l44 -174q12 -47 13 -76q5 40 14 76l72 297h137l70 -297q8 -34 14 -77q4 39 13 77l44 174h-47v123h231v-123h-44l-102 -377h-171l-65 247q-12 57 -15 85q-4 -42 -17 -85l-67 -247h-165l-102 377h-43v123zM241 692l150 16l103 -174h-99z" />
    <glyph glyph-name="Wacute" unicode="&#x1e82;" horiz-adv-x="1038" 
d="M10 700h293v-123h-68l78 -343q5 -21 13 -81q5 46 13 81l105 466h144l108 -466q8 -35 13 -81q6 45 13 81l82 343h-70v123h294v-123h-70l-150 -577h-195l-87 373q-7 34 -11 86q-8 -65 -12 -86l-87 -373h-193l-147 577h-66v123zM551 880l135 -15l-162 -142h-92z" />
    <glyph glyph-name="wacute" unicode="&#x1e83;" horiz-adv-x="799" 
d="M4 500h233v-123h-47l44 -174q12 -47 13 -76q5 40 14 76l72 297h137l70 -297q8 -34 14 -77q4 39 13 77l44 174h-47v123h231v-123h-44l-102 -377h-171l-65 247q-12 57 -15 85q-4 -42 -17 -85l-67 -247h-165l-102 377h-43v123zM409 708l151 -16l-154 -158h-100z" />
    <glyph glyph-name="Wdieresis" unicode="&#x1e84;" horiz-adv-x="1038" 
d="M10 700h293v-123h-68l78 -343q5 -21 13 -81q5 46 13 81l105 466h144l108 -466q8 -35 13 -81q6 45 13 81l82 343h-70v123h294v-123h-70l-150 -577h-195l-87 373q-7 34 -11 86q-8 -65 -12 -86l-87 -373h-193l-147 577h-66v123zM460 744h-107v105h107v-105zM673 744h-107
v105h107v-105z" />
    <glyph glyph-name="wdieresis" unicode="&#x1e85;" horiz-adv-x="799" 
d="M4 500h233v-123h-47l44 -174q12 -47 13 -76q5 40 14 76l72 297h137l70 -297q8 -34 14 -77q4 39 13 77l44 174h-47v123h231v-123h-44l-102 -377h-171l-65 247q-12 57 -15 85q-4 -42 -17 -85l-67 -247h-165l-102 377h-43v123zM553 561h-107v109h107v-109zM355 561h-106v109
h106v-109z" />
    <glyph glyph-name="Ygrave" unicode="&#x1ef2;" horiz-adv-x="665" 
d="M6 700h294v-123h-66l69 -104q25 -40 35 -64q17 35 38 65l67 103h-66v123h282v-123h-50l-198 -297v-157h77v-123h-311v123h76v157l-201 297h-46v123zM166 865l135 15l119 -157h-92z" />
    <glyph glyph-name="ygrave" unicode="&#x1ef3;" horiz-adv-x="534" 
d="M4 500h240v-123h-42l54 -198q8 -28 14 -90q5 57 15 90l55 198h-42v123h232v-123h-49l-129 -397q-17 -55 -39.5 -92t-46 -58.5t-59 -32t-66.5 -13.5t-82 -3v128q52 0 77.5 9t34.5 33l8 22l-128 404h-47v123zM102 692l150 16l103 -174h-99z" />
    <glyph glyph-name="endash" unicode="&#x2013;" horiz-adv-x="633" 
d="M579 261h-525v121h525v-121z" />
    <glyph glyph-name="emdash" unicode="&#x2014;" horiz-adv-x="987" 
d="M934 261h-880v121h880v-121z" />
    <glyph glyph-name="afii00208" unicode="&#x2015;" horiz-adv-x="987" 
d="M934 261h-880v121h880v-121z" />
    <glyph glyph-name="quoteleft" unicode="&#x2018;" horiz-adv-x="261" 
d="M205 765l29 -56q-85 -40 -85 -125h54v-139h-142v139q0 62 42.5 110t101.5 71z" />
    <glyph glyph-name="quoteright" unicode="&#x2019;" horiz-adv-x="261" 
d="M59 700h142v-139q0 -62 -42.5 -110t-101.5 -71l-29 57q39 18 62 50t23 74h-54v139z" />
    <glyph glyph-name="quotesinglbase" unicode="&#x201a;" horiz-adv-x="261" 
d="M58 139h142v-139q0 -62 -42 -110t-102 -71l-29 57q85 38 85 124h-54v139z" />
    <glyph glyph-name="quotedblleft" unicode="&#x201c;" horiz-adv-x="455" 
d="M204 765l28 -56q-85 -40 -85 -125h55v-139h-142v139q0 62 42 110t102 71zM399 765l28 -56q-85 -40 -85 -125h55v-139h-142v139q0 62 42 110t102 71z" />
    <glyph glyph-name="quotedblright" unicode="&#x201d;" horiz-adv-x="455" 
d="M58 700h142v-139q0 -62 -42 -110t-102 -71l-29 57q85 38 85 124h-54v139zM253 700h142v-139q0 -62 -42 -110t-102 -71l-28 57q39 18 62 50t23 74h-55v139z" />
    <glyph glyph-name="quotedblbase" unicode="&#x201e;" horiz-adv-x="455" 
d="M58 139h142v-139q0 -62 -42 -110t-102 -71l-29 57q85 38 85 124h-54v139zM253 139h142v-139q0 -62 -42 -110t-102 -71l-28 57q39 18 62 50t23 74h-55v139z" />
    <glyph glyph-name="dagger" unicode="&#x2020;" horiz-adv-x="474" 
d="M184 700h140l-20 -152l152 21v-141l-152 20l20 -152h-140l20 152l-152 -20v141l152 -21z" />
    <glyph glyph-name="daggerdbl" unicode="&#x2021;" horiz-adv-x="509" 
d="M184 700h140l-20 -152l152 21v-141l-152 20v-196l152 21v-141l-152 20l20 -152h-140l20 152l-152 -20v141l152 -21v196l-152 -20v141l152 -21z" />
    <glyph glyph-name="bullet" unicode="&#x2022;" horiz-adv-x="400" 
d="M200 127q-60 0 -102 42t-42 102q0 61 42 103t102 42t102 -42t42 -103q0 -60 -42 -102t-102 -42z" />
    <glyph glyph-name="ellipsis" unicode="&#x2026;" horiz-adv-x="952" 
d="M399 150h153v-150h-153v150zM693 150h153v-150h-153v150zM106 150h153v-150h-153v150z" />
    <glyph glyph-name="perthousand" unicode="&#x2030;" horiz-adv-x="1285" 
d="M220 603q-62 0 -62 -92t62 -92q64 0 64 91q0 93 -64 93zM220 710q81 0 129.5 -54.5t48.5 -144.5q0 -89 -48 -145t-128 -56q-81 0 -129.5 54.5t-48.5 144.5q0 89 48 145t128 56zM649 700h159l-554 -700h-159zM680 283q-63 0 -63 -92q0 -46 17 -69t46 -23q64 0 64 91
q0 93 -64 93zM680 390q81 0 129.5 -54.5t48.5 -144.5q0 -89 -48 -145t-128 -56q-81 0 -129.5 54.5t-48.5 144.5q0 89 48 145t128 56zM1063 283q-62 0 -62 -92t62 -92q64 0 64 91q0 93 -64 93zM1063 390q81 0 129.5 -54.5t48.5 -144.5q0 -89 -48 -145t-128 -56
q-81 0 -129.5 54.5t-48.5 144.5q0 89 48 145t128 56z" />
    <glyph glyph-name="minute" unicode="&#x2032;" horiz-adv-x="265" 
d="M170 504h-88l-28 196h157z" />
    <glyph glyph-name="second" unicode="&#x2033;" horiz-adv-x="457" 
d="M169 504h-87l-28 196h157zM361 504h-87l-28 196h157z" />
    <glyph glyph-name="guilsinglleft" unicode="&#x2039;" horiz-adv-x="383" 
d="M269 509l61 -63l-148 -171l148 -172l-61 -62l-217 184v100z" />
    <glyph glyph-name="guilsinglright" unicode="&#x203a;" horiz-adv-x="383" 
d="M114 509l216 -184v-100l-216 -184l-62 62l149 172l-149 171z" />
    <glyph glyph-name="fraction" unicode="&#x2044;" horiz-adv-x="702" 
d="M145 0h-143l555 700h143z" />
    <glyph glyph-name="fraction" unicode="&#x2215;" horiz-adv-x="702" 
d="M145 0h-143l555 700h143z" />
    <glyph glyph-name="Euro" unicode="&#x20ac;" horiz-adv-x="631" 
d="M402 390h-183q-1 -13 -1 -40q0 -35 1 -51h148l-26 -77h-109q28 -91 117 -91q50 0 96 8v65h145v-184q-124 -30 -241 -30q-101 0 -174.5 63t-103.5 169h-74l26 77h34q-2 32 -2 51q0 27 1 40h-59l26 78h45q28 110 103 176t185 66q117 0 241 -30v-184h-145v65q-46 8 -101 8
q-94 0 -121 -101h198z" />
    <glyph glyph-name="afii61352" unicode="&#x2116;" horiz-adv-x="1283" 
d="M24 700h283l183 -406q1 -2 26 -77q-4 44 -4 79v281h-63v123h293v-123h-76v-577h-194l-202 456q-4 8 -8 21t-8 28t-6 21q3 -60 3 -72v-331h77v-123h-304v123h77v454h-77v123zM1013 586q-91 0 -91 -135q0 -136 91 -136q90 0 90 136q0 135 -90 135zM1013 710q107 0 171 -68
t64 -191q0 -124 -64 -192.5t-171 -68.5t-171.5 68.5t-64.5 192.5q0 123 64.5 191t171.5 68zM1247 0h-468v123h468v-123z" />
    <glyph glyph-name="trademark" unicode="&#x2122;" horiz-adv-x="797" 
d="M37 700h447l60 -203l59 203h133v-330h-89v220l-65 -220h-77l-67 220v-220h-87v257h-117v-257h-92v257h-105v73z" />
    <glyph glyph-name="estimated" unicode="&#x212e;" horiz-adv-x="747" 
d="M391 710q150 0 231.5 -94t84.5 -266h-483q0 -104 40.5 -162.5t125.5 -58.5q60 0 93 26t46 78h161q-15 -111 -93 -177t-206 -66q-151 0 -244 102t-93 258t93 258t244 102zM384 579q-107 0 -143 -108h278q-5 49 -40 78.5t-95 29.5z" />
    <glyph glyph-name="onethird" unicode="&#x2153;" horiz-adv-x="856" 
d="M240 0h-143l555 700h143l-287 -361q80 23 153 23q72 0 110.5 -26t38.5 -70q0 -67 -80 -84q86 -14 86 -85q0 -49 -42 -76.5t-119 -27.5t-155 24v102h105v-39q23 -7 49 -7q45 0 45 36q0 20 -14.5 28t-56.5 8v70q38 0 51.5 7.5t13.5 26.5q0 33 -39 33q-21 0 -44 -7v-39h-104
v99zM330 345h-254v88h77v166l-87 -53l-41 75l131 81h113v-269h61v-88z" />
    <glyph glyph-name="arrowleft" unicode="&#x2190;" horiz-adv-x="721" 
d="M52 321l282 282l86 -86l-135 -135h383v-121h-384l136 -135l-86 -86z" />
    <glyph glyph-name="arrowup" unicode="&#x2191;" horiz-adv-x="668" 
d="M334 616l282 -281l-86 -86l-135 134v-383h-121v384l-136 -135l-86 86z" />
    <glyph glyph-name="arrowright" unicode="&#x2192;" horiz-adv-x="721" 
d="M387 603l281 -282l-281 -281l-86 86l135 134h-384v122h384l-135 135z" />
    <glyph glyph-name="arrowdown" unicode="&#x2193;" horiz-adv-x="668" 
d="M273 570h121v-384l136 136l86 -86l-282 -282l-282 282l86 86l135 -135v383z" />
    <glyph glyph-name="partialdiff" unicode="&#x2202;" horiz-adv-x="599" 
d="M233 710q146 0 240 -103t94 -266q0 -167 -72 -259t-204 -92q-124 0 -192 70.5t-68 172.5q0 92 56.5 159.5t162.5 67.5q98 0 156 -65q-11 201 -200 201zM286 349q-99 0 -99 -116t96 -116q60 0 87.5 44.5t33.5 130.5q-51 57 -118 57z" />
    <glyph glyph-name="product" unicode="&#x220f;" horiz-adv-x="761" 
d="M24 700h713v-123h-77v-454h77v-123h-312v123h77v454h-243v-454h77v-123h-312v123h77v454h-77v123z" />
    <glyph glyph-name="summation" unicode="&#x2211;" horiz-adv-x="646" 
d="M43 700h550v-197h-158v74h-204l182 -218l-184 -236h206v74h158v-197h-553v124l184 235l-181 217v124z" />
    <glyph glyph-name="minus" unicode="&#x2212;" 
d="M563 261h-512v121h512v-121z" />
    <glyph glyph-name="radical" unicode="&#x221a;" horiz-adv-x="677" 
d="M440 0h-174l-128 379h-120v121h227l111 -345l183 545h136z" />
    <glyph glyph-name="infinity" unicode="&#x221e;" horiz-adv-x="801" 
d="M559 445q-31 0 -52.5 -19.5t-41.5 -54.5q21 -56 43 -85t58 -29q69 0 69 94t-76 94zM246 593q110 0 173 -121q64 121 158 121q80 0 125.5 -62.5t45.5 -179.5q0 -115 -55.5 -180t-137.5 -65q-109 0 -174 124q-64 -124 -158 -124q-80 0 -125.5 62.5t-45.5 179.5
q0 115 55.5 180t138.5 65zM234 442q-68 0 -68 -94q0 -93 76 -93q53 0 93 73q-20 55 -42.5 84.5t-58.5 29.5z" />
    <glyph glyph-name="integral" unicode="&#x222b;" horiz-adv-x="610" 
d="M227 -31v559q0 95 64.5 142.5t181.5 33.5v-126q-45 9 -72.5 -4.5t-27.5 -51.5v-553q0 -96 -65.5 -143.5t-181.5 -32.5v125q101 -19 101 51z" />
    <glyph glyph-name="approxequal" unicode="&#x2248;" horiz-adv-x="598" 
d="M210 549q42 0 79.5 -17.5t66.5 -34.5t49 -17q45 0 58 54l89 -50q-13 -67 -53.5 -100.5t-95.5 -33.5q-48 0 -106.5 34.5t-89.5 34.5q-23 0 -36.5 -12.5t-20.5 -42.5l-89 50q12 67 52.5 101t96.5 34zM210 285q42 0 79.5 -17.5t66.5 -34.5t49 -17q45 0 58 54l89 -50
q-13 -67 -53.5 -100.5t-95.5 -33.5q-48 0 -106.5 34.5t-89.5 34.5q-23 0 -36.5 -12.5t-20.5 -42.5l-89 50q12 67 52.5 101t96.5 34z" />
    <glyph glyph-name="notequal" unicode="&#x2260;" 
d="M563 138h-283l-52 -102h-128l52 102h-101v121h164l65 126h-229v121h291l49 94h128l-49 -94h93v-121h-155l-65 -126h220v-121z" />
    <glyph glyph-name="lessequal" unicode="&#x2264;" 
d="M546 618l-317 -171l317 -170l-58 -107l-416 230v94l416 230zM563 9h-512v121h512v-121z" />
    <glyph glyph-name="greaterequal" unicode="&#x2265;" horiz-adv-x="598" 
d="M72 277l317 170l-317 171l57 106l417 -230v-94l-417 -230zM563 9h-512v121h512v-121z" />
    <glyph glyph-name="lozenge" unicode="&#x25ca;" horiz-adv-x="501" 
d="M490 245l-153 -456h-174l-152 455l154 456h173zM152 257l101 -313l97 287l-101 314z" />
    <glyph glyph-name="dotlessj" unicode="&#xf6be;" horiz-adv-x="284" 
d="M18 500h194v-520q0 -95 -65 -147t-151 -52v114q40 0 59.5 20.5t19.5 73.5v388h-57v123z" />
    <glyph glyph-name="commaaccent" unicode="&#xf6c3;" horiz-adv-x="251" 
d="M75 -38h124v-68q0 -96 -119 -148l-18 49q65 20 65 75h-52v92z" />
    <glyph glyph-name="g.ss01" horiz-adv-x="553" 
d="M276 500h80q2 62 50.5 100.5t144.5 38.5v-123q-55 0 -55 -48v-144q0 -80 -58.5 -130t-168.5 -50q-35 0 -72 8q-14 -12 -14 -27q0 -29 44 -29h144q168 0 168 -138q0 -86 -65 -132.5t-197 -46.5q-237 0 -237 123q0 35 21.5 63.5t54.5 43.5q-65 22 -65 80q0 29 18.5 57.5
t46.5 41.5q-66 50 -66 134q0 83 58 130.5t168 47.5zM326 -4h-91q-5 0 -13.5 0.5t-11.5 0.5q-24 -19 -24 -49t21.5 -44.5t72.5 -14.5q105 0 105 65q0 42 -59 42zM274 387q-73 0 -73 -67q0 -73 73 -73q78 0 78 78v62h-78z" />
    <glyph glyph-name="g.ss02" horiz-adv-x="591" 
d="M236 510q52 0 87 -26.5t50 -66.5v83h201v-123h-56v-386q0 -210 -253 -210q-98 0 -160.5 52t-65.5 138h156q2 -32 24 -51.5t60 -19.5q49 0 71.5 20.5t22.5 70.5v97q-40 -89 -143 -89q-91 0 -144.5 67.5t-53.5 184.5q0 115 51 187t153 72zM275 387q-94 0 -94 -136
q0 -134 95 -134q97 0 97 132q0 138 -98 138z" />
    <glyph glyph-name="g.ss03" horiz-adv-x="587" 
d="M261 508q41 0 151.5 -4t158.5 -4v-123h-57v-392q0 -207 -251 -207q-97 0 -159.5 51.5t-65.5 137.5h155q2 -32 24 -51t60 -19q51 0 71.5 18.5t20.5 69.5v103q-39 -90 -140 -90q-90 0 -143.5 69.5t-53.5 186.5q0 111 61.5 182.5t167.5 71.5zM283 393q-48 0 -73.5 -36
t-25.5 -103q0 -136 93 -136q92 0 92 134v136q-48 5 -86 5z" />
    <glyph glyph-name="zero.fitted" horiz-adv-x="641" 
d="M320 568q-62 0 -88 -54.5t-26 -163.5t26 -163.5t88 -54.5q61 0 87 54.5t26 163.5t-26 163.5t-87 54.5zM320 710q119 0 196.5 -91t77.5 -269t-77.5 -269t-196.5 -91q-120 0 -197 91t-77 269t77 269t197 91z" />
    <glyph glyph-name="one.fitted" horiz-adv-x="479" 
d="M465 0h-384v123h129v433l-135 -80l-61 109l196 115h150v-577h105v-123z" />
    <glyph glyph-name="two.fitted" horiz-adv-x="587" 
d="M305 710q122 0 182.5 -59t60.5 -156q0 -100 -72 -180.5t-246 -191.5h316v-123h-502v129q139 91 213.5 154.5t98.5 106.5t24 93q0 102 -84 102q-40 0 -87 -10v-86h-154v186q125 35 250 35z" />
    <glyph glyph-name="three.fitted" horiz-adv-x="608" 
d="M303 710q121 0 187 -50.5t66 -133.5q0 -142 -172 -167q88 -7 135 -48.5t47 -115.5q0 -93 -75 -149t-194 -56q-126 0 -256 37v175h151v-86q47 -10 101 -10q49 0 74.5 25t25.5 69q0 53 -31 77.5t-117 24.5v112q84 0 111 22.5t27 72.5q0 85 -92 85q-44 0 -91 -10v-86h-150
v175q129 37 253 37z" />
    <glyph glyph-name="four.fitted" horiz-adv-x="605" 
d="M332 549l-158 -228h158v228zM301 700h186v-379h90v-124h-90v-74h68v-123h-295v123h72v74h-299v124z" />
    <glyph glyph-name="five.fitted" horiz-adv-x="600" 
d="M78 700h444v-189h-143v66h-165l-7 -131q55 10 109 10q107 0 178 -59t71 -163q0 -110 -74.5 -177t-194.5 -67q-118 0 -247 37v178h150v-86q45 -10 90 -10q113 0 113 113q0 59 -30 86t-102 27q-116 0 -216 -16z" />
    <glyph glyph-name="six.fitted" horiz-adv-x="631" 
d="M325 349q-37 0 -63 -14.5t-53 -46.5q8 -171 119 -171q101 0 101 116t-104 116zM344 710q108 0 215 -22v-170h-149v70q-30 6 -69 6q-66 0 -98.5 -50t-35.5 -155q64 73 161 73q110 0 162 -62.5t52 -155.5q0 -105 -67 -179.5t-195 -74.5q-131 0 -201.5 92t-70.5 259
q0 172 76.5 270.5t219.5 98.5z" />
    <glyph glyph-name="seven.fitted" horiz-adv-x="534" 
d="M21 700h494v-124l-239 -576h-169l253 576h-197v-103h-142v227z" />
    <glyph glyph-name="eight.fitted" horiz-adv-x="611" 
d="M306 588q-49 0 -73 -23t-24 -61q0 -90 97 -90q95 0 95 90q0 38 -23 61t-72 23zM306 303q-112 0 -112 -94q0 -44 28 -69t84 -25q55 0 83 25t28 69q0 94 -111 94zM306 710q117 0 181 -53.5t64 -136.5q0 -61 -37.5 -103t-106.5 -54q71 -7 114 -55.5t43 -121.5
q0 -92 -66 -144t-192 -52q-127 0 -193 51.5t-66 144.5q0 73 43 119.5t114 53.5q-66 14 -105 57.5t-39 104.5q0 83 64 136t182 53z" />
    <glyph glyph-name="nine.fitted" horiz-adv-x="631" 
d="M307 710q133 0 204.5 -87.5t71.5 -254.5q0 -169 -76 -273.5t-214 -104.5q-117 0 -224 40v172h150v-86q39 -11 75 -11q66 0 96.5 52.5t33.5 156.5q-62 -72 -157 -72q-106 0 -163 64.5t-57 153.5q0 103 68 176.5t192 73.5zM299 583q-101 0 -101 -111q0 -112 103 -112
q72 0 120 62q-3 82 -31 121.5t-91 39.5z" />
    <glyph glyph-name="zero.slash" 
d="M307 710q119 0 196.5 -91t77.5 -269t-77.5 -269t-196.5 -91q-120 0 -197 91t-77 269t77 269t197 91zM232 616l-109 -1l78 -160q-8 -40 -8 -105q0 -109 26 -163.5t88 -54.5q27 0 46 10l29 -58l110 1l-80 162q8 46 8 103q0 109 -26 163.5t-87 54.5q-27 0 -47 -11zM353 142
q45 24 59 105l-152 310q-45 -23 -59 -102z" />
    <glyph glyph-name="zero.tab" 
d="M307 568q-62 0 -88 -54.5t-26 -163.5t26 -163.5t88 -54.5q61 0 87 54.5t26 163.5t-26 163.5t-87 54.5zM307 710q119 0 196.5 -91t77.5 -269t-77.5 -269t-196.5 -91q-120 0 -197 91t-77 269t77 269t197 91z" />
    <glyph glyph-name="one.tab" 
d="M549 0h-397v124h129v432l-144 -89l-61 109l207 124h161v-576h105v-124z" />
    <glyph glyph-name="two.tab" 
d="M317 710q122 0 182.5 -59t60.5 -156q0 -100 -72 -180.5t-246 -191.5h316v-123h-502v129q139 91 213.5 154.5t98.5 106.5t24 93q0 102 -84 102q-40 0 -87 -10v-86h-154v186q125 35 250 35z" />
    <glyph glyph-name="three.tab" 
d="M310 710q121 0 187 -50.5t66 -133.5q0 -142 -172 -167q88 -7 135 -48.5t47 -115.5q0 -93 -75 -149t-194 -56q-126 0 -256 37v175h151v-86q47 -10 101 -10q50 0 75 25t25 69q0 53 -31 77.5t-117 24.5v112q84 0 111 22.5t27 72.5q0 85 -92 85q-44 0 -91 -10v-86h-150v175
q129 37 253 37z" />
    <glyph glyph-name="four.tab" 
d="M333 549l-158 -228h158v228zM302 700h186v-379h90v-124h-90v-74h68v-123h-295v123h72v74h-299v124z" />
    <glyph glyph-name="five.tab" 
d="M85 700h444v-189h-143v66h-165l-7 -131q55 10 109 10q107 0 178 -59t71 -163q0 -110 -74.5 -177t-194.5 -67q-118 0 -247 37v178h150v-86q45 -10 90 -10q113 0 113 113q0 59 -30 86t-102 27q-116 0 -216 -16z" />
    <glyph glyph-name="six.tab" 
d="M316 349q-37 0 -63 -14.5t-53 -46.5q8 -171 119 -171q101 0 101 116t-104 116zM335 710q108 0 215 -22v-170h-149v70q-30 6 -69 6q-66 0 -98.5 -50t-35.5 -155q64 73 161 73q110 0 162 -62.5t52 -155.5q0 -105 -67 -179.5t-195 -74.5q-131 0 -201.5 92t-70.5 259
q0 172 76.5 270.5t219.5 98.5z" />
    <glyph glyph-name="seven.tab" 
d="M60 700h494v-124l-239 -576h-169l253 576h-197v-103h-142v227z" />
    <glyph glyph-name="eight.tab" 
d="M307 588q-49 0 -73 -23t-24 -61q0 -90 97 -90q95 0 95 90q0 38 -23 61t-72 23zM307 303q-112 0 -112 -94q0 -44 28 -69t84 -25q55 0 83 25t28 69q0 94 -111 94zM307 710q117 0 181 -53.5t64 -136.5q0 -61 -37.5 -103t-106.5 -54q71 -7 114 -55.5t43 -121.5
q0 -92 -66 -144t-192 -52q-127 0 -193 51.5t-66 144.5q0 73 43 119.5t114 53.5q-66 14 -105 57.5t-39 104.5q0 83 64 136t182 53z" />
    <glyph glyph-name="nine.tab" 
d="M298 710q133 0 204.5 -87.5t71.5 -254.5q0 -169 -76 -273.5t-214 -104.5q-117 0 -224 40v172h150v-86q39 -11 75 -11q66 0 96.5 52.5t33.5 156.5q-62 -72 -157 -72q-106 0 -163 64.5t-57 153.5q0 103 68 176.5t192 73.5zM290 583q-101 0 -101 -111q0 -112 103 -112
q72 0 120 62q-3 82 -31 121.5t-91 39.5z" />
    <glyph glyph-name="dollar.tab" 
d="M345 -88h-85v79q-104 3 -225 28v197h139v-88q26 -6 86 -12v173q-123 18 -181 64t-58 138q0 86 62.5 146t176.5 71v73h85v-72q83 -2 214 -26v-194h-139v85q-45 7 -75 9v-162q249 -33 249 -197q0 -95 -66 -157.5t-183 -73.5v-81zM436 200q0 32 -22 49.5t-69 26.5v-158
q45 7 68 29t23 53zM175 505q0 -31 20.5 -47.5t64.5 -25.5v151q-43 -6 -64 -27.5t-21 -50.5z" />
    <glyph glyph-name="cent.tab" 
d="M274 694h71v-77q60 -1 180 -13v-183h-123v71q-26 4 -57 6v-275q52 17 62 75h133q-11 -83 -63 -137.5t-132 -62.5v-89h-71v91q-95 13 -146.5 81t-51.5 176q0 113 53 178.5t145 78.5v80zM209 357q0 -110 65 -133v267q-65 -24 -65 -134z" />
    <glyph glyph-name="sterling.tab" 
d="M324 710q88 0 231 -27v-194h-135v85q-60 11 -99 11q-100 0 -100 -97q0 -40 15 -121h190v-77h-179q0 -5 0.5 -14.5t0.5 -13.5q0 -65 -43 -139h348v-123h-494v123q41 56 41 119q0 21 -5 48h-70v77h51q-16 60 -16 111q0 98 68.5 165t195.5 67z" />
    <glyph glyph-name="yen.tab" 
d="M3 700h278v-123h-43l75 -156l75 156h-43v123h266v-123h-57l-111 -191h81v-78h-126l-12 -21v-24h111v-78h-111v-62h76v-123h-311v123h77v62h-112v78h112v24l-13 21h-126v78h80l-112 191h-54v123z" />
    <glyph glyph-name="florin.tab" 
d="M421 708q33 0 78 -8v-120q-40 10 -61 10q-64 0 -64 -60v-30h125v-111h-125v-419q0 -89 -53 -135t-138 -46q-37 0 -79 9v119q36 -9 61 -9q64 0 64 62v419h-69v111h69v28q0 89 53 134.5t139 45.5z" />
    <glyph glyph-name="Euro.tab" 
d="M408 390h-183q-1 -13 -1 -40q0 -35 1 -51h148l-26 -77h-109q28 -91 117 -91q50 0 96 8v65h145v-184q-124 -30 -241 -30q-101 0 -174.5 63t-103.5 169h-74l26 77h34q-2 32 -2 51q0 27 1 40h-59l26 78h45q28 110 103 176t185 66q117 0 241 -30v-184h-145v65q-46 8 -101 8
q-94 0 -121 -101h198z" />
    <glyph glyph-name="numbersign.tab" 
d="M249 0h-135v174h-85v106h85v139h-85v106h85v175h135v-175h117v175h135v-175h84v-106h-84v-139h84v-106h-84v-174h-135v174h-117v-174zM249 419v-139h117v139h-117z" />
    <glyph glyph-name="zero.oldstyle" horiz-adv-x="540" 
d="M271 391q-92 0 -92 -141t92 -141q91 0 91 141t-91 141zM271 510q99 0 164.5 -66t65.5 -196t-65 -194t-165 -64q-101 0 -166.5 64t-65.5 194t65.5 196t166.5 66z" />
    <glyph glyph-name="one.oldstyle" horiz-adv-x="430" 
d="M209 500h132v-377h98v-123h-363v123h127v248l-124 -77l-53 94z" />
    <glyph glyph-name="two.oldstyle" horiz-adv-x="575" 
d="M286 510q116 0 170.5 -46.5t54.5 -122.5q0 -69 -60 -123t-177 -106h242v-112h-457v111q164 74 228.5 120.5t64.5 96.5q0 68 -70 68q-40 0 -72 -7v-76h-137v174q111 23 213 23z" />
    <glyph glyph-name="three.oldstyle" horiz-adv-x="577" 
d="M54 500h463v-123l-175 -164q100 -7 150.5 -57t50.5 -128q0 -97 -69 -158t-189 -61q-107 0 -174 58.5t-77 160.5h144q6 -52 30.5 -76t76.5 -24q98 0 98 94q0 57 -40 79t-150 22v104l159 149h-167v-54h-131v178z" />
    <glyph glyph-name="four.oldstyle" horiz-adv-x="571" 
d="M453 -183h-137v183h-280v124l240 376h177v-377h87v-123h-87v-183zM316 123v240l-154 -240h154z" />
    <glyph glyph-name="five.oldstyle" horiz-adv-x="555" 
d="M83 500h408v-188h-131v65h-146l-10 -122q51 9 96 9q103 0 161 -55.5t58 -161.5q0 -110 -70 -174.5t-183 -64.5q-100 0 -160 55.5t-69 156.5h135q5 -53 27.5 -75.5t71.5 -22.5q44 0 67.5 29.5t23.5 83.5q0 60 -25 85t-90 25q-90 0 -190 -16z" />
    <glyph glyph-name="six.oldstyle" horiz-adv-x="585" 
d="M302 349q-68 0 -116 -60q5 -173 119 -173q93 0 93 117q0 116 -96 116zM315 710q104 0 211 -23v-169h-147v69q-37 8 -66 8q-65 0 -95.5 -51t-33.5 -154q58 70 151 70q105 0 158 -62t53 -153q0 -105 -64 -180t-185 -75q-125 0 -192 92t-67 259q0 168 72 268.5t205 100.5z
" />
    <glyph glyph-name="seven.oldstyle" horiz-adv-x="497" 
d="M14 500h470v-123l-226 -560h-162l240 560h-191v-94h-131v217z" />
    <glyph glyph-name="eight.oldstyle" horiz-adv-x="575" 
d="M287 710q111 0 172.5 -50t61.5 -131q0 -50 -32.5 -89.5t-84.5 -63.5q134 -51 134 -176q0 -93 -66 -151.5t-183 -58.5q-121 0 -185 47t-64 137q0 57 40 103t100 71q-127 53 -127 164q0 83 62.5 140.5t171.5 57.5zM264 301q-81 -45 -81 -108q0 -42 28 -67.5t82 -25.5
q103 0 103 87q0 71 -132 114zM289 602q-47 0 -70.5 -23.5t-23.5 -58.5q0 -36 30.5 -57.5t86.5 -40.5q70 40 70 96q0 37 -23.5 60.5t-69.5 23.5z" />
    <glyph glyph-name="nine.oldstyle" horiz-adv-x="585" 
d="M284 510q126 0 194 -87.5t68 -253.5q0 -167 -73 -263t-207 -96q-93 0 -151 53.5t-73 149.5h137q6 -46 27 -67.5t62 -21.5q65 0 93.5 45.5t31.5 148.5q-57 -68 -144 -68q-105 0 -157.5 61.5t-52.5 152.5q0 103 63 174.5t182 71.5zM281 384q-92 0 -92 -109q0 -55 19.5 -84
t72.5 -29q67 0 112 57q-1 83 -26.5 124t-85.5 41z" />
    <glyph glyph-name="zero.taboldstyle" horiz-adv-x="579" 
d="M290 391q-92 0 -92 -141t92 -141q91 0 91 141t-91 141zM290 510q99 0 164.5 -66t65.5 -196t-65 -194t-165 -64q-101 0 -166.5 64t-65.5 194t66 196t166 66z" />
    <glyph glyph-name="one.taboldstyle" horiz-adv-x="579" 
d="M259 500h141v-377h100v-123h-370v123h124v248l-124 -77l-54 94z" />
    <glyph glyph-name="two.taboldstyle" horiz-adv-x="579" 
d="M288 510q116 0 170.5 -46.5t54.5 -122.5q0 -69 -60 -123t-177 -106h242v-112h-457v111q164 74 228.5 120.5t64.5 96.5q0 68 -70 68q-40 0 -72 -7v-76h-137v174q111 23 213 23z" />
    <glyph glyph-name="three.taboldstyle" horiz-adv-x="579" 
d="M56 500h463v-123l-175 -164q100 -7 150.5 -57t50.5 -128q0 -97 -69 -158t-189 -61q-107 0 -174 58.5t-77 160.5h144q6 -52 30.5 -76t76.5 -24q98 0 98 94q0 57 -40 79t-150 22v104l159 149h-167v-54h-131v178z" />
    <glyph glyph-name="four.taboldstyle" horiz-adv-x="579" 
d="M454 -183h-137v183h-280v124l240 376h177v-377h87v-123h-87v-183zM317 123v240l-154 -240h154z" />
    <glyph glyph-name="five.taboldstyle" horiz-adv-x="579" 
d="M94 500h408v-188h-131v65h-146l-10 -122q51 9 96 9q103 0 161 -55.5t58 -161.5q0 -110 -70 -174.5t-183 -64.5q-100 0 -160 55.5t-69 156.5h135q5 -53 27.5 -75.5t71.5 -22.5q44 0 67.5 29.5t23.5 83.5q0 60 -25 85t-90 25q-90 0 -190 -16z" />
    <glyph glyph-name="six.taboldstyle" horiz-adv-x="579" 
d="M300 349q-68 0 -116 -60q5 -173 119 -173q93 0 93 117q0 116 -96 116zM313 710q104 0 211 -23v-169h-147v69q-37 8 -66 8q-65 0 -95.5 -51t-33.5 -154q58 70 151 70q105 0 158 -62t53 -153q0 -105 -64 -180t-185 -75q-125 0 -192 92t-67 259q0 168 72 268.5t205 100.5z
" />
    <glyph glyph-name="seven.taboldstyle" horiz-adv-x="579" 
d="M56 500h470v-123l-226 -560h-162l240 560h-191v-94h-131v217z" />
    <glyph glyph-name="eight.taboldstyle" horiz-adv-x="579" 
d="M288 710q111 0 172.5 -50t61.5 -131q0 -50 -32.5 -89.5t-84.5 -63.5q134 -51 134 -176q0 -93 -66 -151.5t-183 -58.5q-121 0 -185 47t-64 137q0 57 40 103t100 71q-127 53 -127 164q0 83 62.5 140.5t171.5 57.5zM265 301q-81 -45 -81 -108q0 -42 28 -67.5t82 -25.5
q103 0 103 87q0 71 -132 114zM290 602q-47 0 -70.5 -23.5t-23.5 -58.5q0 -36 30.5 -57.5t86.5 -40.5q70 40 70 96q0 37 -23.5 60.5t-69.5 23.5z" />
    <glyph glyph-name="nine.taboldstyle" horiz-adv-x="579" 
d="M281 510q126 0 194 -87.5t68 -253.5q0 -167 -73 -263t-207 -96q-93 0 -151 53.5t-73 149.5h137q6 -46 27 -67.5t62 -21.5q65 0 93.5 45.5t31.5 148.5q-57 -68 -144 -68q-105 0 -157.5 61.5t-52.5 152.5q0 103 63 174.5t182 71.5zM278 384q-92 0 -92 -109q0 -55 19.5 -84
t72.5 -29q67 0 112 57q-1 83 -26.5 124t-85.5 41z" />
    <glyph glyph-name="zero.small" horiz-adv-x="510" 
d="M255 391q-41 0 -58 -34t-17 -107q0 -74 17 -107.5t58 -33.5t58 34t17 107t-17.5 107t-57.5 34zM255 510q95 0 156.5 -65.5t61.5 -196.5q0 -130 -61 -194t-157 -64t-157 63.5t-61 194.5t61 196.5t157 65.5z" />
    <glyph glyph-name="one.small" horiz-adv-x="386" 
d="M154 502h140v-379h80v-123h-334v123h109v243l-105 -68l-54 102z" />
    <glyph glyph-name="two.small" horiz-adv-x="482" 
d="M249 510q96 0 147.5 -43.5t51.5 -112.5q0 -71 -48 -126t-164 -116h208v-112h-402v104q150 79 200.5 129.5t50.5 101.5q0 61 -59 61q-24 0 -57 -7v-78h-129v176q111 23 201 23z" />
    <glyph glyph-name="three.small" horiz-adv-x="514" 
d="M262 510q100 0 153.5 -36.5t53.5 -98.5q0 -95 -116 -119q61 -7 92.5 -38t31.5 -82q0 -68 -58 -107t-156 -39q-97 0 -207 24v150h133v-60q27 -7 63 -7q70 0 70 51q0 32 -21 45.5t-82 13.5v93q55 0 74 12t19 43q0 24 -14 36t-48 12q-35 0 -62 -7v-60h-132v150
q108 24 206 24z" />
    <glyph glyph-name="four.small" horiz-adv-x="503" 
d="M259 378l-100 -128h100v128zM243 500h161v-250h74v-102h-74v-46h56v-102h-258v102h57v46h-233v97z" />
    <glyph glyph-name="five.small" horiz-adv-x="516" 
d="M82 500h373v-149h-129v38h-115l-4 -71q33 5 60 5q96 0 154 -39t58 -121q0 -79 -61.5 -126t-160.5 -47q-100 0 -199 24v147h138v-58q25 -8 56 -8q71 0 71 63q0 38 -21.5 54.5t-70.5 16.5q-83 0 -167 -13z" />
    <glyph glyph-name="six.small" horiz-adv-x="534" 
d="M274 242q-41 0 -80 -39q5 -55 23 -81t57 -26q70 0 70 74q0 36 -16 54t-54 18zM287 510q89 0 189 -14v-141h-133v50q-28 7 -60 7q-42 0 -62.5 -28t-24.5 -86q52 35 122 35q89 0 134 -41t45 -117t-58.5 -130.5t-165.5 -54.5q-109 0 -172.5 67t-63.5 187t67 193t183 73z" />
    <glyph glyph-name="seven.small" horiz-adv-x="435" 
d="M21 500h395v-108l-181 -392h-159l187 389h-111v-74h-131v185z" />
    <glyph glyph-name="eight.small" horiz-adv-x="517" 
d="M259 414q-63 0 -63 -55q0 -58 63 -58q62 0 62 58q0 55 -62 55zM259 213q-75 0 -75 -63q0 -30 17 -45.5t58 -15.5q74 0 74 61q0 63 -74 63zM259 510q102 0 155.5 -37t53.5 -98q0 -42 -26 -74t-79 -43q56 -8 86.5 -41t30.5 -84q0 -68 -57 -105.5t-164 -37.5
q-109 0 -166 37.5t-57 105.5q0 49 32.5 82.5t86.5 42.5q-53 12 -80.5 43.5t-27.5 73.5q0 62 54 98.5t158 36.5z" />
    <glyph glyph-name="nine.small" horiz-adv-x="534" 
d="M263 404q-65 0 -65 -74q0 -36 14.5 -54t50.5 -18q49 0 76 35q-3 111 -76 111zM261 510q109 0 172.5 -67t63.5 -187t-66.5 -193t-180.5 -73q-90 0 -200 24v134h137v-52q34 -9 58 -9q45 0 67.5 27t24.5 86q-46 -33 -108 -33q-90 0 -141 42t-51 116q0 76 58.5 130.5
t165.5 54.5z" />
    <glyph glyph-name="zerosmall.tab" horiz-adv-x="532" 
d="M266 391q-41 0 -58 -34t-17 -107q0 -74 17 -107.5t58 -33.5t58 34t17 107t-17.5 107t-57.5 34zM266 510q95 0 156.5 -65.5t61.5 -196.5q0 -130 -61 -194t-157 -64t-157 63.5t-61 194.5t61 196.5t157 65.5z" />
    <glyph glyph-name="onesmall.tab" horiz-adv-x="532" 
d="M234 502h140v-379h80v-123h-334v123h109v243l-105 -68l-54 102z" />
    <glyph glyph-name="twosmall.tab" horiz-adv-x="532" 
d="M275 510q96 0 147.5 -43.5t51.5 -112.5q0 -71 -48 -126t-164 -116h208v-112h-402v104q150 79 200.5 129.5t50.5 101.5q0 61 -59 61q-24 0 -57 -7v-78h-129v176q111 23 201 23z" />
    <glyph glyph-name="threesmall.tab" horiz-adv-x="532" 
d="M270 510q100 0 153.5 -36.5t53.5 -98.5q0 -95 -116 -119q61 -7 92.5 -38t31.5 -82q0 -68 -58 -107t-156 -39q-97 0 -207 24v150h133v-60q27 -7 63 -7q70 0 70 51q0 32 -21 45.5t-82 13.5v93q55 0 74 12t19 43q0 24 -14 36t-48 12q-35 0 -62 -7v-60h-132v150
q108 24 206 24z" />
    <glyph glyph-name="foursmall.tab" horiz-adv-x="532" 
d="M272 378l-100 -128h100v128zM256 500h161v-250h74v-102h-74v-46h56v-102h-258v102h57v46h-233v97z" />
    <glyph glyph-name="fivesmall.tab" horiz-adv-x="532" 
d="M83 500h373v-149h-129v38h-115l-4 -71q33 5 60 5q96 0 154 -39t58 -121q0 -79 -61.5 -126t-160.5 -47q-100 0 -199 24v147h138v-58q25 -8 56 -8q71 0 71 63q0 38 -21.5 54.5t-70.5 16.5q-82 0 -167 -13z" />
    <glyph glyph-name="sixsmall.tab" horiz-adv-x="532" 
d="M274 242q-41 0 -80 -39q5 -55 23 -81t57 -26q70 0 70 74q0 36 -16 54t-54 18zM287 510q89 0 189 -14v-141h-133v50q-28 7 -60 7q-42 0 -62.5 -28t-24.5 -86q52 35 122 35q89 0 134 -41t45 -117t-58.5 -130.5t-165.5 -54.5q-109 0 -172.5 67t-63.5 187t67 193t183 73z" />
    <glyph glyph-name="sevensmall.tab" horiz-adv-x="532" 
d="M69 500h395v-108l-181 -392h-159l187 389h-111v-74h-131v185z" />
    <glyph glyph-name="eightsmall.tab" horiz-adv-x="532" 
d="M266 414q-63 0 -63 -55q0 -58 63 -58q62 0 62 58q0 55 -62 55zM266 213q-75 0 -75 -63q0 -30 17 -45.5t58 -15.5q74 0 74 61q0 63 -74 63zM266 510q102 0 155.5 -37t53.5 -98q0 -42 -26 -74t-79 -43q56 -8 86.5 -41t30.5 -84q0 -68 -57 -105.5t-164 -37.5
q-109 0 -166 37.5t-57 105.5q0 49 32.5 82.5t86.5 42.5q-53 12 -80.5 43.5t-27.5 73.5q0 62 54 98.5t158 36.5z" />
    <glyph glyph-name="ninesmall.tab" horiz-adv-x="532" 
d="M263 404q-65 0 -65 -74q0 -36 14.5 -54t50.5 -18q49 0 76 35q-3 111 -76 111zM261 510q109 0 172.5 -67t63.5 -187t-66.5 -193t-180.5 -73q-90 0 -200 24v134h137v-52q34 -9 58 -9q45 0 67.5 27t24.5 86q-46 -33 -108 -33q-90 0 -141 42t-51 116q0 76 58.5 130.5
t165.5 54.5z" />
    <glyph glyph-name="zero.superior" horiz-adv-x="391" 
d="M196 670q-29 0 -41 -21.5t-12 -70.5t12 -71t41 -22q28 0 40.5 22t12.5 71q0 48 -12.5 70t-40.5 22zM196 762q74 0 119.5 -46t45.5 -140q0 -93 -45.5 -138t-119.5 -45q-75 0 -120.5 45t-45.5 138q0 94 46 140t120 46z" />
    <glyph glyph-name="one.superior" horiz-adv-x="391" 
d="M340 400h-254v88h77v166l-87 -53l-41 75l131 81h113v-269h61v-88z" />
    <glyph glyph-name="two.superior" horiz-adv-x="391" 
d="M192 762q83 0 123 -30t40 -83q0 -48 -31 -83.5t-112 -77.5h146v-88h-322v75q113 59 153 92.5t40 66.5q0 37 -46 37q-16 0 -39 -5v-49h-104v122q70 23 152 23z" />
    <glyph glyph-name="three.superior" horiz-adv-x="391" 
d="M197 762q72 0 110.5 -26t38.5 -70q0 -67 -80 -84q86 -14 86 -85q0 -49 -42 -76.5t-119 -27.5t-155 24v102h105v-39q23 -7 49 -7q45 0 45 36q0 20 -14.5 28t-56.5 8v70q38 0 51.5 7.5t13.5 26.5q0 33 -39 33q-21 0 -44 -7v-39h-104v102q78 24 155 24z" />
    <glyph glyph-name="four.superior" horiz-adv-x="391" 
d="M179 755h127v-195h52v-87h-52v-73h-109v73h-170v82zM197 659l-74 -99h74v99z" />
    <glyph glyph-name="five.superior" horiz-adv-x="391" 
d="M67 755h253v-84h-163l-3 -38q20 4 48 4q146 0 146 -117q0 -57 -44.5 -92t-114.5 -35q-62 0 -139 24v103h99v-40q20 -5 39 -5q22 0 35.5 11t13.5 32q0 45 -58 45q-50 0 -125 -8z" />
    <glyph glyph-name="six.superior" horiz-adv-x="391" 
d="M201 560q-31 0 -55 -21q6 -60 55 -60q46 0 46 41q0 40 -46 40zM208 762q65 0 139 -23v-92h-96v25q-21 6 -46 6q-59 0 -65 -67q45 25 101 25q118 0 118 -111q0 -56 -38 -94t-120 -38q-84 0 -126.5 46.5t-42.5 133.5q0 90 44.5 139.5t131.5 49.5z" />
    <glyph glyph-name="seven.superior" horiz-adv-x="391" 
d="M39 755h308v-77l-129 -278h-130l134 265h-86v-43h-97v133z" />
    <glyph glyph-name="eight.superior" horiz-adv-x="391" 
d="M196 689q-43 0 -43 -36q0 -37 43 -37q41 0 41 37q0 36 -41 36zM196 546q-49 0 -49 -39t49 -39q48 0 48 39t-48 39zM196 762q70 0 109.5 -27.5t39.5 -70.5q0 -65 -75 -80q84 -11 84 -89q0 -48 -41 -75t-117 -27q-78 0 -118.5 26.5t-40.5 75.5q0 35 21.5 58t62.5 29
q-77 18 -77 82q0 44 39.5 71t112.5 27z" />
    <glyph glyph-name="nine.superior" horiz-adv-x="391" 
d="M193 677q-45 0 -45 -44q0 -42 44 -42q33 0 54 23q-6 63 -53 63zM191 762q83 0 127 -47t44 -133t-46.5 -137.5t-130.5 -51.5q-87 0 -144 24v88h101v-33q16 -5 37 -5q65 0 71 77q-42 -26 -87 -26q-63 0 -96.5 29.5t-33.5 82.5q0 55 40 93.5t118 38.5z" />
    <glyph glyph-name="zero.inferior" horiz-adv-x="391" 
d="M196 150q-29 0 -41 -21.5t-12 -70.5t12 -71t41 -22q28 0 40.5 22t12.5 71q0 48 -12.5 70t-40.5 22zM196 242q74 0 119.5 -46t45.5 -140q0 -93 -45.5 -138t-119.5 -45q-75 0 -120.5 45t-45.5 138q0 94 46 140t120 46z" />
    <glyph glyph-name="one.inferior" horiz-adv-x="391" 
d="M340 -120h-254v88h77v166l-87 -53l-41 75l131 81h113v-269h61v-88z" />
    <glyph glyph-name="two.inferior" horiz-adv-x="391" 
d="M192 242q83 0 123 -30t40 -83q0 -48 -31 -83.5t-112 -77.5h146v-88h-322v75q113 59 153 92.5t40 66.5q0 37 -46 37q-16 0 -39 -5v-49h-104v122q70 23 152 23z" />
    <glyph glyph-name="three.inferior" horiz-adv-x="391" 
d="M197 242q72 0 110.5 -26t38.5 -70q0 -67 -80 -84q86 -14 86 -85q0 -49 -42 -76.5t-119 -27.5t-155 24v102h105v-39q23 -7 49 -7q45 0 45 36q0 20 -14.5 28t-56.5 8v70q38 0 51.5 7.5t13.5 26.5q0 33 -39 33q-21 0 -44 -7v-39h-104v102q78 24 155 24z" />
    <glyph glyph-name="four.inferior" horiz-adv-x="391" 
d="M179 235h127v-195h52v-87h-52v-73h-109v73h-170v82zM197 139l-74 -99h74v99z" />
    <glyph glyph-name="five.inferior" horiz-adv-x="391" 
d="M67 235h253v-84h-163l-3 -38q20 4 48 4q146 0 146 -117q0 -57 -44.5 -92t-114.5 -35q-62 0 -139 24v103h99v-40q20 -5 39 -5q22 0 35.5 11t13.5 32q0 45 -58 45q-50 0 -125 -8z" />
    <glyph glyph-name="six.inferior" horiz-adv-x="391" 
d="M201 40q-31 0 -55 -21q6 -60 55 -60q46 0 46 41q0 40 -46 40zM208 242q65 0 139 -23v-92h-96v25q-21 6 -46 6q-59 0 -65 -67q45 25 101 25q118 0 118 -111q0 -56 -38 -94t-120 -38q-84 0 -126.5 46.5t-42.5 133.5q0 90 44.5 139.5t131.5 49.5z" />
    <glyph glyph-name="seven.inferior" horiz-adv-x="391" 
d="M39 235h308v-77l-129 -278h-130l134 265h-86v-43h-97v133z" />
    <glyph glyph-name="eight.inferior" horiz-adv-x="391" 
d="M196 169q-43 0 -43 -36q0 -37 43 -37q41 0 41 37q0 36 -41 36zM196 26q-49 0 -49 -39t49 -39q48 0 48 39t-48 39zM196 242q70 0 109.5 -27.5t39.5 -70.5q0 -65 -75 -80q84 -11 84 -89q0 -48 -41 -75t-117 -27q-78 0 -118.5 26.5t-40.5 75.5q0 35 21.5 58t62.5 29
q-77 18 -77 82q0 44 39.5 71t112.5 27z" />
    <glyph glyph-name="nine.inferior" horiz-adv-x="391" 
d="M193 157q-45 0 -45 -44q0 -42 44 -42q33 0 54 23q-6 63 -53 63zM191 242q83 0 127 -47t44 -133t-46.5 -137.5t-130.5 -51.5q-87 0 -144 24v88h101v-33q16 -5 37 -5q65 0 71 77q-42 -26 -87 -26q-63 0 -96.5 29.5t-33.5 82.5q0 55 40 93.5t118 38.5z" />
    <glyph glyph-name="zero.numr" horiz-adv-x="391" 
d="M196 614q-29 0 -41 -21.5t-12 -70.5t12 -71t41 -22q28 0 40.5 22t12.5 71q0 48 -12.5 70t-40.5 22zM196 706q74 0 119.5 -46t45.5 -140q0 -93 -45.5 -138t-119.5 -45q-75 0 -120.5 45t-45.5 138q0 94 46 140t120 46z" />
    <glyph glyph-name="one.numr" horiz-adv-x="391" 
d="M340 344h-254v88h77v166l-87 -53l-41 75l131 81h113v-269h61v-88z" />
    <glyph glyph-name="two.numr" horiz-adv-x="391" 
d="M192 706q83 0 123 -30t40 -83q0 -48 -31 -83.5t-112 -77.5h146v-88h-322v75q113 59 153 92.5t40 66.5q0 37 -46 37q-16 0 -39 -5v-49h-104v122q70 23 152 23z" />
    <glyph glyph-name="three.numr" horiz-adv-x="391" 
d="M197 706q72 0 110.5 -26t38.5 -70q0 -67 -80 -84q86 -14 86 -85q0 -49 -42 -76.5t-119 -27.5t-155 24v102h105v-39q23 -7 49 -7q45 0 45 36q0 20 -14.5 28t-56.5 8v70q38 0 51.5 7.5t13.5 26.5q0 33 -39 33q-21 0 -44 -7v-39h-104v102q78 24 155 24z" />
    <glyph glyph-name="four.numr" horiz-adv-x="391" 
d="M179 699h127v-195h52v-87h-52v-73h-109v73h-170v82zM197 603l-74 -99h74v99z" />
    <glyph glyph-name="five.numr" horiz-adv-x="391" 
d="M67 699h253v-84h-163l-3 -38q20 4 48 4q146 0 146 -117q0 -57 -44.5 -92t-114.5 -35q-62 0 -139 24v103h99v-40q20 -5 39 -5q22 0 35.5 11t13.5 32q0 45 -58 45q-50 0 -125 -8z" />
    <glyph glyph-name="six.numr" horiz-adv-x="391" 
d="M201 504q-31 0 -55 -21q6 -60 55 -60q46 0 46 41q0 40 -46 40zM208 706q65 0 139 -23v-92h-96v25q-21 6 -46 6q-59 0 -65 -67q45 25 101 25q118 0 118 -111q0 -56 -38 -94t-120 -38q-84 0 -126.5 46.5t-42.5 133.5q0 90 44.5 139.5t131.5 49.5z" />
    <glyph glyph-name="seven.numr" horiz-adv-x="391" 
d="M39 699h308v-77l-129 -278h-130l134 265h-86v-43h-97v133z" />
    <glyph glyph-name="eight.numr" horiz-adv-x="391" 
d="M196 633q-43 0 -43 -36q0 -37 43 -37q41 0 41 37q0 36 -41 36zM196 490q-49 0 -49 -39t49 -39q48 0 48 39t-48 39zM196 706q70 0 109.5 -27.5t39.5 -70.5q0 -65 -75 -80q84 -11 84 -89q0 -48 -41 -75t-117 -27q-78 0 -118.5 26.5t-40.5 75.5q0 35 21.5 58t62.5 29
q-77 18 -77 82q0 44 39.5 71t112.5 27z" />
    <glyph glyph-name="nine.numr" horiz-adv-x="391" 
d="M193 621q-45 0 -45 -44q0 -42 44 -42q33 0 54 23q-6 63 -53 63zM191 706q83 0 127 -47t44 -133t-46.5 -137.5t-130.5 -51.5q-87 0 -144 24v88h101v-33q16 -5 37 -5q65 0 71 77q-42 -26 -87 -26q-63 0 -96.5 29.5t-33.5 82.5q0 55 40 93.5t118 38.5z" />
    <glyph glyph-name="zero.dnom" horiz-adv-x="391" 
d="M196 270q-29 0 -41 -21.5t-12 -70.5t12 -71t41 -22q28 0 40.5 22t12.5 71q0 48 -12.5 70t-40.5 22zM196 362q74 0 119.5 -46t45.5 -140q0 -93 -45.5 -138t-119.5 -45q-75 0 -120.5 45t-45.5 138q0 94 46 140t120 46z" />
    <glyph glyph-name="one.dnom" horiz-adv-x="391" 
d="M340 0h-254v88h77v166l-87 -53l-41 75l131 81h113v-269h61v-88z" />
    <glyph glyph-name="two.dnom" horiz-adv-x="391" 
d="M192 362q83 0 123 -30t40 -83q0 -48 -31 -83.5t-112 -77.5h146v-88h-322v75q113 59 153 92.5t40 66.5q0 37 -46 37q-16 0 -39 -5v-49h-104v122q70 23 152 23z" />
    <glyph glyph-name="three.dnom" horiz-adv-x="391" 
d="M197 362q72 0 110.5 -26t38.5 -70q0 -67 -80 -84q86 -14 86 -85q0 -49 -42 -76.5t-119 -27.5t-155 24v102h105v-39q23 -7 49 -7q45 0 45 36q0 20 -14.5 28t-56.5 8v70q38 0 51.5 7.5t13.5 26.5q0 33 -39 33q-21 0 -44 -7v-39h-104v102q78 24 155 24z" />
    <glyph glyph-name="four.dnom" horiz-adv-x="391" 
d="M179 355h127v-195h52v-87h-52v-73h-109v73h-170v82zM197 259l-74 -99h74v99z" />
    <glyph glyph-name="five.dnom" horiz-adv-x="391" 
d="M67 355h253v-84h-163l-3 -38q20 4 48 4q146 0 146 -117q0 -57 -44.5 -92t-114.5 -35q-62 0 -139 24v103h99v-40q20 -5 39 -5q22 0 35.5 11t13.5 32q0 45 -58 45q-50 0 -125 -8z" />
    <glyph glyph-name="six.dnom" horiz-adv-x="391" 
d="M201 160q-31 0 -55 -21q6 -60 55 -60q46 0 46 41q0 40 -46 40zM208 362q65 0 139 -23v-92h-96v25q-21 6 -46 6q-59 0 -65 -67q45 25 101 25q118 0 118 -111q0 -56 -38 -94t-120 -38q-84 0 -126.5 46.5t-42.5 133.5q0 90 44.5 139.5t131.5 49.5z" />
    <glyph glyph-name="seven.dnom" horiz-adv-x="391" 
d="M39 355h308v-77l-129 -278h-130l134 265h-86v-43h-97v133z" />
    <glyph glyph-name="eight.dnom" horiz-adv-x="391" 
d="M196 289q-43 0 -43 -36q0 -37 43 -37q41 0 41 37q0 36 -41 36zM196 146q-49 0 -49 -39t49 -39q48 0 48 39t-48 39zM196 362q70 0 109.5 -27.5t39.5 -70.5q0 -65 -75 -80q84 -11 84 -89q0 -48 -41 -75t-117 -27q-78 0 -118.5 26.5t-40.5 75.5q0 35 21.5 58t62.5 29
q-77 18 -77 82q0 44 39.5 71t112.5 27z" />
    <glyph glyph-name="nine.dnom" horiz-adv-x="391" 
d="M193 277q-45 0 -45 -44q0 -42 44 -42q33 0 54 23q-6 63 -53 63zM191 362q83 0 127 -47t44 -133t-46.5 -137.5t-130.5 -51.5q-87 0 -144 24v88h101v-33q16 -5 37 -5q65 0 71 77q-42 -26 -87 -26q-63 0 -96.5 29.5t-33.5 82.5q0 55 40 93.5t118 38.5z" />
    <glyph glyph-name="A.small" horiz-adv-x="549" 
d="M90 500h368v-123h-50l88 -254h51v-123h-162l-37 113h-152l-35 -113h-159v123h52l87 254h-51v123zM273 404q-8 -41 -12 -54l-38 -131h99l-38 131q-8 30 -11 54z" />
    <glyph glyph-name="B.small" horiz-adv-x="525" 
d="M218 398v-96h49q58 0 58 49q0 25 -13 36t-45 11h-49zM218 213v-109h53q38 0 55 13t17 40q0 56 -70 56h-55zM17 500h298q80 0 123.5 -35t43.5 -88q0 -88 -100 -115q57 -10 87 -43.5t30 -81.5q0 -59 -47.5 -98t-128.5 -39h-306v123h56v254h-56v123z" />
    <glyph glyph-name="C.small" horiz-adv-x="530" 
d="M285 510q86 0 202 -17v-180h-134v69q-46 7 -70 7q-95 0 -95 -139t95 -139q25 0 70 7v69h134v-180q-105 -17 -202 -17q-117 0 -182 70.5t-65 189.5q0 132 66 196t181 64z" />
    <glyph glyph-name="D.small" horiz-adv-x="561" 
d="M17 500h281q108 0 169 -65.5t61 -183.5q0 -117 -59.5 -184t-164.5 -67h-287v123h56v254h-56v123zM218 391v-282h52q57 0 82 32t25 109t-26.5 109t-83.5 32h-49z" />
    <glyph glyph-name="E.small" horiz-adv-x="480" 
d="M17 500h426v-151h-118v42h-107v-86h137v-101h-137v-95h113v42h118v-151h-432v123h56v254h-56v123z" />
    <glyph glyph-name="F.small" horiz-adv-x="456" 
d="M17 500h426v-159h-118v50h-107v-96h137v-101h-137v-71h64v-123h-265v123h56v254h-56v123z" />
    <glyph glyph-name="G.small" horiz-adv-x="566" 
d="M286 510q92 0 205 -18v-153h-136v47q-47 9 -68 9q-53 0 -76.5 -36t-23.5 -108q0 -74 21.5 -110.5t69.5 -36.5q39 0 61.5 25t22.5 70h-85v93h237v-292h-128v68q-43 -78 -151 -78q-88 0 -142.5 66.5t-54.5 194.5q0 112 66.5 185.5t181.5 73.5z" />
    <glyph glyph-name="H.small" horiz-adv-x="577" 
d="M17 500h249v-123h-48v-66h141v66h-47v123h249v-123h-57v-254h57v-123h-249v123h47v72h-141v-72h48v-123h-249v123h56v254h-56v123z" />
    <glyph glyph-name="I.small" horiz-adv-x="292" 
d="M17 500h258v-123h-57v-254h57v-123h-258v123h56v254h-56v123z" />
    <glyph glyph-name="J.small" horiz-adv-x="478" 
d="M205 500h259v-123h-57v-217q0 -79 -56 -124.5t-151 -45.5q-83 0 -133.5 44.5t-60.5 124.5h146q6 -59 52 -59q34 0 46 15t12 51v211h-57v123z" />
    <glyph glyph-name="K.small" horiz-adv-x="569" 
d="M14 500h254v-123h-52v-254h53v-123h-255v123h57v254h-57v123zM303 500h246v-123h-45l-123 -111l145 -143h37v-123h-259v123h42l-127 131l128 123h-44v123z" />
    <glyph glyph-name="L.small" horiz-adv-x="463" 
d="M17 500h259v-123h-58v-254h103v79h126v-202h-430v123h56v254h-56v123z" />
    <glyph glyph-name="M.small" horiz-adv-x="726" 
d="M17 500h257l76 -259q10 -34 15 -77q4 34 14 77l77 259h254v-123h-57v-254h57v-123h-230v123h41v183q0 36 3 69l-15 -69l-94 -306h-102l-93 298q-14 55 -17 73q3 -33 3 -73v-175h41v-123h-230v123h56v254h-56v123z" />
    <glyph glyph-name="N.small" horiz-adv-x="590" 
d="M17 500h236l110 -239q4 -9 25 -81q-4 39 -4 81v116h-38v123h230v-123h-57v-377h-167l-119 264q-13 35 -27 84q5 -39 5 -90v-135h45v-123h-239v123h56v254h-56v123z" />
    <glyph glyph-name="O.small" horiz-adv-x="547" 
d="M274 388q-47 0 -69 -33.5t-22 -103.5q0 -71 22 -104.5t69 -33.5q46 0 68 33.5t22 104.5q0 137 -90 137zM274 510q111 0 173 -67.5t62 -191.5q0 -125 -62 -193t-173 -68q-112 0 -174 68t-62 193q0 124 62 191.5t174 67.5z" />
    <glyph glyph-name="P.small" horiz-adv-x="519" 
d="M218 398v-120h76q61 0 61 62q0 30 -14.5 44t-46.5 14h-76zM17 500h312q83 0 128 -44t45 -116q0 -71 -45 -112t-133 -41h-106v-64h65v-123h-266v123h56v254h-56v123z" />
    <glyph glyph-name="Q.small" horiz-adv-x="547" 
d="M274 510q111 0 173 -67.5t62 -191.5q0 -136 -73 -204l93 -120h-152l-49 68q-28 -5 -54 -5q-112 0 -174 68t-62 193q0 124 62 191.5t174 67.5zM200 171h140l9 -12q15 33 15 92q0 137 -90 137q-47 0 -69 -33.5t-22 -103.5q0 -110 54 -132z" />
    <glyph glyph-name="R.small" horiz-adv-x="553" 
d="M218 386v-92h71q32 0 45 11.5t13 36.5q0 44 -58 44h-71zM17 500h309q84 0 127 -35t43 -93q0 -49 -29 -81t-80 -42q45 -5 75.5 -36.5t30.5 -89.5h47v-123h-234v123h42q0 44 -16.5 58.5t-53.5 14.5h-60v-73h43v-123h-244v123h56v254h-56v123z" />
    <glyph glyph-name="S.small" horiz-adv-x="520" 
d="M256 510q93 0 197 -14v-154h-133v58q-30 5 -59 5q-71 0 -71 -44q0 -22 19.5 -31.5t64.5 -15.5q36 -4 61.5 -8.5t55 -15t47.5 -26.5t30 -43.5t12 -63.5q0 -77 -55 -122t-172 -45q-44 0 -200 15v156h134v-58q25 -6 66 -6q81 0 81 45q0 24 -17.5 33t-62.5 15q-37 4 -61 8
t-55 15t-49 26.5t-31 43.5t-13 65q0 69 57.5 115.5t153.5 46.5z" />
    <glyph glyph-name="T.small" horiz-adv-x="523" 
d="M10 500h503v-198h-118v75h-61v-254h56v-123h-258v123h57v254h-61v-75h-118v198z" />
    <glyph glyph-name="U.small" horiz-adv-x="599" 
d="M15 500h259v-123h-57v-197q0 -39 19 -56.5t63 -17.5q45 0 63 17.5t18 56.5v197h-55v123h258v-123h-56v-220q0 -81 -68 -124t-163 -43q-94 0 -159 43t-65 124v220h-57v123z" />
    <glyph glyph-name="V.small" horiz-adv-x="539" 
d="M6 500h239v-123h-43l54 -174q14 -68 15 -83q6 43 17 83l54 174h-43v123h233v-123h-49l-120 -377h-190l-119 377h-48v123z" />
    <glyph glyph-name="W.small" horiz-adv-x="801" 
d="M8 500h234v-123h-48l41 -168q9 -39 14 -79q6 47 13 78l71 292h133l74 -291q7 -29 15 -81q4 45 12 80l42 169h-48v123h232v-123h-44l-101 -377h-170l-65 247q-12 40 -16 85q-5 -47 -16 -85l-65 -247h-165l-100 377h-43v123z" />
    <glyph glyph-name="X.small" horiz-adv-x="556" 
d="M12 500h247v-123h-27q40 -53 50 -74q10 21 50 74h-26v123h238v-123h-65l-88 -116l103 -138h52v-123h-242v123h30q-48 64 -56 84q-13 -25 -57 -84h30v-123h-241v123h61l98 131l-92 123h-65v123z" />
    <glyph glyph-name="Y.small" horiz-adv-x="540" 
d="M10 500h239v-123h-27l25.5 -37.5t26.5 -39.5q3 5 26.5 39.5l25.5 37.5h-26v123h230v-123h-49l-135 -187v-67h57v-123h-267v123h57v67l-135 187h-48v123z" />
    <glyph glyph-name="Z.small" horiz-adv-x="475" 
d="M32 500h409v-111l-246 -277h120v58h133v-168h-423v110l247 277h-106v-54h-134v165z" />
    <glyph glyph-name="AE.small" horiz-adv-x="729" 
d="M115 500h577v-151h-118v42h-106v-86h136v-101h-136v-95h112v42h118v-151h-376v113h-165l-71 -113h-143v123h50l170 254h-48v123zM322 392l-106 -173h106v173z" />
    <glyph glyph-name="OE.small" horiz-adv-x="748" 
d="M268 389q-91 0 -91 -138q0 -72 22 -106t69 -34q46 0 67.5 34t21.5 106q0 138 -89 138zM268 510q39 0 77 -10h366v-151h-117v42h-123q30 -30 36 -86h116v-101h-116q-3 -60 -35 -95h128v42h117v-151h-372q-33 -10 -77 -10q-112 0 -174 68t-62 193q0 124 62 191.5t174 67.5z
" />
    <glyph glyph-name="Eng.small" horiz-adv-x="590" 
d="M17 500h237l130 -280v157h-35v123h227v-123h-57v-377q0 -95 -64 -147t-149 -52v114q38 0 57 17.5t21 67.5h-32l-141 315v-192h48v-123h-242v123h56v254h-56v123z" />
    <glyph glyph-name="Eth.small" horiz-adv-x="561" 
d="M17 500h281q108 0 169 -65.5t61 -183.5q0 -117 -59.5 -184t-164.5 -67h-287v123h56v89h-50v93h50v72h-56v123zM218 391v-86h77v-93h-77v-103h52q57 0 82 32t25 109t-26.5 109t-83.5 32h-49z" />
    <glyph glyph-name="IJ.small" horiz-adv-x="755" 
d="M17 500h258v-123h-57v-254h57v-123h-258v123h56v254h-56v123zM483 500h258v-123h-56v-217q0 -79 -56.5 -124.5t-150.5 -45.5q-83 0 -133.5 44.5t-60.5 124.5h147q6 -59 51 -59q34 0 46 15t12 51v211h-57v123z" />
    <glyph glyph-name="Oslash.small" horiz-adv-x="535" 
d="M415 500h99l-59 -75q48 -67 48 -174q0 -125 -62.5 -193t-172.5 -68q-75 0 -130 32l-17 -22h-100l59 75q-48 67 -48 176q0 124 62 191.5t174 67.5q76 0 129 -32zM268 389q-95 0 -95 -138q0 -33 4 -53l140 178q-19 13 -49 13zM362 251q0 20 -4 50l-140 -177q20 -13 50 -13
q94 0 94 140z" />
    <glyph glyph-name="Thorn.small" horiz-adv-x="520" 
d="M17 500h201v-69h104q82 0 127.5 -48.5t45.5 -122.5q0 -78 -45.5 -126.5t-132.5 -48.5h-99v-85h-201v123h56v254h-56v123zM218 329v-149h69q61 0 61 77q0 72 -61 72h-69z" />
    <glyph glyph-name="rupee" 
d="M57 700h500v-95h-114q39 -36 42 -92h72v-95h-84q-16 -55 -55 -90.5t-99 -41.5q76 -5 120.5 -46t44.5 -117h67v-123h-303v123h78q0 59 -26.5 83.5t-92.5 24.5h-150v120h168q78 0 89 67h-257v95h258q-9 64 -88 64h-170v123z" />
    <glyph glyph-name="litre" horiz-adv-x="454" 
d="M284 709q74 0 108.5 -34.5t34.5 -83.5q0 -136 -187 -257v-204q0 -29 24 -29q16 0 28.5 15t14.5 43h121q-36 -169 -186 -169q-139 0 -139 140v131l-47 -19l-33 84q46 19 80 36v166q0 85 51 133t130 48zM240 538v-82q60 61 60 111q0 31 -25 31q-35 0 -35 -60z" />
    <glyph glyph-name="publish" horiz-adv-x="831" 
d="M413 618q-116 0 -182 -73.5t-66 -194.5t66 -194.5t182 -73.5q120 0 185 73.5t65 194.5t-65 194.5t-185 73.5zM413 710q159 0 267.5 -99.5t108.5 -260.5q0 -163 -109 -261.5t-267 -98.5q-154 0 -262 98t-108 262t108.5 262t261.5 98zM410 473v-103h48q52 0 52 53
q0 26 -12 38t-40 12h-48zM255 553h225q67 0 103.5 -36t36.5 -94q0 -57 -37 -91t-108 -34h-65v-57h53v-96h-208v96h47v215h-47v97z" />
    <glyph glyph-name="ampersand.ss01" horiz-adv-x="759" 
d="M367 710q97 0 152 -44.5t55 -110.5q0 -64 -38.5 -99.5t-89.5 -35.5q-29 0 -51.5 15t-28.5 42q81 0 81 64q0 57 -82 57q-42 0 -63.5 -21t-21.5 -53q0 -19 11 -40.5t34.5 -48t46 -49l60.5 -59.5l63 -63q42 79 44 153h208v-123h-97q-25 -64 -70 -125q141 -179 141 -358h-138
q0 128 -104 256q-101 -75 -217 -75q-112 0 -172 58.5t-60 146.5q0 65 37 121t103 81q-34 57 -34 108q0 88 61 145.5t170 57.5zM284 119q63 0 115 36l-79 76t-95 96q-52 -31 -52 -95q0 -50 28 -81.5t83 -31.5z" />
    <glyph glyph-name="ampersand.ss02" horiz-adv-x="791" 
d="M385 710q113 0 165 -42t52 -114q0 -63 -49 -103h236v-103h-109q-6 -158 -98.5 -258t-225.5 -100q-146 0 -231.5 93t-85.5 248q0 163 98.5 271t247.5 108zM354 129q78 0 127 56.5t53 162.5h-337v-10q0 -209 157 -209zM370 586q-120 0 -159 -135h135q50 1 76.5 22t26.5 52
q0 26 -19.5 43.5t-59.5 17.5z" />
    <glyph glyph-name="ampersand.ss03" horiz-adv-x="683" 
d="M328 710q138 0 250 -25v-181h-143v74q-50 10 -106 10t-83.5 -23.5t-27.5 -62.5q0 -41 25.5 -61.5t68.5 -20.5h366v-107h-100v-313h-283q-123 0 -190.5 50t-67.5 141q0 71 41.5 119t125.5 60q-134 34 -134 150q0 81 70.5 135.5t187.5 54.5zM301 123h134v190h-131
q-56 0 -89.5 -23.5t-33.5 -73.5q0 -93 120 -93z" />
    <glyph glyph-name="ampersand.ss04" horiz-adv-x="775" 
d="M391 356h374v-103h-96q-23 -123 -109.5 -193t-203.5 -70q-145 0 -231 93.5t-86 241.5q0 171 100 278t253 107q115 0 171 -39.5t56 -108.5q0 -189 -421 -197v-27q0 -209 157 -209q129 0 157 124h-121v103zM382 594q-120 0 -163 -120q94 2 148.5 13t71 25t16.5 34
q0 48 -73 48z" />
    <glyph glyph-name="ampersand.ss05" horiz-adv-x="765" 
d="M359 710q101 0 160.5 -38t59.5 -119q0 -30 -11.5 -55t-28 -41.5t-45.5 -32t-51.5 -24.5t-58.5 -21l128 -113q33 66 36 142h193v-124h-75q-24 -55 -60 -102l67 -59h68v-123h-139l-94 83q-114 -91 -239 -91q-112 0 -172 58.5t-60 146.5q0 133 131 200q-44 61 -44 125
q0 82 60.5 135t174.5 53zM293 118q72 0 129 41l-180 160q-63 -40 -63 -106q0 -38 30 -66.5t84 -28.5zM270 531q0 -38 36 -80q62 21 93 41.5t31 55.5q0 23 -19.5 37t-55.5 14q-41 0 -63 -18t-22 -50z" />
    <glyph glyph-name="ampersand.small" horiz-adv-x="620" 
d="M403 320h188v-108h-84q-13 -28 -37 -66q73 -34 121 -34v-120q-82 0 -203 63q-80 -63 -174 -63q-88 0 -138 37t-50 108q0 49 28.5 87t75.5 60q-19 38 -19 72q0 67 52 110.5t143 43.5q97 0 183 -19v-134h-128v42q-35 7 -54 7q-58 0 -58 -49q0 -33 36.5 -75t93.5 -82
q22 52 24 120zM301 108q-71 48 -122 105q-23 -23 -23 -55q0 -31 19.5 -49.5t55.5 -18.5q39 0 70 18z" />
    <glyph glyph-name="caron.alt" horiz-adv-x="221" 
d="M52 700h125l-54 -159h-71v159z" />
    <glyph glyph-name="acute.case" horiz-adv-x="334" 
d="M159 880l135 -15l-162 -142h-92z" />
    <glyph glyph-name="grave.case" horiz-adv-x="334" 
d="M40 865l135 15l119 -157h-92z" />
    <glyph glyph-name="caron.case" horiz-adv-x="462" 
d="M44 865l94 15l93 -72l93 72l94 -15l-128 -142h-117z" />
    <glyph glyph-name="circumflex.case" horiz-adv-x="462" 
d="M418 738l-94 -15l-93 73l-93 -73l-94 15l129 142h117z" />
    <glyph glyph-name="breve.case" horiz-adv-x="371" 
d="M44 854l75 9q1 -57 67 -57t66 57l76 -9q-1 -59 -41 -93t-101 -34q-62 0 -102 34t-40 93z" />
    <glyph glyph-name="dieresis.case" horiz-adv-x="440" 
d="M167 744h-107v105h107v-105zM380 744h-107v105h107v-105z" />
    <glyph glyph-name="dotaccent.case" horiz-adv-x="242" 
d="M190 744h-138v113h138v-113z" />
    <glyph glyph-name="hungarumlaut.case" horiz-adv-x="479" 
d="M132 880l114 -15l-124 -134h-78zM320 880l114 -15l-123 -134h-78z" />
    <glyph glyph-name="macron.case" horiz-adv-x="376" 
d="M324 740h-272v84h272v-84z" />
    <glyph glyph-name="ring.case" horiz-adv-x="358" 
d="M179 892q55 0 91 -24t36 -68t-35.5 -67t-91.5 -23t-91.5 23t-35.5 67t36 68t91 24zM178 834q-48 0 -48 -34q0 -35 48 -35q49 0 49 35q0 34 -49 34z" />
    <glyph glyph-name="tilde.case" horiz-adv-x="447" 
d="M155 860q38 0 82 -25t57 -25q30 0 35 37l63 -10q-11 -109 -95 -109q-33 0 -79 27t-67 27q-35 0 -36 -42l-60 13q2 50 27 78.5t73 28.5z" />
    <glyph glyph-name="arrowupleft" horiz-adv-x="621" 
d="M91 102v398h399v-121h-192l271 -272l-85 -86l-272 272v-191h-121z" />
    <glyph glyph-name="arrowupright" horiz-adv-x="621" 
d="M530 500v-398h-121v191l-272 -272l-85 86l272 272h-192v121h398z" />
    <glyph glyph-name="arrowdownleft" horiz-adv-x="621" 
d="M91 0v398h121v-191l272 272l85 -86l-271 -272h192v-121h-399z" />
    <glyph glyph-name="arrowdownright" horiz-adv-x="621" 
d="M530 398v-398h-398v121h192l-272 272l85 86l272 -272v191h121z" />
    <glyph glyph-name="beta.alt" horiz-adv-x="561" 
d="M286 588q-53 0 -75 -57t-22 -176q0 -122 22 -182.5t80 -60.5q88 0 88 106q0 55 -28.5 77t-103.5 22v102q66 0 88.5 20t22.5 68q0 39 -16 60t-56 21zM289 710q95 0 155 -45.5t60 -130.5q0 -135 -140 -160q165 -26 165 -176q0 -88 -61.5 -148t-171.5 -60q-122 0 -190.5 89
t-68.5 271t67.5 271t184.5 89z" />
    <glyph glyph-name="theta.alt" horiz-adv-x="564" 
d="M273 710q254 0 254 -350q0 -177 -67.5 -273.5t-189.5 -96.5q-86 0 -130.5 33.5t-44.5 95.5q0 27 -7 38t-26 11h-39v123h90q61 0 90 -26.5t29 -82.5q0 -67 53 -67q52 0 72 47.5t22 159.5q-58 -13 -125 -13q-102 0 -156 49.5t-54 141.5q0 85 61 147.5t168 62.5zM282 416
q47 0 94 13q-6 84 -30 122.5t-73 38.5q-83 0 -83 -93q0 -81 92 -81z" />
    <glyph glyph-name="sigmafinal" horiz-adv-x="475" 
d="M258 510q89 0 201 -13v-185h-131v69q-37 8 -64 8q-44 0 -63.5 -24.5t-19.5 -80.5q0 -44 18.5 -76.5t46.5 -49l60 -34l60 -33t46.5 -46t18.5 -71.5q0 -55 -54 -105.5t-142 -86.5l-62 102q99 43 99 85q0 14 -17.5 26.5t-43.5 22t-56 29t-56 45t-43.5 72.5t-17.5 109
q0 109 58 173t162 64z" />
    <glyph glyph-name="phi.alt" horiz-adv-x="747" 
d="M276 507v-121q-100 -5 -100 -133q0 -67 28.5 -99.5t95.5 -40.5v182q0 104 45 159.5t148 55.5q223 0 223 -248q0 -119 -69.5 -185.5t-201.5 -79.5v-208h-145v207q-269 25 -269 257q0 109 73 180t172 74zM445 271v-157q67 10 96.5 45t29.5 103q0 67 -16 95t-49 28
q-34 0 -47.5 -23.5t-13.5 -90.5z" />
    <glyph glyph-name="dieresistonoscomb" horiz-adv-x="457" 
d="M148 746h-96v108h96v-108zM174 894h112l-25 -171h-64zM404 746h-95v108h95v-108z" />
    <glyph glyph-name="gacute" horiz-adv-x="556" 
d="M537 642v-124q-53 0 -74.5 -13.5t-22.5 -48.5q58 -52 58 -134q0 -78 -59 -126.5t-168 -48.5q-37 0 -72 9q-16 -13 -16 -31q0 -17 10.5 -23t33.5 -6h148q88 0 126 -36.5t38 -104.5q0 -176 -263 -176q-237 0 -237 123q0 35 21.5 63.5t54.5 43.5q-33 11 -49 29t-16 51
q0 30 19.5 59.5t49.5 43.5q-68 50 -68 135q0 83 58 133t166 50q37 0 72 -8q4 64 51.5 102t138.5 38zM275 708l151 -16l-154 -158h-100zM275 404q-74 0 -74 -80q0 -33 18.5 -54t55.5 -21q77 0 77 75q0 80 -77 80zM209 -3q-24 -19 -24 -49t22 -44.5t73 -14.5q106 0 106 65
q0 42 -60 42h-92q-4 0 -12.5 0.5t-12.5 0.5z" />
    <glyph glyph-name="iacute_jacute" horiz-adv-x="562" 
d="M17 500h201v-377h57v-123h-258v123h56v254h-56v123zM290 500h202v-520q0 -94 -68.5 -146.5t-155.5 -52.5v122q41 0 59.5 17t18.5 69v388h-56v123zM430 708l151 -16l-154 -158h-100zM160 708l151 -16l-154 -158h-100z" />
    <glyph glyph-name="Aacute.small" horiz-adv-x="549" 
d="M293 708l151 -16l-154 -158h-100zM90 500h368v-123h-50l88 -254h51v-123h-162l-37 113h-152l-35 -113h-159v123h52l87 254h-51v123zM273 404q-8 -41 -12 -54l-38 -131h99l-38 131q-8 30 -11 54z" />
    <glyph glyph-name="Abreve.small" horiz-adv-x="549" 
d="M122 683l88 10q2 -66 64 -66t62 66l89 -10q0 -65 -44.5 -103.5t-106.5 -38.5q-63 0 -107.5 38.5t-44.5 103.5zM90 500h368v-123h-50l88 -254h51v-123h-162l-37 113h-152l-35 -113h-159v123h52l87 254h-51v123zM273 404q-8 -41 -12 -54l-38 -131h99l-38 131q-8 30 -11 54z
" />
    <glyph glyph-name="Acircumflex.small" horiz-adv-x="549" 
d="M90 500h368v-123h-50l88 -254h51v-123h-162l-37 113h-152l-35 -113h-159v123h52l87 254h-51v123zM273 404q-8 -41 -12 -54l-38 -131h99l-38 131q-8 30 -11 54zM208 695h132l121 -150l-101 -17l-85 82l-86 -82l-102 17z" />
    <glyph glyph-name="Adieresis.small" horiz-adv-x="549" 
d="M90 500h368v-123h-50l88 -254h51v-123h-162l-37 113h-152l-35 -113h-159v123h52l87 254h-51v123zM273 404q-8 -41 -12 -54l-38 -131h99l-38 131q-8 30 -11 54zM228 561h-106v109h106v-109zM426 561h-107v109h107v-109z" />
    <glyph glyph-name="Agrave.small" horiz-adv-x="549" 
d="M114 692l150 16l103 -174h-99zM90 500h368v-123h-50l88 -254h51v-123h-162l-37 113h-152l-35 -113h-159v123h52l87 254h-51v123zM273 404q-8 -41 -12 -54l-38 -131h99l-38 131q-8 30 -11 54z" />
    <glyph glyph-name="Amacron.small" horiz-adv-x="549" 
d="M410 557h-272v93h272v-93zM90 500h368v-123h-50l88 -254h51v-123h-162l-37 113h-152l-35 -113h-159v123h52l87 254h-51v123zM273 404q-8 -41 -12 -54l-38 -131h99l-38 131q-8 30 -11 54z" />
    <glyph glyph-name="Aogonek.small" horiz-adv-x="549" 
d="M90 500h368v-123h-50l88 -254h51v-123h-41q-22 -16 -35.5 -40.5t-13.5 -45.5q0 -41 45 -41q7 0 21 2v-89q-21 -6 -47 -6q-59 0 -93.5 28.5t-34.5 71.5q0 71 82 120h-45l-37 113h-152l-35 -113h-159v123h52l87 254h-51v123zM273 404q-8 -41 -12 -54l-38 -131h99l-38 131
q-8 30 -11 54z" />
    <glyph glyph-name="Aring.small" horiz-adv-x="549" 
d="M274 725q55 0 93 -27.5t38 -76.5t-38 -76t-93 -27q-56 0 -93.5 27t-37.5 76t38 76.5t93 27.5zM273 656q-20 0 -32 -9.5t-12 -24.5q0 -36 44 -36q43 0 43 34q0 17 -12.5 26.5t-30.5 9.5zM90 500h368v-123h-50l88 -254h51v-123h-162l-37 113h-152l-35 -113h-159v123h52
l87 254h-51v123zM273 404q-8 -41 -12 -54l-38 -131h99l-38 131q-8 30 -11 54z" />
    <glyph glyph-name="Atilde.small" horiz-adv-x="549" 
d="M205 689q38 0 82 -27.5t57 -27.5q15 0 23.5 8t11.5 31l63 -10q-12 -120 -95 -120q-33 0 -79 29t-67 29q-35 0 -36 -45l-60 14q2 55 27 87t73 32zM90 500h368v-123h-50l88 -254h51v-123h-162l-37 113h-152l-35 -113h-159v123h52l87 254h-51v123zM273 404q-8 -41 -12 -54
l-38 -131h99l-38 131q-8 30 -11 54z" />
    <glyph glyph-name="Ccedilla.small" horiz-adv-x="530" 
d="M285 510q86 0 202 -17v-180h-134v69q-46 7 -70 7q-95 0 -95 -139t95 -139q25 0 70 7v69h134v-180q-88 -13 -159 -16l-33 -44q17 3 32 3q44 0 71.5 -21.5t27.5 -59.5q0 -50 -42.5 -78.5t-103.5 -28.5q-75 0 -116 38l41 48q18 -23 65 -23q50 0 50 35q0 42 -77 42
q-15 0 -55 -4l54 95q-97 12 -150.5 80.5t-53.5 176.5q0 132 66 196t181 64z" />
    <glyph glyph-name="Cacute.small" horiz-adv-x="530" 
d="M297 708l151 -16l-154 -158h-100zM285 510q86 0 202 -17v-180h-134v69q-46 7 -70 7q-95 0 -95 -139t95 -139q25 0 70 7v69h134v-180q-105 -17 -202 -17q-117 0 -182 70.5t-65 189.5q0 132 66 196t181 64z" />
    <glyph glyph-name="Ccircumflex.small" horiz-adv-x="530" 
d="M285 510q86 0 202 -17v-180h-134v69q-46 7 -70 7q-95 0 -95 -139t95 -139q25 0 70 7v69h134v-180q-105 -17 -202 -17q-117 0 -182 70.5t-65 189.5q0 132 66 196t181 64zM235 695h132l121 -150l-101 -17l-85 82l-86 -82l-102 17z" />
    <glyph glyph-name="Ccaron.small" horiz-adv-x="530" 
d="M110 684l102 17l85 -82l86 82l101 -17l-121 -150h-132zM285 510q86 0 202 -17v-180h-134v69q-46 7 -70 7q-95 0 -95 -139t95 -139q25 0 70 7v69h134v-180q-105 -17 -202 -17q-117 0 -182 70.5t-65 189.5q0 132 66 196t181 64z" />
    <glyph glyph-name="Cdotaccent.small" horiz-adv-x="530" 
d="M285 510q86 0 202 -17v-180h-134v69q-46 7 -70 7q-95 0 -95 -139t95 -139q25 0 70 7v69h134v-180q-105 -17 -202 -17q-117 0 -182 70.5t-65 189.5q0 132 66 196t181 64zM362 561h-139v125h139v-125z" />
    <glyph glyph-name="Dcroat.small" horiz-adv-x="561" 
d="M17 500h281q108 0 169 -65.5t61 -183.5q0 -117 -59.5 -184t-164.5 -67h-287v123h56v93h-52v84h52v77h-56v123zM218 391v-91h65v-84h-65v-107h52q57 0 82 32t25 109t-26.5 109t-83.5 32h-49z" />
    <glyph glyph-name="Dcaron.small" horiz-adv-x="561" 
d="M69 684l102 17l85 -82l86 82l101 -17l-121 -150h-132zM17 500h281q108 0 169 -65.5t61 -183.5q0 -117 -59.5 -184t-164.5 -67h-287v123h56v254h-56v123zM218 391v-282h52q57 0 82 32t25 109t-26.5 109t-83.5 32h-49z" />
    <glyph glyph-name="Eacute.small" horiz-adv-x="480" 
d="M276 708l151 -16l-154 -158h-100zM17 500h426v-151h-118v42h-107v-86h137v-101h-137v-95h113v42h118v-151h-432v123h56v254h-56v123z" />
    <glyph glyph-name="Ebreve.small" horiz-adv-x="480" 
d="M97 683l88 10q2 -66 64 -66t62 66l89 -10q0 -65 -44.5 -103.5t-106.5 -38.5q-63 0 -107.5 38.5t-44.5 103.5zM17 500h426v-151h-118v42h-107v-86h137v-101h-137v-95h113v42h118v-151h-432v123h56v254h-56v123z" />
    <glyph glyph-name="Ecaron.small" horiz-adv-x="480" 
d="M59 684l102 17l85 -82l86 82l101 -17l-121 -150h-132zM17 500h426v-151h-118v42h-107v-86h137v-101h-137v-95h113v42h118v-151h-432v123h56v254h-56v123z" />
    <glyph glyph-name="Ecircumflex.small" horiz-adv-x="480" 
d="M17 500h426v-151h-118v42h-107v-86h137v-101h-137v-95h113v42h118v-151h-432v123h56v254h-56v123zM180 695h132l121 -150l-101 -17l-85 82l-86 -82l-102 17z" />
    <glyph glyph-name="Edieresis.small" horiz-adv-x="480" 
d="M17 500h426v-151h-118v42h-107v-86h137v-101h-137v-95h113v42h118v-151h-432v123h56v254h-56v123zM201 561h-106v109h106v-109zM399 561h-107v109h107v-109z" />
    <glyph glyph-name="Edotaccent.small" horiz-adv-x="480" 
d="M17 500h426v-151h-118v42h-107v-86h137v-101h-137v-95h113v42h118v-151h-432v123h56v254h-56v123zM323 561h-139v125h139v-125z" />
    <glyph glyph-name="Egrave.small" horiz-adv-x="480" 
d="M85 692l150 16l103 -174h-99zM17 500h426v-151h-118v42h-107v-86h137v-101h-137v-95h113v42h118v-151h-432v123h56v254h-56v123z" />
    <glyph glyph-name="Emacron.small" horiz-adv-x="480" 
d="M385 557h-272v93h272v-93zM17 500h426v-151h-118v42h-107v-86h137v-101h-137v-95h113v42h118v-151h-432v123h56v254h-56v123z" />
    <glyph glyph-name="Eogonek.small" horiz-adv-x="480" 
d="M17 500h426v-151h-118v42h-107v-86h137v-101h-137v-95h113v42h118v-151h-22q-22 -16 -35.5 -40.5t-13.5 -45.5q0 -41 45 -41q7 0 21 2v-89q-21 -6 -47 -6q-59 0 -93.5 28.5t-34.5 71.5q0 71 82 120h-334v123h56v254h-56v123z" />
    <glyph glyph-name="Gacute.small" horiz-adv-x="566" 
d="M290 708l151 -16l-154 -158h-100zM286 510q92 0 205 -18v-153h-136v47q-47 9 -68 9q-53 0 -76.5 -36t-23.5 -108q0 -74 21.5 -110.5t69.5 -36.5q39 0 61.5 25t22.5 70h-85v93h237v-292h-128v68q-43 -78 -151 -78q-88 0 -142.5 66.5t-54.5 194.5q0 112 66.5 185.5
t181.5 73.5z" />
    <glyph glyph-name="Gbreve.small" horiz-adv-x="566" 
d="M137 683l88 10q2 -66 64 -66t62 66l89 -10q0 -65 -44.5 -103.5t-106.5 -38.5q-63 0 -107.5 38.5t-44.5 103.5zM286 510q92 0 205 -18v-153h-136v47q-47 9 -68 9q-53 0 -76.5 -36t-23.5 -108q0 -74 21.5 -110.5t69.5 -36.5q39 0 61.5 25t22.5 70h-85v93h237v-292h-128v68
q-43 -78 -151 -78q-88 0 -142.5 66.5t-54.5 194.5q0 112 66.5 185.5t181.5 73.5z" />
    <glyph glyph-name="Gcircumflex.small" horiz-adv-x="566" 
d="M286 510q92 0 205 -18v-153h-136v47q-47 9 -68 9q-53 0 -76.5 -36t-23.5 -108q0 -74 21.5 -110.5t69.5 -36.5q39 0 61.5 25t22.5 70h-85v93h237v-292h-128v68q-43 -78 -151 -78q-88 0 -142.5 66.5t-54.5 194.5q0 112 66.5 185.5t181.5 73.5zM225 695h132l121 -150
l-101 -17l-85 82l-86 -82l-102 17z" />
    <glyph glyph-name="Gcommaaccent.small" horiz-adv-x="566" 
d="M286 510q92 0 205 -18v-153h-136v47q-47 9 -68 9q-53 0 -76.5 -36t-23.5 -108q0 -74 21.5 -110.5t69.5 -36.5q39 0 61.5 25t22.5 70h-85v93h237v-292h-128v68q-43 -78 -151 -78q-88 0 -142.5 66.5t-54.5 194.5q0 112 66.5 185.5t181.5 73.5zM233 -38h124v-68
q0 -96 -119 -148l-18 49q65 20 65 75h-52v92z" />
    <glyph glyph-name="Gdotaccent.small" horiz-adv-x="566" 
d="M286 510q92 0 205 -18v-153h-136v47q-47 9 -68 9q-53 0 -76.5 -36t-23.5 -108q0 -74 21.5 -110.5t69.5 -36.5q39 0 61.5 25t22.5 70h-85v93h237v-292h-128v68q-43 -78 -151 -78q-88 0 -142.5 66.5t-54.5 194.5q0 112 66.5 185.5t181.5 73.5zM359 561h-139v125h139v-125z
" />
    <glyph glyph-name="Hcircumflex.small" horiz-adv-x="577" 
d="M17 500h249v-123h-48v-66h141v66h-47v123h249v-123h-57v-254h57v-123h-249v123h47v72h-141v-72h48v-123h-249v123h56v254h-56v123zM222 695h132l121 -150l-101 -17l-85 82l-86 -82l-102 17z" />
    <glyph glyph-name="Hbar.small" horiz-adv-x="577" 
d="M557 318h-53v-195h57v-123h-249v123h47v72h-141v-72h48v-123h-249v123h56v195h-52v59h-4v123h249v-101h46v101h249v-123h-4v-59zM218 311h141v7h-141v-7z" />
    <glyph glyph-name="Iacute.small" horiz-adv-x="292" 
d="M151 708l151 -16l-154 -158h-100zM17 500h258v-123h-57v-254h57v-123h-258v123h56v254h-56v123z" />
    </font>
</defs>
</svg>
