<svg xmlns="http://www.w3.org/2000/svg" xmlns:xlink="http://www.w3.org/1999/xlink" height="108" viewBox="0 0 158 108" width="158"><svg height="99.5" viewBox="0 0 150 100" width="150" x="4" y="4"><linearGradient id="a" gradientUnits="userSpaceOnUse" x1="1798.136" y1="35.421" x2="1798.136" y2="150.712" gradientTransform="translate(-699.22 -15.251) scale(.4306)"><stop offset="0" stop-color="#dc7d43"/><stop offset="1" stop-color="#f3c644"/></linearGradient><path fill-rule="evenodd" clip-rule="evenodd" fill="url(#a)" d="M75 0l-1.9 42.4 1.9 7.2 1.9-7.2L75 0z"/><linearGradient id="b" gradientUnits="userSpaceOnUse" x1="1123.763" y1="-936.474" x2="1173.685" y2="-850.005" gradientTransform="rotate(30.007 -505.444 -990.208) scale(.4551)"><stop offset="0" stop-color="#dc7d43"/><stop offset="1" stop-color="#f3c644"/></linearGradient><path fill-rule="evenodd" clip-rule="evenodd" fill="url(#b)" d="M106.2 6.7L82 44.5l-2.1 7.6 5.6-5.6 20.7-39.8z"/><linearGradient id="c" gradientUnits="userSpaceOnUse" x1="163.195" y1="-1540.267" x2="214.093" y2="-1509.684" gradientTransform="matrix(.226 .3914 -.3914 .226 -533.464 312.66)"><stop offset="0" stop-color="#dc7d43"/><stop offset="1" stop-color="#f3c644"/></linearGradient><path fill-rule="evenodd" clip-rule="evenodd" fill="url(#c)" d="M128.6 28.9L89 49.4l-5.5 5.5 7.5-2 37.6-24z"/><linearGradient id="d" gradientUnits="userSpaceOnUse" x1="-884.087" y1="-1196.755" x2="-875.1" y2="-1196.755" gradientTransform="rotate(90 -538.866 1.841) scale(.5477)"><stop offset="0" stop-color="#dc7d43"/><stop offset="1" stop-color="#f3c644"/></linearGradient><path fill-rule="evenodd" clip-rule="evenodd" fill="url(#d)" d="M150 59l-54-2.5-9.1 2.5 9.1 2.4 54-2.4z"/><linearGradient id="e" gradientUnits="userSpaceOnUse" x1="1648.603" y1="1223.02" x2="1597.705" y2="1307.729" gradientTransform="rotate(-30.007 -621.866 1574.378) scale(.4551)"><stop offset="0" stop-color="#dc7d43"/><stop offset="1" stop-color="#f3c644"/></linearGradient><path fill-rule="evenodd" clip-rule="evenodd" fill="url(#e)" d="M43.8 6.7l20.7 39.8 5.6 5.6-2.1-7.6L43.8 6.7z"/><linearGradient id="f" gradientUnits="userSpaceOnUse" x1="1043.055" y1="2225.553" x2="993.133" y2="2254.376" gradientTransform="matrix(.226 -.3914 .3914 .226 -1062.811 -65.802)"><stop offset="0" stop-color="#dc7d43"/><stop offset="1" stop-color="#f3c644"/></linearGradient><path fill-rule="evenodd" clip-rule="evenodd" fill="url(#f)" d="M21.4 28.9l37.6 24 7.5 2-5.5-5.5-39.6-20.5z"/><linearGradient id="g" gradientUnits="userSpaceOnUse" x1="-82.864" y1="2390.627" x2="-91.851" y2="2390.627" gradientTransform="rotate(-90 -633.32 644.436) scale(.5477)"><stop offset="0" stop-color="#dc7d43"/><stop offset="1" stop-color="#f3c644"/></linearGradient><path fill-rule="evenodd" clip-rule="evenodd" fill="url(#g)" d="M0 59l54 2.4 9.1-2.4-9.1-2.5L0 59z"/><path fill-rule="evenodd" clip-rule="evenodd" fill="#F3C644" d="M84.7 22.6l-7.3 23.1V50l2.1-3.7 5.2-23.7zm16.9 9.8L83.7 48.7l-2.1 3.7 3.7-2.2 16.3-17.8zm9.7 16.8l-23.6 5.2-3.7 2.1 4.3.1 23-7.4zm-46-26.6l5.2 23.7 2.1 3.7v-4.3l-7.3-23.1zm-16.9 9.8l16.3 17.8 3.7 2.2-2.1-3.7-17.9-16.3zm-9.7 16.8l23 7.4 4.3-.1-3.7-2.1-23.6-5.2z"/><path d="M20.5 66.4l-1.8 3.3-.4-.2c.1-.4.2-.6.2-.7 0-.3-.3-.5-.9-.8-1.7-.8-3.5-1.2-5.4-1.2-1.6 0-2.9.3-4.1.9-.6.3-1 .7-1.3 1.1-.3.5-.5.9-.5 1.4 0 .4.1.8.4 1.2.3.4.6.7 1 .8.5.2 1 .4 1.6.4.6.1 1.6.1 3 .2 1.9.1 3.3.2 4.2.3.8.1 1.5.3 2.1.6 1.4.8 2.2 2 2.2 3.7 0 1.6-.7 2.9-2 3.9-1.4 1.1-3.4 1.7-6 1.7-1.5 0-2.7-.1-3.8-.4-1.1-.3-2.4-.8-3.9-1.6-.4-.2-.7-.3-.8-.3-.1 0-.3.2-.6.5l-.3-.2 1.9-3.2.4.2c-.2.3-.2.6-.2.7 0 .3.5.7 1.6 1.3 1 .5 1.9.9 2.8 1.1.9.2 1.9.3 2.9.3 2.1 0 3.8-.5 4.9-1.4.7-.6 1.1-1.4 1.1-2.2 0-1.1-.6-1.9-1.9-2.4-.5-.3-.9-.4-1.4-.4-.4 0-1.7-.1-3.7-.2-1.5-.1-2.6-.2-3.4-.3-.8-.2-1.6-.4-2.2-.8-.6-.3-1.1-.8-1.4-1.4-.4-.6-.5-1.3-.5-2 0-1.2.5-2.3 1.4-3.2.7-.6 1.6-1.1 2.8-1.5 1.2-.4 2.5-.6 3.9-.6 1.2 0 2.2.1 3.2.3 1 .2 2.1.6 3.4 1.2.3.1.5.2.5.2.2 0 .4-.2.6-.5l.4.2zm5.1 3.5v7.3c0 1.1.1 1.9.2 2.3.1.4.4.8.7 1.1.8.6 2.1.9 3.9.9 2 0 3.4-.4 4.1-1.1.3-.3.4-.6.5-1 .1-.4.1-1.1.1-2.2v-7.3c0-.3-.1-.6-.2-.7-.1-.2-.3-.3-.6-.4v-.3h3.1v.3c-.3.1-.5.2-.6.3-.1.1-.2.4-.2.8v7.7c0 1.3-.1 2.2-.3 2.8-.4.9-1.1 1.6-2 2-1 .4-2.4.7-4.1.7-2.5 0-4.2-.5-5.2-1.4-.5-.4-.8-.9-1-1.5-.2-.6-.2-1.4-.2-2.6v-7.7c0-.4-.1-.6-.2-.8-.1-.1-.3-.3-.6-.3v-.3h3.4v.3c-.3.1-.5.2-.6.4-.1.1-.2.4-.2.7zm17 .8v10.6c0 .3.1.6.2.7.1.2.3.3.7.4v.3h-3.1v-.3c.3-.1.5-.2.7-.4.1-.1.2-.4.2-.7V69.9c0-.4-.1-.6-.2-.8-.1-.1-.3-.3-.6-.3v-.3h4.6v.3c-.4.1-.7.4-.7.7 0 .3.2.6.5.9l8.4 9.4v-9.9c0-.4-.1-.6-.2-.8-.1-.1-.3-.3-.6-.3v-.3h3.1v.3c-.3.1-.5.2-.6.3-.1.1-.2.4-.2.8v11.4c0 .3.1.6.2.7.1.2.3.3.7.4v.3H52v-.3c.4-.1.7-.3.7-.5s-.2-.5-.6-1l-9.5-10.2zm17.1 10.7V66.7c0-.3-.1-.5-.2-.6-.1-.1-.3-.2-.6-.3v-.4H68c2.1 0 3.7.3 4.8.9 1.4.7 2.4 1.8 3.2 3.3.6 1.3.9 2.8.9 4.5 0 2-.4 3.7-1.3 5.1-.8 1.3-1.7 2.2-2.9 2.7s-2.7.8-4.7.8h-9.1v-.4c.3-.1.5-.2.6-.3.2-.2.2-.4.2-.6zm2-.3H68c1.8 0 3.2-.3 4.1-.9 1-.7 1.8-1.7 2.3-3.1.3-.9.5-2 .5-3.1 0-2-.5-3.7-1.5-5-.6-.7-1.3-1.2-2.1-1.6-.9-.3-1.9-.4-3.3-.4h-6.2v14.1h-.1zM82.6 76v5.3h8.8c.4 0 .6-.1.8-.2.1-.1.3-.3.3-.6h.4v3h-.4c-.1-.3-.2-.5-.3-.6-.1-.1-.4-.2-.8-.2H80v-.3c.3-.1.5-.2.7-.4.1-.1.2-.4.2-.7V69.9c0-.4-.1-.6-.2-.8-.1-.1-.3-.3-.6-.3v-.3h11.3c.4 0 .6-.1.8-.2.1-.1.3-.3.3-.6h.3v3h-.3c-.1-.3-.2-.5-.3-.6-.1-.1-.4-.2-.8-.2h-8.7v4.8h5.6c.4 0 .6-.1.8-.2.1-.1.3-.3.3-.6h.3v3h-.3c-.1-.3-.2-.5-.4-.6-.1-.1-.4-.2-.7-.2h-5.7V76zm28.1-6.5l-1.6 2.7-.3-.2c.1-.2.1-.4.1-.5 0-.2-.2-.4-.5-.6-1.4-.9-3-1.3-4.8-1.3-1.8 0-3.3.5-4.5 1.5-1.4 1.1-2 2.6-2 4.4 0 1.9.8 3.5 2.3 4.7 1.2.9 2.6 1.4 4.2 1.4 1.8 0 3.5-.5 4.8-1.6.5-.4.8-.7.8-.9 0-.1-.1-.4-.2-.6l.3-.2 2 2.5-.3.2c-.3-.3-.5-.4-.6-.4-.1 0-.2.1-.3.2-1 .8-2.1 1.4-3.1 1.8-1 .4-2.2.5-3.5.5-2.3 0-4.1-.6-5.6-1.8-.9-.7-1.5-1.4-1.9-2.3-.6-1.1-.8-2.2-.8-3.4 0-2.3.9-4.2 2.7-5.6 1.5-1.2 3.4-1.8 5.7-1.8 2 0 4 .5 5.8 1.5.2.1.3.1.4.1.2 0 .4-.1.6-.4l.3.1zm11.3-1.3c2.5 0 4.6.7 6.1 2 1.7 1.4 2.5 3.2 2.5 5.5 0 1.4-.4 2.8-1.2 3.9-1.5 2.3-4 3.4-7.4 3.4-2.5 0-4.6-.7-6.1-2-1.7-1.4-2.5-3.2-2.5-5.4 0-1.5.4-2.9 1.2-4 .9-1.3 2.1-2.2 3.6-2.8 1.1-.4 2.4-.6 3.8-.6zm0 1.4c-2.1 0-3.7.6-5 1.9-1.1 1.1-1.7 2.5-1.7 4 0 1.6.6 2.9 1.7 4 1.3 1.3 2.9 1.9 5 1.9s3.8-.6 5-1.9c1.1-1.1 1.7-2.4 1.7-4 0-1.7-.6-3-1.7-4.1-1.2-1.1-2.9-1.7-5-1.8zm14 6.7v5c0 .4.1.6.2.7.1.2.3.3.6.4v.3h-3.4v-.3c.3-.1.5-.2.7-.4.1-.1.2-.4.2-.7V69.9c0-.4-.1-.6-.2-.8-.1-.1-.3-.3-.6-.3v-.3h8.4c1 0 1.7.1 2.3.2.6.1 1.1.4 1.6.7 1 .7 1.5 1.7 1.5 3 0 1.1-.3 2-1 2.6-.7.6-1.7 1-3 1.1l3.6 5.7c.1.2.3.3.4.4.1.1.3.1.7.2v.3h-3.5v-.3c.3-.1.5-.2.5-.3 0-.1-.1-.3-.3-.6l-3.3-5.2H136zm0-1.4h5.4c.9 0 1.5 0 2-.1s.8-.2 1.1-.4c.7-.4 1-1 1-1.9 0-.9-.3-1.6-.9-2-.6-.4-1.6-.6-2.9-.6H136v5zM48.8 99.2h-1.4c0-.1-.1-.2-.2-.4-.3-1.1-.7-1.8-1-2.2-.4-.4-.9-.6-1.5-.6h-.3c0 1.2 0 2.2.1 3.2h-1.4c.1-1 .1-2 .1-3.2h-.4c-.6 0-1.1.2-1.5.6-.4.4-.7 1.1-1 2.2 0 .1-.1.2-.2.4h-1.3c.1-.1.2-.4.3-.8.3-.9.6-1.5.9-2 .3-.4.7-.7 1.2-.9v-.1c-.7-.3-1.4-1.2-1.9-2.8L39 92h1.3c0 .1.1.2.2.3.5 1.8 1.2 2.7 2.4 2.7h.3c0-1.2 0-2.2-.1-3.1h1.3c-.1.9-.1 1.9-.1 3.1h.3c1.1 0 1.9-.9 2.4-2.7 0-.1.1-.2.2-.3h1.2c-.1.1-.1.3-.3.6-.6 1.6-1.2 2.5-1.9 2.8v.1c.5.1.9.4 1.2.9.3.4.6 1.1.9 2 .2.3.3.6.5.8zm11.5 0h-1.2c0-.2-.1-.4-.1-.6-.6.6-1.5.8-2.5.8-.6 0-1.1-.2-1.5-.5-.4-.3-.6-.8-.6-1.5 0-.8.3-1.4 1-1.9s1.9-.7 3.7-.7v-.4c0-.6-.2-1-.5-1.2-.3-.2-.8-.3-1.5-.3-.8 0-1.6.1-2.3.3l.1-1c.8-.2 1.6-.3 2.6-.3.9 0 1.6.2 2.1.6.5.4.7 1 .7 1.9v2.5c-.2.8-.1 1.6 0 2.3zM59 97.8v-2.1c-.9 0-1.7.1-2.2.2-.8.3-1.2.7-1.2 1.4s.5 1 1.5 1c.7.1 1.4-.1 1.9-.5zm13.3 1.4H71c.1-.9.1-2 .1-3.3 0-1 0-2-.1-2.9h-1.5c-.1.6-.3 1.1-.5 1.7l-.6 1.5c-.2.5-.4.9-.6 1.3-.2.4-.5.7-.7 1-.2.3-.5.5-.7.7-.2.2-.5.2-.7.2l-.1-1.2c.1 0 .3-.1.4-.2.2-.2.3-.4.5-.6.2-.3.4-.6.6-1l.6-1.2c.2-.4.4-.9.5-1.4.2-.5.3-1 .5-1.6h2.5l1-.1c-.1 1.1-.1 2.3-.1 3.9.1 1 .1 2.2.2 3.2zm16.1-3.8c0 1.3-.3 2.3-1 3-.7.7-1.5 1.1-2.5 1.1-.9 0-1.7-.3-2.3-.9-.6-.6-.9-1.5-.9-2.7h-1.8c0 1.1 0 2.2.1 3.3h-1.3c.1-1 .1-2.2.1-3.5 0-1.5-.1-2.7-.3-3.7l1.5-.2c0 .4-.1 1.4-.1 3h1.8c.2-1 .6-1.8 1.2-2.4.7-.6 1.4-.8 2.3-.8.9 0 1.7.3 2.3 1 .6.7.9 1.7.9 2.8zm-1.3.3c0-.8-.2-1.5-.6-2.1-.4-.6-.9-.9-1.6-.9-.7 0-1.2.3-1.6.8-.4.6-.6 1.2-.6 2s.2 1.5.6 2.1c.4.6.9.9 1.6.9.7 0 1.2-.3 1.6-.9.4-.4.6-1.1.6-1.9zm12.4 1.4c0 .8-.3 1.3-.9 1.7-.6.4-1.3.6-2.2.6-.9 0-1.7-.1-2.4-.3l.1-1c.6.3 1.4.4 2.3.4 1.3 0 1.9-.4 1.9-1.2 0-.8-.8-1.3-2.3-1.3h-1.3l.1-1H96c1.4 0 2-.4 2-1.2 0-.7-.6-1-1.8-1-.8 0-1.5.1-2.1.3l.1-1c.6-.2 1.4-.3 2.2-.3 1.8 0 2.8.6 2.8 1.7 0 .8-.4 1.4-1.2 1.8v.1c.3.1.7.2.9.5.4.2.6.7.6 1.2zm12.2 2.1h-1.4c.1-.9.1-2 .1-3.5 0-.4 0-1 .1-1.8h-.1c-.1.3-.8 1.3-2.1 2.7-1.2 1.4-1.8 2.3-1.8 2.5h-1.1c.1-1 .1-2.2.1-3.5 0-1.5-.1-2.7-.3-3.7l1.5-.2c-.1.9-.1 2.1-.1 3.6v1.9h.1c.1-.3.8-1.2 2.1-2.7 1.2-1.4 1.8-2.3 1.8-2.6l1.1-.2c-.1 1.1-.1 2.3-.1 3.9 0 1.4 0 2.6.1 3.6z"/><linearGradient id="h" gradientUnits="userSpaceOnUse" x1="-124.172" y1="4559.689" x2="-133.16" y2="4559.689" gradientTransform="matrix(0 -.5477 .2425 0 -1084.835 25.279)"><stop offset="0" stop-color="#dc7d43"/><stop offset="1" stop-color="#f3c644"/></linearGradient><path fill-rule="evenodd" clip-rule="evenodd" fill="url(#h)" d="M6.8 95.7l23.9 2.5 4-2.5-4-2.4-23.9 2.4z"/><linearGradient id="i" gradientUnits="userSpaceOnUse" x1="-124.172" y1="-3543.398" x2="-133.16" y2="-3543.398" gradientTransform="matrix(0 -.5477 -.2425 0 -729.946 25.279)"><stop offset="0" stop-color="#dc7d43"/><stop offset="1" stop-color="#f3c644"/></linearGradient><path fill-rule="evenodd" clip-rule="evenodd" fill="url(#i)" d="M143.2 95.7l-23.9 2.5-4-2.5 4-2.4 23.9 2.4z"/></svg></svg>