<?xml version="1.0" encoding="utf-8"?>
<!-- Generator: Adobe Illustrator 18.0.0, SVG Export Plug-In . SVG Version: 6.00 Build 0)  -->
<!DOCTYPE svg PUBLIC "-//W3C//DTD SVG 1.1//EN" "http://www.w3.org/Graphics/SVG/1.1/DTD/svg11.dtd">
<svg version="1.1" id="Слой_1" xmlns="http://www.w3.org/2000/svg" xmlns:xlink="http://www.w3.org/1999/xlink" x="0px" y="0px"
	 viewBox="0 0 150 99.5" enable-background="new 0 0 150 99.5" xml:space="preserve">
<g>
	
		<linearGradient id="SVGID_1_" gradientUnits="userSpaceOnUse" x1="1798.1361" y1="35.4208" x2="1798.1361" y2="150.7121" gradientTransform="matrix(0.4306 0 0 0.4306 -699.2208 -15.2511)">
		<stop  offset="0" style="stop-color:#DC7D43"/>
		<stop  offset="1" style="stop-color:#F3C644"/>
	</linearGradient>
	<polygon fill-rule="evenodd" clip-rule="evenodd" fill="url(#SVGID_1_)" points="75,0 73.1,42.4 75,49.6 76.9,42.4 75,0 	"/>
	
		<linearGradient id="SVGID_2_" gradientUnits="userSpaceOnUse" x1="1123.7628" y1="-936.4737" x2="1173.6854" y2="-850.0052" gradientTransform="matrix(0.3941 0.2276 -0.2276 0.3941 -562.961 120.0536)">
		<stop  offset="0" style="stop-color:#DC7D43"/>
		<stop  offset="1" style="stop-color:#F3C644"/>
	</linearGradient>
	<polygon fill-rule="evenodd" clip-rule="evenodd" fill="url(#SVGID_2_)" points="106.2,6.7 82,44.5 79.9,52.1 85.5,46.5 106.2,6.7 
			"/>
	
		<linearGradient id="SVGID_3_" gradientUnits="userSpaceOnUse" x1="163.1953" y1="-1540.2666" x2="214.0933" y2="-1509.684" gradientTransform="matrix(0.226 0.3914 -0.3914 0.226 -533.4639 312.6593)">
		<stop  offset="0" style="stop-color:#DC7D43"/>
		<stop  offset="1" style="stop-color:#F3C644"/>
	</linearGradient>
	<polygon fill-rule="evenodd" clip-rule="evenodd" fill="url(#SVGID_3_)" points="128.6,28.9 89,49.4 83.5,54.9 91,52.9 128.6,28.9 
			"/>
	
		<linearGradient id="SVGID_4_" gradientUnits="userSpaceOnUse" x1="-884.0869" y1="-1196.755" x2="-875.0997" y2="-1196.755" gradientTransform="matrix(1.447315e-14 0.5477 -0.5477 1.447315e-14 -537.025 540.7073)">
		<stop  offset="0" style="stop-color:#DC7D43"/>
		<stop  offset="1" style="stop-color:#F3C644"/>
	</linearGradient>
	<polygon fill-rule="evenodd" clip-rule="evenodd" fill="url(#SVGID_4_)" points="150,59 96,56.5 86.9,59 96,61.4 150,59 	"/>
	
		<linearGradient id="SVGID_5_" gradientUnits="userSpaceOnUse" x1="1648.6027" y1="1223.0199" x2="1597.7046" y2="1307.7286" gradientTransform="matrix(0.3941 -0.2276 0.2276 0.3941 -870.7146 -99.9771)">
		<stop  offset="0" style="stop-color:#DC7D43"/>
		<stop  offset="1" style="stop-color:#F3C644"/>
	</linearGradient>
	<polygon fill-rule="evenodd" clip-rule="evenodd" fill="url(#SVGID_5_)" points="43.8,6.7 64.5,46.5 70.1,52.1 68,44.5 43.8,6.7 	
		"/>
	
		<linearGradient id="SVGID_6_" gradientUnits="userSpaceOnUse" x1="1043.0554" y1="2225.5535" x2="993.1328" y2="2254.3762" gradientTransform="matrix(0.226 -0.3914 0.3914 0.226 -1062.8114 -65.802)">
		<stop  offset="0" style="stop-color:#DC7D43"/>
		<stop  offset="1" style="stop-color:#F3C644"/>
	</linearGradient>
	<polygon fill-rule="evenodd" clip-rule="evenodd" fill="url(#SVGID_6_)" points="21.4,28.9 59,52.9 66.5,54.9 61,49.4 21.4,28.9 	
		"/>
	
		<linearGradient id="SVGID_7_" gradientUnits="userSpaceOnUse" x1="-82.864" y1="2390.6274" x2="-91.8511" y2="2390.6274" gradientTransform="matrix(1.447315e-14 -0.5477 0.5477 1.447315e-14 -1277.7551 11.1163)">
		<stop  offset="0" style="stop-color:#DC7D43"/>
		<stop  offset="1" style="stop-color:#F3C644"/>
	</linearGradient>
	<polygon fill-rule="evenodd" clip-rule="evenodd" fill="url(#SVGID_7_)" points="0,59 54,61.4 63.1,59 54,56.5 0,59 	"/>
	<polygon fill-rule="evenodd" clip-rule="evenodd" fill="#F3C644" points="84.7,22.6 77.4,45.7 77.4,50 79.5,46.3 84.7,22.6 	"/>
	<polygon fill-rule="evenodd" clip-rule="evenodd" fill="#F3C644" points="101.6,32.4 83.7,48.7 81.6,52.4 85.3,50.2 101.6,32.4 	
		"/>
	<polygon fill-rule="evenodd" clip-rule="evenodd" fill="#F3C644" points="111.3,49.2 87.7,54.4 84,56.5 88.3,56.6 111.3,49.2 	"/>
	<polygon fill-rule="evenodd" clip-rule="evenodd" fill="#F3C644" points="65.3,22.6 70.5,46.3 72.6,50 72.6,45.7 65.3,22.6 	"/>
	<polygon fill-rule="evenodd" clip-rule="evenodd" fill="#F3C644" points="48.4,32.4 64.7,50.2 68.4,52.4 66.3,48.7 48.4,32.4 	"/>
	<polygon fill-rule="evenodd" clip-rule="evenodd" fill="#F3C644" points="38.7,49.2 61.7,56.6 66,56.5 62.3,54.4 38.7,49.2 	"/>
	<path d="M20.5,66.4l-1.8,3.3l-0.4-0.2c0.1-0.4,0.2-0.6,0.2-0.7c0-0.3-0.3-0.5-0.9-0.8c-1.7-0.8-3.5-1.2-5.4-1.2
		c-1.6,0-2.9,0.3-4.1,0.9c-0.6,0.3-1,0.7-1.3,1.1c-0.3,0.5-0.5,0.9-0.5,1.4c0,0.4,0.1,0.8,0.4,1.2c0.3,0.4,0.6,0.7,1,0.8
		c0.5,0.2,1,0.4,1.6,0.4c0.6,0.1,1.6,0.1,3,0.2c1.9,0.1,3.3,0.2,4.2,0.3c0.8,0.1,1.5,0.3,2.1,0.6c1.4,0.8,2.2,2,2.2,3.7
		c0,1.6-0.7,2.9-2,3.9c-1.4,1.1-3.4,1.7-6,1.7c-1.5,0-2.7-0.1-3.8-0.4c-1.1-0.3-2.4-0.8-3.9-1.6c-0.4-0.2-0.7-0.3-0.8-0.3
		c-0.1,0-0.3,0.2-0.6,0.5l-0.3-0.2l1.9-3.2l0.4,0.2c-0.2,0.3-0.2,0.6-0.2,0.7c0,0.3,0.5,0.7,1.6,1.3c1,0.5,1.9,0.9,2.8,1.1
		c0.9,0.2,1.9,0.3,2.9,0.3c2.1,0,3.8-0.5,4.9-1.4c0.7-0.6,1.1-1.4,1.1-2.2c0-1.1-0.6-1.9-1.9-2.4C16.4,75.1,16,75,15.5,75
		c-0.4,0-1.7-0.1-3.7-0.2c-1.5-0.1-2.6-0.2-3.4-0.3c-0.8-0.2-1.6-0.4-2.2-0.8c-0.6-0.3-1.1-0.8-1.4-1.4c-0.4-0.6-0.5-1.3-0.5-2
		c0-1.2,0.5-2.3,1.4-3.2c0.7-0.6,1.6-1.1,2.8-1.5c1.2-0.4,2.5-0.6,3.9-0.6c1.2,0,2.2,0.1,3.2,0.3c1,0.2,2.1,0.6,3.4,1.2
		c0.3,0.1,0.5,0.2,0.5,0.2c0.2,0,0.4-0.2,0.6-0.5L20.5,66.4L20.5,66.4z M25.6,69.9v7.3c0,1.1,0.1,1.9,0.2,2.3
		c0.1,0.4,0.4,0.8,0.7,1.1c0.8,0.6,2.1,0.9,3.9,0.9c2,0,3.4-0.4,4.1-1.1c0.3-0.3,0.4-0.6,0.5-1c0.1-0.4,0.1-1.1,0.1-2.2v-7.3
		c0-0.3-0.1-0.6-0.2-0.7c-0.1-0.2-0.3-0.3-0.6-0.4v-0.3h3.1v0.3c-0.3,0.1-0.5,0.2-0.6,0.3c-0.1,0.1-0.2,0.4-0.2,0.8v7.7
		c0,1.3-0.1,2.2-0.3,2.8c-0.4,0.9-1.1,1.6-2,2c-1,0.4-2.4,0.7-4.1,0.7c-2.5,0-4.2-0.5-5.2-1.4c-0.5-0.4-0.8-0.9-1-1.5
		c-0.2-0.6-0.2-1.4-0.2-2.6v-7.7c0-0.4-0.1-0.6-0.2-0.8c-0.1-0.1-0.3-0.3-0.6-0.3v-0.3h3.4v0.3c-0.3,0.1-0.5,0.2-0.6,0.4
		C25.7,69.3,25.6,69.6,25.6,69.9L25.6,69.9z M42.6,70.7v10.6c0,0.3,0.1,0.6,0.2,0.7c0.1,0.2,0.3,0.3,0.7,0.4v0.3h-3.1v-0.3
		c0.3-0.1,0.5-0.2,0.7-0.4c0.1-0.1,0.2-0.4,0.2-0.7V69.9c0-0.4-0.1-0.6-0.2-0.8c-0.1-0.1-0.3-0.3-0.6-0.3v-0.3h4.6v0.3
		c-0.4,0.1-0.7,0.4-0.7,0.7c0,0.3,0.2,0.6,0.5,0.9l8.4,9.4v-9.9c0-0.4-0.1-0.6-0.2-0.8c-0.1-0.1-0.3-0.3-0.6-0.3v-0.3h3.1v0.3
		c-0.3,0.1-0.5,0.2-0.6,0.3c-0.1,0.1-0.2,0.4-0.2,0.8v11.4c0,0.3,0.1,0.6,0.2,0.7c0.1,0.2,0.3,0.3,0.7,0.4v0.3h-3.7v-0.3
		c0.4-0.1,0.7-0.3,0.7-0.5c0-0.2-0.2-0.5-0.6-1L42.6,70.7L42.6,70.7z M59.7,81.4V66.7c0-0.3-0.1-0.5-0.2-0.6
		c-0.1-0.1-0.3-0.2-0.6-0.3v-0.4h9.1c2.1,0,3.7,0.3,4.8,0.9c1.4,0.7,2.4,1.8,3.2,3.3c0.6,1.3,0.9,2.8,0.9,4.5c0,2-0.4,3.7-1.3,5.1
		c-0.8,1.3-1.7,2.2-2.9,2.7s-2.7,0.8-4.7,0.8h-9.1v-0.4c0.3-0.1,0.5-0.2,0.6-0.3C59.7,81.8,59.7,81.6,59.7,81.4L59.7,81.4z
		 M61.7,81.1H68c1.8,0,3.2-0.3,4.1-0.9c1-0.7,1.8-1.7,2.3-3.1c0.3-0.9,0.5-2,0.5-3.1c0-2-0.5-3.7-1.5-5c-0.6-0.7-1.3-1.2-2.1-1.6
		C70.4,67.1,69.4,67,68,67h-6.2V81.1L61.7,81.1z M82.6,76v5.3h8.8c0.4,0,0.6-0.1,0.8-0.2c0.1-0.1,0.3-0.3,0.3-0.6h0.4v3h-0.4
		c-0.1-0.3-0.2-0.5-0.3-0.6c-0.1-0.1-0.4-0.2-0.8-0.2H80v-0.3c0.3-0.1,0.5-0.2,0.7-0.4c0.1-0.1,0.2-0.4,0.2-0.7V69.9
		c0-0.4-0.1-0.6-0.2-0.8c-0.1-0.1-0.3-0.3-0.6-0.3v-0.3h11.3c0.4,0,0.6-0.1,0.8-0.2c0.1-0.1,0.3-0.3,0.3-0.6h0.3v3h-0.3
		c-0.1-0.3-0.2-0.5-0.3-0.6c-0.1-0.1-0.4-0.2-0.8-0.2h-8.7v4.8h5.6c0.4,0,0.6-0.1,0.8-0.2c0.1-0.1,0.3-0.3,0.3-0.6h0.3v3h-0.3
		c-0.1-0.3-0.2-0.5-0.4-0.6c-0.1-0.1-0.4-0.2-0.7-0.2H82.6L82.6,76z M110.7,69.5l-1.6,2.7l-0.3-0.2c0.1-0.2,0.1-0.4,0.1-0.5
		c0-0.2-0.2-0.4-0.5-0.6c-1.4-0.9-3-1.3-4.8-1.3c-1.8,0-3.3,0.5-4.5,1.5c-1.4,1.1-2,2.6-2,4.4c0,1.9,0.8,3.5,2.3,4.7
		c1.2,0.9,2.6,1.4,4.2,1.4c1.8,0,3.5-0.5,4.8-1.6c0.5-0.4,0.8-0.7,0.8-0.9c0-0.1-0.1-0.4-0.2-0.6l0.3-0.2l2,2.5l-0.3,0.2
		c-0.3-0.3-0.5-0.4-0.6-0.4c-0.1,0-0.2,0.1-0.3,0.2c-1,0.8-2.1,1.4-3.1,1.8c-1,0.4-2.2,0.5-3.5,0.5c-2.3,0-4.1-0.6-5.6-1.8
		C97,80.6,96.4,79.9,96,79c-0.6-1.1-0.8-2.2-0.8-3.4c0-2.3,0.9-4.2,2.7-5.6c1.5-1.2,3.4-1.8,5.7-1.8c2,0,4,0.5,5.8,1.5
		c0.2,0.1,0.3,0.1,0.4,0.1c0.2,0,0.4-0.1,0.6-0.4L110.7,69.5L110.7,69.5z M122,68.2c2.5,0,4.6,0.7,6.1,2c1.7,1.4,2.5,3.2,2.5,5.5
		c0,1.4-0.4,2.8-1.2,3.9c-1.5,2.3-4,3.4-7.4,3.4c-2.5,0-4.6-0.7-6.1-2c-1.7-1.4-2.5-3.2-2.5-5.4c0-1.5,0.4-2.9,1.2-4
		c0.9-1.3,2.1-2.2,3.6-2.8C119.3,68.4,120.6,68.2,122,68.2L122,68.2z M122,69.6c-2.1,0-3.7,0.6-5,1.9c-1.1,1.1-1.7,2.5-1.7,4
		c0,1.6,0.6,2.9,1.7,4c1.3,1.3,2.9,1.9,5,1.9s3.8-0.6,5-1.9c1.1-1.1,1.7-2.4,1.7-4c0-1.7-0.6-3-1.7-4.1
		C125.8,70.3,124.1,69.7,122,69.6L122,69.6z M136,76.3v5c0,0.4,0.1,0.6,0.2,0.7c0.1,0.2,0.3,0.3,0.6,0.4v0.3h-3.4v-0.3
		c0.3-0.1,0.5-0.2,0.7-0.4c0.1-0.1,0.2-0.4,0.2-0.7V69.9c0-0.4-0.1-0.6-0.2-0.8c-0.1-0.1-0.3-0.3-0.6-0.3v-0.3h8.4
		c1,0,1.7,0.1,2.3,0.2c0.6,0.1,1.1,0.4,1.6,0.7c1,0.7,1.5,1.7,1.5,3c0,1.1-0.3,2-1,2.6c-0.7,0.6-1.7,1-3,1.1l3.6,5.7
		c0.1,0.2,0.3,0.3,0.4,0.4c0.1,0.1,0.3,0.1,0.7,0.2v0.3h-3.5v-0.3c0.3-0.1,0.5-0.2,0.5-0.3c0-0.1-0.1-0.3-0.3-0.6l-3.3-5.2H136
		L136,76.3z M136,74.9h5.4c0.9,0,1.5,0,2-0.1s0.8-0.2,1.1-0.4c0.7-0.4,1-1,1-1.9c0-0.9-0.3-1.6-0.9-2c-0.6-0.4-1.6-0.6-2.9-0.6H136
		V74.9L136,74.9z"/>
	<path d="M48.8,99.2h-1.4c0-0.1-0.1-0.2-0.2-0.4c-0.3-1.1-0.7-1.8-1-2.2c-0.4-0.4-0.9-0.6-1.5-0.6c-0.1,0-0.2,0-0.3,0
		c0,1.2,0,2.2,0.1,3.2h-1.4c0.1-1,0.1-2,0.1-3.2c-0.1,0-0.3,0-0.4,0c-0.6,0-1.1,0.2-1.5,0.6c-0.4,0.4-0.7,1.1-1,2.2
		c0,0.1-0.1,0.2-0.2,0.4h-1.3c0.1-0.1,0.2-0.4,0.3-0.8c0.3-0.9,0.6-1.5,0.9-2c0.3-0.4,0.7-0.7,1.2-0.9v-0.1
		c-0.7-0.3-1.4-1.2-1.9-2.8c-0.1-0.2-0.2-0.4-0.3-0.6h1.3c0,0.1,0.1,0.2,0.2,0.3c0.5,1.8,1.2,2.7,2.4,2.7c0.1,0,0.2,0,0.3,0
		c0-1.2,0-2.2-0.1-3.1h1.3c-0.1,0.9-0.1,1.9-0.1,3.1c0.1,0,0.2,0,0.3,0c1.1,0,1.9-0.9,2.4-2.7c0-0.1,0.1-0.2,0.2-0.3h1.2
		c-0.1,0.1-0.1,0.3-0.3,0.6c-0.6,1.6-1.2,2.5-1.9,2.8v0.1c0.5,0.1,0.9,0.4,1.2,0.9c0.3,0.4,0.6,1.1,0.9,2
		C48.5,98.7,48.6,99,48.8,99.2L48.8,99.2z M60.3,99.2l-1.2,0C59.1,99,59,98.8,59,98.6H59c-0.6,0.6-1.5,0.8-2.5,0.8
		c-0.6,0-1.1-0.2-1.5-0.5c-0.4-0.3-0.6-0.8-0.6-1.5c0-0.8,0.3-1.4,1-1.9c0.7-0.5,1.9-0.7,3.7-0.7c0-0.1,0-0.3,0-0.4
		c0-0.6-0.2-1-0.5-1.2c-0.3-0.2-0.8-0.3-1.5-0.3c-0.8,0-1.6,0.1-2.3,0.3l0.1-1c0.8-0.2,1.6-0.3,2.6-0.3c0.9,0,1.6,0.2,2.1,0.6
		c0.5,0.4,0.7,1,0.7,1.9c0,0.2,0,0.7,0,1.3c0,0.6,0,1,0,1.2C60.1,97.7,60.2,98.5,60.3,99.2L60.3,99.2z M59,97.8c0-0.8,0-1.5,0-2.1
		c-0.9,0-1.7,0.1-2.2,0.2c-0.8,0.3-1.2,0.7-1.2,1.4c0,0.7,0.5,1,1.5,1C57.8,98.4,58.5,98.2,59,97.8L59,97.8z M72.3,99.2H71
		c0.1-0.9,0.1-2,0.1-3.3c0-1,0-2-0.1-2.9h-1.5c-0.1,0.6-0.3,1.1-0.5,1.7c-0.2,0.5-0.4,1-0.6,1.5c-0.2,0.5-0.4,0.9-0.6,1.3
		c-0.2,0.4-0.5,0.7-0.7,1c-0.2,0.3-0.5,0.5-0.7,0.7c-0.2,0.2-0.5,0.2-0.7,0.2l-0.1-1.2c0.1,0,0.3-0.1,0.4-0.2
		c0.2-0.2,0.3-0.4,0.5-0.6c0.2-0.3,0.4-0.6,0.6-1c0.2-0.4,0.4-0.8,0.6-1.2c0.2-0.4,0.4-0.9,0.5-1.4c0.2-0.5,0.3-1,0.5-1.6h2.5l1-0.1
		c-0.1,1.1-0.1,2.3-0.1,3.9C72.2,97,72.2,98.2,72.3,99.2L72.3,99.2z M88.4,95.4c0,1.3-0.3,2.3-1,3c-0.7,0.7-1.5,1.1-2.5,1.1
		c-0.9,0-1.7-0.3-2.3-0.9c-0.6-0.6-0.9-1.5-0.9-2.7h-1.8c0,1.1,0,2.2,0.1,3.3h-1.3c0.1-1,0.1-2.2,0.1-3.5c0-1.5-0.1-2.7-0.3-3.7
		l1.5-0.2c0,0.4-0.1,1.4-0.1,3h1.8c0.2-1,0.6-1.8,1.2-2.4c0.7-0.6,1.4-0.8,2.3-0.8c0.9,0,1.7,0.3,2.3,1
		C88.1,93.3,88.4,94.3,88.4,95.4L88.4,95.4z M87.1,95.7c0-0.8-0.2-1.5-0.6-2.1c-0.4-0.6-0.9-0.9-1.6-0.9c-0.7,0-1.2,0.3-1.6,0.8
		c-0.4,0.6-0.6,1.2-0.6,2c0,0.8,0.2,1.5,0.6,2.1c0.4,0.6,0.9,0.9,1.6,0.9c0.7,0,1.2-0.3,1.6-0.9C86.9,97.2,87.1,96.5,87.1,95.7
		L87.1,95.7z M99.5,97.1c0,0.8-0.3,1.3-0.9,1.7c-0.6,0.4-1.3,0.6-2.2,0.6c-0.9,0-1.7-0.1-2.4-0.3l0.1-1c0.6,0.3,1.4,0.4,2.3,0.4
		c1.3,0,1.9-0.4,1.9-1.2c0-0.8-0.8-1.3-2.3-1.3c-0.5,0-0.9,0-1.3,0l0.1-1c0.4,0,0.8,0,1.2,0c1.4,0,2-0.4,2-1.2c0-0.7-0.6-1-1.8-1
		c-0.8,0-1.5,0.1-2.1,0.3l0.1-1c0.6-0.2,1.4-0.3,2.2-0.3c1.8,0,2.8,0.6,2.8,1.7c0,0.8-0.4,1.4-1.2,1.8v0.1c0.3,0.1,0.7,0.2,0.9,0.5
		C99.3,96.1,99.5,96.6,99.5,97.1L99.5,97.1z M111.7,99.2h-1.4c0.1-0.9,0.1-2,0.1-3.5c0-0.4,0-1,0.1-1.8h-0.1
		c-0.1,0.3-0.8,1.3-2.1,2.7c-1.2,1.4-1.8,2.3-1.8,2.5h-1.1c0.1-1,0.1-2.2,0.1-3.5c0-1.5-0.1-2.7-0.3-3.7l1.5-0.2
		c-0.1,0.9-0.1,2.1-0.1,3.6c0,0.5,0,1.2,0,1.9h0.1c0.1-0.3,0.8-1.2,2.1-2.7c1.2-1.4,1.8-2.3,1.8-2.6l1.1-0.2
		c-0.1,1.1-0.1,2.3-0.1,3.9C111.6,97,111.6,98.2,111.7,99.2L111.7,99.2z"/>
	
		<linearGradient id="SVGID_8_" gradientUnits="userSpaceOnUse" x1="-124.1723" y1="4559.689" x2="-133.1595" y2="4559.689" gradientTransform="matrix(6.407521e-15 -0.5477 0.2425 1.447315e-14 -1084.8346 25.2789)">
		<stop  offset="0" style="stop-color:#DC7D43"/>
		<stop  offset="1" style="stop-color:#F3C644"/>
	</linearGradient>
	<polygon fill-rule="evenodd" clip-rule="evenodd" fill="url(#SVGID_8_)" points="6.8,95.7 30.7,98.2 34.7,95.7 30.7,93.3 6.8,95.7 
			"/>
	
		<linearGradient id="SVGID_9_" gradientUnits="userSpaceOnUse" x1="-124.1723" y1="-3543.3984" x2="-133.1595" y2="-3543.3984" gradientTransform="matrix(-6.407521e-15 -0.5477 -0.2425 1.447315e-14 -729.9456 25.2789)">
		<stop  offset="0" style="stop-color:#DC7D43"/>
		<stop  offset="1" style="stop-color:#F3C644"/>
	</linearGradient>
	<polygon fill-rule="evenodd" clip-rule="evenodd" fill="url(#SVGID_9_)" points="143.2,95.7 119.3,98.2 115.3,95.7 119.3,93.3 
		143.2,95.7 	"/>
</g>
</svg>
